<?xml version="1.0" encoding="UTF-8"?>
<svg width="202px" height="216px" viewBox="0 0 202 216" version="1.1" xmlns="http://www.w3.org/2000/svg" xmlns:xlink="http://www.w3.org/1999/xlink">
    <!-- Generator: Sketch 55.1 (78136) - https://sketchapp.com -->
    <title>Annotate</title>
    <desc>Created with Sketch.</desc>
    <defs>
        <path d="M20,0 L160,0 C171.045695,-2.02906125e-15 180,8.954305 180,20 L180,194 L0,194 L0,20 C-1.3527075e-15,8.954305 8.954305,2.02906125e-15 20,0 Z" id="path-1"></path>
        <filter x="-9.7%" y="-8.0%" width="119.4%" height="118.0%" filterUnits="objectBoundingBox" id="filter-2">
            <feOffset dx="0" dy="2" in="SourceAlpha" result="shadowOffsetOuter1"></feOffset>
            <feGaussianBlur stdDeviation="5.5" in="shadowOffsetOuter1" result="shadowBlurOuter1"></feGaussianBlur>
            <feColorMatrix values="0 0 0 0 0   0 0 0 0 0   0 0 0 0 0  0 0 0 0.2 0" type="matrix" in="shadowBlurOuter1"></feColorMatrix>
        </filter>
        <polygon id="path-3" points="8.06126328e-05 3.09302975e-05 60.1790516 3.09302975e-05 60.1790516 59.9751769 8.06126328e-05 59.9751769"></polygon>
        <polygon id="path-5" points="4.14574822e-05 0.124713929 26.8517267 0.124713929 26.8517267 20.4400785 4.14574822e-05 20.4400785"></polygon>
    </defs>
    <g id="----↳-PDF---Mobile" stroke="none" stroke-width="1" fill="none" fill-rule="evenodd">
        <g id="Mobile-page" transform="translate(-582.000000, -3192.000000)">
            <g id="Annotate" transform="translate(593.000000, 3201.000000)">
                <g id="Group-32-Copy-3">
                    <g id="Rectangle-2">
                        <g id="Rectangle">
                            <use fill="black" fill-opacity="1" filter="url(#filter-2)" xlink:href="#path-1"></use>
                            <use fill="#626870" fill-rule="evenodd" xlink:href="#path-1"></use>
                        </g>
                    </g>
                    <polygon id="Rectangle" fill="#FFFFFF" points="16 17 164 17 164 194 16 194"></polygon>
                </g>
                <rect id="Rectangle" fill="#F8E71C" x="35" y="93" width="109" height="25"></rect>
                <rect id="Rectangle-Copy-2" fill="#F8E71C" x="35" y="102" width="46" height="25"></rect>
                <polygon id="Line" fill="#969696" fill-rule="nonzero" points="39.1312997 63.4094595 39.1312997 61.4094595 139.848185 61.4094595 139.848185 63.4094595"></polygon>
                <polygon id="Line-Copy-9" fill="#969696" fill-rule="nonzero" points="40 43 40 37 113 37 113 43"></polygon>
                <polygon id="Line-Copy-3" fill="#969696" fill-rule="nonzero" points="39.1312997 89.4094595 39.1312997 87.4094595 139.848185 87.4094595 139.848185 89.4094595"></polygon>
                <polygon id="Line-Copy" fill="#969696" fill-rule="nonzero" points="39.1312997 72.4094595 39.1312997 70.4094595 139.848185 70.4094595 139.848185 72.4094595"></polygon>
                <polygon id="Line-Copy-4" fill="#969696" fill-rule="nonzero" points="39.1312997 98.4094595 39.1312997 96.4094595 139.848185 96.4094595 139.848185 98.4094595"></polygon>
                <polygon id="Line-Copy-6" fill="#969696" fill-rule="nonzero" points="39.1312997 107.409459 39.1312997 105.409459 139.848185 105.409459 139.848185 107.409459"></polygon>
                <polygon id="Line-Copy-7" fill="#969696" fill-rule="nonzero" points="39.1312997 115.409459 39.1312997 113.409459 139.848185 113.409459 139.848185 115.409459"></polygon>
                <polygon id="Line-Copy-8" fill="#969696" fill-rule="nonzero" points="39.1312997 124.409459 39.1312997 122.409459 139.848185 122.409459 139.848185 124.409459"></polygon>
                <polygon id="Line-Copy-2" fill="#969696" fill-rule="nonzero" points="39.1312997 80.4094595 39.1312997 78.4094595 139.848185 78.4094595 139.848185 80.4094595"></polygon>
                <polygon id="Line-Copy-5" fill="#969696" fill-rule="nonzero" points="39 133.148664 39 131.148664 86.5 131.148664 86.5 133.148664"></polygon>
                <g id="Group-11" transform="translate(81.000000, 93.000000)">
                    <g id="Group-3" transform="translate(30.132450, 30.335287) scale(-1, 1) translate(-30.132450, -30.335287) translate(0.000000, 0.302836)">
                        <mask id="mask-4" fill="white">
                            <use xlink:href="#path-3"></use>
                        </mask>
                        <g id="Clip-2"></g>
                        <path d="M58.4351408,15.5555325 C58.1463241,17.848677 56.7630741,19.9290202 55.2501976,21.5988245 C51.9519262,25.2402831 47.3329437,27.8543458 42.8991147,29.8292417 C38.2657293,31.8929955 33.3080884,33.2271991 28.3059122,33.9969833 C27.9780559,34.0475141 27.6492522,34.095566 27.3195008,34.1422832 C28.27957,32.6467624 29.3046418,31.1922383 30.3983171,29.7882451 C31.0718437,28.9231198 30.0518887,27.8614011 29.192261,28.5745526 C28.5615642,29.0977847 27.9312464,29.6208261 27.3005496,30.1438674 C26.8948038,30.4804216 26.9618912,30.9325291 27.2336518,31.2359046 C26.5091464,32.2749321 25.8166685,33.3341719 25.1577344,34.4134333 C20.7149983,34.9019612 16.1625347,34.9545895 11.7882125,34.1657371 C7.47927215,33.3883256 1.67924924,31.5221186 1.68946938,26.1631851 C1.698769,21.3242421 5.5858551,16.8228066 8.94116977,13.7469115 C14.4211065,8.72357871 21.173618,5.83169195 28.2600502,4.03927896 C32.5820669,3.65276607 36.9590422,3.8241894 41.2319753,4.56537124 C43.9427588,5.03578431 46.6163978,5.72452854 49.2168851,6.6275996 C51.4351262,7.39795582 53.7397849,8.25297496 55.6515846,9.65410801 C57.5539087,11.0479951 58.7387394,13.1468345 58.4351408,15.5555325 M59.4924297,11.6002109 C58.4838454,9.39725904 56.4191093,7.91317922 54.3160917,6.86747785 C51.8001268,5.61641171 49.0885853,4.69293766 46.3842453,3.95595082 C43.3533756,3.1297247 40.2421527,2.58151328 37.1078094,2.31455816 C38.6303509,2.09050653 40.1509973,1.89581997 41.6600835,1.7226805 C42.7382188,1.59911842 42.7505371,-0.118547145 41.6600835,0.00654040061 C37.1159584,0.527865627 32.5225601,1.22442783 28.0597357,2.34106299 C26.8544377,2.45318414 25.653688,2.60725538 24.4582446,2.7960308 C24.007774,2.86715527 23.8279268,3.19608212 23.8451724,3.54274242 C18.7275832,5.19729216 13.8696258,7.53963272 9.56409659,10.9711502 C5.6523739,14.0884234 1.74595756,18.37496 0.392460952,23.3244987 C-0.278601983,25.7791511 -0.160725353,28.4959916 1.30988983,30.6442176 C2.64765692,32.5979478 4.71277209,33.8249879 6.88230851,34.6466377 C12.2714688,36.6875096 18.4220894,36.7143958 24.1002559,36.2136643 C22.0053874,39.9191921 20.2925755,43.8365679 18.9999123,47.9144982 C18.8280247,48.0803917 18.7774249,48.2994856 18.8155169,48.5147658 C18.7188656,48.831489 18.6206983,49.1476402 18.5289743,49.4662702 C18.222912,50.5289423 19.868068,50.982766 20.1735618,49.9223821 C20.2525884,49.648181 20.3374899,49.3756961 20.4203068,49.1028299 C22.5291993,48.2258823 24.7565369,47.728011 27.0255673,47.5945334 C26.147936,49.3680688 25.1433315,51.0742935 24.0020886,52.6920415 C23.2535151,53.7526161 22.4471404,54.7695245 21.5888394,55.7421945 C20.8533423,56.5756666 19.9899244,57.7762019 18.9051562,58.1569944 C17.5145152,58.6451409 17.4379522,56.3380765 17.2637905,55.4279502 C16.9994208,54.0470295 16.7714376,52.6584815 16.5879897,51.2645943 C16.3126284,49.1745264 16.1325917,47.0733988 16.035751,44.9680763 C16.0725163,44.8675868 16.090899,44.7520333 16.082371,44.6195092 C16.0427629,44.0011267 16.0031549,43.3829349 15.9635468,42.7643617 C15.8936168,41.6728966 14.236711,41.6502054 14.2579364,42.7643617 C14.3233181,46.1798619 14.6102397,49.5835398 15.1194592,52.9610942 C15.3531278,54.5107687 15.5850908,56.0972449 15.9741595,57.6166009 C16.276242,58.7950171 16.9958201,59.9251907 18.331313,59.9734333 C19.6031299,60.0195784 20.7197361,59.1418681 21.5662874,58.2815099 C22.603109,57.2277998 23.5627992,56.0959101 24.4650671,54.9245491 C26.3200131,52.5162325 27.8787515,49.9059834 29.1291534,47.1315569 C29.3891643,46.5545525 29.0885978,45.8440705 28.3928983,45.8402568 C25.8822398,45.8272904 23.436584,46.2403082 21.0843577,47.0413642 C22.4039317,43.196257 24.1103001,39.4937801 26.1746572,36.0010536 C31.1406366,35.4230957 36.0537421,34.319427 40.7381063,32.5537095 C45.7942936,30.6474592 50.7661479,28.0051755 54.8414197,24.4028067 C58.300208,21.3455985 61.6621556,16.3398085 59.4924297,11.6002109" id="Fill-1" fill="#0D56CC" mask="url(#mask-4)"></path>
                    </g>
                    <g id="Group-8" transform="translate(44.202021, 73.515590) rotate(5.000000) translate(-44.202021, -73.515590) translate(20.285706, 58.710860)">
                        <g id="Group-3" transform="translate(0.000000, 9.005287)">
                            <mask id="mask-6" fill="white">
                                <use xlink:href="#path-5"></use>
                            </mask>
                            <g id="Clip-2"></g>
                            <path d="M25.2151422,0.496120821 C24.3304284,1.71106381 23.2900687,2.81024335 22.1255719,3.75717297 C21.5701819,4.20895602 20.9686676,4.69359601 20.318941,4.99714072 C19.7138202,5.28024536 19.3260343,5.34653235 18.9194569,4.80038109 C16.9746429,2.18882676 14.6775377,6.46863535 13.6662192,7.99495523 C12.8682495,9.19939163 12.1086217,10.4305721 11.2666156,11.6050169 C10.8475106,12.189756 10.1167343,12.800284 9.80677127,13.4295327 C9.79386405,13.4434778 9.78095684,13.4574229 9.76804962,13.471368 C9.79879917,13.1842518 9.75647109,12.820151 9.77051718,12.5804098 C9.97209755,9.16577057 10.1736779,5.75132231 10.3750685,2.33668303 C10.4221419,1.54047511 9.4347397,1.2728438 8.9171223,1.72882948 C7.84126773,2.6757591 7.17066183,3.91400759 6.57104564,5.19963122 C5.86589396,6.71257909 5.17896423,8.23469634 4.48311334,9.75203786 C3.62155654,11.6304238 2.76018956,13.5090007 1.89882258,15.3875776 C2.02125134,10.881591 2.07629683,6.37407611 2.06263036,1.86598814 C2.05959337,0.830230142 0.731098987,0.785720438 0.384881848,1.63751773 C0.278776925,1.89865406 0.172672001,2.15998142 0.0665670781,2.42111775 C-0.101036942,2.83354886 0.0675161382,3.15199382 0.35508136,3.319144 C0.353942488,8.74187772 0.255430045,14.1638473 0.0572662887,19.5829515 C0.0274658004,20.3997905 1.28876672,20.8022882 1.64902995,20.0169689 C3.03332907,16.9983322 4.41743837,13.9798866 5.80154768,10.961441 C6.48069511,9.48058598 7.15889349,7.99953992 7.83861036,6.51906694 C8.05309795,6.05219263 8.26644667,5.58627345 8.50162377,5.13563658 L8.10624532,11.8352066 C8.0475934,12.8293203 7.70896874,14.2725427 8.457967,15.104664 C9.21474756,15.9455727 10.2632692,15.4425939 10.9059727,14.7627225 C12.75664,12.8056328 14.075454,10.4080307 15.5888253,8.19629955 C15.969778,7.63983274 16.3613602,7.08966988 16.7831225,6.5639587 C16.9833742,6.3142841 17.2039358,6.08065591 17.4024792,5.83021719 C17.4326593,5.79220247 17.4635987,5.76507638 17.4918806,5.74425425 C17.5393337,5.84397127 17.6310129,5.97272466 17.6397442,5.98838902 C18.1444544,6.90437197 19.3007893,7.08565828 20.2255535,6.85241215 C21.537724,6.52174135 22.6883645,5.53603289 23.6947479,4.66914432 C24.8284951,3.69260525 25.8094437,2.57355871 26.6901715,1.36396453 C27.3406573,0.470522966 25.8591744,-0.38815136 25.2151422,0.496120821" id="Fill-1" fill="#0D56CC" mask="url(#mask-6)"></path>
                        </g>
                        <path d="M41.2935497,2.13188108 C41.7069602,1.91544549 42.6596268,1.49671042 43.1216293,1.76052115 C43.5576275,2.00943164 42.8342539,3.59745382 42.6750016,4.00491818 C42.1482732,5.35109793 41.4389457,6.63118173 40.6134532,7.81403188 C40.3220917,8.23142974 40.0109898,8.63488251 39.6843233,9.02534532 C39.1486737,9.07749617 38.6862916,8.95332747 38.4389666,8.48836344 C37.3054091,6.35801059 39.4611043,3.09046346 41.2935497,2.13188108 M46.5995551,5.47622178 C45.3435689,6.40901527 44.0129866,7.22661841 42.602873,7.90075894 C43.4412727,6.56508577 44.1207998,5.12721221 44.6236119,3.63126591 C44.9221862,2.74317315 45.3088333,1.67417615 44.6877683,0.831357212 C44.1815397,0.144799808 43.2892333,-0.0540611422 42.482722,0.0120348126 C38.9339963,0.303926775 36.087765,4.52910113 36.5406565,7.9595958 C36.7090198,9.23452182 37.3676675,10.1159286 38.3026815,10.5023798 C38.1132491,10.6844302 37.9213492,10.8639972 37.7250835,11.0378334 C36.9595716,11.7161766 35.1485751,13.511465 34.0357072,13.0550972 C32.5770017,12.4569862 32.2017433,9.84485874 32.0931709,8.50230854 C31.9432194,6.64550889 32.2383771,4.77419105 32.981681,3.06582075 C33.4184384,2.06196455 31.9470156,1.18590661 31.5064619,2.19816807 C30.6198499,4.23625403 30.1887868,6.43747855 30.3979596,8.66449197 C30.5758135,10.5598794 31.0609731,12.8394258 32.5813674,14.1307803 C34.2858794,15.5787783 36.1145285,14.4534278 37.6242933,13.3179528 C38.7204578,12.4932816 39.7181098,11.5629715 40.6212355,10.5409676 C43.0732272,9.81181077 45.4166465,8.47957612 47.4616813,6.96070636 C48.3367147,6.31082648 47.4857874,4.81812766 46.5995551,5.47622178" id="Fill-4" fill="#0D56CC"></path>
                        <path d="M14.6425743,7.01392697 C14.7779103,7.11918383 14.9830971,7.2206201 15.1601917,7.1986518 C15.3968873,7.16904234 15.6335829,7.13924185 15.8704683,7.10982342 C16.1052658,7.08040499 16.300013,7.03341191 16.4742604,6.8580475 C16.6225036,6.70885403 16.7341131,6.46414617 16.7246225,6.25019395 C16.7157013,6.05018682 16.6519245,5.84674118 16.518107,5.69449125 C16.4790057,5.54644396 16.4061179,5.40183518 16.3011518,5.30498359 C16.1384829,5.15464395 15.9249444,5.04308314 15.6973598,5.05320767 C15.4562985,5.06409631 15.2812918,5.15579012 15.0933779,5.30498359 C14.9143852,5.44710899 14.7350128,5.58904337 14.5560201,5.73097775 C14.4535216,5.812356 14.3700043,5.98676527 14.3364075,6.11055192 C14.2851583,6.29756908 14.3052784,6.49337357 14.3793051,6.67007519 C14.4387162,6.81124545 14.5216641,6.92032288 14.6425743,7.01392697" id="Fill-6" fill="#0D56CC"></path>
                    </g>
                </g>
            </g>
        </g>
    </g>
</svg>