<?xml version="1.0" encoding="UTF-8"?>
<svg width="100px" height="100px" viewBox="0 0 100 100" version="1.1" xmlns="http://www.w3.org/2000/svg" xmlns:xlink="http://www.w3.org/1999/xlink">
    <!-- Generator: Sketch 55.1 (78136) - https://sketchapp.com -->
    <title>train</title>
    <desc>Created with Sketch.</desc>
    <g id="----↳-PDF---Mobile" stroke="none" stroke-width="1" fill="none" fill-rule="evenodd">
        <g id="Mobile-page" transform="translate(-233.000000, -1104.000000)">
            <g id="train" transform="translate(233.000000, 1104.000000)">
                <path d="M34.375,46.09375 L65.625,46.09375 C66.7030334,46.09375 67.578125,45.2194215 67.578125,44.140625 L67.578125,30.46875 C67.578125,27.2377014 64.9490355,24.609375 61.71875,24.609375 L38.28125,24.609375 C35.0502014,24.609375 32.421875,27.2377014 32.421875,30.46875 L32.421875,44.140625 C32.421875,45.2194215 33.2962035,46.09375 34.375,46.09375 Z" id="Path" fill="#D6BF2D" fill-rule="nonzero"></path>
                <path d="M36.328125,30.46875 C36.328125,29.3914795 37.2039795,28.515625 38.28125,28.515625 L61.71875,28.515625 C62.7952576,28.515625 63.671875,29.3914795 63.671875,30.46875 L63.671875,42.1875 L36.328125,42.1875 L36.328125,30.46875 Z" id="Path" fill="#FBEFA8" fill-rule="nonzero"></path>
                <path d="M61.71875,53.453125 C59.3161285,53.453125 57.359375,55.4098785 57.359375,57.8125 C57.359375,60.214652 59.3164221,62.171875 61.71875,62.171875 C64.1206084,62.171875 66.078125,60.2143584 66.078125,57.8125 C66.078125,55.4101721 64.120902,53.453125 61.71875,53.453125 Z" id="Path" stroke="#DABE00" stroke-width="3" fill="#FBEFA8" fill-rule="nonzero"></path>
                <path d="M38.28125,53.453125 C35.8786285,53.453125 33.921875,55.4098785 33.921875,57.8125 C33.921875,60.214652 35.8789221,62.171875 38.28125,62.171875 C40.6835779,62.171875 42.640625,60.214652 42.640625,57.8125 C42.640625,55.4098785 40.6838715,53.453125 38.28125,53.453125 Z" id="Path" stroke="#D9BF00" stroke-width="3" fill="#FBEFA8" fill-rule="nonzero"></path>
                <path d="M51.953125,92.1875 C51.953125,93.2655334 51.0787965,94.140625 50,94.140625 C48.9212035,94.140625 48.046875,93.2655334 48.046875,92.1875 C48.046875,91.1087035 48.9212035,90.234375 50,90.234375 C51.0787965,90.234375 51.953125,91.1087035 51.953125,92.1875 Z" id="Path" fill="#FFAFA2" fill-rule="nonzero"></path>
                <path d="M94.6333369,27.4230957 C98.0663061,34.2034404 100,41.8740366 100,50 C100,67.6147461 90.7104492,83.9126586 75.6484984,92.9283143 L77.7778625,97.1702576 C78.2623291,98.13385 77.8732301,99.3080139 76.9096375,99.7917176 C75.9483338,100.274658 74.773407,99.8901367 74.2874145,98.9227295 L71.8864441,94.140625 L58.7112426,94.140625 C57.6324463,94.140625 56.7581176,93.2655334 56.7581176,92.1875 C56.7581176,91.1087035 57.6324463,90.234375 58.7112426,90.234375 L69.9256896,90.234375 L65.7104492,81.8359375 L34.2803955,81.8359375 L30.0575256,90.234375 L41.2887574,90.234375 C42.3675537,90.234375 43.2418824,91.1087035 43.2418824,92.1875 C43.2418824,93.2655334 42.3675537,94.140625 41.2887574,94.140625 L28.0937195,94.140625 L25.6881715,98.9234924 C25.2044678,99.885559 24.0310668,100.276947 23.0659484,99.7917176 C22.1023559,99.3064881 21.7140197,98.1330871 22.1984863,97.1694945 L24.3354797,92.919159 C9.28344727,83.9027404 0,67.6086426 0,50 C0,22.3617555 22.3670959,2.13162821e-14 50,2.13162821e-14 C58.5734035,2.13162821e-14 66.6389606,2.15214353 73.6868056,5.94601814 L70.7228662,8.80826116 C64.4944199,5.67184809 57.4550696,3.90625 50,3.90625 C24.520874,3.90625 3.90625,24.5254516 3.90625,50 C3.90625,66.1361695 12.3626709,81.0752869 26.0955811,89.4187928 L29.9079895,81.8359375 L26.5625,81.8359375 C25.4837035,81.8359375 24.609375,80.9608459 24.609375,79.8828125 C24.609375,78.804016 25.4837035,77.9296875 26.5625,77.9296875 L31.8717957,77.9296875 L35.1127625,71.484375 L32.421875,71.484375 C28.1135559,71.484375 24.609375,67.9794313 24.609375,63.671875 L24.609375,32.421875 C24.609375,21.6522217 33.3709717,12.890625 44.140625,12.890625 L55.8586121,12.890625 C66.6290283,12.890625 75.3898621,21.6522217 75.3898621,32.421875 L75.3898621,63.671875 C75.3898621,67.9794313 71.8856812,71.484375 67.5773621,71.484375 L64.8841857,71.484375 L68.1198121,77.9296875 L73.4375,77.9296875 C74.5155334,77.9296875 75.390625,78.804016 75.390625,79.8828125 C75.390625,80.9608459 74.5155334,81.8359375 73.4375,81.8359375 L70.0805664,81.8359375 L73.891449,89.4264221 C87.6296996,81.0867309 96.09375,66.142273 96.09375,50 C96.09375,42.9399708 94.5105643,36.2534345 91.6796148,30.275472 L94.6333369,27.4230957 Z M36.2449646,77.9296875 L63.7489318,77.9296875 L60.5140686,71.484375 L39.4851684,71.484375 L36.2449646,77.9296875 Z M32.421875,67.578125 L67.578125,67.578125 C69.7319031,67.578125 71.484375,65.8256531 71.484375,63.671875 L71.484375,32.421875 C71.484375,23.8059998 64.4744873,16.796875 55.859375,16.796875 L44.140625,16.796875 C35.5247498,16.796875 28.515625,23.8059998 28.515625,32.421875 L28.515625,63.671875 C28.515625,65.8256531 30.2680969,67.578125 32.421875,67.578125 Z" id="Combined-Shape" fill="#E5322D" fill-rule="nonzero"></path>
                <g id="wifi-signal" transform="translate(78.000000, 0.000000)" fill="#FFAFA2">
                    <path d="M3,22 C1.34578125,22 0,20.6542188 0,19.0000156 C0,17.3457969 1.34578125,16.0000156 3,16.0000156 C4.65420313,16.0000156 5.99998438,17.3457969 5.99998438,19.0000156 C5.99998438,20.6542188 4.65420313,22 3,22 Z" id="Path"></path>
                    <path d="M12.4999961,20.5000078 C11.6716016,20.5000078 10.9999961,19.8284023 10.9999961,19.0000078 C10.9999961,14.588793 7.41125,11.0000078 2.99999609,11.0000078 C2.17159766,11.0000078 1.49999609,10.3283984 1.49999609,9.50000781 C1.49999609,8.67160938 2.17159766,8.00000781 2.99999609,8.00000781 C5.93823828,8.00000781 8.70052734,9.14422266 10.7781523,11.2218477 C12.8558203,13.2994297 13.9999961,16.0618047 13.9999961,19.0000078 C13.9999961,19.8284023 13.3283906,20.5000078 12.4999961,20.5000078 Z" id="Path"></path>
                    <path d="M20.4999961,20.5 C19.6716094,20.5 19.0000078,19.8284023 19.0000078,19 C19.0000078,10.1775781 11.8224219,3 2.99999609,3 C2.17159766,3 1.49999609,2.32839063 1.49999609,1.5 C1.49999609,0.671601563 2.17159766,0 2.99999609,0 C5.56428125,0 8.05273047,0.5025625 10.3960742,1.49376563 C12.6587656,2.45080859 14.6905859,3.82056641 16.4349883,5.56501172 C18.1794766,7.30945703 19.5491914,9.34119141 20.5062344,11.6039258 C21.4973945,13.9472695 21.9999961,16.4356328 21.9999961,19 C21.9999961,19.8284023 21.3283984,20.5 20.4999961,20.5 Z" id="Path"></path>
                </g>
            </g>
        </g>
    </g>
</svg>