<?xml version="1.0" encoding="UTF-8"?>
<svg width="100px" height="99px" viewBox="0 0 100 99" version="1.1" xmlns="http://www.w3.org/2000/svg" xmlns:xlink="http://www.w3.org/1999/xlink">
    <!-- Generator: Sketch 55.1 (78136) - https://sketchapp.com -->
    <title>organized</title>
    <desc>Created with Sketch.</desc>
    <g id="----↳-PDF---Mobile" stroke="none" stroke-width="1" fill="none" fill-rule="evenodd">
        <g id="Mobile-page" transform="translate(-634.000000, -1104.000000)" fill-rule="nonzero">
            <g id="organized" transform="translate(634.000000, 1104.000000)">
                <path d="M99.6914583,63.035 C99.3789583,62.595 98.8727083,62.3335417 98.333125,62.3333333 L83.333125,62.3333333 L83.333125,14 C83.333125,13.0795833 82.586875,12.3333333 81.6664583,12.3333333 L76.6664583,12.3333333 L76.6664583,7.33333333 C76.6664583,6.41291667 75.9202083,5.66666667 74.9997917,5.66666667 L34.9997917,5.66666667 C34.9997917,1.98479167 32.015,-2.84217094e-14 28.333125,-2.84217094e-14 C24.65125,-2.84217094e-14 21.6664583,1.98479167 21.6664583,5.66666667 L16.6664583,5.66666667 C15.7460417,5.66666667 14.9997917,6.41291667 14.9997917,7.33333333 L14.9997917,62.3333333 L1.66645833,62.3333333 C0.746041667,62.3335417 8.95283847e-13,63.0797917 8.95283847e-13,64.0002083 C8.95283847e-13,64.2810417 0.0710416667,64.5572917 0.206458333,64.8033333 L18.5397917,98.1366667 C18.8327083,98.6691667 19.3920833,99.0006558 19.9997917,99.0006558 L86.6664583,99.0006558 C87.38,99.0204167 88.0195833,98.5622917 88.2297917,97.88 L88.2397917,97.88 L99.9064583,64.5466667 C100.083333,64.0377083 100.003333,63.4745833 99.6914583,63.035 Z M76.6664583,75.6666667 L76.6664583,15.6666667 L79.9997917,15.6666667 L79.9997917,81.755 L76.6514583,75.6666667 L76.6664583,75.6666667 Z M28.333125,3.33333333 C30.1741667,3.33333333 31.6664583,3.825625 31.6664583,5.66666667 L24.9997917,5.66666667 C24.9997917,3.825625 26.4922917,3.33333333 28.333125,3.33333333 Z M18.333125,9 L31.6664583,9 L31.6664583,14 C31.6664583,14.9204167 30.9202083,15.6666667 29.9997917,15.6666667 C29.079375,15.6666667 28.333125,14.9204167 28.333125,14 L28.333125,12.3333333 L24.9997917,12.3333333 L24.9997917,14 C24.9997917,16.7614583 27.2383333,19 29.9997917,19 C32.76125,19 34.9997917,16.7614583 34.9997917,14 L34.9997917,9 L73.333125,9 L73.333125,69.6333333 L69.793125,63.1966667 C69.5002083,62.6641667 68.9408333,62.3335417 68.333125,62.3333333 L18.333125,62.3333333 L18.333125,9 Z M86.333125,93.2583333 L83.333125,87.815 L83.333125,65.6666667 L95.983125,65.6666667 L86.333125,93.2583333 Z" id="Shape" fill="#E5322D"></path>
                <polygon id="Path" fill="#C2E5C3" points="20.9847917 95.6666667 4.48479167 65.6666667 67.348125 65.6666667 83.848125 95.6666667"></polygon>
                <path d="M83.333125,5.66666667 L79.9997917,5.66666667 L79.9997917,9 L83.333125,9 C85.1741667,9 86.6664583,10.4922917 86.6664583,12.3333333 L86.6664583,35.6666667 L89.9997917,35.6666667 L89.9997917,12.3333333 C89.9997917,8.65145833 87.015,5.66666667 83.333125,5.66666667 Z" id="Path" fill="#5EA162"></path>
                <rect id="Rectangle" fill="#FFAFA2" x="25.833125" y="46.3333333" width="40" height="3.33333333" rx="1.66666667"></rect>
                <rect id="Rectangle-Copy-11" fill="#FFAFA2" x="25.833125" y="54" width="24" height="3.33333333" rx="1.66666667"></rect>
                <rect id="Rectangle-Copy" fill="#FFAFA2" x="25.833125" y="39" width="40" height="3.33333333" rx="1.66666667"></rect>
                <path d="M53.6504729,15.068224 L41.6121428,26.8039913 L38.3446866,23.6186572 C37.1529143,22.4568378 35.2208464,22.4568378 34.0290738,23.6186572 C32.8380948,24.7804764 32.8380948,26.6639851 34.0290738,27.8250309 L39.4547331,33.1143255 C40.0506194,33.6952352 40.8313811,33.9853032 41.6121428,33.9853032 C42.3929045,33.9853032 43.1736662,33.6952352 43.7695525,33.1143255 L57.9660855,19.2745978 C59.1570647,18.1127784 59.1570647,16.2292697 57.9660855,15.068224 C56.7743132,13.9056313 54.8422452,13.9056313 53.6504729,15.068224 Z" id="Path" fill="#5EA162"></path>
            </g>
        </g>
    </g>
</svg>