<?xml version="1.0" encoding="UTF-8"?>
<svg width="202px" height="216px" viewBox="0 0 202 216" version="1.1" xmlns="http://www.w3.org/2000/svg" xmlns:xlink="http://www.w3.org/1999/xlink">
    <!-- Generator: Sketch 55.1 (78136) - https://sketchapp.com -->
    <title>Read PDF Copy</title>
    <desc>Created with Sketch.</desc>
    <defs>
        <path d="M20,0 L160,0 C171.045695,-2.02906125e-15 180,8.954305 180,20 L180,194 L0,194 L0,20 C-1.3527075e-15,8.954305 8.954305,2.02906125e-15 20,0 Z" id="path-1"></path>
        <filter x="-9.7%" y="-8.0%" width="119.4%" height="118.0%" filterUnits="objectBoundingBox" id="filter-2">
            <feOffset dx="0" dy="2" in="SourceAlpha" result="shadowOffsetOuter1"></feOffset>
            <feGaussianBlur stdDeviation="5.5" in="shadowOffsetOuter1" result="shadowBlurOuter1"></feGaussianBlur>
            <feColorMatrix values="0 0 0 0 0   0 0 0 0 0   0 0 0 0 0  0 0 0 0.2 0" type="matrix" in="shadowBlurOuter1"></feColorMatrix>
        </filter>
    </defs>
    <g id="----↳-PDF---Mobile" stroke="none" stroke-width="1" fill="none" fill-rule="evenodd">
        <g id="Mobile-page" transform="translate(-182.000000, -3192.000000)">
            <g id="Read-PDF-Copy" transform="translate(193.000000, 3201.000000)">
                <g id="Group-32">
                    <g id="Rectangle-2">
                        <g id="Rectangle">
                            <use fill="black" fill-opacity="1" filter="url(#filter-2)" xlink:href="#path-1"></use>
                            <use fill="#FF6A58" fill-rule="evenodd" xlink:href="#path-1"></use>
                        </g>
                    </g>
                    <polygon id="Rectangle" fill="#FFFFFF" points="16 17 164 17 164 194 16 194"></polygon>
                </g>
                <path d="M64.541,37.199 C64.4943331,37.1476664 64.4266671,37.0928336 64.338,37.0345 C64.2493329,36.9761664 64.1455006,36.9213336 64.0265,36.87 C63.9074994,36.8186664 63.776834,36.7766668 63.6345,36.744 C63.492166,36.7113332 63.3463341,36.695 63.197,36.695 C62.865665,36.695 62.6218341,36.7556661 62.4655,36.877 C62.3091659,36.9983339 62.231,37.1663323 62.231,37.381 C62.231,37.5023339 62.2554998,37.6014996 62.3045,37.6785 C62.3535002,37.7555004 62.4293328,37.8231664 62.532,37.8815 C62.6346672,37.9398336 62.7629992,37.9911664 62.917,38.0355 C63.0710008,38.0798336 63.2506656,38.1276664 63.456,38.179 C63.7080013,38.239667 63.935499,38.307333 64.1385,38.382 C64.341501,38.456667 64.5129993,38.5476661 64.653,38.655 C64.7930007,38.7623339 64.9014996,38.8941659 64.9785,39.0505 C65.0555004,39.2068341 65.094,39.3969989 65.094,39.621 C65.094,39.8730013 65.0461671,40.0899991 64.9505,40.272 C64.8548329,40.4540009 64.7241675,40.6021661 64.5585,40.7165 C64.3928325,40.8308339 64.2003344,40.9148331 63.981,40.9685 C63.7616656,41.0221669 63.5260013,41.049 63.274,41.049 C62.8959981,41.049 62.5308351,40.9918339 62.1785,40.8775 C61.8261649,40.7631661 61.5076681,40.5963344 61.223,40.377 L61.58,39.705 C61.640667,39.765667 61.7281661,39.833333 61.8425,39.908 C61.9568339,39.982667 62.0898326,40.0514997 62.2415,40.1145 C62.3931674,40.1775003 62.5576658,40.2311664 62.735,40.2755 C62.9123342,40.3198336 63.0966657,40.342 63.288,40.342 C63.5960015,40.342 63.8339992,40.2883339 64.002,40.181 C64.1700008,40.0736661 64.254,39.9150011 64.254,39.705 C64.254,39.5789994 64.2225003,39.4740004 64.1595,39.39 C64.0964997,39.3059996 64.0066672,39.2325003 63.89,39.1695 C63.7733328,39.1064997 63.6310008,39.0493336 63.463,38.998 C63.2949992,38.9466664 63.1036677,38.8930003 62.889,38.837 C62.6416654,38.7716663 62.4258343,38.7028337 62.2415,38.6305 C62.0571657,38.5581663 61.9043339,38.4706672 61.783,38.368 C61.6616661,38.2653328 61.5695003,38.1451674 61.5065,38.0075 C61.4434997,37.8698326 61.412,37.703001 61.412,37.507 C61.412,37.2643321 61.4586662,37.0485009 61.552,36.8595 C61.6453338,36.6704991 61.7724992,36.511834 61.9335,36.3835 C62.0945008,36.255166 62.2846656,36.1583337 62.504,36.093 C62.7233344,36.0276663 62.961332,35.995 63.218,35.995 C63.5540017,35.995 63.8643319,36.0486661 64.149,36.156 C64.4336681,36.2633339 64.6833323,36.3963325 64.898,36.555 L64.541,37.199 Z M67.439,41.07 C67.1543319,41.07 66.8953345,41.0198338 66.662,40.9195 C66.4286655,40.8191662 66.2291675,40.6826675 66.0635,40.51 C65.8978325,40.3373325 65.7695005,40.1366678 65.6785,39.908 C65.5874995,39.6793322 65.542,39.436668 65.542,39.18 C65.542,38.923332 65.5874995,38.6795012 65.6785,38.4485 C65.7695005,38.2174988 65.8978325,38.0145009 66.0635,37.8395 C66.2291675,37.6644991 66.4286655,37.5268338 66.662,37.4265 C66.8953345,37.3261662 67.1566652,37.276 67.446,37.276 C67.7306681,37.276 67.9884988,37.3273328 68.2195,37.43 C68.4505012,37.5326672 68.6476658,37.6691658 68.811,37.8395 C68.9743342,38.0098342 69.0991662,38.2081655 69.1855,38.4345 C69.2718338,38.6608345 69.315,38.8976654 69.315,39.145 C69.315,39.2010003 69.3126667,39.2534998 69.308,39.3025 C69.3033333,39.3515002 69.2986667,39.3923332 69.294,39.425 L66.361,39.425 C66.3750001,39.5883342 66.4134997,39.7353327 66.4765,39.866 C66.5395003,39.9966673 66.6211662,40.1098329 66.7215,40.2055 C66.8218338,40.3011671 66.936166,40.3746664 67.0645,40.426 C67.192834,40.4773336 67.3269993,40.503 67.467,40.503 C67.5696672,40.503 67.6711662,40.4901668 67.7715,40.4645 C67.8718338,40.4388332 67.9639996,40.4015002 68.048,40.3525 C68.1320004,40.3034998 68.2066663,40.2440004 68.272,40.174 C68.3373337,40.1039996 68.3886665,40.0270004 68.426,39.943 L69.084,40.132 C68.9579994,40.4073347 68.7491681,40.6324991 68.4575,40.8075 C68.1658319,40.9825009 67.8263353,41.07 67.439,41.07 Z M68.552,38.893 C68.5379999,38.7389992 68.4995003,38.5966673 68.4365,38.466 C68.3734997,38.3353327 68.2930005,38.2245005 68.195,38.1335 C68.0969995,38.0424995 67.9826673,37.9713336 67.852,37.92 C67.7213327,37.8686664 67.5836674,37.843 67.439,37.843 C67.2943326,37.843 67.157834,37.8686664 67.0295,37.92 C66.901166,37.9713336 66.7880005,38.0424995 66.69,38.1335 C66.5919995,38.2245005 66.512667,38.3353327 66.452,38.466 C66.391333,38.5966673 66.3540001,38.7389992 66.34,38.893 L68.552,38.893 Z M70.918,41.07 C70.7406658,41.07 70.5761674,41.0408336 70.4245,40.9825 C70.2728326,40.9241664 70.1421672,40.8436672 70.0325,40.741 C69.9228328,40.6383328 69.8365003,40.5170007 69.7735,40.377 C69.7104997,40.2369993 69.679,40.0853342 69.679,39.922 C69.679,39.7493325 69.716333,39.5930007 69.791,39.453 C69.865667,39.3129993 69.9718326,39.1916672 70.1095,39.089 C70.2471674,38.9863328 70.4104991,38.9070003 70.5995,38.851 C70.7885009,38.7949997 70.9973322,38.767 71.226,38.767 C71.3986675,38.767 71.5689992,38.7821665 71.737,38.8125 C71.9050008,38.8428335 72.056666,38.8836664 72.192,38.935 L72.192,38.683 C72.192,38.412332 72.1150008,38.2011674 71.961,38.0495 C71.8069992,37.8978326 71.5853348,37.822 71.296,37.822 C71.099999,37.822 70.9075009,37.8581663 70.7185,37.9305 C70.5294991,38.0028337 70.3346677,38.106666 70.134,38.242 L69.896,37.752 C70.3673357,37.4346651 70.8573308,37.276 71.366,37.276 C71.8700025,37.276 72.2619986,37.4043321 72.542,37.661 C72.8220014,37.917668 72.962,38.2863309 72.962,38.767 L72.962,40.09 C72.962,40.2533342 73.029666,40.3373333 73.165,40.342 L73.165,41 C73.090333,41.0140001 73.0261669,41.0233333 72.9725,41.028 C72.9188331,41.0326667 72.8663336,41.035 72.815,41.035 C72.6656659,41.035 72.5501671,40.997667 72.4685,40.923 C72.3868329,40.848333 72.3366668,40.7526673 72.318,40.636 L72.297,40.405 C72.1336658,40.6196677 71.9318345,40.7841661 71.6915,40.8985 C71.4511655,41.0128339 71.1933347,41.07 70.918,41.07 Z M71.128,40.503 C71.3146676,40.503 71.4908325,40.469167 71.6565,40.4015 C71.8221675,40.333833 71.9516662,40.2393339 72.045,40.118 C72.1430005,40.0339996 72.192,39.9453338 72.192,39.852 L72.192,39.369 C72.0613327,39.3176664 71.9225007,39.2780001 71.7755,39.25 C71.6284993,39.2219999 71.4850007,39.208 71.345,39.208 C71.0696653,39.208 70.8445009,39.2674994 70.6695,39.3865 C70.4944991,39.5055006 70.407,39.662999 70.407,39.859 C70.407,40.0410009 70.474666,40.1938327 70.61,40.3175 C70.745334,40.4411673 70.9179989,40.503 71.128,40.503 Z M75.951,38.004 C75.6523318,38.0133334 75.3875012,38.082166 75.1565,38.2105 C74.9254988,38.338834 74.7610005,38.5219988 74.663,38.76 L74.663,41 L73.893,41 L73.893,37.339 L74.607,37.339 L74.607,38.158 C74.7330006,37.9059987 74.897499,37.7041674 75.1005,37.5525 C75.303501,37.4008326 75.5216655,37.3180001 75.755,37.304 L75.8705,37.304 C75.9008335,37.304 75.9276665,37.3063333 75.951,37.311 L75.951,38.004 Z M76.091,39.166 C76.091,38.9093321 76.1353329,38.6666678 76.224,38.438 C76.3126671,38.2093322 76.4398325,38.0086675 76.6055,37.836 C76.7711675,37.6633325 76.9706655,37.5268338 77.204,37.4265 C77.4373345,37.3261662 77.6986652,37.276 77.988,37.276 C78.3660019,37.276 78.6914986,37.3588325 78.9645,37.5245 C79.2375014,37.6901675 79.441666,37.9106653 79.577,38.186 L78.828,38.424 C78.7393329,38.2699992 78.6203341,38.1498338 78.471,38.0635 C78.3216659,37.9771662 78.1560009,37.934 77.974,37.934 C77.8199992,37.934 77.6765007,37.964333 77.5435,38.025 C77.4104993,38.085667 77.2950005,38.1708328 77.197,38.2805 C77.0989995,38.3901672 77.0220003,38.5196659 76.966,38.669 C76.9099997,38.8183341 76.882,38.9839991 76.882,39.166 C76.882,39.3433342 76.9111664,39.5078326 76.9695,39.6595 C77.0278336,39.8111674 77.1071662,39.9429994 77.2075,40.055 C77.3078338,40.1670006 77.4244993,40.2544997 77.5575,40.3175 C77.6905007,40.3805003 77.8316659,40.412 77.981,40.412 C78.0743338,40.412 78.1676662,40.3991668 78.261,40.3735 C78.3543338,40.3478332 78.4394996,40.3116669 78.5165,40.265 C78.5935004,40.2183331 78.6611664,40.164667 78.7195,40.104 C78.7778336,40.043333 78.8209999,39.9780004 78.849,39.908 L79.605,40.132 C79.4836661,40.4073347 79.2806681,40.6324991 78.996,40.8075 C78.7113319,40.9825009 78.3753353,41.07 77.988,41.07 C77.7033319,41.07 77.4443345,41.0186672 77.211,40.916 C76.9776655,40.8133328 76.7781675,40.6745009 76.6125,40.4995 C76.4468325,40.3244991 76.3185005,40.1226678 76.2275,39.894 C76.1364995,39.6653322 76.091,39.4226679 76.091,39.166 Z M83.525,41 L82.755,41 L82.755,38.949 C82.755,38.6129983 82.6955006,38.3645008 82.5765,38.2035 C82.4574994,38.0424992 82.2860011,37.962 82.062,37.962 C81.9546661,37.962 81.8473339,37.9829998 81.74,38.025 C81.6326661,38.0670002 81.5311671,38.1264996 81.4355,38.2035 C81.3398329,38.2805004 81.254667,38.3714995 81.18,38.4765 C81.105333,38.5815005 81.0493335,38.6969994 81.012,38.823 L81.012,41 L80.242,41 L80.242,35.89 L81.012,35.89 L81.012,38.074 C81.1520007,37.8219987 81.3421655,37.6260007 81.5825,37.486 C81.8228345,37.3459993 82.0853319,37.276 82.37,37.276 C82.5986678,37.276 82.7864993,37.3168329 82.9335,37.3985 C83.0805007,37.4801671 83.1983329,37.588666 83.287,37.724 C83.3756671,37.859334 83.4374998,38.0168324 83.4725,38.1965 C83.5075002,38.3761676 83.525,38.5663323 83.525,38.767 L83.525,41 Z" id="Search" fill="#B4B4B4"></path>
                <polygon id="Line-2" fill="#969696" fill-rule="nonzero" points="59 33 60 33 60 45.5087891 59 45.5087891"></polygon>
                <path d="M46.2135428,41.828387 L46.2140119,41.8279425 L43.1801481,38.9535026 C43.1225927,38.8989715 43.0767649,38.8333291 43.0458792,38.7605096 C42.9831784,38.614879 42.9848071,38.4493065 43.0503843,38.3025431 C43.0831686,38.2296018 43.1298354,38.1627022 43.1884738,38.1071451 L46.2784837,35.1795094 C46.5280488,34.9430585 46.9282162,34.9399652 47.1727118,35.171613 C47.4172074,35.4032609 47.4139425,35.7824002 47.1643775,36.0188511 L45.1636348,37.9144586 L50.3737684,37.8684509 C50.7232796,37.8653646 51.0032294,38.1306036 50.9999719,38.4617486 C50.9967144,38.7928936 50.7114971,39.0631233 50.3619859,39.0662096 L45.1518523,39.1122173 L47.1161053,40.9732525 C47.3606009,41.2049003 47.357336,41.5840397 47.1077709,41.8204906 C46.8582058,42.0569415 46.4580384,42.0600348 46.2135428,41.828387 Z" id="Shape-Copy-11" fill="#626870" fill-rule="nonzero"></path>
                <polygon id="Line-Copy-6" fill="#969696" fill-rule="nonzero" points="39.1312997 107.409459 39.1312997 105.409459 139.848185 105.409459 139.848185 107.409459"></polygon>
                <g id="Group-26" transform="translate(40.000000, 62.000000)" fill="#969696" fill-rule="nonzero">
                    <polygon id="Line-Copy-12" points="-0.868639425 1.48697617 -0.868639425 -0.513023825 99.8939881 -0.513023825 99.8939881 1.48697617"></polygon>
                    <polygon id="Line-Copy-13" points="-0.868639425 9.48697617 -0.868639425 7.48697617 99.8939881 7.48697617 99.8939881 9.48697617"></polygon>
                    <polygon id="Line-Copy-14" points="-0.868639425 18.4869762 -0.868639425 16.4869762 99.8939881 16.4869762 99.8939881 18.4869762"></polygon>
                    <polygon id="Line-Copy-15" points="-1 27.3921524 -1 25.3921524 84 25.3921524 84 27.3921524"></polygon>
                </g>
                <polygon id="Line-Copy-7" fill="#969696" fill-rule="nonzero" points="39.1312997 115.409459 39.1312997 113.409459 139.848185 113.409459 139.848185 115.409459"></polygon>
                <polygon id="Line-Copy-8" fill="#969696" fill-rule="nonzero" points="39.1312997 124.409459 39.1312997 122.409459 139.848185 122.409459 139.848185 124.409459"></polygon>
                <polygon id="Line-Copy-5" fill="#969696" fill-rule="nonzero" points="39 133.148664 39 131.148664 71 131.148664 71 133.148664"></polygon>
                <path d="M40,31 L40,47 L139,47 L139,31 L40,31 Z M39,30 L140,30 L140,48 L39,48 L39,30 Z" id="Rectangle" fill="#979797" fill-rule="nonzero"></path>
                <g id="Group-27" transform="translate(112.000000, 34.000000)" fill-rule="nonzero">
                    <path d="M15.084392,16.6345188 C13.4980071,17.886568 11.4947115,18.6337869 9.31689344,18.6337869 C4.17131528,18.6337869 0,14.4624716 0,9.31689344 C0,4.17131528 4.17131528,0 9.31689344,0 C14.4624716,0 18.6337869,4.17131528 18.6337869,9.31689344 C18.6337869,11.4947115 17.886568,13.4980071 16.6345188,15.084392 L21.6789582,20.1288315 C22.1070139,20.5568872 22.1070139,21.2509026 21.6789582,21.6789582 C21.2509026,22.1070139 20.5568872,22.1070139 20.1288315,21.6789582 L15.084392,16.6345188 Z" id="search" fill="#626870"></path>
                    <path d="M9.31689344,16.4415767 C13.2517473,16.4415767 16.4415767,13.2517473 16.4415767,9.31689344 C16.4415767,5.38203955 13.2517473,2.19221022 9.31689344,2.19221022 C5.38203955,2.19221022 2.19221022,5.38203955 2.19221022,9.31689344 C2.19221022,13.2517473 5.38203955,16.4415767 9.31689344,16.4415767 Z" id="Path" fill="#FFFFFF"></path>
                </g>
                <rect id="Rectangle-Copy-5" fill="#D8D8D8" x="66" y="158" width="16" height="21"></rect>
                <rect id="Rectangle-Copy-6" fill="#D8D8D8" x="85" y="158" width="16" height="21"></rect>
                <rect id="Rectangle-Copy-8" fill="#D8D8D8" x="104" y="158" width="16" height="21"></rect>
                <rect id="Rectangle-Copy-9" fill="#D8D8D8" x="123" y="158" width="16" height="21"></rect>
                <rect id="Rectangle-Copy-10" fill="#D8D8D8" x="40" y="150" width="23" height="29"></rect>
            </g>
        </g>
    </g>
</svg>