<svg xmlns="http://www.w3.org/2000/svg" width="40" height="58" viewBox="0 0 40 58">
  <g fill="none" fill-rule="evenodd">
    <rect width="40" height="18" fill="#626870" rx="2"/>
    <path fill="#626870" fill-rule="nonzero" d="M38.75,32.75 L38.75,31.5 L16.875,31.5 L16.875,30.25 L40,30.25 L40,32.75 L38.75,32.75 Z M2.5,57.75 C1.875,57.75 1.25,57.5 0.75,57 C0.25,56.5 0,55.875 0,55.25 L0,30.25 L5,30.25 L5,31.5 L2.5,31.5 L2.5,57.75 Z"/>
    <path fill="#626870" fill-rule="nonzero" d="M40,44 L38.75,44 L38.75,45.875 L40,45.875 L40,55.25 C40,55.875 39.75,56.5 39.25,57 C38.75,57.5 38.125,57.75 37.5,57.75 L2.5,57.75 C3.125,57.75 3.75,57.5 4.25,57 C4.75,56.5 5,55.875 5,55.25 L5,29 L15.625,29 L20.625,32.75 L40,32.75 L40,44 Z M16.25,44 L16.25,45.875 L17.5,45.875 L17.5,44 L16.25,44 Z M18.75,44 L18.75,45.875 L20,45.875 L20,44 L18.75,44 Z M17.5,42.125 L17.5,44 L18.75,44 L18.75,42.125 L17.5,42.125 Z M15,42.125 L15,44 L16.25,44 L16.25,42.125 L15,42.125 Z M13.75,44 L13.75,45.875 L15,45.875 L15,44 L13.75,44 Z M12.5,42.125 L12.5,44 L13.75,44 L13.75,42.125 L12.5,42.125 Z M21.25,44 L21.25,45.875 L22.5,45.875 L22.5,44 L21.25,44 Z M23.75,44 L23.75,45.875 L25,45.875 L25,44 L23.75,44 Z M22.5,42.125 L22.5,44 L23.75,44 L23.75,42.125 L22.5,42.125 Z M20,42.125 L20,44 L21.25,44 L21.25,42.125 L20,42.125 Z M26.25,44 L26.25,45.875 L27.5,45.875 L27.5,44 L26.25,44 Z M28.75,44 L28.75,45.875 L30,45.875 L30,44 L28.75,44 Z M27.5,42.125 L27.5,44 L28.75,44 L28.75,42.125 L27.5,42.125 Z M25,42.125 L25,44 L26.25,44 L26.25,42.125 L25,42.125 Z M31.25,44 L31.25,45.875 L32.5,45.875 L32.5,44 L31.25,44 Z M33.75,44 L33.75,45.875 L35,45.875 L35,44 L33.75,44 Z M32.5,42.125 L32.5,44 L33.75,44 L33.75,42.125 L32.5,42.125 Z M30,42.125 L30,44 L31.25,44 L31.25,42.125 L30,42.125 Z M36.25,44 L36.25,45.875 L37.5,45.875 L37.5,44 L36.25,44 Z M37.5,42.125 L37.5,44 L38.75,44 L38.75,42.125 L37.5,42.125 Z M35,42.125 L35,44 L36.25,44 L36.25,42.125 L35,42.125 Z M7.5,42.125 L7.5,48.375 C7.5,48.6875 7.625,49 7.875,49.25 C8.125,49.5 8.4375,49.625 8.75,49.625 L10,49.625 C10.3125,49.625 10.625,49.5 10.875,49.25 C11.125,49 11.25,48.6875 11.25,48.375 L11.25,42.125 L7.5,42.125 Z M7.5,32.75 L7.5,34 L16.25,34 L16.25,32.75 L7.5,32.75 Z M9,35.25 L9,36.5 L11,36.5 L11,35.25 L9,35.25 Z"/>
    <polygon fill="#626870" fill-rule="nonzero" points="10 48.375 8.75 48.375 8.75 45.875 10 45.875"/>
    <path fill="#626870" fill-rule="nonzero" d="M4.25,57 C3.75,57.5 3.125,57.75 2.5,57.75 L37.5,57.75 C38.125,57.75 38.75,57.5 39.25,57 C39.75,56.5 40,55.875 40,55.25 L5,55.25 C5,55.875 4.75,56.5 4.25,57 Z"/>
    <path fill="#FFF" d="M12.151,4.228 L17.835,4.228 C18.381,4.228 18.801,4.452 18.801,5.236 C18.801,6.356 16.491,6.762 15.063,13.076 C14.881,13.902 14.685,14.182 14.027,14.182 C13.215,14.182 13.005,13.72 13.005,13.118 C13.005,11.732 14.867,7.644 16.645,5.992 L12.123,5.992 C11.619,5.992 11.227,5.74 11.227,5.11 C11.227,4.48 11.619,4.228 12.151,4.228 Z M20.521,11.984 L25.715,5.852 L21.711,5.852 C21.053,5.852 20.521,5.516 20.521,4.886 C20.521,4.256 21.053,3.92 21.711,3.92 L27.759,3.92 C28.347,3.92 28.823,4.172 28.823,4.97 C28.823,5.25 28.711,5.558 28.501,5.796 L23.223,12.068 L27.703,12.068 C28.361,12.068 28.893,12.404 28.893,13.034 C28.893,13.664 28.361,14 27.703,14 L21.473,14 C20.633,14 20.143,13.72 20.143,12.866 C20.143,12.502 20.311,12.236 20.521,11.984 Z"/>
  </g>
</svg>
