<svg xmlns="http://www.w3.org/2000/svg" width="40" height="58" viewBox="0 0 40 58">
  <g fill="none" fill-rule="evenodd">
    <rect width="40" height="18" fill="#4D90FE" rx="2"/>
    <path fill="#FFF" d="M4.224,12.292 L7.192,4.438 C7.388,3.92 7.752,3.738 8.312,3.738 L8.858,3.738 C9.376,3.738 9.838,3.864 10.09,4.578 L12.862,12.292 C12.946,12.516 13.086,12.922 13.086,13.174 C13.086,13.734 12.596,14.182 12.008,14.182 C11.504,14.182 11.14,14 10.972,13.552 L10.384,11.872 L6.688,11.872 L6.086,13.552 C5.932,14 5.61,14.182 5.064,14.182 C4.434,14.182 4,13.79 4,13.174 C4,12.922 4.14,12.516 4.224,12.292 Z M9.88,10.276 L8.578,6.23 L8.55,6.23 L7.192,10.276 L9.88,10.276 Z M14.276,13.034 L14.276,5.264 C14.276,4.242 14.808,3.92 15.62,3.92 L19.442,3.92 C22.172,3.92 22.9,5.418 22.9,6.72 C22.9,7.812 22.256,8.89 21.164,9.142 L21.164,9.17 C22.34,9.338 22.55,10.192 22.55,11.214 C22.55,12.376 22.858,12.81 22.858,13.286 C22.858,13.818 22.312,14.182 21.78,14.182 C20.52,14.182 20.422,12.964 20.422,12.558 C20.422,10.794 20.1,10.08 18.84,10.08 L16.572,10.08 L16.572,13.034 C16.572,13.72 16.124,14.182 15.424,14.182 C14.724,14.182 14.276,13.72 14.276,13.034 Z M16.572,5.684 L16.572,8.4 L18.868,8.4 C19.736,8.4 20.604,8.176 20.604,7.042 C20.604,5.964 19.946,5.684 18.938,5.684 L16.572,5.684 Z M36.312,5.432 L34.338,13.09 C34.128,13.888 33.792,14.182 32.952,14.182 C32.084,14.182 31.776,13.818 31.58,13.048 L30.082,6.902 L30.054,6.902 L28.556,13.048 C28.374,13.818 28.052,14.182 27.184,14.182 C26.344,14.182 26.008,13.888 25.798,13.09 L23.824,5.432 C23.768,5.222 23.712,4.998 23.712,4.774 C23.712,4.074 24.286,3.738 24.818,3.738 C25.406,3.738 25.756,4.004 25.896,4.676 L27.254,11.368 L27.282,11.368 L28.85,4.592 C28.976,4.032 29.2,3.738 30.054,3.738 C31.02,3.738 31.216,4.2 31.356,4.83 L32.882,11.368 L32.91,11.368 L34.282,4.676 C34.422,4.004 34.772,3.738 35.318,3.738 C35.85,3.738 36.424,4.074 36.424,4.774 C36.424,4.998 36.368,5.222 36.312,5.432 Z"/>
    <path fill="#4D90FE" fill-rule="nonzero" d="M1,25 L39,25 C39.5522847,25 40,25.4477153 40,26 L40,57 C40,57.5522847 39.5522847,58 39,58 L1,58 C0.44771525,58 6.76353751e-17,57.5522847 0,57 L0,26 C-6.76353751e-17,25.4477153 0.44771525,25 1,25 Z M2.5,56 L37.5,56 C37.7761424,56 38,55.7761424 38,55.5 L38,27.5 C38,27.2238576 37.7761424,27 37.5,27 L2.5,27 C2.22385763,27 2,27.2238576 2,27.5 L2,55.5 C2,55.7761424 2.22385763,56 2.5,56 Z"/>
    <path fill="#4D90FE" d="M16.2714157,34.1287009 L16.2714157,29.9046237 L20.4900631,34.1287009 L16.2714157,34.1287009 Z M16.3273132,29.3383556 C15.5982012,29.6906055 15.0512884,30.2844251 14.6518063,30.957505 C14.0097337,29.8766774 12.9889139,29 11.4429411,29 C9.8961799,29 8,30.314424 8,32.5345769 C8,34.7825183 9.87331631,35.8479517 10.801105,36.4496658 C11.7928328,37.0921152 13.4849749,38.2604132 14.6518063,40.4223051 C15.819032,38.2604132 17.5109375,37.0921152 18.5029019,36.4496658 C19.199926,35.9972355 20.4314062,35.2828678 21,34.0012057 L16.3273132,29.3383556 Z"/>
    <path fill="#4D90FE" fill-rule="nonzero" d="M39.7231553,50.1952335 L39.7231553,57.3318889 L2,57.3318889 L2,53.3379457 L11.7377806,43.600165 C12.1470376,43.1908099 12.8101399,43.1908099 13.2194951,43.600165 L19.4688662,49.8495362 C19.8658435,50.2445487 20.5535052,50.2445487 20.9505807,49.8495362 C21.1480378,49.6509984 21.2575725,49.388017 21.2575725,49.1086298 C21.2575725,48.8292427 21.1480378,48.5662612 20.9505807,48.3677235 L18.4035801,45.8207228 C17.9952073,45.4134307 17.9942249,44.7523913 18.3994541,44.3430361 L25.3559379,37.3170002 C25.5524127,37.1173819 25.7478068,36.968061 26.100872,37.0058824 C26.3792767,37.0058824 26.6453036,37.1163995 26.8417783,37.3128743 L39.7231553,50.1952335 Z"/>
  </g>
</svg>
