<svg xmlns="http://www.w3.org/2000/svg" width="40" height="58" viewBox="0 0 40 58">
  <g fill="none" fill-rule="evenodd">
    <rect width="40" height="18" fill="#4D90FE" rx="2"/>
    <path fill="#FFF" d="M5.2,8.96 C5.2,6.118 6.88,3.682 10.128,3.682 C12.76,3.682 14.202,5.334 14.202,6.314 C14.202,6.958 13.852,7.35 13.166,7.35 C11.836,7.35 12.228,5.53 10.128,5.53 C8.686,5.53 7.496,6.776 7.496,8.96 C7.496,10.794 8.224,12.39 10.212,12.39 C12.018,12.39 11.976,10.458 13.082,10.458 C13.642,10.458 14.202,10.78 14.202,11.34 C14.202,12.796 12.438,14.238 10.212,14.238 C7.062,14.238 5.2,12.432 5.2,8.96 Z M16.23,13.034 L16.23,5.264 C16.23,4.242 16.762,3.92 17.574,3.92 L21.396,3.92 C24.126,3.92 24.854,5.418 24.854,6.72 C24.854,7.812 24.21,8.89 23.118,9.142 L23.118,9.17 C24.294,9.338 24.504,10.192 24.504,11.214 C24.504,12.376 24.812,12.81 24.812,13.286 C24.812,13.818 24.266,14.182 23.734,14.182 C22.474,14.182 22.376,12.964 22.376,12.558 C22.376,10.794 22.054,10.08 20.794,10.08 L18.526,10.08 L18.526,13.034 C18.526,13.72 18.078,14.182 17.378,14.182 C16.678,14.182 16.23,13.72 16.23,13.034 Z M18.526,5.684 L18.526,8.4 L20.822,8.4 C21.69,8.4 22.558,8.176 22.558,7.042 C22.558,5.964 21.9,5.684 20.892,5.684 L18.526,5.684 Z M28.884,12.236 L33.084,12.236 C33.616,12.236 34.008,12.488 34.008,13.118 C34.008,13.748 33.616,14 32.972,14 L27.722,14 C26.91,14 26.574,13.454 26.574,12.964 C26.574,11.97 27.456,10.864 29.206,9.758 C31.152,8.526 31.824,8.274 31.824,7.14 C31.824,6.23 31.124,5.726 30.354,5.726 C29.458,5.726 28.856,6.09 28.548,7.21 C28.408,7.728 28.226,7.994 27.666,7.994 C27.092,7.994 26.644,7.756 26.644,7.056 C26.644,5.348 28.324,4.046 30.382,4.046 C32.622,4.046 33.952,5.516 33.952,6.804 C33.952,8.666 33.098,9.394 31.614,10.234 C30.032,11.13 29.066,11.704 28.884,12.236 Z"/>
    <path fill="#4D90FE" fill-rule="nonzero" d="M1,25 L39,25 C39.5522847,25 40,25.4477153 40,26 L40,57 C40,57.5522847 39.5522847,58 39,58 L1,58 C0.44771525,58 6.76353751e-17,57.5522847 0,57 L0,26 C-6.76353751e-17,25.4477153 0.44771525,25 1,25 Z M2.5,56 L37.5,56 C37.7761424,56 38,55.7761424 38,55.5 L38,27.5 C38,27.2238576 37.7761424,27 37.5,27 L2.5,27 C2.22385763,27 2,27.2238576 2,27.5 L2,55.5 C2,55.7761424 2.22385763,56 2.5,56 Z"/>
    <path fill="#4D90FE" d="M16.2714157,34.1287009 L16.2714157,29.9046237 L20.4900631,34.1287009 L16.2714157,34.1287009 Z M16.3273132,29.3383556 C15.5982012,29.6906055 15.0512884,30.2844251 14.6518063,30.957505 C14.0097337,29.8766774 12.9889139,29 11.4429411,29 C9.8961799,29 8,30.314424 8,32.5345769 C8,34.7825183 9.87331631,35.8479517 10.801105,36.4496658 C11.7928328,37.0921152 13.4849749,38.2604132 14.6518063,40.4223051 C15.819032,38.2604132 17.5109375,37.0921152 18.5029019,36.4496658 C19.199926,35.9972355 20.4314062,35.2828678 21,34.0012057 L16.3273132,29.3383556 Z"/>
    <path fill="#4D90FE" fill-rule="nonzero" d="M39.7231553,50.1952335 L39.7231553,57.3318889 L2,57.3318889 L2,53.3379457 L11.7377806,43.600165 C12.1470376,43.1908099 12.8101399,43.1908099 13.2194951,43.600165 L19.4688662,49.8495362 C19.8658435,50.2445487 20.5535052,50.2445487 20.9505807,49.8495362 C21.1480378,49.6509984 21.2575725,49.388017 21.2575725,49.1086298 C21.2575725,48.8292427 21.1480378,48.5662612 20.9505807,48.3677235 L18.4035801,45.8207228 C17.9952073,45.4134307 17.9942249,44.7523913 18.3994541,44.3430361 L25.3559379,37.3170002 C25.5524127,37.1173819 25.7478068,36.968061 26.100872,37.0058824 C26.3792767,37.0058824 26.6453036,37.1163995 26.8417783,37.3128743 L39.7231553,50.1952335 Z"/>
  </g>
</svg>
