<svg xmlns="http://www.w3.org/2000/svg" width="44" height="48" viewBox="0 0 44 48">
  <g fill="#161616">
    <path d="M13.3257688,22.0204892 C12.9093383,21.9825222 12.4875417,21.9631214 12.0612139,21.9631214 C11.0452325,21.9631214 10.0549852,22.0733018 9.10176879,22.2823657 L9.10176879,0 L30.3947168,0 L43.9477341,13.5282266 L43.9477341,39.3372323 L36.9077341,43.5519358 L31.2757341,39.3372323 L24.2357341,42.1470346 L24.2221177,42.1397857 C25.04743,40.581008 25.5818148,38.844508 25.7529391,37.0026184 L31.9109841,34.544873 L37.1701941,38.4802426 L39.7237341,36.9510955 L39.7237341,16.7958323 L27.1209133,16.7958323 L27.1209133,4.21470346 L13.3257688,4.21470346 L13.3257688,22.0204892 Z M30.3947168,5.27402697 L30.3947168,13.5282266 L38.6605593,13.5282266 L30.3947168,5.27402697 Z"/>
    <path d="M12.0612139,47.6115607 C5.49058962,47.6115607 0.164046243,42.2850173 0.164046243,35.7143931 C0.164046243,29.1437688 5.49058962,23.8172254 12.0612139,23.8172254 C18.6318381,23.8172254 23.9583815,29.1437688 23.9583815,35.7143931 C23.9583815,42.2850173 18.6318381,47.6115607 12.0612139,47.6115607 Z M6.70594334,31.7493318 C6.70594334,32.6145803 7.35487976,33.0688358 8.11197224,33.0688358 C10.2102,33.0688358 9.1286393,30.2135156 11.8974347,30.2135156 C13.1953075,30.2135156 13.9740312,30.9057145 13.9740312,32.0738 C13.9740312,34.193659 10.1885688,34.7777017 10.1885688,37.3518162 C10.1885688,38.044015 10.6428243,38.8011075 11.5729665,38.8011075 C13.0006266,38.8011075 12.8275769,37.741178 13.346726,36.9840855 C14.0389248,35.9674185 17.2619757,34.8858578 17.2619757,32.0738 C17.2619757,29.0237988 14.5364428,27.7475572 11.7676474,27.7475572 C9.1286393,27.7475572 6.70594334,29.6294728 6.70594334,31.7493318 Z M9.88573178,41.980896 C9.88573178,42.9543006 10.6860867,43.7546555 11.6594913,43.7546555 C12.6328959,43.7546555 13.4332509,42.9543006 13.4332509,41.980896 C13.4332509,41.0074913 12.6328959,40.2071364 11.6594913,40.2071364 C10.6860867,40.2071364 9.88573178,41.0074913 9.88573178,41.980896 Z"/>
  </g>
</svg>
