<svg xmlns="http://www.w3.org/2000/svg" width="40" height="58" viewBox="0 0 40 58">
  <g fill="none" fill-rule="evenodd">
    <rect width="40" height="18" fill="#0C4899" rx="2"/>
    <path fill="#FFF" d="M5,12.656 L5,5.264 C5,4.242 5.532,3.92 6.344,3.92 L9.144,3.92 C11.65,3.92 13.946,5.012 13.946,8.96 C13.946,12.152 12.168,14 9.102,14 L6.344,14 C5.532,14 5,13.678 5,12.656 Z M7.296,5.768 L7.296,12.152 L9.228,12.152 C11.062,12.152 11.65,10.514 11.65,8.96 C11.65,6.972 10.894,5.768 9.214,5.768 L7.296,5.768 Z M15.078,8.834 C15.078,5.88 16.87,3.682 20.174,3.682 C23.478,3.682 25.27,5.88 25.27,8.834 C25.27,11.676 23.618,14.238 20.174,14.238 C16.562,14.238 15.078,11.886 15.078,8.834 Z M17.374,8.834 C17.374,10.766 18.018,12.39 20.174,12.39 C22.26,12.39 22.974,10.766 22.974,8.834 C22.974,6.902 22.05,5.53 20.174,5.53 C18.298,5.53 17.374,6.902 17.374,8.834 Z M26.528,8.96 C26.528,6.118 28.208,3.682 31.456,3.682 C34.088,3.682 35.53,5.334 35.53,6.314 C35.53,6.958 35.18,7.35 34.494,7.35 C33.164,7.35 33.556,5.53 31.456,5.53 C30.014,5.53 28.824,6.776 28.824,8.96 C28.824,10.794 29.552,12.39 31.54,12.39 C33.346,12.39 33.304,10.458 34.41,10.458 C34.97,10.458 35.53,10.78 35.53,11.34 C35.53,12.796 33.766,14.238 31.54,14.238 C28.39,14.238 26.528,12.432 26.528,8.96 Z"/>
    <path fill="#2A5699" fill-rule="nonzero" d="M20.9483693,24.0009186 L23.5414218,24.0009186 C23.5414218,25.0321225 23.5414218,26.0594472 23.5414218,27.0906554 C28.1811633,27.11373 32.8165662,27.0479892 37.451969,27.11373 C38.4406237,27.0248275 39.2168081,27.7085018 39.125747,28.5890807 C39.1994729,36.1975382 39.1081733,43.8098617 39.169221,51.4183321 C39.125747,52.19848 39.2559598,53.0636077 38.7486028,53.7549445 C38.1155186,54.1565296 37.2959773,54.106375 36.5588191,54.1372862 C32.2182778,54.1185653 27.8820756,54.1250959 23.5415314,54.1250959 C23.5415314,55.1563041 23.5415314,56.1836375 23.5415314,57.2148196 L20.8314025,57.2148196 C14.2316987,56.1409234 7.61464746,55.1560821 1.00193404,54.1248738 C0.997582454,45.1144473 1.00193404,36.1040164 1.00193404,27.0974646 C7.64933711,26.062399 14.3010767,25.0543699 20.9484794,24 L20.9483693,24.0009186 Z M23.5414218,28.249292 C23.5414218,29.1491753 23.5414218,30.0529246 23.5414218,30.9528036 C27.3009091,30.9528036 31.0560674,30.9528036 34.815558,30.9528036 C34.815558,31.4664833 34.815558,31.9840074 34.815558,32.4976828 C31.0560674,32.4976828 27.3009091,32.4976828 23.5414218,32.4976828 C23.5414218,33.1426571 23.5414218,33.7837783 23.5414218,34.4287612 C27.3009091,34.4287612 31.0560674,34.4287612 34.815558,34.4287612 C34.815558,34.942428 34.815558,35.4599477 34.815558,35.9736144 C31.0560674,35.9736144 27.3009091,35.9736144 23.5414218,35.9736144 C23.5414218,36.6186061 23.5414218,37.2597186 23.5414218,37.9047015 C27.3009091,37.9047015 31.0560674,37.9047015 34.815558,37.9047015 C34.815558,38.4183726 34.815558,38.9358923 34.815558,39.4495634 C31.0560674,39.4495634 27.3009091,39.4495634 23.5414218,39.4495634 C23.5414218,40.0945551 23.5414218,40.7356632 23.5414218,41.3806375 C27.3009091,41.3806375 31.0560674,41.3806375 34.815558,41.3806375 C34.815558,41.8943216 34.815558,42.41185 34.815558,42.9255124 C31.0560674,42.9255124 27.3009091,42.9255124 23.5414218,42.9255124 C23.5414218,43.5704953 23.5414218,44.2116209 23.5414218,44.8565952 C27.3009091,44.8565952 31.0560674,44.8565952 34.815558,44.8565952 C34.815558,45.3702662 34.815558,45.8877947 34.815558,46.401457 C31.0560674,46.401457 27.3009091,46.401457 23.5414218,46.401457 C23.5414218,47.04644 23.5414218,47.6875568 23.5414218,48.3325311 C27.3009091,48.3325311 31.0560674,48.3325311 34.815558,48.3325311 C34.815558,48.8462022 34.815558,49.3637437 34.815558,49.8774017 C31.0560674,49.8774017 27.3009091,49.8774017 23.5414218,49.8774017 C23.5414218,50.9085968 23.5414218,51.9359389 23.5414218,52.9671472 C28.3112463,52.9671472 33.0810755,52.9671472 37.8509004,52.9671472 C37.8509004,44.7291406 37.8509004,36.4872898 37.8509004,28.249292 C33.0810755,28.249292 28.3112463,28.249292 23.5414218,28.249292 Z M9.96042456,35.0737398 L9.96042456,35.0740098 C9.35335566,37.5998687 8.72894194,40.1257232 8.11753652,42.6516125 C7.72727857,40.1875544 7.21994294,37.7389475 6.77331316,35.2787511 C6.03182218,35.3018693 5.28599467,35.3289057 4.54450327,35.359817 C5.21661537,38.7662461 6.06217573,42.1417684 6.78198536,45.5404828 C7.61887351,45.5907244 8.45576125,45.6368736 9.28831246,45.6756215 C9.86936391,43.1961165 10.5284677,40.7243305 11.0358033,38.2293829 C11.5518116,40.7977208 12.2239233,43.3390179 12.8006399,45.8957053 C13.6592064,45.8412841 14.7432591,46.1929323 15.4674061,45.8569574 C16.5384479,42.137702 17.3970166,38.364378 18.376999,34.6219392 C17.5140955,34.6681755 16.6468542,34.7107546 15.7796129,34.7377476 C15.2549312,37.4142357 14.7129051,40.0868534 14.2229143,42.7671945 C13.598501,40.1718114 13.0087761,37.5687136 12.4320616,34.9617627 C11.6081826,35.0004236 10.7843031,35.0310736 9.96042456,35.0737398 Z"/>
  </g>
</svg>
