<?xml version="1.0" encoding="UTF-8"?>
<svg width="44px" height="58px" viewBox="0 0 44 58" version="1.1" xmlns="http://www.w3.org/2000/svg" xmlns:xlink="http://www.w3.org/1999/xlink">
    <g id="Page-1" stroke="none" stroke-width="1" fill="none" fill-rule="evenodd">
        <g id="File-Icons" transform="translate(-62.000000, -533.000000)">
            <g id="XLS" transform="translate(62.000000, 533.000000)">
                <g>
                    <path d="M4,40 L40,40 C42.209139,40 44,41.790861 44,44 L44,54 C44,56.209139 42.209139,58 40,58 L4,58 C1.790861,58 2.705415e-16,56.209139 0,54 L0,44 C-2.705415e-16,41.790861 1.790861,40 4,40 Z" id="Rectangle-2" fill="#257E33"></path>
                    <path d="M4,1.52645728e-16 L29,1.10668153e-15 L44,15 L44,52 C44,54.209139 42.209139,56 40,56 L4,56 C1.790861,56 2.705415e-16,54.209139 0,52 L0,4 C-2.705415e-16,1.790861 1.790861,4.05812251e-16 4,0 Z" id="Rectangle-2-Copy-8" fill="#49AF50"></path>
                    <path d="M29,3.10862447e-14 L44,15 L33,15 C30.790861,15 29,13.209139 29,11 L29,3.10862447e-14 Z" id="Rectangle-2-Copy-9" fill="#257E33"></path>
                    <path d="M11.068,44.56 L13.132,41.548 L11.248,38.728 C11.128,38.548 11.044,38.356 11.044,38.128 C11.044,37.612 11.464,37.204 12.028,37.204 C12.496,37.204 12.724,37.48 12.844,37.684 L14.272,40.144 L15.796,37.684 C16,37.36 16.168,37.204 16.6,37.204 C17.08,37.204 17.548,37.468 17.548,38.092 C17.548,38.26 17.464,38.488 17.368,38.62 L15.364,41.548 L17.32,44.488 C17.524,44.8 17.644,44.956 17.644,45.184 C17.644,45.82 17.188,46.156 16.636,46.156 C16.312,46.156 16.036,46.084 15.808,45.7 L14.224,43.048 L12.52,45.772 C12.352,46.048 12.052,46.156 11.752,46.156 C11.176,46.156 10.804,45.796 10.804,45.316 C10.804,45.112 10.84,44.896 11.068,44.56 Z M18.688,44.848 L18.688,38.188 C18.688,37.6 19.072,37.204 19.672,37.204 C20.272,37.204 20.656,37.6 20.656,38.188 L20.656,44.344 L23.944,44.344 C24.508,44.344 24.964,44.632 24.964,45.172 C24.964,45.712 24.508,46 23.944,46 L19.84,46 C19.144,46 18.688,45.724 18.688,44.848 Z M28.9,40.624 L30.544,40.996 C32.344,41.404 32.8,42.472 32.8,43.48 C32.8,45.04 31.624,46.204 29.248,46.204 C26.752,46.204 25.636,44.956 25.636,44.02 C25.636,43.54 25.984,43.204 26.464,43.204 C27.532,43.204 27.256,44.764 29.248,44.764 C30.268,44.764 30.832,44.2 30.832,43.624 C30.832,43.276 30.664,42.892 29.992,42.724 L27.772,42.16 C25.984,41.704 25.66,40.72 25.66,39.796 C25.66,37.876 27.436,37.156 29.104,37.156 C30.64,37.156 32.452,38.02 32.452,39.172 C32.452,39.664 32.032,39.952 31.552,39.952 C30.64,39.952 30.808,38.668 28.972,38.668 C28.06,38.668 27.556,39.088 27.556,39.688 C27.556,40.288 28.276,40.48 28.9,40.624 Z" fill="#FFFFFF"></path>
                </g>
            </g>
        </g>
    </g>
</svg>