<svg xmlns="http://www.w3.org/2000/svg" width="40" height="58" viewBox="0 0 40 58">
  <g fill="none" fill-rule="evenodd">
    <rect width="40" height="18" fill="#4D90FE" rx="2"/>
    <path fill="#FFF" d="M17.689,9.618 L17.689,13.412 C17.689,13.832 17.367,14.182 16.905,14.182 C16.247,14.182 16.065,13.776 15.925,12.88 C15.267,13.706 14.357,14.238 12.929,14.238 C9.37299996,14.238 8.01499996,11.788 8.01499996,8.96 C8.01499996,5.558 10.143,3.682 13.265,3.682 C15.813,3.682 17.171,5.208 17.171,6.104 C17.171,6.902 16.583,7.112 16.093,7.112 C14.959,7.112 15.379,5.53 13.139,5.53 C11.557,5.53 10.311,6.566 10.311,9.114 C10.311,11.102 11.291,12.474 13.167,12.474 C14.385,12.474 15.449,11.648 15.561,10.416 L14.063,10.416 C13.573,10.416 13.027,10.234 13.027,9.534 C13.027,8.974 13.349,8.652 13.923,8.652 L16.751,8.652 C17.423,8.652 17.689,8.988 17.689,9.618 Z M20.347,13.034 L20.347,4.886 C20.347,4.2 20.795,3.738 21.495,3.738 C22.195,3.738 22.643,4.2 22.643,4.886 L22.643,13.034 C22.643,13.72 22.195,14.182 21.495,14.182 C20.795,14.182 20.347,13.72 20.347,13.034 Z M25.427,13.034 L25.427,5.264 C25.427,4.242 25.959,3.92 26.771,3.92 L31.825,3.92 C32.497,3.92 32.987,4.116 32.987,4.844 C32.987,5.572 32.497,5.768 31.825,5.768 L27.723,5.768 L27.723,8.12 L31.195,8.12 C31.797,8.12 32.273,8.288 32.273,9.002 C32.273,9.716 31.797,9.884 31.195,9.884 L27.723,9.884 L27.723,13.034 C27.723,13.72 27.275,14.182 26.575,14.182 C25.875,14.182 25.427,13.72 25.427,13.034 Z"/>
    <path fill="#4D90FE" fill-rule="nonzero" d="M1,25 L39,25 C39.5522847,25 40,25.4477153 40,26 L40,57 C40,57.5522847 39.5522847,58 39,58 L1,58 C0.44771525,58 6.76353751e-17,57.5522847 0,57 L0,26 C-6.76353751e-17,25.4477153 0.44771525,25 1,25 Z M2.5,56 L37.5,56 C37.7761424,56 38,55.7761424 38,55.5 L38,27.5 C38,27.2238576 37.7761424,27 37.5,27 L2.5,27 C2.22385763,27 2,27.2238576 2,27.5 L2,55.5 C2,55.7761424 2.22385763,56 2.5,56 Z"/>
    <path fill="#4D90FE" d="M16.2714157,34.1287009 L16.2714157,29.9046237 L20.4900631,34.1287009 L16.2714157,34.1287009 Z M16.3273132,29.3383556 C15.5982012,29.6906055 15.0512884,30.2844251 14.6518063,30.957505 C14.0097337,29.8766774 12.9889139,29 11.4429411,29 C9.8961799,29 8,30.314424 8,32.5345769 C8,34.7825183 9.87331631,35.8479517 10.801105,36.4496658 C11.7928328,37.0921152 13.4849749,38.2604132 14.6518063,40.4223051 C15.819032,38.2604132 17.5109375,37.0921152 18.5029019,36.4496658 C19.199926,35.9972355 20.4314062,35.2828678 21,34.0012057 L16.3273132,29.3383556 Z"/>
    <path fill="#4D90FE" fill-rule="nonzero" d="M39.7231553,50.1952335 L39.7231553,57.3318889 L2,57.3318889 L2,53.3379457 L11.7377806,43.600165 C12.1470376,43.1908099 12.8101399,43.1908099 13.2194951,43.600165 L19.4688662,49.8495362 C19.8658435,50.2445487 20.5535052,50.2445487 20.9505807,49.8495362 C21.1480378,49.6509984 21.2575725,49.388017 21.2575725,49.1086298 C21.2575725,48.8292427 21.1480378,48.5662612 20.9505807,48.3677235 L18.4035801,45.8207228 C17.9952073,45.4134307 17.9942249,44.7523913 18.3994541,44.3430361 L25.3559379,37.3170002 C25.5524127,37.1173819 25.7478068,36.968061 26.100872,37.0058824 C26.3792767,37.0058824 26.6453036,37.1163995 26.8417783,37.3128743 L39.7231553,50.1952335 Z"/>
  </g>
</svg>
