<svg xmlns="http://www.w3.org/2000/svg" width="40" height="58" viewBox="0 0 40 58">
  <g fill="none" fill-rule="evenodd">
    <rect width="40" height="18" fill="#4D90FE" rx="2"/>
    <path fill="#FFF" d="M7,13.034 L7,4.886 C7,4.2 7.448,3.738 8.148,3.738 C8.848,3.738 9.296,4.2 9.296,4.886 L9.296,13.034 C9.296,13.72 8.848,14.182 8.148,14.182 C7.448,14.182 7,13.72 7,13.034 Z M11.982,13.062 L11.982,4.872 C11.982,3.948 12.612,3.738 13.228,3.738 L13.9,3.738 C14.614,3.738 14.95,4.018 15.188,4.788 L17.19,11.256 L17.218,11.256 L19.192,4.788 C19.43,4.018 19.766,3.738 20.48,3.738 L21.124,3.738 C21.74,3.738 22.37,3.948 22.37,4.872 L22.37,13.062 C22.37,13.636 22.09,14.182 21.348,14.182 C20.606,14.182 20.326,13.636 20.326,13.062 L20.326,6.818 L20.298,6.818 L18.156,13.51 C18.002,13.986 17.652,14.182 17.176,14.182 C16.7,14.182 16.35,13.986 16.196,13.51 L14.054,6.818 L14.026,6.818 L14.026,13.062 C14.026,13.636 13.746,14.182 13.004,14.182 C12.262,14.182 11.982,13.636 11.982,13.062 Z M33.908,9.618 L33.908,13.412 C33.908,13.832 33.586,14.182 33.124,14.182 C32.466,14.182 32.284,13.776 32.144,12.88 C31.486,13.706 30.576,14.238 29.148,14.238 C25.592,14.238 24.234,11.788 24.234,8.96 C24.234,5.558 26.362,3.682 29.484,3.682 C32.032,3.682 33.39,5.208 33.39,6.104 C33.39,6.902 32.802,7.112 32.312,7.112 C31.178,7.112 31.598,5.53 29.358,5.53 C27.776,5.53 26.53,6.566 26.53,9.114 C26.53,11.102 27.51,12.474 29.386,12.474 C30.604,12.474 31.668,11.648 31.78,10.416 L30.282,10.416 C29.792,10.416 29.246,10.234 29.246,9.534 C29.246,8.974 29.568,8.652 30.142,8.652 L32.97,8.652 C33.642,8.652 33.908,8.988 33.908,9.618 Z"/>
    <path fill="#4D90FE" fill-rule="nonzero" d="M1,25 L39,25 C39.5522847,25 40,25.4477153 40,26 L40,57 C40,57.5522847 39.5522847,58 39,58 L1,58 C0.44771525,58 6.76353751e-17,57.5522847 0,57 L0,26 C-6.76353751e-17,25.4477153 0.44771525,25 1,25 Z M2.5,56 L37.5,56 C37.7761424,56 38,55.7761424 38,55.5 L38,27.5 C38,27.2238576 37.7761424,27 37.5,27 L2.5,27 C2.22385763,27 2,27.2238576 2,27.5 L2,55.5 C2,55.7761424 2.22385763,56 2.5,56 Z"/>
    <path fill="#4D90FE" d="M16.2714157,34.1287009 L16.2714157,29.9046237 L20.4900631,34.1287009 L16.2714157,34.1287009 Z M16.3273132,29.3383556 C15.5982012,29.6906055 15.0512884,30.2844251 14.6518063,30.957505 C14.0097337,29.8766774 12.9889139,29 11.4429411,29 C9.8961799,29 8,30.314424 8,32.5345769 C8,34.7825183 9.87331631,35.8479517 10.801105,36.4496658 C11.7928328,37.0921152 13.4849749,38.2604132 14.6518063,40.4223051 C15.819032,38.2604132 17.5109375,37.0921152 18.5029019,36.4496658 C19.199926,35.9972355 20.4314062,35.2828678 21,34.0012057 L16.3273132,29.3383556 Z"/>
    <path fill="#4D90FE" fill-rule="nonzero" d="M39.7231553,50.1952335 L39.7231553,57.3318889 L2,57.3318889 L2,53.3379457 L11.7377806,43.600165 C12.1470376,43.1908099 12.8101399,43.1908099 13.2194951,43.600165 L19.4688662,49.8495362 C19.8658435,50.2445487 20.5535052,50.2445487 20.9505807,49.8495362 C21.1480378,49.6509984 21.2575725,49.388017 21.2575725,49.1086298 C21.2575725,48.8292427 21.1480378,48.5662612 20.9505807,48.3677235 L18.4035801,45.8207228 C17.9952073,45.4134307 17.9942249,44.7523913 18.3994541,44.3430361 L25.3559379,37.3170002 C25.5524127,37.1173819 25.7478068,36.968061 26.100872,37.0058824 C26.3792767,37.0058824 26.6453036,37.1163995 26.8417783,37.3128743 L39.7231553,50.1952335 Z"/>
  </g>
</svg>
