<svg xmlns="http://www.w3.org/2000/svg" width="40" height="58" viewBox="0 0 40 58">
  <g fill="none" fill-rule="evenodd">
    <rect width="40" height="18" fill="#4D90FE" rx="2"/>
    <path fill="#FFF" d="M11.92,4.886 L11.92,10.85 C11.92,12.964 10.744,14.238 8.476,14.238 C5.718,14.238 5.2,12.404 5.2,11.41 C5.2,10.556 5.592,10.01 6.292,10.01 C7.118,10.01 7.328,10.654 7.328,11.34 C7.328,11.998 7.636,12.474 8.448,12.474 C9.204,12.474 9.624,11.914 9.624,10.822 L9.624,4.886 C9.624,4.2 10.072,3.738 10.772,3.738 C11.472,3.738 11.92,4.2 11.92,4.886 Z M14.648,13.034 L14.648,5.264 C14.648,4.242 15.18,3.92 15.992,3.92 L19.506,3.92 C21.438,3.92 22.992,4.872 22.992,7.112 C22.992,8.946 21.718,10.304 19.492,10.304 L16.944,10.304 L16.944,13.034 C16.944,13.72 16.496,14.182 15.796,14.182 C15.096,14.182 14.648,13.72 14.648,13.034 Z M16.944,5.684 L16.944,8.54 L19.086,8.54 C20.01,8.54 20.696,7.98 20.696,7.112 C20.696,6.104 19.982,5.684 18.848,5.684 L16.944,5.684 Z M34.156,9.618 L34.156,13.412 C34.156,13.832 33.834,14.182 33.372,14.182 C32.714,14.182 32.532,13.776 32.392,12.88 C31.734,13.706 30.824,14.238 29.396,14.238 C25.84,14.238 24.482,11.788 24.482,8.96 C24.482,5.558 26.61,3.682 29.732,3.682 C32.28,3.682 33.638,5.208 33.638,6.104 C33.638,6.902 33.05,7.112 32.56,7.112 C31.426,7.112 31.846,5.53 29.606,5.53 C28.024,5.53 26.778,6.566 26.778,9.114 C26.778,11.102 27.758,12.474 29.634,12.474 C30.852,12.474 31.916,11.648 32.028,10.416 L30.53,10.416 C30.04,10.416 29.494,10.234 29.494,9.534 C29.494,8.974 29.816,8.652 30.39,8.652 L33.218,8.652 C33.89,8.652 34.156,8.988 34.156,9.618 Z"/>
    <path fill="#4D90FE" fill-rule="nonzero" d="M1,25 L39,25 C39.5522847,25 40,25.4477153 40,26 L40,57 C40,57.5522847 39.5522847,58 39,58 L1,58 C0.44771525,58 6.76353751e-17,57.5522847 0,57 L0,26 C-6.76353751e-17,25.4477153 0.44771525,25 1,25 Z M2.5,56 L37.5,56 C37.7761424,56 38,55.7761424 38,55.5 L38,27.5 C38,27.2238576 37.7761424,27 37.5,27 L2.5,27 C2.22385763,27 2,27.2238576 2,27.5 L2,55.5 C2,55.7761424 2.22385763,56 2.5,56 Z"/>
    <path fill="#4D90FE" d="M16.2714157,34.1287009 L16.2714157,29.9046237 L20.4900631,34.1287009 L16.2714157,34.1287009 Z M16.3273132,29.3383556 C15.5982012,29.6906055 15.0512884,30.2844251 14.6518063,30.957505 C14.0097337,29.8766774 12.9889139,29 11.4429411,29 C9.8961799,29 8,30.314424 8,32.5345769 C8,34.7825183 9.87331631,35.8479517 10.801105,36.4496658 C11.7928328,37.0921152 13.4849749,38.2604132 14.6518063,40.4223051 C15.819032,38.2604132 17.5109375,37.0921152 18.5029019,36.4496658 C19.199926,35.9972355 20.4314062,35.2828678 21,34.0012057 L16.3273132,29.3383556 Z"/>
    <path fill="#4D90FE" fill-rule="nonzero" d="M39.7231553,50.1952335 L39.7231553,57.3318889 L2,57.3318889 L2,53.3379457 L11.7377806,43.600165 C12.1470376,43.1908099 12.8101399,43.1908099 13.2194951,43.600165 L19.4688662,49.8495362 C19.8658435,50.2445487 20.5535052,50.2445487 20.9505807,49.8495362 C21.1480378,49.6509984 21.2575725,49.388017 21.2575725,49.1086298 C21.2575725,48.8292427 21.1480378,48.5662612 20.9505807,48.3677235 L18.4035801,45.8207228 C17.9952073,45.4134307 17.9942249,44.7523913 18.3994541,44.3430361 L25.3559379,37.3170002 C25.5524127,37.1173819 25.7478068,36.968061 26.100872,37.0058824 C26.3792767,37.0058824 26.6453036,37.1163995 26.8417783,37.3128743 L39.7231553,50.1952335 Z"/>
  </g>
</svg>
