<svg xmlns="http://www.w3.org/2000/svg" width="40" height="58" viewBox="0 0 40 58">
  <g fill="none" fill-rule="evenodd">
    <rect width="40" height="18" fill="#4D90FE" rx="2"/>
    <path fill="#FFF" d="M5.97099996,13.076 L5.97099996,5.082 C5.97099996,4.13 6.43299996,3.738 7.41299996,3.738 C7.88899996,3.738 8.30899996,3.92 8.56099996,4.34 L12.579,10.822 L12.607,10.822 L12.607,4.844 C12.607,4.102 13.027,3.738 13.713,3.738 C14.399,3.738 14.819,4.102 14.819,4.844 L14.819,12.754 C14.819,13.664 14.427,14.182 13.461,14.182 C12.733,14.182 12.495,14.028 12.201,13.566 L8.21099996,7.266 L8.18299996,7.266 L8.18299996,13.076 C8.18299996,13.818 7.76299996,14.182 7.07699996,14.182 C6.39099996,14.182 5.97099996,13.818 5.97099996,13.076 Z M17.561,12.656 L17.561,5.264 C17.561,4.242 18.093,3.92 18.905,3.92 L24.295,3.92 C24.967,3.92 25.457,4.116 25.457,4.844 C25.457,5.572 24.967,5.768 24.295,5.768 L19.857,5.768 L19.857,7.952 L23.749,7.952 C24.351,7.952 24.827,8.12 24.827,8.834 C24.827,9.548 24.351,9.716 23.749,9.716 L19.857,9.716 L19.857,12.152 L24.407,12.152 C25.079,12.152 25.569,12.348 25.569,13.076 C25.569,13.804 25.079,14 24.407,14 L18.905,14 C18.093,14 17.561,13.678 17.561,12.656 Z M27.751,13.034 L27.751,5.264 C27.751,4.242 28.283,3.92 29.095,3.92 L34.149,3.92 C34.821,3.92 35.311,4.116 35.311,4.844 C35.311,5.572 34.821,5.768 34.149,5.768 L30.047,5.768 L30.047,8.12 L33.519,8.12 C34.121,8.12 34.597,8.288 34.597,9.002 C34.597,9.716 34.121,9.884 33.519,9.884 L30.047,9.884 L30.047,13.034 C30.047,13.72 29.599,14.182 28.899,14.182 C28.199,14.182 27.751,13.72 27.751,13.034 Z"/>
    <path fill="#4D90FE" fill-rule="nonzero" d="M1,25 L39,25 C39.5522847,25 40,25.4477153 40,26 L40,57 C40,57.5522847 39.5522847,58 39,58 L1,58 C0.44771525,58 6.76353751e-17,57.5522847 0,57 L0,26 C-6.76353751e-17,25.4477153 0.44771525,25 1,25 Z M2.5,56 L37.5,56 C37.7761424,56 38,55.7761424 38,55.5 L38,27.5 C38,27.2238576 37.7761424,27 37.5,27 L2.5,27 C2.22385763,27 2,27.2238576 2,27.5 L2,55.5 C2,55.7761424 2.22385763,56 2.5,56 Z"/>
    <path fill="#4D90FE" d="M16.2714157,34.1287009 L16.2714157,29.9046237 L20.4900631,34.1287009 L16.2714157,34.1287009 Z M16.3273132,29.3383556 C15.5982012,29.6906055 15.0512884,30.2844251 14.6518063,30.957505 C14.0097337,29.8766774 12.9889139,29 11.4429411,29 C9.8961799,29 8,30.314424 8,32.5345769 C8,34.7825183 9.87331631,35.8479517 10.801105,36.4496658 C11.7928328,37.0921152 13.4849749,38.2604132 14.6518063,40.4223051 C15.819032,38.2604132 17.5109375,37.0921152 18.5029019,36.4496658 C19.199926,35.9972355 20.4314062,35.2828678 21,34.0012057 L16.3273132,29.3383556 Z"/>
    <path fill="#4D90FE" fill-rule="nonzero" d="M39.7231553,50.1952335 L39.7231553,57.3318889 L2,57.3318889 L2,53.3379457 L11.7377806,43.600165 C12.1470376,43.1908099 12.8101399,43.1908099 13.2194951,43.600165 L19.4688662,49.8495362 C19.8658435,50.2445487 20.5535052,50.2445487 20.9505807,49.8495362 C21.1480378,49.6509984 21.2575725,49.388017 21.2575725,49.1086298 C21.2575725,48.8292427 21.1480378,48.5662612 20.9505807,48.3677235 L18.4035801,45.8207228 C17.9952073,45.4134307 17.9942249,44.7523913 18.3994541,44.3430361 L25.3559379,37.3170002 C25.5524127,37.1173819 25.7478068,36.968061 26.100872,37.0058824 C26.3792767,37.0058824 26.6453036,37.1163995 26.8417783,37.3128743 L39.7231553,50.1952335 Z"/>
  </g>
</svg>
