<svg xmlns="http://www.w3.org/2000/svg" width="40" height="58" viewBox="0 0 40 58">
  <g fill="none" fill-rule="evenodd">
    <rect width="40" height="18" fill="#FBAF0D" rx="2"/>
    <path fill="#FFF" d="M4.76299996,8.834 C4.76299996,5.88 6.55499996,3.682 9.85899996,3.682 C13.163,3.682 14.955,5.88 14.955,8.834 C14.955,11.676 13.303,14.238 9.85899996,14.238 C6.24699996,14.238 4.76299996,11.886 4.76299996,8.834 Z M7.05899996,8.834 C7.05899996,10.766 7.70299996,12.39 9.85899996,12.39 C11.945,12.39 12.659,10.766 12.659,8.834 C12.659,6.902 11.735,5.53 9.85899996,5.53 C7.98299996,5.53 7.05899996,6.902 7.05899996,8.834 Z M17.235,12.656 L17.235,5.264 C17.235,4.242 17.767,3.92 18.579,3.92 L21.379,3.92 C23.885,3.92 26.181,5.012 26.181,8.96 C26.181,12.152 24.403,14 21.337,14 L18.579,14 C17.767,14 17.235,13.678 17.235,12.656 Z M19.531,5.768 L19.531,12.152 L21.463,12.152 C23.297,12.152 23.885,10.514 23.885,8.96 C23.885,6.972 23.129,5.768 21.449,5.768 L19.531,5.768 Z M28.461,13.034 L28.461,5.264 C28.461,4.242 28.993,3.92 29.805,3.92 L33.319,3.92 C35.251,3.92 36.805,4.872 36.805,7.112 C36.805,8.946 35.531,10.304 33.305,10.304 L30.757,10.304 L30.757,13.034 C30.757,13.72 30.309,14.182 29.609,14.182 C28.909,14.182 28.461,13.72 28.461,13.034 Z M30.757,5.684 L30.757,8.54 L32.899,8.54 C33.823,8.54 34.509,7.98 34.509,7.112 C34.509,6.104 33.795,5.684 32.661,5.684 L30.757,5.684 Z"/>
    <rect width="40" height="33" y="25" fill="#FBAF0D" fill-rule="nonzero" rx="1"/>
    <path fill="#FFF" fill-rule="nonzero" d="M13.7681159,37.7971014 L13.7681159,46.2028986 L26.2318841,46.2028986 L26.2318841,37.7971014 L13.7681159,37.7971014 Z M10,32 L30,32 L30,52 L10,52 L10,32 Z"/>
  </g>
</svg>
