<svg xmlns="http://www.w3.org/2000/svg" width="40" height="58" viewBox="0 0 40 58">
  <g fill="none" fill-rule="evenodd">
    <rect width="40" height="18" fill="#0ACD5D" rx="2"/>
    <path fill="#FFF" d="M4.89599996,8.834 C4.89599996,5.88 6.68799996,3.682 9.99199996,3.682 C13.296,3.682 15.088,5.88 15.088,8.834 C15.088,11.676 13.436,14.238 9.99199996,14.238 C6.37999996,14.238 4.89599996,11.886 4.89599996,8.834 Z M7.19199996,8.834 C7.19199996,10.766 7.83599996,12.39 9.99199996,12.39 C12.078,12.39 12.792,10.766 12.792,8.834 C12.792,6.902 11.868,5.53 9.99199996,5.53 C8.11599996,5.53 7.19199996,6.902 7.19199996,8.834 Z M17.368,12.656 L17.368,5.264 C17.368,4.242 17.9,3.92 18.712,3.92 L21.512,3.92 C24.018,3.92 26.314,5.012 26.314,8.96 C26.314,12.152 24.536,14 21.47,14 L18.712,14 C17.9,14 17.368,13.678 17.368,12.656 Z M19.664,5.768 L19.664,12.152 L21.596,12.152 C23.43,12.152 24.018,10.514 24.018,8.96 C24.018,6.972 23.262,5.768 21.582,5.768 L19.664,5.768 Z M31.954,7.728 L33.872,8.162 C35.972,8.638 36.504,9.884 36.504,11.06 C36.504,12.88 35.132,14.238 32.36,14.238 C29.448,14.238 28.146,12.782 28.146,11.69 C28.146,11.13 28.552,10.738 29.112,10.738 C30.358,10.738 30.036,12.558 32.36,12.558 C33.55,12.558 34.208,11.9 34.208,11.228 C34.208,10.822 34.012,10.374 33.228,10.178 L30.638,9.52 C28.552,8.988 28.174,7.84 28.174,6.762 C28.174,4.522 30.246,3.682 32.192,3.682 C33.984,3.682 36.098,4.69 36.098,6.034 C36.098,6.608 35.608,6.944 35.048,6.944 C33.984,6.944 34.18,5.446 32.038,5.446 C30.974,5.446 30.386,5.936 30.386,6.636 C30.386,7.336 31.226,7.56 31.954,7.728 Z"/>
    <rect width="40" height="33" y="25" fill="#0ACD5D" fill-rule="nonzero" rx="1"/>
    <g fill="#FFF" fill-rule="nonzero" transform="translate(10 32)">
      <polygon points="8.986 1.449 11.014 1.449 11.014 18.551 8.986 18.551"/>
      <polygon points="1.449 11.014 1.449 8.986 18.841 8.986 18.841 11.014"/>
      <path d="M3.76811594,3.76811594 L3.76811594,16.2318841 L16.2318841,16.2318841 L16.2318841,3.76811594 L3.76811594,3.76811594 Z M0,0 L20,0 L20,20 L0,20 L0,0 Z"/>
    </g>
  </g>
</svg>
