<svg xmlns="http://www.w3.org/2000/svg" width="40" height="58" viewBox="0 0 40 58">
  <g fill="none" fill-rule="evenodd">
    <rect width="40" height="18" fill="#0A98CD" rx="2"/>
    <path fill="#FFF" d="M5.01499996,8.834 C5.01499996,5.88 6.80699996,3.682 10.111,3.682 C13.415,3.682 15.207,5.88 15.207,8.834 C15.207,11.676 13.555,14.238 10.111,14.238 C6.49899996,14.238 5.01499996,11.886 5.01499996,8.834 Z M7.31099996,8.834 C7.31099996,10.766 7.95499996,12.39 10.111,12.39 C12.197,12.39 12.911,10.766 12.911,8.834 C12.911,6.902 11.987,5.53 10.111,5.53 C8.23499996,5.53 7.31099996,6.902 7.31099996,8.834 Z M17.487,12.656 L17.487,5.264 C17.487,4.242 18.019,3.92 18.831,3.92 L21.631,3.92 C24.137,3.92 26.433,5.012 26.433,8.96 C26.433,12.152 24.655,14 21.589,14 L18.831,14 C18.019,14 17.487,13.678 17.487,12.656 Z M19.783,5.768 L19.783,12.152 L21.715,12.152 C23.549,12.152 24.137,10.514 24.137,8.96 C24.137,6.972 23.381,5.768 21.701,5.768 L19.783,5.768 Z M31.177,13.034 L31.177,5.852 L29.007,5.852 C28.349,5.852 27.817,5.516 27.817,4.886 C27.817,4.256 28.349,3.92 29.007,3.92 L35.643,3.92 C36.301,3.92 36.833,4.256 36.833,4.886 C36.833,5.516 36.301,5.852 35.643,5.852 L33.473,5.852 L33.473,13.034 C33.473,13.72 33.025,14.182 32.325,14.182 C31.625,14.182 31.177,13.72 31.177,13.034 Z"/>
    <rect width="40" height="33" y="25" fill="#0A98CD" fill-rule="nonzero" rx="1"/>
    <g fill="#FFF" fill-rule="nonzero" transform="translate(10 32)">
      <rect width="20" height="4"/>
      <rect width="20" height="4" y="8"/>
      <rect width="20" height="4" y="16"/>
    </g>
  </g>
</svg>
