<svg xmlns="http://www.w3.org/2000/svg" width="40" height="58" viewBox="0 0 40 58">
  <g fill="none" fill-rule="evenodd">
    <rect width="40" height="18" fill="#4D90FE" rx="2"/>
    <path fill="#FFF" d="M5,8.834 C5,5.88 6.792,3.682 10.096,3.682 C13.4,3.682 15.192,5.88 15.192,8.834 C15.192,11.676 13.54,14.238 10.096,14.238 C6.484,14.238 5,11.886 5,8.834 Z M7.296,8.834 C7.296,10.766 7.94,12.39 10.096,12.39 C12.182,12.39 12.896,10.766 12.896,8.834 C12.896,6.902 11.972,5.53 10.096,5.53 C8.22,5.53 7.296,6.902 7.296,8.834 Z M17.172,13.034 L17.172,5.264 C17.172,4.242 17.704,3.92 18.516,3.92 L22.338,3.92 C25.068,3.92 25.796,5.418 25.796,6.72 C25.796,7.812 25.152,8.89 24.06,9.142 L24.06,9.17 C25.236,9.338 25.446,10.192 25.446,11.214 C25.446,12.376 25.754,12.81 25.754,13.286 C25.754,13.818 25.208,14.182 24.676,14.182 C23.416,14.182 23.318,12.964 23.318,12.558 C23.318,10.794 22.996,10.08 21.736,10.08 L19.468,10.08 L19.468,13.034 C19.468,13.72 19.02,14.182 18.32,14.182 C17.62,14.182 17.172,13.72 17.172,13.034 Z M19.468,5.684 L19.468,8.4 L21.764,8.4 C22.632,8.4 23.5,8.176 23.5,7.042 C23.5,5.964 22.842,5.684 21.834,5.684 L19.468,5.684 Z M27.902,13.034 L27.902,5.264 C27.902,4.242 28.434,3.92 29.246,3.92 L34.3,3.92 C34.972,3.92 35.462,4.116 35.462,4.844 C35.462,5.572 34.972,5.768 34.3,5.768 L30.198,5.768 L30.198,8.12 L33.67,8.12 C34.272,8.12 34.748,8.288 34.748,9.002 C34.748,9.716 34.272,9.884 33.67,9.884 L30.198,9.884 L30.198,13.034 C30.198,13.72 29.75,14.182 29.05,14.182 C28.35,14.182 27.902,13.72 27.902,13.034 Z"/>
    <path fill="#4D90FE" fill-rule="nonzero" d="M1,25 L39,25 C39.5522847,25 40,25.4477153 40,26 L40,57 C40,57.5522847 39.5522847,58 39,58 L1,58 C0.44771525,58 6.76353751e-17,57.5522847 0,57 L0,26 C-6.76353751e-17,25.4477153 0.44771525,25 1,25 Z M2.5,56 L37.5,56 C37.7761424,56 38,55.7761424 38,55.5 L38,27.5 C38,27.2238576 37.7761424,27 37.5,27 L2.5,27 C2.22385763,27 2,27.2238576 2,27.5 L2,55.5 C2,55.7761424 2.22385763,56 2.5,56 Z"/>
    <path fill="#4D90FE" d="M16.2714157,34.1287009 L16.2714157,29.9046237 L20.4900631,34.1287009 L16.2714157,34.1287009 Z M16.3273132,29.3383556 C15.5982012,29.6906055 15.0512884,30.2844251 14.6518063,30.957505 C14.0097337,29.8766774 12.9889139,29 11.4429411,29 C9.8961799,29 8,30.314424 8,32.5345769 C8,34.7825183 9.87331631,35.8479517 10.801105,36.4496658 C11.7928328,37.0921152 13.4849749,38.2604132 14.6518063,40.4223051 C15.819032,38.2604132 17.5109375,37.0921152 18.5029019,36.4496658 C19.199926,35.9972355 20.4314062,35.2828678 21,34.0012057 L16.3273132,29.3383556 Z"/>
    <path fill="#4D90FE" fill-rule="nonzero" d="M39.7231553,50.1952335 L39.7231553,57.3318889 L2,57.3318889 L2,53.3379457 L11.7377806,43.600165 C12.1470376,43.1908099 12.8101399,43.1908099 13.2194951,43.600165 L19.4688662,49.8495362 C19.8658435,50.2445487 20.5535052,50.2445487 20.9505807,49.8495362 C21.1480378,49.6509984 21.2575725,49.388017 21.2575725,49.1086298 C21.2575725,48.8292427 21.1480378,48.5662612 20.9505807,48.3677235 L18.4035801,45.8207228 C17.9952073,45.4134307 17.9942249,44.7523913 18.3994541,44.3430361 L25.3559379,37.3170002 C25.5524127,37.1173819 25.7478068,36.968061 26.100872,37.0058824 C26.3792767,37.0058824 26.6453036,37.1163995 26.8417783,37.3128743 L39.7231553,50.1952335 Z"/>
  </g>
</svg>
