<svg xmlns="http://www.w3.org/2000/svg" width="44" height="47" viewBox="0 0 44 47">
  <g fill="#161616">
    <path d="M6.57621622 32.8533333L37.2652252 32.8533333C40.8971692 32.8533333 43.8414414 35.7976056 43.8414414 39.4295495 43.8414414 43.0614935 40.8971692 46.0057658 37.2652252 46.0057658L6.57621622 46.0057658C2.94427229 46.0057658 4.44784851e-16 43.0614935 0 39.4295495-4.44784851e-16 35.7976056 2.94427229 32.8533333 6.57621622 32.8533333zM8.22027027 40.9879758C9.16611512 40.9879758 9.93282658 40.2212643 9.93282658 39.2754195 9.93282658 38.3295746 9.16611512 37.5628632 8.22027027 37.5628632 7.27442542 37.5628632 6.50771396 38.3295746 6.50771396 39.2754195 6.50771396 40.2212643 7.27442542 40.9879758 8.22027027 40.9879758zM15.0704955 40.9879758C16.0163403 40.9879758 16.7830518 40.2212643 16.7830518 39.2754195 16.7830518 38.3295746 16.0163403 37.5628632 15.0704955 37.5628632 14.1246506 37.5628632 13.3579392 38.3295746 13.3579392 39.2754195 13.3579392 40.2212643 14.1246506 40.9879758 15.0704955 40.9879758zM21.9207207 40.9879758C22.8665656 40.9879758 23.633277 40.2212643 23.633277 39.2754195 23.633277 38.3295746 22.8665656 37.5628632 21.9207207 37.5628632 20.9748759 37.5628632 20.2081644 38.3295746 20.2081644 39.2754195 20.2081644 40.2212643 20.9748759 40.9879758 21.9207207 40.9879758zM28.7709459 40.9879758C29.7167908 40.9879758 30.4835023 40.2212643 30.4835023 39.2754195 30.4835023 38.3295746 29.7167908 37.5628632 28.7709459 37.5628632 27.8251011 37.5628632 27.0583896 38.3295746 27.0583896 39.2754195 27.0583896 40.2212643 27.8251011 40.9879758 28.7709459 40.9879758zM35.6211712 40.9879758C36.567016 40.9879758 37.3337275 40.2212643 37.3337275 39.2754195 37.3337275 38.3295746 36.567016 37.5628632 35.6211712 37.5628632 34.6753263 37.5628632 33.9086149 38.3295746 33.9086149 39.2754195 33.9086149 40.2212643 34.6753263 40.9879758 35.6211712 40.9879758zM30.7599431 11.8520228C31.6883796 11.8520228 32.4410811 12.6047243 32.4410811 13.5331607L32.4410811 26.9822646C32.4410811 27.910701 31.6883796 28.6634026 30.7599431 28.6634026L12.8278046 28.6634026C11.8993682 28.6634026 11.1466667 27.910701 11.1466667 26.9822646L11.1466667 13.5331607C11.1466667 12.6047243 11.8993682 11.8520228 12.8278046 11.8520228L13.388184 11.8520228 13.388184 8.4056899C13.388184 3.77079249 17.1589765 0 21.7938739 0 26.4287713 0 30.1995638 3.77079249 30.1995638 8.4056899L30.1995638 11.8520228 30.7599431 11.8520228zM23.1248933 21.0283969C23.8015093 20.625693 24.2782874 19.9187985 24.2781792 19.0761915 24.2781792 17.804495 23.2429794 16.7692952 21.971283 16.7692952 20.6995865 16.7692952 19.6643867 17.804495 19.6643867 19.0761915 19.6643867 19.9186904 20.1411647 20.625693 20.8178889 21.0283969L20.8178889 22.53659C20.8178889 23.1741684 21.3338127 23.6900922 21.9713911 23.6900922 22.6089695 23.6900922 23.1248933 23.1741684 23.1248933 22.53659L23.1248933 21.0283969zM26.8372878 11.8520228L26.8372878 8.4056899C26.8372878 5.62475145 24.5748123 3.36227596 21.7938739 3.36227596 19.0129354 3.36227596 16.7504599 5.62475145 16.7504599 8.4056899L16.7504599 11.8520228 26.8372878 11.8520228z"/>
  </g>
</svg>
