<svg xmlns="http://www.w3.org/2000/svg" width="40" height="58" viewBox="0 0 40 58">
  <g fill="none" fill-rule="evenodd">
    <rect width="40" height="18" fill="#E5322D" rx="2"/>
    <path stroke="#E5322D" stroke-linecap="round" stroke-linejoin="round" stroke-width="2" d="M1 57L39 57M1 48L39 48M23 39L38.6889648 39M23 30L38.6889648 30"/>
    <path fill="#E5322D" d="M11.2294779,31.9628508 L11.2294779,26.2281395 L16.9568177,31.9628508 L11.2294779,31.9628508 Z M11.3053658,25.45936 C10.3155054,25.937583 9.57300307,26.7437672 9.03065634,27.657557 C8.15896269,26.1901988 6.77307253,25 4.67422174,25 C2.5743006,25 0,26.7844944 0,29.7986288 C0,32.8504894 2.54326043,34.2969481 3.80284919,35.11385 C5.1492434,35.9860552 7.44653723,37.5721653 9.03065634,40.5072032 C10.6153106,37.5721653 12.9122833,35.9860552 14.2589987,35.11385 C15.2052958,34.4996195 16.8771836,33.5297763 17.6491206,31.7897602 L11.3053658,25.45936 Z"/>
    <path fill="#FFF" d="M6,13.114 L6,5.344 C6,4.322 6.532,4 7.344,4 L10.858,4 C12.79,4 14.344,4.952 14.344,7.192 C14.344,9.026 13.07,10.384 10.844,10.384 L8.296,10.384 L8.296,13.114 C8.296,13.8 7.848,14.262 7.148,14.262 C6.448,14.262 6,13.8 6,13.114 Z M8.296,5.764 L8.296,8.62 L10.438,8.62 C11.362,8.62 12.048,8.06 12.048,7.192 C12.048,6.184 11.334,5.764 10.2,5.764 L8.296,5.764 Z M16.156,12.736 L16.156,5.344 C16.156,4.322 16.688,4 17.5,4 L20.3,4 C22.806,4 25.102,5.092 25.102,9.04 C25.102,12.232 23.324,14.08 20.258,14.08 L17.5,14.08 C16.688,14.08 16.156,13.758 16.156,12.736 Z M18.452,5.848 L18.452,12.232 L20.384,12.232 C22.218,12.232 22.806,10.594 22.806,9.04 C22.806,7.052 22.05,5.848 20.37,5.848 L18.452,5.848 Z M27.138,13.114 L27.138,5.344 C27.138,4.322 27.67,4 28.482,4 L33.536,4 C34.208,4 34.698,4.196 34.698,4.924 C34.698,5.652 34.208,5.848 33.536,5.848 L29.434,5.848 L29.434,8.2 L32.906,8.2 C33.508,8.2 33.984,8.368 33.984,9.082 C33.984,9.796 33.508,9.964 32.906,9.964 L29.434,9.964 L29.434,13.114 C29.434,13.8 28.986,14.262 28.286,14.262 C27.586,14.262 27.138,13.8 27.138,13.114 Z"/>
  </g>
</svg>
