<svg xmlns="http://www.w3.org/2000/svg" width="40" height="58" viewBox="0 0 40 58">
  <g fill="none" fill-rule="evenodd">
    <rect width="40" height="18" fill="#4D90FE" rx="2"/>
    <path fill="#FFF" d="M7.13099999,13.034 L7.13099999,5.264 C7.13099999,4.242 7.66299999,3.92 8.47499999,3.92 L11.989,3.92 C13.921,3.92 15.475,4.872 15.475,7.112 C15.475,8.946 14.201,10.304 11.975,10.304 L9.42699999,10.304 L9.42699999,13.034 C9.42699999,13.72 8.97899999,14.182 8.27899999,14.182 C7.57899999,14.182 7.13099999,13.72 7.13099999,13.034 Z M9.42699999,5.684 L9.42699999,8.54 L11.569,8.54 C12.493,8.54 13.179,7.98 13.179,7.112 C13.179,6.104 12.465,5.684 11.331,5.684 L9.42699999,5.684 Z M17.343,12.656 L17.343,5.264 C17.343,4.242 17.875,3.92 18.687,3.92 L24.077,3.92 C24.749,3.92 25.239,4.116 25.239,4.844 C25.239,5.572 24.749,5.768 24.077,5.768 L19.639,5.768 L19.639,7.952 L23.531,7.952 C24.133,7.952 24.609,8.12 24.609,8.834 C24.609,9.548 24.133,9.716 23.531,9.716 L19.639,9.716 L19.639,12.152 L24.189,12.152 C24.861,12.152 25.351,12.348 25.351,13.076 C25.351,13.804 24.861,14 24.189,14 L18.687,14 C17.875,14 17.343,13.678 17.343,12.656 Z M27.233,13.034 L27.233,5.264 C27.233,4.242 27.765,3.92 28.577,3.92 L33.631,3.92 C34.303,3.92 34.793,4.116 34.793,4.844 C34.793,5.572 34.303,5.768 33.631,5.768 L29.529,5.768 L29.529,8.12 L33.001,8.12 C33.603,8.12 34.079,8.288 34.079,9.002 C34.079,9.716 33.603,9.884 33.001,9.884 L29.529,9.884 L29.529,13.034 C29.529,13.72 29.081,14.182 28.381,14.182 C27.681,14.182 27.233,13.72 27.233,13.034 Z"/>
    <path fill="#4D90FE" fill-rule="nonzero" d="M1,25 L39,25 C39.5522847,25 40,25.4477153 40,26 L40,57 C40,57.5522847 39.5522847,58 39,58 L1,58 C0.44771525,58 6.76353751e-17,57.5522847 0,57 L0,26 C-6.76353751e-17,25.4477153 0.44771525,25 1,25 Z M2.5,56 L37.5,56 C37.7761424,56 38,55.7761424 38,55.5 L38,27.5 C38,27.2238576 37.7761424,27 37.5,27 L2.5,27 C2.22385763,27 2,27.2238576 2,27.5 L2,55.5 C2,55.7761424 2.22385763,56 2.5,56 Z"/>
    <path fill="#4D90FE" d="M16.2714157,34.1287009 L16.2714157,29.9046237 L20.4900631,34.1287009 L16.2714157,34.1287009 Z M16.3273132,29.3383556 C15.5982012,29.6906055 15.0512884,30.2844251 14.6518063,30.957505 C14.0097337,29.8766774 12.9889139,29 11.4429411,29 C9.8961799,29 8,30.314424 8,32.5345769 C8,34.7825183 9.87331631,35.8479517 10.801105,36.4496658 C11.7928328,37.0921152 13.4849749,38.2604132 14.6518063,40.4223051 C15.819032,38.2604132 17.5109375,37.0921152 18.5029019,36.4496658 C19.199926,35.9972355 20.4314062,35.2828678 21,34.0012057 L16.3273132,29.3383556 Z"/>
    <path fill="#4D90FE" fill-rule="nonzero" d="M39.7231553,50.1952335 L39.7231553,57.3318889 L2,57.3318889 L2,53.3379457 L11.7377806,43.600165 C12.1470376,43.1908099 12.8101399,43.1908099 13.2194951,43.600165 L19.4688662,49.8495362 C19.8658435,50.2445487 20.5535052,50.2445487 20.9505807,49.8495362 C21.1480378,49.6509984 21.2575725,49.388017 21.2575725,49.1086298 C21.2575725,48.8292427 21.1480378,48.5662612 20.9505807,48.3677235 L18.4035801,45.8207228 C17.9952073,45.4134307 17.9942249,44.7523913 18.3994541,44.3430361 L25.3559379,37.3170002 C25.5524127,37.1173819 25.7478068,36.968061 26.100872,37.0058824 C26.3792767,37.0058824 26.6453036,37.1163995 26.8417783,37.3128743 L39.7231553,50.1952335 Z"/>
  </g>
</svg>
