<svg xmlns="http://www.w3.org/2000/svg" width="40" height="58" viewBox="0 0 40 58">
  <g fill="none" fill-rule="evenodd">
    <rect width="40" height="18" fill="#4D90FE" rx="2"/>
    <path fill="#FFF" d="M5,13.034 L5,5.264 C5,4.242 5.532,3.92 6.344,3.92 L9.858,3.92 C11.79,3.92 13.344,4.872 13.344,7.112 C13.344,8.946 12.07,10.304 9.844,10.304 L7.296,10.304 L7.296,13.034 C7.296,13.72 6.848,14.182 6.148,14.182 C5.448,14.182 5,13.72 5,13.034 Z M7.296,5.684 L7.296,8.54 L9.438,8.54 C10.362,8.54 11.048,7.98 11.048,7.112 C11.048,6.104 10.334,5.684 9.2,5.684 L7.296,5.684 Z M15.114,13.076 L15.114,5.082 C15.114,4.13 15.576,3.738 16.556,3.738 C17.032,3.738 17.452,3.92 17.704,4.34 L21.722,10.822 L21.75,10.822 L21.75,4.844 C21.75,4.102 22.17,3.738 22.856,3.738 C23.542,3.738 23.962,4.102 23.962,4.844 L23.962,12.754 C23.962,13.664 23.57,14.182 22.604,14.182 C21.876,14.182 21.638,14.028 21.344,13.566 L17.354,7.266 L17.326,7.266 L17.326,13.076 C17.326,13.818 16.906,14.182 16.22,14.182 C15.534,14.182 15.114,13.818 15.114,13.076 Z M35.7,9.618 L35.7,13.412 C35.7,13.832 35.378,14.182 34.916,14.182 C34.258,14.182 34.076,13.776 33.936,12.88 C33.278,13.706 32.368,14.238 30.94,14.238 C27.384,14.238 26.026,11.788 26.026,8.96 C26.026,5.558 28.154,3.682 31.276,3.682 C33.824,3.682 35.182,5.208 35.182,6.104 C35.182,6.902 34.594,7.112 34.104,7.112 C32.97,7.112 33.39,5.53 31.15,5.53 C29.568,5.53 28.322,6.566 28.322,9.114 C28.322,11.102 29.302,12.474 31.178,12.474 C32.396,12.474 33.46,11.648 33.572,10.416 L32.074,10.416 C31.584,10.416 31.038,10.234 31.038,9.534 C31.038,8.974 31.36,8.652 31.934,8.652 L34.762,8.652 C35.434,8.652 35.7,8.988 35.7,9.618 Z"/>
    <path fill="#4D90FE" fill-rule="nonzero" d="M1,25 L39,25 C39.5522847,25 40,25.4477153 40,26 L40,57 C40,57.5522847 39.5522847,58 39,58 L1,58 C0.44771525,58 6.76353751e-17,57.5522847 0,57 L0,26 C-6.76353751e-17,25.4477153 0.44771525,25 1,25 Z M2.5,56 L37.5,56 C37.7761424,56 38,55.7761424 38,55.5 L38,27.5 C38,27.2238576 37.7761424,27 37.5,27 L2.5,27 C2.22385763,27 2,27.2238576 2,27.5 L2,55.5 C2,55.7761424 2.22385763,56 2.5,56 Z"/>
    <path fill="#4D90FE" d="M16.2714157,34.1287009 L16.2714157,29.9046237 L20.4900631,34.1287009 L16.2714157,34.1287009 Z M16.3273132,29.3383556 C15.5982012,29.6906055 15.0512884,30.2844251 14.6518063,30.957505 C14.0097337,29.8766774 12.9889139,29 11.4429411,29 C9.8961799,29 8,30.314424 8,32.5345769 C8,34.7825183 9.87331631,35.8479517 10.801105,36.4496658 C11.7928328,37.0921152 13.4849749,38.2604132 14.6518063,40.4223051 C15.819032,38.2604132 17.5109375,37.0921152 18.5029019,36.4496658 C19.199926,35.9972355 20.4314062,35.2828678 21,34.0012057 L16.3273132,29.3383556 Z"/>
    <path fill="#4D90FE" fill-rule="nonzero" d="M39.7231553,50.1952335 L39.7231553,57.3318889 L2,57.3318889 L2,53.3379457 L11.7377806,43.600165 C12.1470376,43.1908099 12.8101399,43.1908099 13.2194951,43.600165 L19.4688662,49.8495362 C19.8658435,50.2445487 20.5535052,50.2445487 20.9505807,49.8495362 C21.1480378,49.6509984 21.2575725,49.388017 21.2575725,49.1086298 C21.2575725,48.8292427 21.1480378,48.5662612 20.9505807,48.3677235 L18.4035801,45.8207228 C17.9952073,45.4134307 17.9942249,44.7523913 18.3994541,44.3430361 L25.3559379,37.3170002 C25.5524127,37.1173819 25.7478068,36.968061 26.100872,37.0058824 C26.3792767,37.0058824 26.6453036,37.1163995 26.8417783,37.3128743 L39.7231553,50.1952335 Z"/>
  </g>
</svg>
