<?xml version="1.0" encoding="UTF-8"?>
<svg width="44px" height="58px" viewBox="0 0 44 58" version="1.1" xmlns="http://www.w3.org/2000/svg" xmlns:xlink="http://www.w3.org/1999/xlink">
    <g id="Page-1" stroke="none" stroke-width="1" fill="none" fill-rule="evenodd">
        <g id="File-Icons" transform="translate(-131.000000, -325.000000)">
            <g id="PPTX" transform="translate(131.000000, 325.000000)">
                <g>
                    <path d="M4,40 L40,40 C42.209139,40 44,41.790861 44,44 L44,54 C44,56.209139 42.209139,58 40,58 L4,58 C1.790861,58 2.705415e-16,56.209139 0,54 L0,44 C-2.705415e-16,41.790861 1.790861,40 4,40 Z" id="Rectangle-2" fill="#E64A1A"></path>
                    <path d="M4,1.52645728e-16 L29,1.10668153e-15 L44,15 L44,52 C44,54.209139 42.209139,56 40,56 L4,56 C1.790861,56 2.705415e-16,54.209139 0,52 L0,4 C-2.705415e-16,1.790861 1.790861,4.05812251e-16 4,0 Z" id="Rectangle-2-Copy-8" fill="#F18767"></path>
                    <path d="M29,3.10862447e-14 L44,15 L33,15 C30.790861,15 29,13.209139 29,11 L29,3.10862447e-14 Z" id="Rectangle-2-Copy-9" fill="#E64A1A"></path>
                    <path d="M6.904,45.172 L6.904,38.512 C6.904,37.636 7.36,37.36 8.056,37.36 L11.068,37.36 C12.724,37.36 14.056,38.176 14.056,40.096 C14.056,41.668 12.964,42.832 11.056,42.832 L8.872,42.832 L8.872,45.172 C8.872,45.76 8.488,46.156 7.888,46.156 C7.288,46.156 6.904,45.76 6.904,45.172 Z M8.872,38.872 L8.872,41.32 L10.708,41.32 C11.5,41.32 12.088,40.84 12.088,40.096 C12.088,39.232 11.476,38.872 10.504,38.872 L8.872,38.872 Z M15.352,45.172 L15.352,38.512 C15.352,37.636 15.808,37.36 16.504,37.36 L19.516,37.36 C21.172,37.36 22.504,38.176 22.504,40.096 C22.504,41.668 21.412,42.832 19.504,42.832 L17.32,42.832 L17.32,45.172 C17.32,45.76 16.936,46.156 16.336,46.156 C15.736,46.156 15.352,45.76 15.352,45.172 Z M17.32,38.872 L17.32,41.32 L19.156,41.32 C19.948,41.32 20.536,40.84 20.536,40.096 C20.536,39.232 19.924,38.872 18.952,38.872 L17.32,38.872 Z M25.912,45.172 L25.912,39.016 L24.052,39.016 C23.488,39.016 23.032,38.728 23.032,38.188 C23.032,37.648 23.488,37.36 24.052,37.36 L29.74,37.36 C30.304,37.36 30.76,37.648 30.76,38.188 C30.76,38.728 30.304,39.016 29.74,39.016 L27.88,39.016 L27.88,45.172 C27.88,45.76 27.496,46.156 26.896,46.156 C26.296,46.156 25.912,45.76 25.912,45.172 Z M31.3,44.56 L33.364,41.548 L31.48,38.728 C31.36,38.548 31.276,38.356 31.276,38.128 C31.276,37.612 31.696,37.204 32.26,37.204 C32.728,37.204 32.956,37.48 33.076,37.684 L34.504,40.144 L36.028,37.684 C36.232,37.36 36.4,37.204 36.832,37.204 C37.312,37.204 37.78,37.468 37.78,38.092 C37.78,38.26 37.696,38.488 37.6,38.62 L35.596,41.548 L37.552,44.488 C37.756,44.8 37.876,44.956 37.876,45.184 C37.876,45.82 37.42,46.156 36.868,46.156 C36.544,46.156 36.268,46.084 36.04,45.7 L34.456,43.048 L32.752,45.772 C32.584,46.048 32.284,46.156 31.984,46.156 C31.408,46.156 31.036,45.796 31.036,45.316 C31.036,45.112 31.072,44.896 31.3,44.56 Z" fill="#FFFFFF"></path>
                </g>
            </g>
        </g>
    </g>
</svg>