<svg xmlns="http://www.w3.org/2000/svg" width="40" height="58" viewBox="0 0 40 58">
  <g fill="none" fill-rule="evenodd">
    <rect width="40" height="18" fill="#D24625" rx="2"/>
    <path fill="#FFF" d="M5.5,12.241 L5.5,6.136 C5.5,5.333 5.918,5.08 6.556,5.08 L9.317,5.08 C10.835,5.08 12.056,5.828 12.056,7.588 C12.056,9.029 11.055,10.096 9.306,10.096 L7.304,10.096 L7.304,12.241 C7.304,12.78 6.952,13.143 6.402,13.143 C5.852,13.143 5.5,12.78 5.5,12.241 Z M7.304,6.466 L7.304,8.71 L8.987,8.71 C9.713,8.71 10.252,8.27 10.252,7.588 C10.252,6.796 9.691,6.466 8.8,6.466 L7.304,6.466 Z M13.344,12.241 L13.344,6.136 C13.344,5.333 13.762,5.08 14.4,5.08 L17.161,5.08 C18.679,5.08 19.9,5.828 19.9,7.588 C19.9,9.029 18.899,10.096 17.15,10.096 L15.148,10.096 L15.148,12.241 C15.148,12.78 14.796,13.143 14.246,13.143 C13.696,13.143 13.344,12.78 13.344,12.241 Z M15.148,6.466 L15.148,8.71 L16.831,8.71 C17.557,8.71 18.096,8.27 18.096,7.588 C18.096,6.796 17.535,6.466 16.644,6.466 L15.148,6.466 Z M23.124,12.241 L23.124,6.598 L21.419,6.598 C20.902,6.598 20.484,6.334 20.484,5.839 C20.484,5.344 20.902,5.08 21.419,5.08 L26.633,5.08 C27.15,5.08 27.568,5.344 27.568,5.839 C27.568,6.334 27.15,6.598 26.633,6.598 L24.928,6.598 L24.928,12.241 C24.928,12.78 24.576,13.143 24.026,13.143 C23.476,13.143 23.124,12.78 23.124,12.241 Z M28.163,11.68 L30.055,8.919 L28.328,6.334 C28.218,6.169 28.141,5.993 28.141,5.784 C28.141,5.311 28.526,4.937 29.043,4.937 C29.472,4.937 29.681,5.19 29.791,5.377 L31.1,7.632 L32.497,5.377 C32.684,5.08 32.838,4.937 33.234,4.937 C33.674,4.937 34.103,5.179 34.103,5.751 C34.103,5.905 34.026,6.114 33.938,6.235 L32.101,8.919 L33.894,11.614 C34.081,11.9 34.191,12.043 34.191,12.252 C34.191,12.835 33.773,13.143 33.267,13.143 C32.97,13.143 32.717,13.077 32.508,12.725 L31.056,10.294 L29.494,12.791 C29.34,13.044 29.065,13.143 28.79,13.143 C28.262,13.143 27.921,12.813 27.921,12.373 C27.921,12.186 27.954,11.988 28.163,11.68 Z"/>
    <path fill="#D24625" fill-rule="nonzero" d="M21.0831329,24 L23.5418247,24 C23.5418247,25.1586778 23.5418247,26.3173556 23.5418247,27.4760291 C28.1773361,27.4991043 32.8171949,27.4333618 37.4483713,27.4956212 C38.4457199,27.4107221 39.2262581,28.1019929 39.126525,28.9903082 C39.2002526,36.205001 39.1089508,43.4235643 39.17,50.6421145 C39.126525,51.4222944 39.2567409,52.2874474 38.7537024,52.9787792 C38.1206027,53.3881674 37.2967024,53.3340932 36.5551955,53.3650052 C32.2188795,53.3454131 27.8825677,53.3532499 23.5419252,53.3532499 C23.5419252,54.6393549 23.5419252,55.9293652 23.5419252,57.2155093 L20.8447398,57.2155093 C14.2362019,56.1417829 7.61465075,55.1607882 1.00177787,54.1256931 C0.997777663,45.1150475 1.00177787,36.1044063 1.00177787,27.097627 C7.69270499,26.0664024 14.3836363,25.0158731 21.0832291,24.0000914 L21.0831329,24 Z M23.5418247,28.6346982 L23.5418205,28.6341279 C23.5418205,29.9164015 23.5418205,31.2025413 23.5418205,32.4848105 C24.2486353,32.3496685 24.9597934,32.2183577 25.6709472,32.0947532 C25.7312014,33.7709677 25.7058612,35.451044 25.7098614,37.1311247 C27.6091687,37.1311247 29.5128067,37.1276417 31.416449,37.1393969 C31.2733453,38.8078921 30.4060872,40.4802535 28.7452817,41.3569877 C27.2102234,42.2762194 25.2545492,42.2877874 23.5373642,41.8127265 C23.5421553,42.5697224 23.5421553,43.3267313 23.5461513,44.0837315 C27.0108742,44.0837315 30.4799152,44.0837315 33.9489689,44.0837315 C33.9489689,44.5974107 33.9489689,45.1149474 33.9489689,45.628644 C30.4799152,45.628644 27.0108742,45.628644 23.5418247,45.628644 C23.5418247,46.2736296 23.5418247,46.914762 23.5418247,47.5597694 C27.0108742,47.5597694 30.4799152,47.5597694 33.9489689,47.5597694 C33.9489689,48.0734398 33.9489689,48.5909809 33.9489689,49.1046601 C30.4799152,49.1046601 27.0108742,49.1046601 23.5418247,49.1046601 C23.5418247,50.1358933 23.5418247,51.1632561 23.5418247,52.1944719 C28.3117614,52.1944719 33.0817065,52.1944719 37.8516474,52.1944719 C37.8516474,44.3424955 37.8516474,36.4866747 37.8516474,28.6346982 C33.0817065,28.6346982 28.3117614,28.6346982 23.5418247,28.6346982 Z M7.95711614,34.2040711 C7.90541472,38.3289563 7.91420179,42.4577077 7.95311593,46.5825886 C8.8117042,46.6444126 9.67463161,46.7100679 10.5332199,46.7757233 C10.5284372,45.2655803 10.5332199,43.755433 10.5372243,42.2452856 C11.6082921,42.2761976 12.7357395,42.337965 13.7200748,41.8899717 C16.4909794,40.6810814 16.9853146,36.9655974 15.1163729,34.9456371 C13.1650336,33.3736875 10.3117356,34.3043914 7.95712451,34.2040798 Z M26.5815758,31.2880892 C29.5953131,31.4116501 32.1277242,33.6710915 32.2881593,36.3476359 C30.3845212,36.3672281 28.4808748,36.3593912 26.5772451,36.3593912 C26.5772451,34.6677164 26.5732407,32.9760546 26.5812411,31.2882503 L26.5815758,31.2880892 Z M10.5328935,36.2935661 C11.3871385,36.2587356 12.4451973,36.1197622 13.02193,36.834278 C13.5162735,37.5912739 13.4902554,38.5877377 13.0782509,39.3679089 C12.5839157,40.1635448 11.4651425,40.0862996 10.6022234,40.1789877 C10.5111727,38.8851373 10.5198343,37.5912739 10.5328475,36.2935661 L10.5328935,36.2935661 Z"/>
  </g>
</svg>
