<svg xmlns="http://www.w3.org/2000/svg" width="40" height="58" viewBox="0 0 40 58">
  <g fill="none" fill-rule="evenodd">
    <rect width="40" height="18" fill="#4D90FE" rx="2"/>
    <path fill="#FFF" d="M6.1,13.034 L6.1,5.264 C6.1,4.242 6.632,3.92 7.444,3.92 L10.958,3.92 C12.89,3.92 14.444,4.872 14.444,7.112 C14.444,8.946 13.17,10.304 10.944,10.304 L8.396,10.304 L8.396,13.034 C8.396,13.72 7.948,14.182 7.248,14.182 C6.548,14.182 6.1,13.72 6.1,13.034 Z M8.396,5.684 L8.396,8.54 L10.538,8.54 C11.462,8.54 12.148,7.98 12.148,7.112 C12.148,6.104 11.434,5.684 10.3,5.684 L8.396,5.684 Z M19.316,7.728 L21.234,8.162 C23.334,8.638 23.866,9.884 23.866,11.06 C23.866,12.88 22.494,14.238 19.722,14.238 C16.81,14.238 15.508,12.782 15.508,11.69 C15.508,11.13 15.914,10.738 16.474,10.738 C17.72,10.738 17.398,12.558 19.722,12.558 C20.912,12.558 21.57,11.9 21.57,11.228 C21.57,10.822 21.374,10.374 20.59,10.178 L18,9.52 C15.914,8.988 15.536,7.84 15.536,6.762 C15.536,4.522 17.608,3.682 19.554,3.682 C21.346,3.682 23.46,4.69 23.46,6.034 C23.46,6.608 22.97,6.944 22.41,6.944 C21.346,6.944 21.542,5.446 19.4,5.446 C18.336,5.446 17.748,5.936 17.748,6.636 C17.748,7.336 18.588,7.56 19.316,7.728 Z M25.546,12.656 L25.546,5.264 C25.546,4.242 26.078,3.92 26.89,3.92 L29.69,3.92 C32.196,3.92 34.492,5.012 34.492,8.96 C34.492,12.152 32.714,14 29.648,14 L26.89,14 C26.078,14 25.546,13.678 25.546,12.656 Z M27.842,5.768 L27.842,12.152 L29.774,12.152 C31.608,12.152 32.196,10.514 32.196,8.96 C32.196,6.972 31.44,5.768 29.76,5.768 L27.842,5.768 Z"/>
    <path fill="#4D90FE" fill-rule="nonzero" d="M1,25 L39,25 C39.5522847,25 40,25.4477153 40,26 L40,57 C40,57.5522847 39.5522847,58 39,58 L1,58 C0.44771525,58 6.76353751e-17,57.5522847 0,57 L0,26 C-6.76353751e-17,25.4477153 0.44771525,25 1,25 Z M2.5,56 L37.5,56 C37.7761424,56 38,55.7761424 38,55.5 L38,27.5 C38,27.2238576 37.7761424,27 37.5,27 L2.5,27 C2.22385763,27 2,27.2238576 2,27.5 L2,55.5 C2,55.7761424 2.22385763,56 2.5,56 Z"/>
    <path fill="#4D90FE" d="M16.2714157,34.1287009 L16.2714157,29.9046237 L20.4900631,34.1287009 L16.2714157,34.1287009 Z M16.3273132,29.3383556 C15.5982012,29.6906055 15.0512884,30.2844251 14.6518063,30.957505 C14.0097337,29.8766774 12.9889139,29 11.4429411,29 C9.8961799,29 8,30.314424 8,32.5345769 C8,34.7825183 9.87331631,35.8479517 10.801105,36.4496658 C11.7928328,37.0921152 13.4849749,38.2604132 14.6518063,40.4223051 C15.819032,38.2604132 17.5109375,37.0921152 18.5029019,36.4496658 C19.199926,35.9972355 20.4314062,35.2828678 21,34.0012057 L16.3273132,29.3383556 Z"/>
    <path fill="#4D90FE" fill-rule="nonzero" d="M39.7231553,50.1952335 L39.7231553,57.3318889 L2,57.3318889 L2,53.3379457 L11.7377806,43.600165 C12.1470376,43.1908099 12.8101399,43.1908099 13.2194951,43.600165 L19.4688662,49.8495362 C19.8658435,50.2445487 20.5535052,50.2445487 20.9505807,49.8495362 C21.1480378,49.6509984 21.2575725,49.388017 21.2575725,49.1086298 C21.2575725,48.8292427 21.1480378,48.5662612 20.9505807,48.3677235 L18.4035801,45.8207228 C17.9952073,45.4134307 17.9942249,44.7523913 18.3994541,44.3430361 L25.3559379,37.3170002 C25.5524127,37.1173819 25.7478068,36.968061 26.100872,37.0058824 C26.3792767,37.0058824 26.6453036,37.1163995 26.8417783,37.3128743 L39.7231553,50.1952335 Z"/>
  </g>
</svg>
