<svg xmlns="http://www.w3.org/2000/svg" width="40" height="58" viewBox="0 0 40 58">
  <g fill="none" fill-rule="evenodd">
    <rect width="40" height="18" fill="#4D90FE" rx="2"/>
    <path fill="#FFF" d="M6.39799996,13.034 L6.39799996,5.264 C6.39799996,4.242 6.92999996,3.92 7.74199996,3.92 L11.564,3.92 C14.294,3.92 15.022,5.418 15.022,6.72 C15.022,7.812 14.378,8.89 13.286,9.142 L13.286,9.17 C14.462,9.338 14.672,10.192 14.672,11.214 C14.672,12.376 14.98,12.81 14.98,13.286 C14.98,13.818 14.434,14.182 13.902,14.182 C12.642,14.182 12.544,12.964 12.544,12.558 C12.544,10.794 12.222,10.08 10.962,10.08 L8.69399996,10.08 L8.69399996,13.034 C8.69399996,13.72 8.24599996,14.182 7.54599996,14.182 C6.84599996,14.182 6.39799996,13.72 6.39799996,13.034 Z M8.69399996,5.684 L8.69399996,8.4 L10.99,8.4 C11.858,8.4 12.726,8.176 12.726,7.042 C12.726,5.964 12.068,5.684 11.06,5.684 L8.69399996,5.684 Z M16.658,12.292 L19.626,4.438 C19.822,3.92 20.186,3.738 20.746,3.738 L21.292,3.738 C21.81,3.738 22.272,3.864 22.524,4.578 L25.296,12.292 C25.38,12.516 25.52,12.922 25.52,13.174 C25.52,13.734 25.03,14.182 24.442,14.182 C23.938,14.182 23.574,14 23.406,13.552 L22.818,11.872 L19.122,11.872 L18.52,13.552 C18.366,14 18.044,14.182 17.498,14.182 C16.868,14.182 16.434,13.79 16.434,13.174 C16.434,12.922 16.574,12.516 16.658,12.292 Z M22.314,10.276 L21.012,6.23 L20.984,6.23 L19.626,10.276 L22.314,10.276 Z M27.366,13.034 L27.366,5.264 C27.366,4.242 27.898,3.92 28.71,3.92 L33.764,3.92 C34.436,3.92 34.926,4.116 34.926,4.844 C34.926,5.572 34.436,5.768 33.764,5.768 L29.662,5.768 L29.662,8.12 L33.134,8.12 C33.736,8.12 34.212,8.288 34.212,9.002 C34.212,9.716 33.736,9.884 33.134,9.884 L29.662,9.884 L29.662,13.034 C29.662,13.72 29.214,14.182 28.514,14.182 C27.814,14.182 27.366,13.72 27.366,13.034 Z"/>
    <path fill="#4D90FE" fill-rule="nonzero" d="M1,25 L39,25 C39.5522847,25 40,25.4477153 40,26 L40,57 C40,57.5522847 39.5522847,58 39,58 L1,58 C0.44771525,58 6.76353751e-17,57.5522847 0,57 L0,26 C-6.76353751e-17,25.4477153 0.44771525,25 1,25 Z M2.5,56 L37.5,56 C37.7761424,56 38,55.7761424 38,55.5 L38,27.5 C38,27.2238576 37.7761424,27 37.5,27 L2.5,27 C2.22385763,27 2,27.2238576 2,27.5 L2,55.5 C2,55.7761424 2.22385763,56 2.5,56 Z"/>
    <path fill="#4D90FE" d="M16.2714157,34.1287009 L16.2714157,29.9046237 L20.4900631,34.1287009 L16.2714157,34.1287009 Z M16.3273132,29.3383556 C15.5982012,29.6906055 15.0512884,30.2844251 14.6518063,30.957505 C14.0097337,29.8766774 12.9889139,29 11.4429411,29 C9.8961799,29 8,30.314424 8,32.5345769 C8,34.7825183 9.87331631,35.8479517 10.801105,36.4496658 C11.7928328,37.0921152 13.4849749,38.2604132 14.6518063,40.4223051 C15.819032,38.2604132 17.5109375,37.0921152 18.5029019,36.4496658 C19.199926,35.9972355 20.4314062,35.2828678 21,34.0012057 L16.3273132,29.3383556 Z"/>
    <path fill="#4D90FE" fill-rule="nonzero" d="M39.7231553,50.1952335 L39.7231553,57.3318889 L2,57.3318889 L2,53.3379457 L11.7377806,43.600165 C12.1470376,43.1908099 12.8101399,43.1908099 13.2194951,43.600165 L19.4688662,49.8495362 C19.8658435,50.2445487 20.5535052,50.2445487 20.9505807,49.8495362 C21.1480378,49.6509984 21.2575725,49.388017 21.2575725,49.1086298 C21.2575725,48.8292427 21.1480378,48.5662612 20.9505807,48.3677235 L18.4035801,45.8207228 C17.9952073,45.4134307 17.9942249,44.7523913 18.3994541,44.3430361 L25.3559379,37.3170002 C25.5524127,37.1173819 25.7478068,36.968061 26.100872,37.0058824 C26.3792767,37.0058824 26.6453036,37.1163995 26.8417783,37.3128743 L39.7231553,50.1952335 Z"/>
  </g>
</svg>
