<svg xmlns="http://www.w3.org/2000/svg" width="40" height="58" viewBox="0 0 40 58">
  <g fill="none" fill-rule="evenodd">
    <rect width="40" height="18" fill="#626870" rx="2"/>
    <path fill="#626870" fill-rule="nonzero" d="M38.75,32.75 L38.75,31.5 L16.875,31.5 L16.875,30.25 L40,30.25 L40,32.75 L38.75,32.75 Z M2.5,57.75 C1.875,57.75 1.25,57.5 0.75,57 C0.25,56.5 0,55.875 0,55.25 L0,30.25 L5,30.25 L5,31.5 L2.5,31.5 L2.5,57.75 Z"/>
    <path fill="#626870" fill-rule="nonzero" d="M40,44 L38.75,44 L38.75,45.875 L40,45.875 L40,55.25 C40,55.875 39.75,56.5 39.25,57 C38.75,57.5 38.125,57.75 37.5,57.75 L2.5,57.75 C3.125,57.75 3.75,57.5 4.25,57 C4.75,56.5 5,55.875 5,55.25 L5,29 L15.625,29 L20.625,32.75 L40,32.75 L40,44 Z M16.25,44 L16.25,45.875 L17.5,45.875 L17.5,44 L16.25,44 Z M18.75,44 L18.75,45.875 L20,45.875 L20,44 L18.75,44 Z M17.5,42.125 L17.5,44 L18.75,44 L18.75,42.125 L17.5,42.125 Z M15,42.125 L15,44 L16.25,44 L16.25,42.125 L15,42.125 Z M13.75,44 L13.75,45.875 L15,45.875 L15,44 L13.75,44 Z M12.5,42.125 L12.5,44 L13.75,44 L13.75,42.125 L12.5,42.125 Z M21.25,44 L21.25,45.875 L22.5,45.875 L22.5,44 L21.25,44 Z M23.75,44 L23.75,45.875 L25,45.875 L25,44 L23.75,44 Z M22.5,42.125 L22.5,44 L23.75,44 L23.75,42.125 L22.5,42.125 Z M20,42.125 L20,44 L21.25,44 L21.25,42.125 L20,42.125 Z M26.25,44 L26.25,45.875 L27.5,45.875 L27.5,44 L26.25,44 Z M28.75,44 L28.75,45.875 L30,45.875 L30,44 L28.75,44 Z M27.5,42.125 L27.5,44 L28.75,44 L28.75,42.125 L27.5,42.125 Z M25,42.125 L25,44 L26.25,44 L26.25,42.125 L25,42.125 Z M31.25,44 L31.25,45.875 L32.5,45.875 L32.5,44 L31.25,44 Z M33.75,44 L33.75,45.875 L35,45.875 L35,44 L33.75,44 Z M32.5,42.125 L32.5,44 L33.75,44 L33.75,42.125 L32.5,42.125 Z M30,42.125 L30,44 L31.25,44 L31.25,42.125 L30,42.125 Z M36.25,44 L36.25,45.875 L37.5,45.875 L37.5,44 L36.25,44 Z M37.5,42.125 L37.5,44 L38.75,44 L38.75,42.125 L37.5,42.125 Z M35,42.125 L35,44 L36.25,44 L36.25,42.125 L35,42.125 Z M7.5,42.125 L7.5,48.375 C7.5,48.6875 7.625,49 7.875,49.25 C8.125,49.5 8.4375,49.625 8.75,49.625 L10,49.625 C10.3125,49.625 10.625,49.5 10.875,49.25 C11.125,49 11.25,48.6875 11.25,48.375 L11.25,42.125 L7.5,42.125 Z M7.5,32.75 L7.5,34 L16.25,34 L16.25,32.75 L7.5,32.75 Z M9,35.25 L9,36.5 L11,36.5 L11,35.25 L9,35.25 Z"/>
    <polygon fill="#626870" fill-rule="nonzero" points="10 48.375 8.75 48.375 8.75 45.875 10 45.875"/>
    <path fill="#626870" fill-rule="nonzero" d="M4.25,57 C3.75,57.5 3.125,57.75 2.5,57.75 L37.5,57.75 C38.125,57.75 38.75,57.5 39.25,57 C39.75,56.5 40,55.875 40,55.25 L5,55.25 C5,55.875 4.75,56.5 4.25,57 Z"/>
    <path fill="#FFF" d="M5.12099996,13.034 L5.12099996,5.264 C5.12099996,4.242 5.65299996,3.92 6.46499996,3.92 L10.287,3.92 C13.017,3.92 13.745,5.418 13.745,6.72 C13.745,7.812 13.101,8.89 12.009,9.142 L12.009,9.17 C13.185,9.338 13.395,10.192 13.395,11.214 C13.395,12.376 13.703,12.81 13.703,13.286 C13.703,13.818 13.157,14.182 12.625,14.182 C11.365,14.182 11.267,12.964 11.267,12.558 C11.267,10.794 10.945,10.08 9.68499996,10.08 L7.41699996,10.08 L7.41699996,13.034 C7.41699996,13.72 6.96899996,14.182 6.26899996,14.182 C5.56899996,14.182 5.12099996,13.72 5.12099996,13.034 Z M7.41699996,5.684 L7.41699996,8.4 L9.71299996,8.4 C10.581,8.4 11.449,8.176 11.449,7.042 C11.449,5.964 10.791,5.684 9.78299996,5.684 L7.41699996,5.684 Z M15.381,12.292 L18.349,4.438 C18.545,3.92 18.909,3.738 19.469,3.738 L20.015,3.738 C20.533,3.738 20.995,3.864 21.247,4.578 L24.019,12.292 C24.103,12.516 24.243,12.922 24.243,13.174 C24.243,13.734 23.753,14.182 23.165,14.182 C22.661,14.182 22.297,14 22.129,13.552 L21.541,11.872 L17.845,11.872 L17.243,13.552 C17.089,14 16.767,14.182 16.221,14.182 C15.591,14.182 15.157,13.79 15.157,13.174 C15.157,12.922 15.297,12.516 15.381,12.292 Z M21.037,10.276 L19.735,6.23 L19.707,6.23 L18.349,10.276 L21.037,10.276 Z M26.033,13.034 L26.033,5.264 C26.033,4.242 26.565,3.92 27.377,3.92 L31.199,3.92 C33.929,3.92 34.657,5.418 34.657,6.72 C34.657,7.812 34.013,8.89 32.921,9.142 L32.921,9.17 C34.097,9.338 34.307,10.192 34.307,11.214 C34.307,12.376 34.615,12.81 34.615,13.286 C34.615,13.818 34.069,14.182 33.537,14.182 C32.277,14.182 32.179,12.964 32.179,12.558 C32.179,10.794 31.857,10.08 30.597,10.08 L28.329,10.08 L28.329,13.034 C28.329,13.72 27.881,14.182 27.181,14.182 C26.481,14.182 26.033,13.72 26.033,13.034 Z M28.329,5.684 L28.329,8.4 L30.625,8.4 C31.493,8.4 32.361,8.176 32.361,7.042 C32.361,5.964 31.703,5.684 30.695,5.684 L28.329,5.684 Z"/>
  </g>
</svg>
