<svg xmlns="http://www.w3.org/2000/svg" width="40" height="58" viewBox="0 0 40 58">
  <g fill="none" fill-rule="evenodd">
    <rect width="40" height="18" fill="#4D90FE" rx="2"/>
    <path fill="#FFF" d="M4,13.034 L4,5.264 C4,4.242 4.532,3.92 5.344,3.92 L9.166,3.92 C11.896,3.92 12.624,5.418 12.624,6.72 C12.624,7.812 11.98,8.89 10.888,9.142 L10.888,9.17 C12.064,9.338 12.274,10.192 12.274,11.214 C12.274,12.376 12.582,12.81 12.582,13.286 C12.582,13.818 12.036,14.182 11.504,14.182 C10.244,14.182 10.146,12.964 10.146,12.558 C10.146,10.794 9.824,10.08 8.564,10.08 L6.296,10.08 L6.296,13.034 C6.296,13.72 5.848,14.182 5.148,14.182 C4.448,14.182 4,13.72 4,13.034 Z M6.296,5.684 L6.296,8.4 L8.592,8.4 C9.46,8.4 10.328,8.176 10.328,7.042 C10.328,5.964 9.67,5.684 8.662,5.684 L6.296,5.684 Z M13.96,12.292 L16.928,4.438 C17.124,3.92 17.488,3.738 18.048,3.738 L18.594,3.738 C19.112,3.738 19.574,3.864 19.826,4.578 L22.598,12.292 C22.682,12.516 22.822,12.922 22.822,13.174 C22.822,13.734 22.332,14.182 21.744,14.182 C21.24,14.182 20.876,14 20.708,13.552 L20.12,11.872 L16.424,11.872 L15.822,13.552 C15.668,14 15.346,14.182 14.8,14.182 C14.17,14.182 13.736,13.79 13.736,13.174 C13.736,12.922 13.876,12.516 13.96,12.292 Z M19.616,10.276 L18.314,6.23 L18.286,6.23 L16.928,10.276 L19.616,10.276 Z M35.974,5.432 L34,13.09 C33.79,13.888 33.454,14.182 32.614,14.182 C31.746,14.182 31.438,13.818 31.242,13.048 L29.744,6.902 L29.716,6.902 L28.218,13.048 C28.036,13.818 27.714,14.182 26.846,14.182 C26.006,14.182 25.67,13.888 25.46,13.09 L23.486,5.432 C23.43,5.222 23.374,4.998 23.374,4.774 C23.374,4.074 23.948,3.738 24.48,3.738 C25.068,3.738 25.418,4.004 25.558,4.676 L26.916,11.368 L26.944,11.368 L28.512,4.592 C28.638,4.032 28.862,3.738 29.716,3.738 C30.682,3.738 30.878,4.2 31.018,4.83 L32.544,11.368 L32.572,11.368 L33.944,4.676 C34.084,4.004 34.434,3.738 34.98,3.738 C35.512,3.738 36.086,4.074 36.086,4.774 C36.086,4.998 36.03,5.222 35.974,5.432 Z"/>
    <path fill="#4D90FE" fill-rule="nonzero" d="M1,25 L39,25 C39.5522847,25 40,25.4477153 40,26 L40,57 C40,57.5522847 39.5522847,58 39,58 L1,58 C0.44771525,58 6.76353751e-17,57.5522847 0,57 L0,26 C-6.76353751e-17,25.4477153 0.44771525,25 1,25 Z M2.5,56 L37.5,56 C37.7761424,56 38,55.7761424 38,55.5 L38,27.5 C38,27.2238576 37.7761424,27 37.5,27 L2.5,27 C2.22385763,27 2,27.2238576 2,27.5 L2,55.5 C2,55.7761424 2.22385763,56 2.5,56 Z"/>
    <path fill="#4D90FE" d="M16.2714157,34.1287009 L16.2714157,29.9046237 L20.4900631,34.1287009 L16.2714157,34.1287009 Z M16.3273132,29.3383556 C15.5982012,29.6906055 15.0512884,30.2844251 14.6518063,30.957505 C14.0097337,29.8766774 12.9889139,29 11.4429411,29 C9.8961799,29 8,30.314424 8,32.5345769 C8,34.7825183 9.87331631,35.8479517 10.801105,36.4496658 C11.7928328,37.0921152 13.4849749,38.2604132 14.6518063,40.4223051 C15.819032,38.2604132 17.5109375,37.0921152 18.5029019,36.4496658 C19.199926,35.9972355 20.4314062,35.2828678 21,34.0012057 L16.3273132,29.3383556 Z"/>
    <path fill="#4D90FE" fill-rule="nonzero" d="M39.7231553,50.1952335 L39.7231553,57.3318889 L2,57.3318889 L2,53.3379457 L11.7377806,43.600165 C12.1470376,43.1908099 12.8101399,43.1908099 13.2194951,43.600165 L19.4688662,49.8495362 C19.8658435,50.2445487 20.5535052,50.2445487 20.9505807,49.8495362 C21.1480378,49.6509984 21.2575725,49.388017 21.2575725,49.1086298 C21.2575725,48.8292427 21.1480378,48.5662612 20.9505807,48.3677235 L18.4035801,45.8207228 C17.9952073,45.4134307 17.9942249,44.7523913 18.3994541,44.3430361 L25.3559379,37.3170002 C25.5524127,37.1173819 25.7478068,36.968061 26.100872,37.0058824 C26.3792767,37.0058824 26.6453036,37.1163995 26.8417783,37.3128743 L39.7231553,50.1952335 Z"/>
  </g>
</svg>
