<svg xmlns="http://www.w3.org/2000/svg" width="40" height="58" viewBox="0 0 40 58">
  <g fill="none" fill-rule="evenodd">
    <rect width="40" height="18" fill="#626870" rx="2"/>
    <path fill="#FFF" d="M6.39099996,13.034 L6.39099996,5.264 C6.39099996,4.242 6.92299996,3.92 7.73499996,3.92 L11.557,3.92 C14.287,3.92 15.015,5.418 15.015,6.72 C15.015,7.812 14.371,8.89 13.279,9.142 L13.279,9.17 C14.455,9.338 14.665,10.192 14.665,11.214 C14.665,12.376 14.973,12.81 14.973,13.286 C14.973,13.818 14.427,14.182 13.895,14.182 C12.635,14.182 12.537,12.964 12.537,12.558 C12.537,10.794 12.215,10.08 10.955,10.08 L8.68699996,10.08 L8.68699996,13.034 C8.68699996,13.72 8.23899996,14.182 7.53899996,14.182 C6.83899996,14.182 6.39099996,13.72 6.39099996,13.034 Z M8.68699996,5.684 L8.68699996,8.4 L10.983,8.4 C11.851,8.4 12.719,8.176 12.719,7.042 C12.719,5.964 12.061,5.684 11.053,5.684 L8.68699996,5.684 Z M19.829,13.034 L19.829,5.852 L17.659,5.852 C17.001,5.852 16.469,5.516 16.469,4.886 C16.469,4.256 17.001,3.92 17.659,3.92 L24.295,3.92 C24.953,3.92 25.485,4.256 25.485,4.886 C25.485,5.516 24.953,5.852 24.295,5.852 L22.125,5.852 L22.125,13.034 C22.125,13.72 21.677,14.182 20.977,14.182 C20.277,14.182 19.829,13.72 19.829,13.034 Z M27.373,13.034 L27.373,5.264 C27.373,4.242 27.905,3.92 28.717,3.92 L33.771,3.92 C34.443,3.92 34.933,4.116 34.933,4.844 C34.933,5.572 34.443,5.768 33.771,5.768 L29.669,5.768 L29.669,8.12 L33.141,8.12 C33.743,8.12 34.219,8.288 34.219,9.002 C34.219,9.716 33.743,9.884 33.141,9.884 L29.669,9.884 L29.669,13.034 C29.669,13.72 29.221,14.182 28.521,14.182 C27.821,14.182 27.373,13.72 27.373,13.034 Z"/>
    <g fill="#626870" fill-rule="nonzero" transform="translate(0 28)">
      <path d="M0 29.2L0 28.3C0 27.8581722.3581722 27.5.8 27.5L39.2 27.5C39.6418278 27.5 40 27.8581722 40 28.3L40 29.2C40 29.6418278 39.6418278 30 39.2 30L.8 30C.3581722 30 0 29.6418278 0 29.2zM0 19.7L0 18.8C0 18.3581722.3581722 18 .8 18L39.2 18C39.6418278 18 40 18.3581722 40 18.8L40 19.7C40 20.1418278 39.6418278 20.5 39.2 20.5L.8 20.5C.3581722 20.5 0 20.1418278 0 19.7zM0 10.7L0 9.8C0 9.3581722.3581722 9 .8 9L39.2 9C39.6418278 9 40 9.3581722 40 9.8L40 10.7C40 11.1418278 39.6418278 11.5 39.2 11.5L.8 11.5C.3581722 11.5 0 11.1418278 0 10.7zM0 1.7L0 .8C0 .3581722.3581722 1.00974196e-27.8 1.00974196e-27L18.2429199-4.54747351e-13C18.6847477-4.54747351e-13 19.0429199.3581722 19.0429199.8L19.0429199 1.7C19.0429199 2.1418278 18.6847477 2.5 18.2429199 2.5L.8 2.5C.3581722 2.5 0 2.1418278 0 1.7z"/>
    </g>
  </g>
</svg>
