<svg xmlns="http://www.w3.org/2000/svg" width="40" height="58" viewBox="0 0 40 58">
  <g fill="none" fill-rule="evenodd">
    <rect width="40" height="18" fill="#4D90FE" rx="2"/>
    <path fill="#FFF" d="M5,13.034 L5,5.264 C5,4.242 5.532,3.92 6.344,3.92 L10.166,3.92 C12.896,3.92 13.624,5.418 13.624,6.72 C13.624,7.812 12.98,8.89 11.888,9.142 L11.888,9.17 C13.064,9.338 13.274,10.192 13.274,11.214 C13.274,12.376 13.582,12.81 13.582,13.286 C13.582,13.818 13.036,14.182 12.504,14.182 C11.244,14.182 11.146,12.964 11.146,12.558 C11.146,10.794 10.824,10.08 9.564,10.08 L7.296,10.08 L7.296,13.034 C7.296,13.72 6.848,14.182 6.148,14.182 C5.448,14.182 5,13.72 5,13.034 Z M7.296,5.684 L7.296,8.4 L9.592,8.4 C10.46,8.4 11.328,8.176 11.328,7.042 C11.328,5.964 10.67,5.684 9.662,5.684 L7.296,5.684 Z M27.236,5.432 L25.262,13.09 C25.052,13.888 24.716,14.182 23.876,14.182 C23.008,14.182 22.7,13.818 22.504,13.048 L21.006,6.902 L20.978,6.902 L19.48,13.048 C19.298,13.818 18.976,14.182 18.108,14.182 C17.268,14.182 16.932,13.888 16.722,13.09 L14.748,5.432 C14.692,5.222 14.636,4.998 14.636,4.774 C14.636,4.074 15.21,3.738 15.742,3.738 C16.33,3.738 16.68,4.004 16.82,4.676 L18.178,11.368 L18.206,11.368 L19.774,4.592 C19.9,4.032 20.124,3.738 20.978,3.738 C21.944,3.738 22.14,4.2 22.28,4.83 L23.806,11.368 L23.834,11.368 L25.206,4.676 C25.346,4.004 25.696,3.738 26.242,3.738 C26.774,3.738 27.348,4.074 27.348,4.774 C27.348,4.998 27.292,5.222 27.236,5.432 Z M30.418,12.236 L34.618,12.236 C35.15,12.236 35.542,12.488 35.542,13.118 C35.542,13.748 35.15,14 34.506,14 L29.256,14 C28.444,14 28.108,13.454 28.108,12.964 C28.108,11.97 28.99,10.864 30.74,9.758 C32.686,8.526 33.358,8.274 33.358,7.14 C33.358,6.23 32.658,5.726 31.888,5.726 C30.992,5.726 30.39,6.09 30.082,7.21 C29.942,7.728 29.76,7.994 29.2,7.994 C28.626,7.994 28.178,7.756 28.178,7.056 C28.178,5.348 29.858,4.046 31.916,4.046 C34.156,4.046 35.486,5.516 35.486,6.804 C35.486,8.666 34.632,9.394 33.148,10.234 C31.566,11.13 30.6,11.704 30.418,12.236 Z"/>
    <path fill="#4D90FE" fill-rule="nonzero" d="M1,25 L39,25 C39.5522847,25 40,25.4477153 40,26 L40,57 C40,57.5522847 39.5522847,58 39,58 L1,58 C0.44771525,58 6.76353751e-17,57.5522847 0,57 L0,26 C-6.76353751e-17,25.4477153 0.44771525,25 1,25 Z M2.5,56 L37.5,56 C37.7761424,56 38,55.7761424 38,55.5 L38,27.5 C38,27.2238576 37.7761424,27 37.5,27 L2.5,27 C2.22385763,27 2,27.2238576 2,27.5 L2,55.5 C2,55.7761424 2.22385763,56 2.5,56 Z"/>
    <path fill="#4D90FE" d="M16.2714157,34.1287009 L16.2714157,29.9046237 L20.4900631,34.1287009 L16.2714157,34.1287009 Z M16.3273132,29.3383556 C15.5982012,29.6906055 15.0512884,30.2844251 14.6518063,30.957505 C14.0097337,29.8766774 12.9889139,29 11.4429411,29 C9.8961799,29 8,30.314424 8,32.5345769 C8,34.7825183 9.87331631,35.8479517 10.801105,36.4496658 C11.7928328,37.0921152 13.4849749,38.2604132 14.6518063,40.4223051 C15.819032,38.2604132 17.5109375,37.0921152 18.5029019,36.4496658 C19.199926,35.9972355 20.4314062,35.2828678 21,34.0012057 L16.3273132,29.3383556 Z"/>
    <path fill="#4D90FE" fill-rule="nonzero" d="M39.7231553,50.1952335 L39.7231553,57.3318889 L2,57.3318889 L2,53.3379457 L11.7377806,43.600165 C12.1470376,43.1908099 12.8101399,43.1908099 13.2194951,43.600165 L19.4688662,49.8495362 C19.8658435,50.2445487 20.5535052,50.2445487 20.9505807,49.8495362 C21.1480378,49.6509984 21.2575725,49.388017 21.2575725,49.1086298 C21.2575725,48.8292427 21.1480378,48.5662612 20.9505807,48.3677235 L18.4035801,45.8207228 C17.9952073,45.4134307 17.9942249,44.7523913 18.3994541,44.3430361 L25.3559379,37.3170002 C25.5524127,37.1173819 25.7478068,36.968061 26.100872,37.0058824 C26.3792767,37.0058824 26.6453036,37.1163995 26.8417783,37.3128743 L39.7231553,50.1952335 Z"/>
  </g>
</svg>
