<svg xmlns="http://www.w3.org/2000/svg" width="40" height="58" viewBox="0 0 40 58">
  <g fill="none" fill-rule="evenodd">
    <rect width="40" height="18" fill="#4D90FE" rx="2"/>
    <path fill="#FFF" d="M9.808,7.728 L11.726,8.162 C13.826,8.638 14.358,9.884 14.358,11.06 C14.358,12.88 12.986,14.238 10.214,14.238 C7.302,14.238 6,12.782 6,11.69 C6,11.13 6.406,10.738 6.966,10.738 C8.212,10.738 7.89,12.558 10.214,12.558 C11.404,12.558 12.062,11.9 12.062,11.228 C12.062,10.822 11.866,10.374 11.082,10.178 L8.492,9.52 C6.406,8.988 6.028,7.84 6.028,6.762 C6.028,4.522 8.1,3.682 10.046,3.682 C11.838,3.682 13.952,4.69 13.952,6.034 C13.952,6.608 13.462,6.944 12.902,6.944 C11.838,6.944 12.034,5.446 9.892,5.446 C8.828,5.446 8.24,5.936 8.24,6.636 C8.24,7.336 9.08,7.56 9.808,7.728 Z M16.338,13.034 L16.338,5.264 C16.338,4.242 16.87,3.92 17.682,3.92 L21.504,3.92 C24.234,3.92 24.962,5.418 24.962,6.72 C24.962,7.812 24.318,8.89 23.226,9.142 L23.226,9.17 C24.402,9.338 24.612,10.192 24.612,11.214 C24.612,12.376 24.92,12.81 24.92,13.286 C24.92,13.818 24.374,14.182 23.842,14.182 C22.582,14.182 22.484,12.964 22.484,12.558 C22.484,10.794 22.162,10.08 20.902,10.08 L18.634,10.08 L18.634,13.034 C18.634,13.72 18.186,14.182 17.486,14.182 C16.786,14.182 16.338,13.72 16.338,13.034 Z M18.634,5.684 L18.634,8.4 L20.93,8.4 C21.798,8.4 22.666,8.176 22.666,7.042 C22.666,5.964 22.008,5.684 21,5.684 L18.634,5.684 Z M28.692,12.236 L32.892,12.236 C33.424,12.236 33.816,12.488 33.816,13.118 C33.816,13.748 33.424,14 32.78,14 L27.53,14 C26.718,14 26.382,13.454 26.382,12.964 C26.382,11.97 27.264,10.864 29.014,9.758 C30.96,8.526 31.632,8.274 31.632,7.14 C31.632,6.23 30.932,5.726 30.162,5.726 C29.266,5.726 28.664,6.09 28.356,7.21 C28.216,7.728 28.034,7.994 27.474,7.994 C26.9,7.994 26.452,7.756 26.452,7.056 C26.452,5.348 28.132,4.046 30.19,4.046 C32.43,4.046 33.76,5.516 33.76,6.804 C33.76,8.666 32.906,9.394 31.422,10.234 C29.84,11.13 28.874,11.704 28.692,12.236 Z"/>
    <path fill="#4D90FE" fill-rule="nonzero" d="M1,25 L39,25 C39.5522847,25 40,25.4477153 40,26 L40,57 C40,57.5522847 39.5522847,58 39,58 L1,58 C0.44771525,58 6.76353751e-17,57.5522847 0,57 L0,26 C-6.76353751e-17,25.4477153 0.44771525,25 1,25 Z M2.5,56 L37.5,56 C37.7761424,56 38,55.7761424 38,55.5 L38,27.5 C38,27.2238576 37.7761424,27 37.5,27 L2.5,27 C2.22385763,27 2,27.2238576 2,27.5 L2,55.5 C2,55.7761424 2.22385763,56 2.5,56 Z"/>
    <path fill="#4D90FE" d="M16.2714157,34.1287009 L16.2714157,29.9046237 L20.4900631,34.1287009 L16.2714157,34.1287009 Z M16.3273132,29.3383556 C15.5982012,29.6906055 15.0512884,30.2844251 14.6518063,30.957505 C14.0097337,29.8766774 12.9889139,29 11.4429411,29 C9.8961799,29 8,30.314424 8,32.5345769 C8,34.7825183 9.87331631,35.8479517 10.801105,36.4496658 C11.7928328,37.0921152 13.4849749,38.2604132 14.6518063,40.4223051 C15.819032,38.2604132 17.5109375,37.0921152 18.5029019,36.4496658 C19.199926,35.9972355 20.4314062,35.2828678 21,34.0012057 L16.3273132,29.3383556 Z"/>
    <path fill="#4D90FE" fill-rule="nonzero" d="M39.7231553,50.1952335 L39.7231553,57.3318889 L2,57.3318889 L2,53.3379457 L11.7377806,43.600165 C12.1470376,43.1908099 12.8101399,43.1908099 13.2194951,43.600165 L19.4688662,49.8495362 C19.8658435,50.2445487 20.5535052,50.2445487 20.9505807,49.8495362 C21.1480378,49.6509984 21.2575725,49.388017 21.2575725,49.1086298 C21.2575725,48.8292427 21.1480378,48.5662612 20.9505807,48.3677235 L18.4035801,45.8207228 C17.9952073,45.4134307 17.9942249,44.7523913 18.3994541,44.3430361 L25.3559379,37.3170002 C25.5524127,37.1173819 25.7478068,36.968061 26.100872,37.0058824 C26.3792767,37.0058824 26.6453036,37.1163995 26.8417783,37.3128743 L39.7231553,50.1952335 Z"/>
  </g>
</svg>
