<svg xmlns="http://www.w3.org/2000/svg" width="40" height="58" viewBox="0 0 40 58">
  <g fill="none" fill-rule="evenodd">
    <rect width="40" height="18" fill="#0ACD5D" rx="2"/>
    <path fill="#FFF" d="M10.531,7.728 L12.449,8.162 C14.549,8.638 15.081,9.884 15.081,11.06 C15.081,12.88 13.709,14.238 10.937,14.238 C8.02499996,14.238 6.72299996,12.782 6.72299996,11.69 C6.72299996,11.13 7.12899996,10.738 7.68899996,10.738 C8.93499996,10.738 8.61299996,12.558 10.937,12.558 C12.127,12.558 12.785,11.9 12.785,11.228 C12.785,10.822 12.589,10.374 11.805,10.178 L9.21499996,9.52 C7.12899996,8.988 6.75099996,7.84 6.75099996,6.762 C6.75099996,4.522 8.82299996,3.682 10.769,3.682 C12.561,3.682 14.675,4.69 14.675,6.034 C14.675,6.608 14.185,6.944 13.625,6.944 C12.561,6.944 12.757,5.446 10.615,5.446 C9.55099996,5.446 8.96299996,5.936 8.96299996,6.636 C8.96299996,7.336 9.80299996,7.56 10.531,7.728 Z M16.759,12.32 L19.167,8.806 L16.969,5.516 C16.829,5.306 16.731,5.082 16.731,4.816 C16.731,4.214 17.221,3.738 17.879,3.738 C18.425,3.738 18.691,4.06 18.831,4.298 L20.497,7.168 L22.275,4.298 C22.513,3.92 22.709,3.738 23.213,3.738 C23.773,3.738 24.319,4.046 24.319,4.774 C24.319,4.97 24.221,5.236 24.109,5.39 L21.771,8.806 L24.053,12.236 C24.291,12.6 24.431,12.782 24.431,13.048 C24.431,13.79 23.899,14.182 23.255,14.182 C22.877,14.182 22.555,14.098 22.289,13.65 L20.441,10.556 L18.453,13.734 C18.257,14.056 17.907,14.182 17.557,14.182 C16.885,14.182 16.451,13.762 16.451,13.202 C16.451,12.964 16.493,12.712 16.759,12.32 Z M25.927,8.96 C25.927,6.118 27.607,3.682 30.855,3.682 C33.487,3.682 34.929,5.334 34.929,6.314 C34.929,6.958 34.579,7.35 33.893,7.35 C32.563,7.35 32.955,5.53 30.855,5.53 C29.413,5.53 28.223,6.776 28.223,8.96 C28.223,10.794 28.951,12.39 30.939,12.39 C32.745,12.39 32.703,10.458 33.809,10.458 C34.369,10.458 34.929,10.78 34.929,11.34 C34.929,12.796 33.165,14.238 30.939,14.238 C27.789,14.238 25.927,12.432 25.927,8.96 Z"/>
    <rect width="40" height="33" y="25" fill="#0ACD5D" fill-rule="nonzero" rx="1"/>
    <g fill="#FFF" fill-rule="nonzero" transform="translate(10 32)">
      <polygon points="8.986 1.449 11.014 1.449 11.014 18.551 8.986 18.551"/>
      <polygon points="1.449 11.014 1.449 8.986 18.841 8.986 18.841 11.014"/>
      <path d="M3.76811594,3.76811594 L3.76811594,16.2318841 L16.2318841,16.2318841 L16.2318841,3.76811594 L3.76811594,3.76811594 Z M0,0 L20,0 L20,20 L0,20 L0,0 Z"/>
    </g>
  </g>
</svg>
