<svg xmlns="http://www.w3.org/2000/svg" width="40" height="58" viewBox="0 0 40 58">
  <g fill="none" fill-rule="evenodd">
    <rect width="40" height="18" fill="#FBAF0D" rx="2"/>
    <path fill="#FFF" d="M12.373,7.728 L14.291,8.162 C16.391,8.638 16.923,9.884 16.923,11.06 C16.923,12.88 15.551,14.238 12.779,14.238 C9.86699996,14.238 8.56499996,12.782 8.56499996,11.69 C8.56499996,11.13 8.97099996,10.738 9.53099996,10.738 C10.777,10.738 10.455,12.558 12.779,12.558 C13.969,12.558 14.627,11.9 14.627,11.228 C14.627,10.822 14.431,10.374 13.647,10.178 L11.057,9.52 C8.97099996,8.988 8.59299996,7.84 8.59299996,6.762 C8.59299996,4.522 10.665,3.682 12.611,3.682 C14.403,3.682 16.517,4.69 16.517,6.034 C16.517,6.608 16.027,6.944 15.467,6.944 C14.403,6.944 14.599,5.446 12.457,5.446 C11.393,5.446 10.805,5.936 10.805,6.636 C10.805,7.336 11.645,7.56 12.373,7.728 Z M18.601,12.32 L21.009,8.806 L18.811,5.516 C18.671,5.306 18.573,5.082 18.573,4.816 C18.573,4.214 19.063,3.738 19.721,3.738 C20.267,3.738 20.533,4.06 20.673,4.298 L22.339,7.168 L24.117,4.298 C24.355,3.92 24.551,3.738 25.055,3.738 C25.615,3.738 26.161,4.046 26.161,4.774 C26.161,4.97 26.063,5.236 25.951,5.39 L23.613,8.806 L25.895,12.236 C26.133,12.6 26.273,12.782 26.273,13.048 C26.273,13.79 25.741,14.182 25.097,14.182 C24.719,14.182 24.397,14.098 24.131,13.65 L22.283,10.556 L20.295,13.734 C20.099,14.056 19.749,14.182 19.399,14.182 C18.727,14.182 18.293,13.762 18.293,13.202 C18.293,12.964 18.335,12.712 18.601,12.32 Z M28.091,13.034 L28.091,4.886 C28.091,4.2 28.539,3.738 29.239,3.738 C29.939,3.738 30.387,4.2 30.387,4.886 L30.387,13.034 C30.387,13.72 29.939,14.182 29.239,14.182 C28.539,14.182 28.091,13.72 28.091,13.034 Z"/>
    <rect width="40" height="33" y="25" fill="#FBAF0D" fill-rule="nonzero" rx="1"/>
    <path fill="#FFF" fill-rule="nonzero" d="M13.7681159,37.7971014 L13.7681159,46.2028986 L26.2318841,46.2028986 L26.2318841,37.7971014 L13.7681159,37.7971014 Z M10,32 L30,32 L30,52 L10,52 L10,32 Z"/>
  </g>
</svg>
