<svg xmlns="http://www.w3.org/2000/svg" width="40" height="58" viewBox="0 0 40 58">
  <g fill="none" fill-rule="evenodd">
    <rect width="40" height="18" fill="#0A98CD" rx="2"/>
    <path fill="#FFF" d="M8.10299996,7.728 L10.021,8.162 C12.121,8.638 12.653,9.884 12.653,11.06 C12.653,12.88 11.281,14.238 8.50899996,14.238 C5.59699996,14.238 4.29499996,12.782 4.29499996,11.69 C4.29499996,11.13 4.70099996,10.738 5.26099996,10.738 C6.50699996,10.738 6.18499996,12.558 8.50899996,12.558 C9.69899996,12.558 10.357,11.9 10.357,11.228 C10.357,10.822 10.161,10.374 9.37699996,10.178 L6.78699996,9.52 C4.70099996,8.988 4.32299996,7.84 4.32299996,6.762 C4.32299996,4.522 6.39499996,3.682 8.34099996,3.682 C10.133,3.682 12.247,4.69 12.247,6.034 C12.247,6.608 11.757,6.944 11.197,6.944 C10.133,6.944 10.329,5.446 8.18699996,5.446 C7.12299996,5.446 6.53499996,5.936 6.53499996,6.636 C6.53499996,7.336 7.37499996,7.56 8.10299996,7.728 Z M14.331,12.32 L16.739,8.806 L14.541,5.516 C14.401,5.306 14.303,5.082 14.303,4.816 C14.303,4.214 14.793,3.738 15.451,3.738 C15.997,3.738 16.263,4.06 16.403,4.298 L18.069,7.168 L19.847,4.298 C20.085,3.92 20.281,3.738 20.785,3.738 C21.345,3.738 21.891,4.046 21.891,4.774 C21.891,4.97 21.793,5.236 21.681,5.39 L19.343,8.806 L21.625,12.236 C21.863,12.6 22.003,12.782 22.003,13.048 C22.003,13.79 21.471,14.182 20.827,14.182 C20.449,14.182 20.127,14.098 19.861,13.65 L18.013,10.556 L16.025,13.734 C15.829,14.056 15.479,14.182 15.129,14.182 C14.457,14.182 14.023,13.762 14.023,13.202 C14.023,12.964 14.065,12.712 14.331,12.32 Z M35.483,5.432 L33.509,13.09 C33.299,13.888 32.963,14.182 32.123,14.182 C31.255,14.182 30.947,13.818 30.751,13.048 L29.253,6.902 L29.225,6.902 L27.727,13.048 C27.545,13.818 27.223,14.182 26.355,14.182 C25.515,14.182 25.179,13.888 24.969,13.09 L22.995,5.432 C22.939,5.222 22.883,4.998 22.883,4.774 C22.883,4.074 23.457,3.738 23.989,3.738 C24.577,3.738 24.927,4.004 25.067,4.676 L26.425,11.368 L26.453,11.368 L28.021,4.592 C28.147,4.032 28.371,3.738 29.225,3.738 C30.191,3.738 30.387,4.2 30.527,4.83 L32.053,11.368 L32.081,11.368 L33.453,4.676 C33.593,4.004 33.943,3.738 34.489,3.738 C35.021,3.738 35.595,4.074 35.595,4.774 C35.595,4.998 35.539,5.222 35.483,5.432 Z"/>
    <rect width="40" height="33" y="25" fill="#0A98CD" fill-rule="nonzero" rx="1"/>
    <g fill="#FFF" fill-rule="nonzero" transform="translate(10 32)">
      <rect width="20" height="4"/>
      <rect width="20" height="4" y="8"/>
      <rect width="20" height="4" y="16"/>
    </g>
  </g>
</svg>
