<svg xmlns="http://www.w3.org/2000/svg" width="40" height="58" viewBox="0 0 40 58">
  <g fill="none" fill-rule="evenodd">
    <rect width="40" height="18" fill="#4D90FE" rx="2"/>
    <path fill="#FFF" d="M11.83,13.034 L11.83,5.852 L9.65999996,5.852 C9.00199996,5.852 8.46999996,5.516 8.46999996,4.886 C8.46999996,4.256 9.00199996,3.92 9.65999996,3.92 L16.296,3.92 C16.954,3.92 17.486,4.256 17.486,4.886 C17.486,5.516 16.954,5.852 16.296,5.852 L14.126,5.852 L14.126,13.034 C14.126,13.72 13.678,14.182 12.978,14.182 C12.278,14.182 11.83,13.72 11.83,13.034 Z M19.318,13.034 L19.318,4.886 C19.318,4.2 19.766,3.738 20.466,3.738 C21.166,3.738 21.614,4.2 21.614,4.886 L21.614,13.034 C21.614,13.72 21.166,14.182 20.466,14.182 C19.766,14.182 19.318,13.72 19.318,13.034 Z M24.398,13.034 L24.398,5.264 C24.398,4.242 24.93,3.92 25.742,3.92 L30.796,3.92 C31.468,3.92 31.958,4.116 31.958,4.844 C31.958,5.572 31.468,5.768 30.796,5.768 L26.694,5.768 L26.694,8.12 L30.166,8.12 C30.768,8.12 31.244,8.288 31.244,9.002 C31.244,9.716 30.768,9.884 30.166,9.884 L26.694,9.884 L26.694,13.034 C26.694,13.72 26.246,14.182 25.546,14.182 C24.846,14.182 24.398,13.72 24.398,13.034 Z"/>
    <path fill="#4D90FE" fill-rule="nonzero" d="M1,25 L39,25 C39.5522847,25 40,25.4477153 40,26 L40,57 C40,57.5522847 39.5522847,58 39,58 L1,58 C0.44771525,58 6.76353751e-17,57.5522847 0,57 L0,26 C-6.76353751e-17,25.4477153 0.44771525,25 1,25 Z M2.5,56 L37.5,56 C37.7761424,56 38,55.7761424 38,55.5 L38,27.5 C38,27.2238576 37.7761424,27 37.5,27 L2.5,27 C2.22385763,27 2,27.2238576 2,27.5 L2,55.5 C2,55.7761424 2.22385763,56 2.5,56 Z"/>
    <path fill="#4D90FE" d="M16.2714157,34.1287009 L16.2714157,29.9046237 L20.4900631,34.1287009 L16.2714157,34.1287009 Z M16.3273132,29.3383556 C15.5982012,29.6906055 15.0512884,30.2844251 14.6518063,30.957505 C14.0097337,29.8766774 12.9889139,29 11.4429411,29 C9.8961799,29 8,30.314424 8,32.5345769 C8,34.7825183 9.87331631,35.8479517 10.801105,36.4496658 C11.7928328,37.0921152 13.4849749,38.2604132 14.6518063,40.4223051 C15.819032,38.2604132 17.5109375,37.0921152 18.5029019,36.4496658 C19.199926,35.9972355 20.4314062,35.2828678 21,34.0012057 L16.3273132,29.3383556 Z"/>
    <path fill="#4D90FE" fill-rule="nonzero" d="M39.7231553,50.1952335 L39.7231553,57.3318889 L2,57.3318889 L2,53.3379457 L11.7377806,43.600165 C12.1470376,43.1908099 12.8101399,43.1908099 13.2194951,43.600165 L19.4688662,49.8495362 C19.8658435,50.2445487 20.5535052,50.2445487 20.9505807,49.8495362 C21.1480378,49.6509984 21.2575725,49.388017 21.2575725,49.1086298 C21.2575725,48.8292427 21.1480378,48.5662612 20.9505807,48.3677235 L18.4035801,45.8207228 C17.9952073,45.4134307 17.9942249,44.7523913 18.3994541,44.3430361 L25.3559379,37.3170002 C25.5524127,37.1173819 25.7478068,36.968061 26.100872,37.0058824 C26.3792767,37.0058824 26.6453036,37.1163995 26.8417783,37.3128743 L39.7231553,50.1952335 Z"/>
  </g>
</svg>
