<svg xmlns="http://www.w3.org/2000/svg" width="40" height="58" viewBox="0 0 40 58">
  <g fill="none" fill-rule="evenodd">
    <rect width="40" height="18" fill="#626870" rx="2"/>
    <path fill="#FFF" d="M9.63199996,13.034 L9.63199996,5.852 L7.46199996,5.852 C6.80399996,5.852 6.27199996,5.516 6.27199996,4.886 C6.27199996,4.256 6.80399996,3.92 7.46199996,3.92 L14.098,3.92 C14.756,3.92 15.288,4.256 15.288,4.886 C15.288,5.516 14.756,5.852 14.098,5.852 L11.928,5.852 L11.928,13.034 C11.928,13.72 11.48,14.182 10.78,14.182 C10.08,14.182 9.63199996,13.72 9.63199996,13.034 Z M16.518,12.32 L18.926,8.806 L16.728,5.516 C16.588,5.306 16.49,5.082 16.49,4.816 C16.49,4.214 16.98,3.738 17.638,3.738 C18.184,3.738 18.45,4.06 18.59,4.298 L20.256,7.168 L22.034,4.298 C22.272,3.92 22.468,3.738 22.972,3.738 C23.532,3.738 24.078,4.046 24.078,4.774 C24.078,4.97 23.98,5.236 23.868,5.39 L21.53,8.806 L23.812,12.236 C24.05,12.6 24.19,12.782 24.19,13.048 C24.19,13.79 23.658,14.182 23.014,14.182 C22.636,14.182 22.314,14.098 22.048,13.65 L20.2,10.556 L18.212,13.734 C18.016,14.056 17.666,14.182 17.316,14.182 C16.644,14.182 16.21,13.762 16.21,13.202 C16.21,12.964 16.252,12.712 16.518,12.32 Z M28.472,13.034 L28.472,5.852 L26.302,5.852 C25.644,5.852 25.112,5.516 25.112,4.886 C25.112,4.256 25.644,3.92 26.302,3.92 L32.938,3.92 C33.596,3.92 34.128,4.256 34.128,4.886 C34.128,5.516 33.596,5.852 32.938,5.852 L30.768,5.852 L30.768,13.034 C30.768,13.72 30.32,14.182 29.62,14.182 C28.92,14.182 28.472,13.72 28.472,13.034 Z"/>
    <g fill="#626870" fill-rule="nonzero" transform="translate(0 28)">
      <path d="M0 29.2L0 28.3C0 27.8581722.3581722 27.5.8 27.5L39.2 27.5C39.6418278 27.5 40 27.8581722 40 28.3L40 29.2C40 29.6418278 39.6418278 30 39.2 30L.8 30C.3581722 30 0 29.6418278 0 29.2zM0 19.7L0 18.8C0 18.3581722.3581722 18 .8 18L39.2 18C39.6418278 18 40 18.3581722 40 18.8L40 19.7C40 20.1418278 39.6418278 20.5 39.2 20.5L.8 20.5C.3581722 20.5 0 20.1418278 0 19.7zM0 10.7L0 9.8C0 9.3581722.3581722 9 .8 9L39.2 9C39.6418278 9 40 9.3581722 40 9.8L40 10.7C40 11.1418278 39.6418278 11.5 39.2 11.5L.8 11.5C.3581722 11.5 0 11.1418278 0 10.7zM0 1.7L0 .8C0 .3581722.3581722 1.00974196e-27.8 1.00974196e-27L18.2429199-4.54747351e-13C18.6847477-4.54747351e-13 19.0429199.3581722 19.0429199.8L19.0429199 1.7C19.0429199 2.1418278 18.6847477 2.5 18.2429199 2.5L.8 2.5C.3581722 2.5 0 2.1418278 0 1.7z"/>
    </g>
  </g>
</svg>
