<svg xmlns="http://www.w3.org/2000/svg" width="40" height="58" viewBox="0 0 40 58">
  <g fill="none" fill-rule="evenodd">
    <rect width="40" height="18" fill="#4D90FE" rx="2"/>
    <path fill="#FFF" d="M13.7955,6.268 L12.2445,12.285 C12.0795,12.912 11.8155,13.143 11.1555,13.143 C10.4735,13.143 10.2315,12.857 10.0775,12.252 L8.9005,7.423 L8.8785,7.423 L7.7015,12.252 C7.5585,12.857 7.3055,13.143 6.6235,13.143 C5.9635,13.143 5.6995,12.912 5.5345,12.285 L3.9835,6.268 C3.9395,6.103 3.8955,5.927 3.8955,5.751 C3.8955,5.201 4.3465,4.937 4.7645,4.937 C5.2265,4.937 5.5015,5.146 5.6115,5.674 L6.6785,10.932 L6.7005,10.932 L7.9325,5.608 C8.0315,5.168 8.2075,4.937 8.8785,4.937 C9.6375,4.937 9.7915,5.3 9.9015,5.795 L11.1005,10.932 L11.1225,10.932 L12.2005,5.674 C12.3105,5.146 12.5855,4.937 13.0145,4.937 C13.4325,4.937 13.8835,5.201 13.8835,5.751 C13.8835,5.927 13.8395,6.103 13.7955,6.268 Z M14.8625,11.944 L14.8625,6.136 C14.8625,5.333 15.2805,5.08 15.9185,5.08 L20.1535,5.08 C20.6815,5.08 21.0665,5.234 21.0665,5.806 C21.0665,6.378 20.6815,6.532 20.1535,6.532 L16.6665,6.532 L16.6665,8.248 L19.7245,8.248 C20.1975,8.248 20.5715,8.38 20.5715,8.941 C20.5715,9.502 20.1975,9.634 19.7245,9.634 L16.6665,9.634 L16.6665,11.548 L20.2415,11.548 C20.7695,11.548 21.1545,11.702 21.1545,12.274 C21.1545,12.846 20.7695,13 20.2415,13 L15.9185,13 C15.2805,13 14.8625,12.747 14.8625,11.944 Z M22.3535,11.944 L22.3535,6.136 C22.3535,5.333 22.7715,5.08 23.4095,5.08 L25.8075,5.08 C27.1275,5.08 28.7005,5.377 28.7005,7.126 C28.7005,7.797 28.3375,8.435 27.5895,8.732 L27.5895,8.754 C28.4255,8.974 28.9755,9.568 28.9755,10.657 C28.9755,12.318 27.6225,13 26.0605,13 L23.4095,13 C22.7715,13 22.3535,12.747 22.3535,11.944 Z M24.1575,9.48 L24.1575,11.614 L25.6755,11.614 C26.3795,11.614 27.1715,11.471 27.1715,10.558 C27.1715,9.601 26.3355,9.48 25.4555,9.48 L24.1575,9.48 Z M24.1575,6.4 L24.1575,8.336 L25.6425,8.336 C26.4895,8.336 26.8965,7.995 26.8965,7.368 C26.8965,6.609 26.2585,6.4 25.5875,6.4 L24.1575,6.4 Z M30.2955,12.241 L30.2955,6.136 C30.2955,5.333 30.7135,5.08 31.3515,5.08 L34.1125,5.08 C35.6305,5.08 36.8515,5.828 36.8515,7.588 C36.8515,9.029 35.8505,10.096 34.1015,10.096 L32.0995,10.096 L32.0995,12.241 C32.0995,12.78 31.7475,13.143 31.1975,13.143 C30.6475,13.143 30.2955,12.78 30.2955,12.241 Z M32.0995,6.466 L32.0995,8.71 L33.7825,8.71 C34.5085,8.71 35.0475,8.27 35.0475,7.588 C35.0475,6.796 34.4865,6.466 33.5955,6.466 L32.0995,6.466 Z"/>
    <path fill="#4D90FE" fill-rule="nonzero" d="M1,25 L39,25 C39.5522847,25 40,25.4477153 40,26 L40,57 C40,57.5522847 39.5522847,58 39,58 L1,58 C0.44771525,58 6.76353751e-17,57.5522847 0,57 L0,26 C-6.76353751e-17,25.4477153 0.44771525,25 1,25 Z M2.5,56 L37.5,56 C37.7761424,56 38,55.7761424 38,55.5 L38,27.5 C38,27.2238576 37.7761424,27 37.5,27 L2.5,27 C2.22385763,27 2,27.2238576 2,27.5 L2,55.5 C2,55.7761424 2.22385763,56 2.5,56 Z"/>
    <path fill="#4D90FE" d="M16.2714157,34.1287009 L16.2714157,29.9046237 L20.4900631,34.1287009 L16.2714157,34.1287009 Z M16.3273132,29.3383556 C15.5982012,29.6906055 15.0512884,30.2844251 14.6518063,30.957505 C14.0097337,29.8766774 12.9889139,29 11.4429411,29 C9.8961799,29 8,30.314424 8,32.5345769 C8,34.7825183 9.87331631,35.8479517 10.801105,36.4496658 C11.7928328,37.0921152 13.4849749,38.2604132 14.6518063,40.4223051 C15.819032,38.2604132 17.5109375,37.0921152 18.5029019,36.4496658 C19.199926,35.9972355 20.4314062,35.2828678 21,34.0012057 L16.3273132,29.3383556 Z"/>
    <path fill="#4D90FE" fill-rule="nonzero" d="M39.7231553,50.1952335 L39.7231553,57.3318889 L2,57.3318889 L2,53.3379457 L11.7377806,43.600165 C12.1470376,43.1908099 12.8101399,43.1908099 13.2194951,43.600165 L19.4688662,49.8495362 C19.8658435,50.2445487 20.5535052,50.2445487 20.9505807,49.8495362 C21.1480378,49.6509984 21.2575725,49.388017 21.2575725,49.1086298 C21.2575725,48.8292427 21.1480378,48.5662612 20.9505807,48.3677235 L18.4035801,45.8207228 C17.9952073,45.4134307 17.9942249,44.7523913 18.3994541,44.3430361 L25.3559379,37.3170002 C25.5524127,37.1173819 25.7478068,36.968061 26.100872,37.0058824 C26.3792767,37.0058824 26.6453036,37.1163995 26.8417783,37.3128743 L39.7231553,50.1952335 Z"/>
  </g>
</svg>
