<?xml version="1.0" encoding="UTF-8"?>
<svg width="44px" height="58px" viewBox="0 0 44 58" version="1.1" xmlns="http://www.w3.org/2000/svg" xmlns:xlink="http://www.w3.org/1999/xlink">
    <g id="Page-1" stroke="none" stroke-width="1" fill="none" fill-rule="evenodd">
        <g id="File-Icons" transform="translate(-62.000000, -429.000000)">
            <g id="DOC" transform="translate(62.000000, 429.000000)">
                <g>
                    <path d="M4,40 L40,40 C42.209139,40 44,41.790861 44,44 L44,54 C44,56.209139 42.209139,58 40,58 L4,58 C1.790861,58 2.705415e-16,56.209139 0,54 L0,44 C-2.705415e-16,41.790861 1.790861,40 4,40 Z" id="Rectangle-2" fill="#0C4899"></path>
                    <path d="M4,1.52645728e-16 L29,1.10668153e-15 L44,15 L44,52 C44,54.209139 42.209139,56 40,56 L4,56 C1.790861,56 2.705415e-16,54.209139 0,52 L0,4 C-2.705415e-16,1.790861 1.790861,4.05812251e-16 4,0 Z" id="Rectangle-2-Copy-8" fill="#428ECC"></path>
                    <path d="M29,3.10862447e-14 L44,15 L33,15 C30.790861,15 29,13.209139 29,11 L29,3.10862447e-14 Z" id="Rectangle-2-Copy-9" fill="#0C4899"></path>
                    <path d="M9.13,44.848 L9.13,38.512 C9.13,37.636 9.586,37.36 10.282,37.36 L12.682,37.36 C14.83,37.36 16.798,38.296 16.798,41.68 C16.798,44.416 15.274,46 12.646,46 L10.282,46 C9.586,46 9.13,45.724 9.13,44.848 Z M11.098,38.944 L11.098,44.416 L12.754,44.416 C14.326,44.416 14.83,43.012 14.83,41.68 C14.83,39.976 14.182,38.944 12.742,38.944 L11.098,38.944 Z M17.854,41.572 C17.854,39.04 19.39,37.156 22.222,37.156 C25.054,37.156 26.59,39.04 26.59,41.572 C26.59,44.008 25.174,46.204 22.222,46.204 C19.126,46.204 17.854,44.188 17.854,41.572 Z M19.822,41.572 C19.822,43.228 20.374,44.62 22.222,44.62 C24.01,44.62 24.622,43.228 24.622,41.572 C24.622,39.916 23.83,38.74 22.222,38.74 C20.614,38.74 19.822,39.916 19.822,41.572 Z M27.754,41.68 C27.754,39.244 29.194,37.156 31.978,37.156 C34.234,37.156 35.47,38.572 35.47,39.412 C35.47,39.964 35.17,40.3 34.582,40.3 C33.442,40.3 33.778,38.74 31.978,38.74 C30.742,38.74 29.722,39.808 29.722,41.68 C29.722,43.252 30.346,44.62 32.05,44.62 C33.598,44.62 33.562,42.964 34.51,42.964 C34.99,42.964 35.47,43.24 35.47,43.72 C35.47,44.968 33.958,46.204 32.05,46.204 C29.35,46.204 27.754,44.656 27.754,41.68 Z" fill="#FFFFFF"></path>
                </g>
            </g>
        </g>
    </g>
</svg>