<svg xmlns="http://www.w3.org/2000/svg" width="40" height="58" viewBox="0 0 40 58">
  <g fill="none" fill-rule="evenodd">
    <rect width="40" height="18" fill="#207245" rx="2"/>
    <path fill="#FFF" d="M6.84599996,12.32 L9.25399996,8.806 L7.05599996,5.516 C6.91599996,5.306 6.81799996,5.082 6.81799996,4.816 C6.81799996,4.214 7.30799996,3.738 7.96599996,3.738 C8.51199996,3.738 8.77799996,4.06 8.91799996,4.298 L10.584,7.168 L12.362,4.298 C12.6,3.92 12.796,3.738 13.3,3.738 C13.86,3.738 14.406,4.046 14.406,4.774 C14.406,4.97 14.308,5.236 14.196,5.39 L11.858,8.806 L14.14,12.236 C14.378,12.6 14.518,12.782 14.518,13.048 C14.518,13.79 13.986,14.182 13.342,14.182 C12.964,14.182 12.642,14.098 12.376,13.65 L10.528,10.556 L8.53999996,13.734 C8.34399996,14.056 7.99399996,14.182 7.64399996,14.182 C6.97199996,14.182 6.53799996,13.762 6.53799996,13.202 C6.53799996,12.964 6.57999996,12.712 6.84599996,12.32 Z M16.336,12.656 L16.336,4.886 C16.336,4.2 16.784,3.738 17.484,3.738 C18.184,3.738 18.632,4.2 18.632,4.886 L18.632,12.068 L22.468,12.068 C23.126,12.068 23.658,12.404 23.658,13.034 C23.658,13.664 23.126,14 22.468,14 L17.68,14 C16.868,14 16.336,13.678 16.336,12.656 Z M28.85,7.728 L30.768,8.162 C32.868,8.638 33.4,9.884 33.4,11.06 C33.4,12.88 32.028,14.238 29.256,14.238 C26.344,14.238 25.042,12.782 25.042,11.69 C25.042,11.13 25.448,10.738 26.008,10.738 C27.254,10.738 26.932,12.558 29.256,12.558 C30.446,12.558 31.104,11.9 31.104,11.228 C31.104,10.822 30.908,10.374 30.124,10.178 L27.534,9.52 C25.448,8.988 25.07,7.84 25.07,6.762 C25.07,4.522 27.142,3.682 29.088,3.682 C30.88,3.682 32.994,4.69 32.994,6.034 C32.994,6.608 32.504,6.944 31.944,6.944 C30.88,6.944 31.076,5.446 28.934,5.446 C27.87,5.446 27.282,5.936 27.282,6.636 C27.282,7.336 28.122,7.56 28.85,7.728 Z"/>
    <path fill="#207245" fill-rule="nonzero" d="M20.9630713,24.0001698 L23.5386566,24.0001698 C23.5386566,25.0313251 23.5386566,26.0586016 23.5386566,27.0897613 C27.8789979,27.0897613 32.2193392,27.0980329 36.5596722,27.0780068 C37.2924569,27.1049985 38.0989557,27.0584161 38.7363406,27.4487503 C39.1829301,28.0203205 39.1308935,28.7463743 39.1612862,29.4029116 C39.1399477,36.1073087 39.1483158,42.8078529 39.1524998,49.5083798 C39.1311613,50.6322297 39.2695686,51.7792272 39.005055,52.8876266 C38.8316274,53.6909114 37.7476111,53.7102061 37.0234999,53.7372587 C32.5314,53.7494485 28.0349656,53.7289871 23.5385353,53.7372587 C23.5385353,54.8958626 23.5385353,56.0544403 23.5385353,57.2130442 L20.845877,57.2130442 C14.2378146,56.1432734 7.61673582,55.1545994 1,54.1234614 C1,45.1134412 1,36.1034428 1,27.0934574 C7.65576434,26.0622977 14.3115203,25.0465929 20.9629542,24 L20.9630713,24.0001698 Z M23.5386566,28.2483434 C23.5386566,29.0207445 23.5386566,29.7931413 23.5386566,30.5655468 C24.6963744,30.5655468 25.8497492,30.5655468 27.0074586,30.5655468 C27.0074586,31.4653834 27.0074586,32.3690772 27.0074586,33.2689225 C25.8497492,33.2689225 24.6963744,33.2689225 23.5386566,33.2689225 C23.5386566,33.7825694 23.5386566,34.3000822 23.5386566,34.813716 C24.6963744,34.813716 25.8497492,34.813716 27.0074586,34.813716 C27.0074586,35.713557 27.0074586,36.6172638 27.0074586,37.5170961 C25.8497492,37.5170961 24.6963744,37.5170961 23.5386566,37.5170961 C23.5386566,38.030756 23.5386566,38.5482558 23.5386566,39.061894 C24.6963744,39.061894 25.8497492,39.061894 27.0074586,39.061894 C27.0074586,39.9617436 27.0074586,40.8654418 27.0074586,41.7652914 C25.8497492,41.7652914 24.6963744,41.7652914 23.5386566,41.7652914 C23.5386566,42.2789253 23.5386566,42.7964294 23.5386566,43.3100676 C24.6963744,43.3100676 25.8497492,43.3100676 27.0074586,43.3100676 C27.0074586,44.2099216 27.0074586,45.113611 27.0074586,46.013465 C25.8497492,46.013465 24.6963744,46.013465 23.5386566,46.013465 C23.5386566,46.5270989 23.5386566,47.0446073 23.5386566,47.5582586 C24.6963744,47.5582586 25.8497492,47.5582586 27.0074586,47.5582586 C27.0074586,48.4580952 27.0074586,49.361802 27.0074586,50.2616386 C25.8497492,50.2616386 24.6963744,50.2616386 23.5386566,50.2616386 C23.5386566,51.034031 23.5386566,51.8064278 23.5386566,52.5788246 C28.3082614,52.5788246 33.0778579,52.5788246 37.8474627,52.5788246 C37.8474627,44.4686671 37.8474627,36.3585096 37.8474627,28.2483434 C33.0778579,28.2483434 28.3082614,28.2483434 23.5386566,28.2483434 Z M13.843358,34.1842052 L13.843358,34.1842575 C13.1105691,35.7715281 12.256385,37.3163304 11.6840323,38.9576713 C11.1506997,37.4090162 10.4439312,35.9182843 9.7978686,34.4082491 C8.84394596,34.4547008 7.89002751,34.5047225 6.93610905,34.5550053 C7.94205995,36.5323359 9.01305142,38.4826399 9.98865564,40.4715508 C8.8396155,42.4025514 7.76428521,44.3605786 6.64993059,46.3031334 C7.5995144,46.3376566 8.54909821,46.372441 9.49868621,46.3841954 C10.1750997,44.8471206 11.0162839,43.3679821 11.6059794,41.8000149 C12.1349732,43.4838416 13.0325246,45.0402198 13.7696481,46.6506684 C14.8146192,46.7163626 15.855264,46.7743512 16.9002392,46.8283345 C15.7035054,44.6656191 14.4850859,42.5183587 13.2926868,40.3556477 C14.4720778,38.2508643 15.6341261,36.1383665 16.7918397,34.0258687 C15.8075662,34.0683588 14.8232927,34.1223421 13.843358,34.1842052 Z M28.7418554,30.5655468 C30.7667695,30.5655468 32.787349,30.5655468 34.8122631,30.5655468 C34.8122631,31.4653834 34.8122631,32.3690772 34.8122631,33.2689225 C32.787349,33.2689225 30.7667695,33.2689225 28.7418554,33.2689225 C28.7418554,32.3690772 28.7418554,31.4653834 28.7418554,30.5655468 Z M28.7418554,34.813716 C30.7667695,34.813716 32.787349,34.813716 34.8122631,34.813716 C34.8122631,35.713557 34.8122631,36.6172638 34.8122631,37.5170961 C32.787349,37.5170961 30.7667695,37.5170961 28.7418554,37.5170961 C28.7418554,36.6172638 28.7418554,35.713557 28.7418554,34.813716 Z M28.7418554,39.061894 C30.7667695,39.061894 32.787349,39.061894 34.8122631,39.061894 C34.8122631,39.9617436 34.8122631,40.8654418 34.8122631,41.7652914 C32.787349,41.7652914 30.7667695,41.7652914 28.7418554,41.7652914 C28.7418554,40.8654418 28.7418554,39.9617436 28.7418554,39.061894 Z M28.7418554,43.3100676 C30.7667695,43.3100676 32.787349,43.3100676 34.8122631,43.3100676 C34.8122631,44.2099216 34.8122631,45.113611 34.8122631,46.013465 C32.787349,46.013465 30.7667695,46.013465 28.7418554,46.013465 C28.7418554,45.113611 28.7418554,44.2099216 28.7418554,43.3100676 Z M28.7418554,47.5582586 C30.7667695,47.5582586 32.787349,47.5582586 34.8122631,47.5582586 C34.8122631,48.4580952 34.8122631,49.361802 34.8122631,50.2616386 C32.787349,50.2616386 30.7667695,50.2616386 28.7418554,50.2616386 C28.7418554,49.361802 28.7418554,48.4580952 28.7418554,47.5582586 Z"/>
  </g>
</svg>
