<svg xmlns="http://www.w3.org/2000/svg" width="40" height="58" viewBox="0 0 40 58">
  <g fill="none" fill-rule="evenodd">
    <rect width="40" height="18" fill="#626870" rx="2"/>
    <path fill="#FFF" d="M7.96299996,11.984 L13.157,5.852 L9.15299996,5.852 C8.49499996,5.852 7.96299996,5.516 7.96299996,4.886 C7.96299996,4.256 8.49499996,3.92 9.15299996,3.92 L15.201,3.92 C15.789,3.92 16.265,4.172 16.265,4.97 C16.265,5.25 16.153,5.558 15.943,5.796 L10.665,12.068 L15.145,12.068 C15.803,12.068 16.335,12.404 16.335,13.034 C16.335,13.664 15.803,14 15.145,14 L8.91499996,14 C8.07499996,14 7.58499996,13.72 7.58499996,12.866 C7.58499996,12.502 7.75299996,12.236 7.96299996,11.984 Z M18.419,13.034 L18.419,4.886 C18.419,4.2 18.867,3.738 19.567,3.738 C20.267,3.738 20.715,4.2 20.715,4.886 L20.715,13.034 C20.715,13.72 20.267,14.182 19.567,14.182 C18.867,14.182 18.419,13.72 18.419,13.034 Z M23.443,13.034 L23.443,5.264 C23.443,4.242 23.975,3.92 24.787,3.92 L28.301,3.92 C30.233,3.92 31.787,4.872 31.787,7.112 C31.787,8.946 30.513,10.304 28.287,10.304 L25.739,10.304 L25.739,13.034 C25.739,13.72 25.291,14.182 24.591,14.182 C23.891,14.182 23.443,13.72 23.443,13.034 Z M25.739,5.684 L25.739,8.54 L27.881,8.54 C28.805,8.54 29.491,7.98 29.491,7.112 C29.491,6.104 28.777,5.684 27.643,5.684 L25.739,5.684 Z"/>
    <path fill="#626870" fill-rule="nonzero" d="M38.75,32.75 L38.75,31.5 L16.875,31.5 L16.875,30.25 L40,30.25 L40,32.75 L38.75,32.75 Z M2.5,57.75 C1.875,57.75 1.25,57.5 0.75,57 C0.25,56.5 0,55.875 0,55.25 L0,30.25 L5,30.25 L5,31.5 L2.5,31.5 L2.5,57.75 Z"/>
    <path fill="#626870" fill-rule="nonzero" d="M40,44 L38.75,44 L38.75,45.875 L40,45.875 L40,55.25 C40,55.875 39.75,56.5 39.25,57 C38.75,57.5 38.125,57.75 37.5,57.75 L2.5,57.75 C3.125,57.75 3.75,57.5 4.25,57 C4.75,56.5 5,55.875 5,55.25 L5,29 L15.625,29 L20.625,32.75 L40,32.75 L40,44 Z M16.25,44 L16.25,45.875 L17.5,45.875 L17.5,44 L16.25,44 Z M18.75,44 L18.75,45.875 L20,45.875 L20,44 L18.75,44 Z M17.5,42.125 L17.5,44 L18.75,44 L18.75,42.125 L17.5,42.125 Z M15,42.125 L15,44 L16.25,44 L16.25,42.125 L15,42.125 Z M13.75,44 L13.75,45.875 L15,45.875 L15,44 L13.75,44 Z M12.5,42.125 L12.5,44 L13.75,44 L13.75,42.125 L12.5,42.125 Z M21.25,44 L21.25,45.875 L22.5,45.875 L22.5,44 L21.25,44 Z M23.75,44 L23.75,45.875 L25,45.875 L25,44 L23.75,44 Z M22.5,42.125 L22.5,44 L23.75,44 L23.75,42.125 L22.5,42.125 Z M20,42.125 L20,44 L21.25,44 L21.25,42.125 L20,42.125 Z M26.25,44 L26.25,45.875 L27.5,45.875 L27.5,44 L26.25,44 Z M28.75,44 L28.75,45.875 L30,45.875 L30,44 L28.75,44 Z M27.5,42.125 L27.5,44 L28.75,44 L28.75,42.125 L27.5,42.125 Z M25,42.125 L25,44 L26.25,44 L26.25,42.125 L25,42.125 Z M31.25,44 L31.25,45.875 L32.5,45.875 L32.5,44 L31.25,44 Z M33.75,44 L33.75,45.875 L35,45.875 L35,44 L33.75,44 Z M32.5,42.125 L32.5,44 L33.75,44 L33.75,42.125 L32.5,42.125 Z M30,42.125 L30,44 L31.25,44 L31.25,42.125 L30,42.125 Z M36.25,44 L36.25,45.875 L37.5,45.875 L37.5,44 L36.25,44 Z M37.5,42.125 L37.5,44 L38.75,44 L38.75,42.125 L37.5,42.125 Z M35,42.125 L35,44 L36.25,44 L36.25,42.125 L35,42.125 Z M7.5,42.125 L7.5,48.375 C7.5,48.6875 7.625,49 7.875,49.25 C8.125,49.5 8.4375,49.625 8.75,49.625 L10,49.625 C10.3125,49.625 10.625,49.5 10.875,49.25 C11.125,49 11.25,48.6875 11.25,48.375 L11.25,42.125 L7.5,42.125 Z M7.5,32.75 L7.5,34 L16.25,34 L16.25,32.75 L7.5,32.75 Z M9,35.25 L9,36.5 L11,36.5 L11,35.25 L9,35.25 Z"/>
    <polygon fill="#626870" fill-rule="nonzero" points="10 48.375 8.75 48.375 8.75 45.875 10 45.875"/>
    <path fill="#626870" fill-rule="nonzero" d="M4.25,57 C3.75,57.5 3.125,57.75 2.5,57.75 L37.5,57.75 C38.125,57.75 38.75,57.5 39.25,57 C39.75,56.5 40,55.875 40,55.25 L5,55.25 C5,55.875 4.75,56.5 4.25,57 Z"/>
  </g>
</svg>
