<?xml version="1.0" encoding="UTF-8"?>
<svg width="104px" height="104px" viewBox="0 0 104 104" version="1.1" xmlns="http://www.w3.org/2000/svg" xmlns:xlink="http://www.w3.org/1999/xlink">
    <!-- Generator: Sketch 55.1 (78136) - https://sketchapp.com -->
    <title>work_offline</title>
    <desc>Created with Sketch.</desc>
    <g id="----↳-PDF---Desktop" stroke="none" stroke-width="1" fill="none" fill-rule="evenodd">
        <g id="Desktop-page" transform="translate(-246.000000, -1102.000000)">
            <g id="work_offline" transform="translate(248.000000, 1104.000000)">
                <path d="M13.5761499,84.2537425 C14.0674831,83.6796735 14.6757911,83.200294 15.3730774,82.8518635 C16.9451908,82.0661298 18.7967423,82.0331727 20.3970186,82.7622325 C21.8452154,78.8357203 26.2530159,76.8083981 30.2421286,78.2338686 C34.2312412,79.6593392 36.290885,83.9982769 34.8426881,87.9244811 C38.3370732,88.0332086 41.0973464,90.8801456 41.0450887,94.3209259 C41.018147,96.0844321 40.2575331,97.6700479 39.0517198,98.797683 C29.1221933,96.5796073 20.3070194,91.4083098 13.5761499,84.2537425 L13.5761499,84.2537425 Z" id="Path" stroke="#7CD2F3" stroke-width="3" fill="#C6EDFC"></path>
                <path d="M100,50 C100,77.6142578 77.6142578,100 50,100 C22.3857422,100 0,77.6142578 0,50 C0,22.3857422 22.3857422,7.10542736e-15 50,7.10542736e-15 C77.6142578,7.10542736e-15 100,22.3857422 100,50 Z" id="Path" stroke="#E5322D" stroke-width="3"></path>
                <rect id="Rectangle" fill="#FFFFFF" x="11" y="4.22222222" width="17" height="16"></rect>
                <path d="M9,44.8061508 L9,2.90145437 C9,1.80149365 9.95625,0.909722222 11.1357422,0.909722222 C10.502105,2.40693651 10.5611979,4.25781151 11.3130208,6.46234722 L18.9715169,28.9075889 L18.9670897,28.9079112 L21.1630208,35.3474722 C21.8489583,37.3590579 23.3626302,39.0344079 25.3720052,40.0059579 L49.9909505,51.9097222 L16.6171875,51.9097222 C12.4103516,51.9097222 9,48.7293258 9,44.8061508 Z" id="Path" fill="#C6EDFC" fill-rule="nonzero"></path>
                <path d="M9,44.8061508 L9,2.90145437 C9,1.80149365 9.95625,0.909722222 11.1357422,0.909722222 L19.8382813,0.909722222 C23.5591797,0.909722222 26.8519531,3.15554365 27.9796875,6.46234722 L35.6381836,28.9075889 L35.6337564,28.9079112 L37.8296875,35.3474722 C38.515625,37.3590579 40.0292969,39.0344079 42.0386719,40.0059579 L66.6576172,51.9097222 L16.6171875,51.9097222 C12.4103516,51.9097222 9,48.7293258 9,44.8061508 Z" id="Path" stroke="#E5322D" stroke-width="3" fill-rule="nonzero"></path>
                <path d="M88.4509412,81.9633241 C67.427756,78.3097528 42.8754843,72.8518748 25.0828125,66.7380425 C15.8496094,63.5653863 9.53125,55.1017144 9.03535156,45.4329644 C9.04980469,45.0228082 9.06894531,44.6136285 9.09316406,44.2060113 L99.6679055,44.2060113 C99.8872577,46.1069201 100,48.0402938 100,50 C100,62.1552976 95.6625354,73.2975173 88.4509412,81.9633241 Z" id="Combined-Shape" stroke="#E5322D" stroke-width="3" fill="#F9F9F9"></path>
                <rect id="Rectangle" fill="#FFFFFF" x="53" y="41.2222222" width="43" height="6"></rect>
                <path d="M41.7632812,56.445855 L41.7632812,61.6753472 L10.9433594,58.593316 C9.8546875,58.4845269 9.02207031,57.5788628 9.00039062,56.489605 C8.97851562,55.3915582 9.91699219,54.49273 11.0150391,54.49273 L39.8099609,54.49273 C40.8888672,54.49273 41.7632812,55.3671441 41.7632812,56.445855 Z" id="Path" fill="#FFAFA2"></path>
                <path d="M63.3767361,54.8628472 L63.3767361,56.8159722 C63.3767361,58.9733941 61.627908,60.7222222 59.4704861,60.7222222 C57.3130642,60.7222222 55.5642361,58.9733941 55.5642361,56.8159722 L55.5642361,54.8628472 C55.5642361,52.7054253 57.3130642,50.9565972 59.4704861,50.9565972 C61.627908,50.9565972 63.3767361,52.7054253 63.3767361,54.8628472 Z" id="Path" stroke="#7CD2F3" stroke-width="3" fill="#C6EDFC" fill-rule="nonzero"></path>
                <path d="M74.6883681,50.9565972 C72.5309462,50.9565972 70.7821181,52.7054253 70.7821181,54.8628472 L70.7821181,56.8159722 C70.7821181,58.9733941 72.5309462,60.7222222 74.6883681,60.7222222 C76.8457899,60.7222222 78.5946181,58.9733941 78.5946181,56.8159722 L78.5946181,54.8628472 C78.5946181,52.7054253 76.8457899,50.9565972 74.6883681,50.9565972 Z" id="Path" fill="#E5322D" fill-rule="nonzero"></path>
                <path d="M89.90625,50.9565972 C87.7488281,50.9565972 86,52.7054253 86,54.8628472 L86,56.8159722 C86,58.9733941 87.7488281,60.7222222 89.90625,60.7222222 C92.0636719,60.7222222 93.8125,58.9733941 93.8125,56.8159722 L93.8125,54.8628472 C93.8125,52.7054253 92.0636719,50.9565972 89.90625,50.9565972 Z" id="Path-Copy-3" stroke="#7CD2F3" stroke-width="3" fill="#C6EDFC" fill-rule="nonzero"></path>
                <g id="No-Wifi-Copy-3" transform="translate(55.000000, 26.222222)" fill="#E5322D">
                    <path d="M33.2779331,16.4534516 C30.7317838,13.4236677 27.3120727,11.3605504 23.5509868,10.5042747 C23.4734694,11.4157459 23.3303603,12.6927006 23.1574368,14.1054064 C26.007693,14.8438323 28.5940917,16.4430093 30.5409717,18.7612191 C30.8972537,19.1804064 31.4026077,19.3952212 31.9094524,19.3952212 C32.3179096,19.3952212 32.7248761,19.2624537 33.0632695,18.976034 C33.8205551,18.3405401 33.9189426,17.2112706 33.2779331,16.4534516" id="Fill-3"></path>
                    <path d="M15.6246809,10.504573 C11.8635949,11.3608488 8.44388385,13.423966 5.89773453,16.45375 C5.26268791,17.2115689 5.35660326,18.3408385 6.11388889,18.9763323 C6.45079155,19.256785 6.85924876,19.3955195 7.26621525,19.3955195 C7.77305996,19.3955195 8.27990468,19.1807047 8.63469598,18.7615175 C10.581576,16.4447994 13.166484,14.8456224 16.0152494,14.1057047 C15.8423259,12.6944907 15.7007076,11.4160442 15.6246809,10.504573" id="Fill-5"></path>
                    <path d="M16.4755837,17.6925154 C14.5093243,18.290715 12.7308957,19.4378858 11.3713593,21.0564558 C10.7363127,21.8083076 10.8361909,22.9375772 11.5919858,23.573071 C11.9244163,23.8594907 12.3313828,23.99375 12.73984,23.99375 C13.2526476,23.99375 13.7580016,23.7774434 14.1142836,23.3582562 C14.8909486,22.4288837 15.8763144,21.7367027 16.9690119,21.3040895 C16.830375,20.3135545 16.6559608,19.0470422 16.4755837,17.6925154" id="Fill-7"></path>
                    <path d="M27.8040102,21.0570525 C26.4444738,19.4369907 24.6645545,18.2883282 22.6968044,17.6916204 C22.517918,19.0461471 22.3435038,20.3126595 22.2063576,21.3031944 C23.2990552,21.7358076 24.2844209,22.4294805 25.0610859,23.3588529 C25.4173679,23.7780401 25.9242126,23.9943467 26.4355295,23.9943467 C26.8439867,23.9943467 27.2509532,23.8600874 27.5833837,23.5736677 C28.3406694,22.9381739 28.4390569,21.8089043 27.8040102,21.0570525" id="Fill-9"></path>
                    <path d="M38.757968,11.8558179 C34.8865688,7.25072531 29.5691715,4.26867798 23.768781,3.28261831 C23.7553645,4.35072531 23.7359851,5.6590072 23.7061707,6.89419239 C28.4690203,7.82953189 32.8204313,10.3506224 36.0210066,14.1576183 C36.369835,14.5827726 36.8766797,14.7975874 37.3894873,14.7975874 C37.7964538,14.7975874 38.204911,14.6588529 38.5373415,14.3784002 C39.2931364,13.7429064 39.3930146,12.6136368 38.757968,11.8558179" id="Fill-13"></path>
                    <path d="M15.4091228,3.28276749 C9.60724154,4.26882716 4.28835349,7.25087449 0.418445032,11.8559671 C-0.216601579,12.613786 -0.116723356,13.7430556 0.640562274,14.3785494 C0.971502058,14.6590021 1.37995927,14.7977366 1.78692576,14.7977366 C2.29973335,14.7977366 2.80657806,14.5829218 3.15540648,14.1637346 C6.35598178,10.3507716 10.7073927,7.82968107 15.4732237,6.89284979 C15.4434093,5.65915638 15.4225393,4.34938272 15.4091228,3.28276749" id="Fill-16"></path>
                    <path d="M21.6331759,10.3979115 C21.5079554,12.880216 20.7879378,20.2883436 20.7879378,20.2883436 C20.6791152,21.51607 20.297491,21.8532099 19.5864177,21.8532099 C18.8783258,21.8532099 18.4967015,21.51607 18.387879,20.2883436 C18.387879,20.2883436 17.6633892,12.880216 17.5426409,10.3979115 C17.4591606,8.67790123 17.4338183,3.50593621 17.4338183,3.50593621 C17.4338183,1.34734568 18.2238998,0.249403292 19.5864177,0.249403292 C20.9489355,0.249403292 21.7419984,1.34734568 21.7419984,3.50593621 C21.7419984,3.50593621 21.7196376,8.67790123 21.6331759,10.3979115" id="Fill-18"></path>
                </g>
            </g>
        </g>
    </g>
</svg>