<?xml version="1.0" encoding="UTF-8"?>
<svg width="100px" height="100px" viewBox="0 0 100 100" version="1.1" xmlns="http://www.w3.org/2000/svg" xmlns:xlink="http://www.w3.org/1999/xlink">
    <!-- Generator: Sketch 55.1 (78136) - https://sketchapp.com -->
    <title>read</title>
    <desc>Created with Sketch.</desc>
    <g id="----↳-PDF---Desktop" stroke="none" stroke-width="1" fill="none" fill-rule="evenodd">
        <g id="Desktop-page" transform="translate(-633.000000, -1104.000000)" fill-rule="nonzero">
            <g id="read" transform="translate(633.000000, 1104.000000)">
                <path d="M83.6243709,30.3108673 L64.9661678,16.7628204 C64.2761287,16.2618438 63.310699,16.4149688 62.8093319,17.1050079 C62.30816,17.7950469 62.4616756,18.7606719 63.1517147,19.2618438 L81.8101131,32.8096954 C82.0841365,33.0085235 82.401324,33.1044219 82.7159725,33.1044219 C83.1933162,33.1044219 83.66441,32.8835235 83.9667537,32.4675079 C84.4679256,31.7774688 84.3146053,30.8118438 83.6243709,30.3108673 Z" id="Path" fill="#AB6993"></path>
                <path d="M37.6673397,22.9001251 C37.5337459,22.0579376 36.742535,21.4825469 35.9003475,21.6171173 L13.1273006,25.2309844 C12.2851131,25.3645782 11.710699,26.1557891 11.8442928,26.9979766 C11.9649959,27.7583282 12.6212459,28.3003204 13.3673397,28.3003204 C13.4478084,28.3003204 13.529449,28.2940704 13.611285,28.2809844 L36.3845272,24.6671173 C37.22691,24.5335235 37.801324,23.7425079 37.6673397,22.9001251 Z" id="Path" fill="#AB6993"></path>
                <path d="M99.3626522,25.4552032 L64.711285,0.294656315 C64.380035,0.054226627 63.9671444,-0.045382748 63.5620662,0.0192656895 C63.1577694,0.083523502 62.7952694,0.305593815 62.554449,0.636843815 L47.4429256,21.4489532 L45.3622615,8.33782038 C45.298199,7.93332819 45.0759334,7.5710235 44.7444881,7.33020319 C44.4130428,7.08938288 43.9993709,6.99075006 43.5952694,7.05481256 L1.30230061,13.766336 C0.460113112,13.8999298 -0.11430095,14.6911407 0.0192927996,15.5331329 L8.27925374,67.5864532 C8.34351155,67.9909454 8.56558186,68.3532501 8.89683186,68.5940704 C9.16226155,68.7868438 9.48003499,68.8886016 9.80405842,68.8886016 C9.88452717,68.8886016 9.96538655,68.8821563 10.0460506,68.869461 L19.7642147,67.3272735 L19.7642147,83.8948516 C19.7642147,84.747586 20.4556209,85.4389923 21.3083553,85.4389923 L64.1308162,85.4389923 C64.9837459,85.4389923 65.6749569,84.747586 65.6749569,83.8948516 L65.6749569,79.5407501 C66.7343319,78.9323516 67.7349178,78.2300079 68.6640194,77.4354766 L72.5114803,81.2831329 L71.2741756,82.5204376 C70.6712459,83.1233673 70.6712459,84.1011016 71.2741756,84.7042266 L85.2495662,98.6796173 C85.5511287,98.9811798 85.9462459,99.131961 86.3415584,99.131961 C86.7366756,99.131961 87.1319881,98.9811798 87.4335506,98.6796173 L92.0921444,94.0210235 C92.3815975,93.7315704 92.5442928,93.3387969 92.5442928,92.9292266 C92.5442928,92.5196563 92.3815975,92.1268829 92.0921444,91.8374298 L78.1165584,77.8620391 C77.82691,77.5723907 77.4341365,77.4096954 77.0245662,77.4096954 C76.6149959,77.4096954 76.2224178,77.5723907 75.932574,77.8620391 L74.6952694,79.0993438 L70.8478084,75.2518829 C73.8948787,71.6948516 75.5569881,67.2173126 75.5569881,62.4835235 C75.5569881,61.9770782 75.5358944,61.4641876 75.4962459,60.9522735 L99.705035,27.6116485 C100.206207,26.9216094 100.052887,25.9559844 99.3626522,25.4552032 Z M19.76441,31.1901641 L19.76441,37.5184844 L15.1923397,38.2440704 C14.3501522,38.3776641 13.7757381,39.1688751 13.9093319,40.0110626 C14.030035,40.7714141 14.686285,41.3134063 15.4323787,41.3134063 C15.5128475,41.3134063 15.5944881,41.3071563 15.676324,41.2940704 L19.76441,40.6454376 L19.76441,50.8596954 L17.2571834,51.2573516 C16.4149959,51.3909454 15.8405819,52.1821563 15.9741756,53.0243438 C16.0948787,53.7846954 16.7511287,54.3266876 17.4972225,54.3266876 C17.5776912,54.3266876 17.6593319,54.3204376 17.7411678,54.3073516 L19.76441,53.9864532 L19.76441,64.200711 L11.0870662,65.5776641 L3.31128499,16.5743438 L42.5546444,10.3470001 L44.8771053,24.9827423 L41.4909725,29.6460235 L21.3083553,29.6460235 C20.4556209,29.6462188 19.76441,30.3374298 19.76441,31.1901641 Z M62.5870662,82.3509063 L22.8524959,82.3509063 L22.8524959,65.5190704 L22.8524959,52.1780548 L22.8524959,38.8372344 L22.8524959,32.7346954 L42.2753475,32.7346954 C42.2757381,32.7346954 42.2761287,32.7346954 42.2765194,32.7346954 C42.2771053,32.7346954 42.2776912,32.7346954 42.2780819,32.7346954 L47.4249569,32.7346954 L59.7796444,32.7346954 C59.780035,32.7346954 59.7804256,32.7346954 59.7808162,32.7346954 C59.7814022,32.7346954 59.7819881,32.7346954 59.7827694,32.7346954 L62.5864803,32.7346954 L62.5864803,34.3479766 L62.5864803,43.9923126 C60.4523006,43.2161407 58.2110897,42.8227813 55.8954647,42.8227813 C55.4640194,42.8227813 55.0345272,42.8386016 54.6073787,42.866336 C54.4921444,42.8389923 54.3722225,42.8227813 54.2485897,42.8227813 L31.1903865,42.8227813 C30.3376522,42.8227813 29.6462459,43.5141876 29.6462459,44.3669219 C29.6462459,45.2196563 30.3376522,45.9110626 31.1903865,45.9110626 L45.3149959,45.9110626 C43.6466365,46.9776641 42.1296444,48.3022735 40.8245662,49.8589141 C39.2847225,51.6948516 38.11441,53.7563751 37.3335506,55.9989532 L31.1905819,55.9989532 C30.3378475,55.9989532 29.6464412,56.6903594 29.6464412,57.5430938 C29.6464412,58.3958282 30.3378475,59.0872344 31.1905819,59.0872344 L36.5296444,59.0872344 C36.3337459,60.206961 36.2347225,61.3434844 36.2347225,62.4843048 C36.2347225,64.8016876 36.6274959,67.0428985 37.4023006,69.1753204 L31.1907772,69.1753204 C30.3380428,69.1753204 29.6466365,69.8667266 29.6466365,70.719461 C29.6466365,71.5721954 30.3380428,72.2636016 31.1907772,72.2636016 L38.8384334,72.2636016 C42.3442928,78.3823516 48.7937069,82.1456329 55.8960506,82.1456329 C58.2132381,82.1456329 60.454449,81.7528594 62.5870662,80.9780548 L62.5870662,82.3509063 L62.5870662,82.3509063 Z M67.6148006,74.2026641 C67.6146053,74.2028594 67.61441,74.2030548 67.6142147,74.2032501 C66.3821834,75.4352813 64.9735897,76.4602813 63.4280819,77.2503204 C61.0833553,78.4489532 58.5491756,79.0567657 55.8958553,79.0567657 C49.6382381,79.0567657 43.9798397,75.5925079 41.1290584,70.0159454 C41.1288631,70.0155548 41.1286678,70.0151641 41.1284725,70.0147735 C39.9302303,67.6704376 39.3228084,65.1366485 39.3228084,62.4837188 C39.3228084,60.9534454 39.5335506,59.4323516 39.9495662,57.963211 C40.588824,55.7048126 41.6796444,53.6454376 43.1913631,51.8427032 C46.3524959,48.0727813 50.98316,45.9106719 55.8960506,45.9106719 C58.5462459,45.9106719 61.0806209,46.5192657 63.4280819,47.7198516 C68.42691,50.2762969 71.7704647,55.1212188 72.3710506,60.6803985 C72.3712459,60.6813751 72.3714412,60.6825469 72.3714412,60.6837188 C72.4360897,61.2841094 72.4690975,61.8895782 72.4690975,62.4837188 C72.4690975,66.9108673 70.745074,71.0723907 67.6148006,74.2026641 Z M74.7149959,56.7721954 C73.2771053,52.0085235 70.070074,47.9485626 65.6749569,45.428836 L65.6749569,37.3772735 L74.0687069,43.4718048 C74.3427303,43.6706329 74.6599178,43.7665313 74.9745662,43.7665313 C75.45191,43.7665313 75.9230037,43.5456329 76.2253475,43.1296173 C76.7265194,42.4395782 76.5730037,41.4739532 75.8829647,40.9727813 L65.6749569,33.5608673 L65.6749569,31.1905548 C65.6749569,30.3378204 64.9837459,29.6464141 64.1308162,29.6464141 L60.2839412,29.6464141 L57.2245662,27.4249298 C56.5345272,26.9239532 55.5687069,27.0768829 55.0677303,27.7671173 C54.6476131,28.3456329 54.688824,29.1167266 55.1190975,29.6464141 L47.4247615,29.6464141 L45.3069881,29.6464141 L47.7511287,26.2803985 C47.751324,26.2802032 47.7515194,26.2800079 47.7517147,26.2796173 L64.1462459,3.70090631 L96.298785,27.0468048 L74.7149959,56.7721954 Z" id="Shape" fill="#E5322D"></path>
                <polygon id="Path" fill="#E7D3E0" points="77.0243709 81.1378204 88.8161678 92.9296173 86.3413631 95.4044219 74.5497615 83.6126251"></polygon>
                <g id="Group-7" transform="translate(41.999957, 51.956570)">
                    <path d="M26.897297,12.0086442 C26.7456033,12.2181764 26.5713904,12.451334 26.4417078,12.6095466 C25.3991936,13.8780285 24.5549632,14.8020421 23.3481559,15.8598667 C23.0236671,16.1442967 22.6931967,16.4170422 22.3564783,16.677 C19.6742892,18.7478479 16.8560394,19.82 13.9999151,19.82 C11.1437908,19.82 8.32554097,18.7478479 5.6433825,16.6770235 C5.30635486,16.4168271 4.97561599,16.1438364 4.6508682,15.8591349 C3.4444347,14.801473 2.60076097,13.8779182 1.55842994,12.6095074 C1.4299166,12.4531277 1.27202315,12.2418438 1.1025332,12.0086442 C0.299155599,10.9026448 0.299155599,9.41702659 1.10277594,8.31069318 C1.27202315,8.07782763 1.4299166,7.86654369 1.55840627,7.71019277 C2.88833638,6.09180327 4.02660329,4.89118303 5.64335197,3.64300004 C8.32554097,1.57215209 11.1437908,0.5 13.9999151,0.5 C16.8560394,0.5 19.6742892,1.57215209 22.3564477,3.64297647 C22.6934754,3.90317286 23.0242142,4.17616363 23.348962,4.46086508 C24.5553955,5.51852701 25.3990692,6.44208183 26.4414003,7.71049256 C26.5699136,7.86687228 26.7278071,8.07815622 26.897297,8.31135584 C27.7006746,9.41735518 27.7006746,10.9026448 26.897297,12.0086442 Z" id="Path" fill="#AB6993"></path>
                    <path d="M24.4686711,10.2474597 C24.5097535,10.1908989 24.5097535,10.1291011 24.4703031,10.0747901 C24.3382549,9.89310629 24.200299,9.70850168 24.1236237,9.61520029 C23.1766408,8.4628186 22.4271371,7.64235006 21.3712965,6.71671061 C21.0924057,6.47221129 20.809653,6.23882815 20.5231074,6.01760559 C18.3403235,4.33233523 16.1524543,3.5 13.9999151,3.5 C11.847376,3.5 9.6595067,4.33233523 7.47669224,6.01762916 C6.08094425,7.09519237 5.07389429,8.15740769 3.87618289,9.61490051 C3.79953119,9.70817309 3.66157531,9.89277771 3.52976988,10.0741274 C3.49007671,10.1287725 3.49007671,10.1908989 3.52952715,10.2452099 C3.66157531,10.4268937 3.79953119,10.6114983 3.87620656,10.7047997 C4.8231894,11.8571814 5.5726931,12.6776499 6.62853373,13.6032894 C6.90742452,13.8477887 7.19017721,14.0811718 7.47672277,14.3023944 C9.6595067,15.9876648 11.847376,16.82 13.9999151,16.82 C16.1524543,16.82 18.3403235,15.9876648 20.523138,14.3023708 C20.8094388,14.0813372 21.0919807,13.8481483 21.3706649,13.6038682 C22.42687,12.6780537 23.1768902,11.8571535 24.1227702,10.7062535 C24.2005659,10.6113417 24.3506796,10.4104372 24.4686711,10.2474597 Z" id="Path" fill="#E7D3E0"></path>
                    <path d="M14.0868716,6.96329897 C12.2618037,6.96329897 10.7825238,8.39438791 10.7825238,10.16 C10.7825238,11.9256121 12.2618037,13.356701 14.0868716,13.356701 C15.9119395,13.356701 17.3912195,11.9256121 17.3912195,10.16 C17.3912195,8.39438791 15.9119395,6.96329897 14.0868716,6.96329897 Z" id="Path" fill="#AB6993"></path>
                </g>
            </g>
        </g>
    </g>
</svg>