<svg xmlns="http://www.w3.org/2000/svg" xmlns:xlink="http://www.w3.org/1999/xlink" width="111" height="655"><style><![CDATA[.B{fill:#fff}.C{fill-rule:nonzero}.D{fill:#677897}.E{fill:#ab6993}.F{fill:#ee6c4d}.G{fill:#4a7aab}.H{fill:#fff3b6}.I{fill:#ffd400}.J{fill:#dab400}.K{fill:#383e45}]]></style><defs><path d="M4.4 5.634l1.815 1.83a.34.34 0 0 0 .485 0c.134-.135.134-.354 0-.49L4.642 4.9a.34.34 0 0 0-.485 0L2.1 6.975c-.134.135-.134.354 0 .49a.34.34 0 0 0 .485 0L4.4 5.634z" id="A"/><path d="M4.4 14.334l1.815-1.83a.34.34 0 0 1 .485 0c.134.135.134.354 0 .49l-2.057 2.074a.34.34 0 0 1-.485 0L2.1 12.993c-.134-.135-.134-.354 0-.49a.34.34 0 0 1 .485 0l1.815 1.83z" id="B"/><path id="C" d="M22.926 25h-8.794c-.72 0-.983-.075-1.246-.216a1.47 1.47 0 0 1-.611-.611c-.14-.264-.216-.525-.216-1.246v-8.794c0-.72.075-.983.216-1.246a1.47 1.47 0 0 1 .611-.611c.264-.14.525-.216 1.246-.216h8.794c.72 0 .983.075 1.246.216a1.47 1.47 0 0 1 .611.611c.14.264.216.525.216 1.246v8.794c0 .72-.075.983-.216 1.246a1.47 1.47 0 0 1-.611.611c-.264.14-.525.216-1.246.216z"/><path id="D" d="M17.784 18.552l-.01 2.003a.56.56 0 0 1-.556.556c-.306.002-.552-.245-.55-.55l.017-3.32a.56.56 0 0 1 .556-.556l3.32-.017c.306-.002.552.245.55.55a.56.56 0 0 1-.556.556l-2.123.01 3.092 3.092a.5.5 0 1 1-.708.708l-3.032-3.032z"/><path id="E" d="M12.218 11.5l.01-2.003a.56.56 0 0 1 .556-.556c.306-.002.552.245.55.55l-.017 3.32a.56.56 0 0 1-.556.556l-3.32.017c-.306.002-.552-.245-.55-.55a.56.56 0 0 1 .556-.556l2.123-.01-3.092-3.092a.5.5 0 1 1 .708-.708l3.032 3.032z"/><path id="F" d="M20.55 44.843l.01-2.003a.56.56 0 0 1 .556-.556c.306-.002.552.245.55.55l-.017 3.32a.56.56 0 0 1-.556.556l-3.32.017c-.306.002-.552-.245-.55-.55a.56.56 0 0 1 .556-.556l2.123-.01-3.092-3.092a.5.5 0 0 1 .708-.708l3.032 3.032z"/><path id="G" d="M8.205 130h13.6c1.114 0 1.52.116 1.926.334a2.27 2.27 0 0 1 .945.945c.218.407.334.812.334 1.926v13.6c0 1.114-.116 1.52-.334 1.926a2.27 2.27 0 0 1-.945.945c-.407.218-.812.334-1.926.334h-13.6c-1.114 0-1.52-.116-1.926-.334a2.27 2.27 0 0 1-.945-.945c-.218-.407-.334-.812-.334-1.926v-13.6c0-1.114.116-1.52.334-1.926a2.27 2.27 0 0 1 .945-.945c.407-.218.812-.334 1.926-.334z"/><path id="H" d="M7.074 180h8.794c.72 0 .983.075 1.246.216a1.47 1.47 0 0 1 .611.611c.14.264.216.525.216 1.246v8.794c0 .72-.075.983-.216 1.246a1.47 1.47 0 0 1-.611.611c-.264.14-.525.216-1.246.216H7.074c-.72 0-.983-.075-1.246-.216a1.47 1.47 0 0 1-.611-.611c-.14-.264-.216-.525-.216-1.246v-8.794c0-.72.075-.983.216-1.246a1.47 1.47 0 0 1 .611-.611c.264-.14.525-.216 1.246-.216z"/><path id="I" d="M12.517 264.792h0l-.93-2.17c-.035-.08-.072-.23-.11-.447h-.015c-.017.102-.06.258-.124.465l-.933 2.152h-1.45l1.72-3.333-1.573-3.334h1.48l.77 2c.06.158.114.346.162.563h.014a7.72 7.72 0 0 1 .169-.581l.858-1.98h1.355l-1.618 3.305 1.663 3.36h-1.44z"/><path id="J" d="M17.138 415.638h6.36c.522 0 .71.054.9.156s.34.252.442.442.156.38.156.9v6.36c0 .522-.054.71-.156.9s-.252.34-.442.442-.38.156-.9.156h-6.36c-.522 0-.71-.054-.9-.156s-.34-.252-.442-.442-.156-.38-.156-.9v-6.36c0-.522.054-.71.156-.9s.252-.34.442-.442.38-.156.9-.156z"/><path id="K" d="M6.5 415.638h6.36c.522 0 .71.054.9.156s.34.252.442.442.156.38.156.9v6.36c0 .522-.054.71-.156.9s-.252.34-.442.442-.38.156-.9.156H6.5c-.522 0-.71-.054-.9-.156s-.34-.252-.442-.442-.156-.38-.156-.9v-6.36c0-.522.054-.71.156-.9s.252-.34.442-.442.38-.156.9-.156z"/><path id="L" d="M62.5 146h-7c-.133-.002-.26.058-.352.164s-.15.244-.148.39.052.29.148.39l3.5 3.888c.092.107.22.167.352.166s.26-.06.352-.166l3.5-3.888c.096-.102.15-.243.15-.39s-.053-.29-.15-.39-.22-.166-.352-.164h0z"/><path id="M" d="M47.567 319.784a.35.35 0 0 0-.353-.347.35.35 0 0 0-.353.347v1.537l-2.058-2.02c-.138-.135-.36-.135-.5 0a.34.34 0 0 0 0 .49l2.058 2.02h-1.566a.35.35 0 0 0-.353.347.35.35 0 0 0 .353.347h2.418c.046 0 .092-.01.135-.027a.35.35 0 0 0 .191-.187c.018-.042.027-.087.027-.132v-2.374z"/><path id="N" d="M42 112.003a1 1 0 0 0 .997.997h6.006a1 1 0 0 0 .997-.997v-6.006a1 1 0 0 0-.997-.997h-6.006a1 1 0 0 0-.997.997v6.006z"/><path id="O" d="M33.177 366.17c-.53 0-.96.448-.96 1s.43 1 .96 1h.08c.53 0 .96-.448.96-1s-.43-1-.96-1h-.08z"/></defs><g fill="none" fill-rule="evenodd"><g class="F"><path d="M7.074 5h8.794c.72 0 .983.075 1.246.216a1.47 1.47 0 0 1 .611.611c.14.264.216.525.216 1.246v8.794c0 .72-.075.983-.216 1.246a1.47 1.47 0 0 1-.611.611c-.264.14-.525.216-1.246.216H7.074c-.72 0-.983-.075-1.246-.216a1.47 1.47 0 0 1-.611-.611C5.075 16.85 5 16.59 5 15.867V7.074c0-.72.075-.983.216-1.246a1.47 1.47 0 0 1 .611-.611C6.09 5.075 6.353 5 7.074 5z"/><use xlink:href="#C"/></g><g class="B"><circle cx="15" cy="15" r="1"/><g class="C"><use xlink:href="#D"/><use xlink:href="#E"/></g></g><g class="F"><path d="M7.074 30h8.794c.72 0 .983.075 1.246.216a1.47 1.47 0 0 1 .611.611c.14.264.216.525.216 1.246v8.794c0 .72-.075.983-.216 1.246a1.47 1.47 0 0 1-.611.611c-.264.14-.525.216-1.246.216H7.074c-.72 0-.983-.075-1.246-.216a1.47 1.47 0 0 1-.611-.611C5.075 41.85 5 41.59 5 40.867v-8.794c0-.72.075-.983.216-1.246a1.47 1.47 0 0 1 .611-.611c.264-.14.525-.216 1.246-.216z"/><use xlink:href="#C" y="25"/></g><g class="B"><circle cx="15" cy="40" r="1"/><g class="C"><use xlink:href="#F"/><path d="M9.45 35.22l-.01 2.003a.56.56 0 0 1-.556.556c-.306.002-.552-.245-.55-.55l.017-3.32a.56.56 0 0 1 .556-.556l3.32-.017c.306-.002.552.245.55.55a.56.56 0 0 1-.556.556l-2.123.01 3.092 3.092a.5.5 0 0 1-.708.708L9.45 35.22z"/></g></g><path d="M8.205 55h13.6c1.114 0 1.52.116 1.926.334a2.27 2.27 0 0 1 .945.945c.218.407.334.812.334 1.926v13.6c0 1.114-.116 1.52-.334 1.926a2.27 2.27 0 0 1-.945.945c-.407.218-.812.334-1.926.334h-13.6c-1.114 0-1.52-.116-1.926-.334a2.27 2.27 0 0 1-.945-.945C5.116 73.314 5 72.9 5 71.795v-13.6c0-1.114.116-1.52.334-1.926a2.27 2.27 0 0 1 .945-.945C6.686 55.116 7.1 55 8.205 55z" class="F"/><path d="M21 60.21L19.79 59 15 63.79 10.21 59 9 60.21 13.79 65 9 69.79 10.21 71 15 66.21 19.79 71 21 69.79 16.21 65z" class="B"/><path d="M8.205 80h13.6c1.114 0 1.52.116 1.926.334a2.27 2.27 0 0 1 .945.945c.218.407.334.812.334 1.926v13.6c0 1.114-.116 1.52-.334 1.926a2.27 2.27 0 0 1-.945.945c-.407.218-.812.334-1.926.334h-13.6c-1.114 0-1.52-.116-1.926-.334a2.27 2.27 0 0 1-.945-.945C5.116 98.314 5 97.9 5 96.795v-13.6c0-1.114.116-1.52.334-1.926a2.27 2.27 0 0 1 .945-.945C6.686 80.116 7.1 80 8.205 80z" class="F"/><path d="M17.543 84.28l4.5 4.5a.39.39 0 0 1 0 .549l-4.5 4.5a.39.39 0 0 1-.663-.275V91.3c-3.885 0-6.604 1.243-8.547 3.963.777-3.885 3.108-7.77 8.547-8.547v-2.17a.39.39 0 0 1 .663-.275z" class="B"/><use xlink:href="#G" fill="#8fbc5d"/><g class="B"><circle cx="15" cy="140" r="1"/><g class="C"><use xlink:href="#D" y="125"/><use xlink:href="#F" x="-8.332" y="91.657"/><path d="M12.218 143.552l.01 2.003a.56.56 0 0 0 .556.556c.306.002.552-.245.55-.55l-.017-3.32a.56.56 0 0 0-.556-.556l-3.32-.017c-.306-.002-.552.245-.55.55a.56.56 0 0 0 .556.556l2.123.01-3.092 3.092a.501.501 0 1 0 .708.708l3.032-3.032zm5.566-7.052l-.01-2.003a.56.56 0 0 0-.556-.556c-.306-.002-.552.245-.55.55l.017 3.32a.56.56 0 0 0 .556.556l3.32.017c.306.002.552-.245.55-.55a.56.56 0 0 0-.556-.556l-2.123-.01 3.092-3.092a.501.501 0 1 0-.708-.708l-3.032 3.032z"/></g></g><use xlink:href="#G" y="25" fill="#8fbc5d"/><g class="B"><path d="M13.327 165.945c.048.04.072.098.072.156 0 .046-.015.092-.046.13l-2.625 3.16c-.072.086-.2.098-.285.026-.048-.04-.072-.098-.072-.156a.2.2 0 0 1 .047-.13l2.625-3.16c.07-.086.2-.098.285-.026h0zm.852.717c.048.04.072.098.072.156 0 .046-.015.093-.046.13l-2.625 3.16c-.07.086-.2.098-.285.026-.048-.04-.072-.098-.072-.156a.2.2 0 0 1 .047-.13l2.625-3.16c.072-.086.2-.098.285-.026h0zm-4.327 2.123c-.384.462-.322 1.157.137 1.543l.496.417c.46.386 1.15.324 1.533-.138l2.782-3.35L12.996 165l-3.143 3.786zm8.45-7.4a1.73 1.73 0 0 1 .529-.424l.124-.065a1.3 1.3 0 0 0 .399-.321l.415-.498c.055-.066.03-.175-.052-.245l-.677-.567c-.083-.07-.195-.074-.25-.008l-.415.498a1.47 1.47 0 0 0-.244.45l-.042.134c-.07.222-.178.424-.323.597l-2.17 2.6.515.472 2.188-2.625z"/><path d="M19.535 170.03c-.294.274-.753.257-1.026-.038a.73.73 0 0 1 .038-1.029c.294-.274.753-.257 1.026.038a.73.73 0 0 1-.038 1.029m-4.9-6.63a1.49 1.49 0 0 1-.464-1.327c.117-.712-.084-1.468-.61-2.037-.517-.558-1.235-.815-1.938-.763-.126.01-.185.16-.1.253l1.097 1.185c.217.235.204.602-.03.82l-.997.93a.58.58 0 0 1-.818-.03l-1.094-1.182a.15.15 0 0 0-.259.081 2.42 2.42 0 0 0 .635 2.014c.52.547 1.236.796 1.934.74.494-.04.975.174 1.285.562l4.718 5.887a1.47 1.47 0 0 0 2.073.076 1.48 1.48 0 0 0 .075-2.08l-5.5-5.128z"/></g><use xlink:href="#C" y="175" class="H"/><use xlink:href="#H" class="I"/><use xlink:href="#E" x="10" y="185" class="C J"/><path d="M15.104 184.167a.92.92 0 0 1 .916.917.92.92 0 0 1-.916.917.92.92 0 0 1-.917-.917.92.92 0 0 1 .917-.917zm-5 5.958H7.196c-.04 0-.078-.022-.098-.056a.11.11 0 0 1 .001-.112l3.015-5.05c.04-.068.154-.068.194 0l1.756 2.944 1.178-1.203c.02-.022.05-.034.08-.034h.004c.032.001.062.015.083.04l2.8 3.27c.03.02.05.054.05.093 0 .06-.05.1-.113.1h-6.033z" class="B"/><use xlink:href="#C" y="200" fill="#5f83c6"/><use xlink:href="#H" y="25" fill="#dce5fa"/><g class="C"><use xlink:href="#E" x="10" y="210" class="B"/><path fill="#295795" d="M13.54 208.334h1.253L13.548 215H12.24l-.752-4.115-.77 4.115H9.362l-1.237-6.667h1.338l.637 4.264.823-4.264h1.27l.73 4.232z"/></g><use xlink:href="#C" y="250" fill="#5ea162"/><use xlink:href="#H" y="75" fill="#c2e5c3"/><use xlink:href="#E" x="10" y="260" class="B C"/><use xlink:href="#I" fill="#2e7237"/><use xlink:href="#C" y="225" fill="#ff7651"/><use xlink:href="#H" y="50" fill="#f3d9cc"/><use xlink:href="#E" x="10" y="235" class="B C"/><path d="M11.595 233.125c1.437 0 2.155.708 2.155 2.125 0 .67-.206 1.21-.618 1.625s-.962.62-1.652.62h-.613v2.297H9.583v-6.667h2.012zm-.186 1.15h-.5v2.07h.5c.677 0 1.015-.348 1.015-1.046 0-.682-.338-1.023-1.015-1.023z" fill="#d04526"/><use xlink:href="#H" y="125" fill="#dce5fa"/><use xlink:href="#C" y="300" fill="#5f83c6"/><g class="C"><use xlink:href="#F" x="-10" y="265" fill="#295795"/><path d="M20.83 315.417h1.253l-1.244 6.666H19.53l-.752-4.115-.77 4.115h-1.355l-1.237-6.667h1.338l.637 4.264.823-4.264h1.27l.73 4.232z" class="B"/></g><use xlink:href="#H" y="150" fill="#f3d9cc"/><use xlink:href="#C" y="325" fill="#ff7651"/><use xlink:href="#F" x="-10" y="290" fill="#d04526" class="C"/><path d="M18.887 340.417c1.437 0 2.155.708 2.155 2.125 0 .67-.206 1.21-.618 1.625s-.962.62-1.652.62h-.613v2.297h-1.284v-6.667h2.012zm-.186 1.15h-.5v2.07h.5c.677 0 1.015-.348 1.015-1.046 0-.682-.338-1.023-1.015-1.023z" class="B"/><use xlink:href="#H" y="175" fill="#c2e5c3"/><use xlink:href="#C" y="350" fill="#5ea162"/><use xlink:href="#F" x="-10" y="315" fill="#2e7237" class="C"/><use xlink:href="#I" x="7.293" y="107.291" class="B"/><path d="M15 280h6.795c1.114 0 1.52.116 1.926.334a2.27 2.27 0 0 1 .945.945c.218.407.334.812.334 1.926v13.6c0 1.114-.116 1.52-.334 1.926a2.27 2.27 0 0 1-.945.945c-.407.218-.812.334-1.926.334h-13.6c-1.114 0-1.52-.116-1.926-.334a2.27 2.27 0 0 1-.945-.945c-.218-.407-.334-.812-.334-1.926V290h8.264c.604 0 .823-.063 1.043-.18a1.23 1.23 0 0 0 .512-.512c.118-.22.18-.44.18-1.043V280z" class="I"/><path d="M6.47 280h6.23c.51 0 .696.053.883.153a1.04 1.04 0 0 1 .433.433c.1.187.153.372.153.883v6.23c0 .51-.053.696-.153.883a1.04 1.04 0 0 1-.433.433c-.187.1-.372.153-.883.153H6.47c-.51 0-.696-.053-.883-.153a1.04 1.04 0 0 1-.433-.433c-.1-.187-.153-.372-.153-.883v-6.23c0-.51.053-.696.153-.883a1.04 1.04 0 0 1 .433-.433c.187-.1.372-.153.883-.153z" class="H"/><use xlink:href="#F" x="-10" y="240" class="C J"/><path d="M11.727 292.813v3.202c0 1.135-.594 1.82-1.74 1.82-1.393 0-1.654-.985-1.654-1.518 0-.458.198-.752.55-.752.417 0 .523.346.523.714 0 .353.156.61.566.61.382 0 .594-.3.594-.887v-3.187c0-.368.226-.616.58-.616s.58.248.58.616zm1.075 4.374v-4.17c0-.55.27-.72.68-.72h1.774c.976 0 1.76.51 1.76 1.714 0 .985-.643 1.714-1.767 1.714H13.96v1.466c0 .368-.226.616-.58.616s-.58-.248-.58-.616zm1.16-3.946v1.533h1.082c.467 0 .813-.3.813-.767 0-.54-.36-.767-.933-.767h-.96zm8.54 2.112v2.037c0 .225-.163.413-.396.413-.332 0-.424-.218-.495-.7-.332.443-.792.73-1.513.73-1.796 0-2.48-1.315-2.48-2.833 0-1.826 1.075-2.833 2.65-2.833 1.287 0 1.972.82 1.972 1.3 0 .428-.297.54-.544.54-.573 0-.36-.85-1.492-.85-.8 0-1.428.556-1.428 1.924 0 1.067.495 1.804 1.442 1.804.615 0 1.152-.443 1.21-1.105h-.756c-.247 0-.523-.098-.523-.473 0-.3.163-.473.452-.473h1.428c.34 0 .474.18.474.52z" class="B"/><use xlink:href="#G" y="300" class="E"/><path d="M14.082 439c0 .344-.437 1.208-.844 1.866a.27.27 0 0 0-.031.21c.03.1.13.188.244.188h3.098a.25.25 0 0 0 .226-.142.26.26 0 0 0-.023-.269c-.578-.788-.835-1.36-.835-1.852s.258-1.064.837-1.856a2.2 2.2 0 0 0 .405-1.277c0-1.208-.97-2.2-2.16-2.2s-2.16.983-2.16 2.2a2.2 2.2 0 0 0 .408 1.281c.577.8.835 1.36.835 1.853zm5.608 2.632H10.3c-.14 0-.254.115-.254.257v2.586c0 .142.113.257.254.257h9.378c.14 0 .254-.115.254-.257v-2.586c0-.142-.114-.257-.254-.257zm-1.436 3.478h-6.508c-.14 0-.254.115-.254.257v.292c0 .142.113.257.254.257h6.508c.14 0 .254-.115.254-.257v-.292c0-.142-.114-.257-.254-.257z" class="B C"/><use xlink:href="#G" y="250" class="E"/><g class="B"><path d="M14.346 385.304a.5.5 0 1 1 .127.992c-2.14.274-3.773 2.085-3.773 4.255 0 1.763 1.077 3.314 2.69 3.97a.5.5 0 1 1-.377.926c-1.985-.808-3.314-2.722-3.314-4.897 0-2.68 2.012-4.91 4.646-5.247zm5.91 4.575a.5.5 0 1 1-.99.141 4.64 4.64 0 0 0-.362-1.265.5.5 0 1 1 .911-.412 5.64 5.64 0 0 1 .441 1.536zm-4.574 5.918a.5.5 0 1 1-.141-.99 4.65 4.65 0 0 0 1.236-.349.5.5 0 1 1 .405.914 5.65 5.65 0 0 1-1.499.424zm3.517-2a.5.5 0 0 1-.8-.6c.287-.383.505-.765.65-1.146a.5.5 0 0 1 .934.357c-.18.473-.445.935-.785 1.39z" class="C"/><path d="M14.713 388.4c-.17 0-.312-.142-.312-.312v-4.375c0-.17.142-.312.313-.312a.31.31 0 0 1 .22.093l2.188 2.187a.31.31 0 0 1 .093.22.31.31 0 0 1-.093.22l-2.187 2.188a.31.31 0 0 1-.22.093z"/></g><g class="E"><use xlink:href="#J"/><use xlink:href="#J" y="-10.638"/><use xlink:href="#K"/><use xlink:href="#K" y="-10.638"/></g><path d="M9.4 411.07v-2.102h-.714c-.183 0-.282-.066-.282-.293 0-.205.1-.26.398-.315l.205-.044c.614-.133.443-.763.913-.763.177 0 .32.077.32.376v3.142c0 .288-.1.487-.42.487s-.42-.2-.42-.487zm10.343-.28h1.66c.2 0 .365.1.365.35s-.155.35-.4.35h-2.074c-.32 0-.454-.216-.454-.4 0-.393.35-.83 1.04-1.267.77-.487 1.034-.586 1.034-1.034 0-.36-.277-.56-.58-.56-.354 0-.592.144-.714.586-.055.205-.127.3-.35.3s-.404-.094-.404-.37c0-.675.664-1.2 1.477-1.2.885 0 1.4.58 1.4 1.1 0 .736-.337 1.023-.924 1.355-.625.354-1.007.58-1.08.8zM8.2 421.452c0-.227.166-.387.393-.387.492 0 .227.68 1 .68.415 0 .636-.254.636-.597 0-.266-.116-.46-.498-.498-.155-.017-.46-.044-.46-.3 0-.288.166-.35.48-.365.277-.017.42-.177.42-.43 0-.332-.26-.487-.553-.487-.67 0-.514.63-.95.63-.188 0-.37-.083-.37-.332 0-.675.802-.963 1.34-.963.957 0 1.3.537 1.3 1.073a.82.82 0 0 1-.47.774c.415.116.592.448.592.863 0 .874-.675 1.294-1.494 1.294-1.04 0-1.366-.647-1.366-.957zm12.236-.63v-1.433h-.01l-1.068 1.433h1.08zm0 1.2v-.57h-1.4c-.288 0-.42-.205-.42-.382a.48.48 0 0 1 .105-.326l1.704-2.185c.083-.1.205-.155.36-.155.3 0 .415.16.415.398v2.02h.277c.188 0 .3.133.3.315s-.122.315-.3.315H21.2v.57c0 .232-.1.387-.387.387s-.387-.155-.387-.387z" class="B"/><use xlink:href="#G" y="325" class="G"/><path d="M19.12 463.83h-6.07l.007-2.1c.036-.446.275-.897.64-1.206.38-.32.818-.474 1.33-.47l.182.01c.917.074 1.68.818 1.736 1.693.006.086.003.16-.001.327l-.01.517a.53.53 0 0 0 .52.536.53.53 0 0 0 .536-.52l.01-.508v-.42c-.09-1.387-1.278-2.563-2.705-2.678L15.04 459h-.037c-.754 0-1.422.242-1.987.72-.575.486-.953 1.207-1.01 1.927-.004.045-.015.185-.01 2.186H10.88a.28.28 0 0 0-.279.279v5.905a.28.28 0 0 0 .279.279h8.243a.28.28 0 0 0 .279-.279V464.1a.28.28 0 0 0-.279-.279zm-3.438 4.78h-1.366l.21-1.694c-.2-.14-.332-.37-.332-.628 0-.43.36-.777.807-.777s.807.348.807.777c0 .258-.13.487-.332.628l.208 1.694z" class="B C"/><use xlink:href="#G" y="350" class="G"/><g class="B"><path d="M14.662 483.5c.15-.067.324-.067.475 0l5.03 2.236c.21.094.347.303.347.535v3.354c0 3.38-2.338 6.5-5.478 7.277-.09.022-.186.022-.278 0-3.14-.767-5.478-3.896-5.478-7.277v-3.354c0-.23.136-.44.347-.535l5.03-2.236zm.238 1.175l-4.446 1.976v2.974c0 2.8 1.91 5.41 4.446 6.104 2.536-.695 4.446-3.303 4.446-6.104v-2.974l-4.446-1.976z" class="C"/><path d="M15.693 492.107h-1.805l.276-2.237c-.266-.187-.438-.49-.438-.83 0-.567.477-1.026 1.066-1.026s1.066.46 1.066 1.026c0 .34-.173.643-.438.83l.275 2.237z"/></g><g transform="translate(5 105)"><path d="M12.6 11.2h5.98c.5 0 .668.05.847.147a1 1 0 0 1 .416.416c.096.18.147.357.147.847v5.98c0 .5-.05.668-.147.847a1 1 0 0 1-.416.416c-.18.096-.357.147-.847.147H12.6c-.5 0-.668-.05-.847-.147a1 1 0 0 1-.416-.416c-.096-.18-.147-.357-.147-.847V12.6c0-.5.05-.668.147-.847a1 1 0 0 1 .416-.416c.18-.096.357-.147.847-.147z" fill="#f5c5b3"/><path d="M1.4 0H7.4c.5 0 .668.05.847.147a1 1 0 0 1 .416.416c.096.18.147.357.147.847V18.6c0 .5-.05.668-.147.847a1 1 0 0 1-.416.416c-.18.096-.357.147-.847.147H1.4c-.5 0-.668-.05-.847-.147a1 1 0 0 1-.416-.416C.05 19.258 0 19.08 0 18.6V1.4C0 .92.05.742.147.563A1 1 0 0 1 .563.147C.742.05.92 0 1.4 0z" class="F"/><path d="M12.6 0h5.98c.5 0 .668.05.847.147a1 1 0 0 1 .416.416c.096.18.147.357.147.847V7.4c0 .5-.05.668-.147.847a1 1 0 0 1-.416.416c-.18.096-.357.147-.847.147H12.6c-.5 0-.668-.05-.847-.147a1 1 0 0 1-.416-.416c-.096-.18-.147-.357-.147-.847V1.4c0-.5.05-.668.147-.847a1 1 0 0 1 .416-.416C11.942.05 12.12 0 12.6 0z" fill="#f5c5b3"/><path d="M14.08 5.55l1.045-2.707c.07-.18.197-.24.394-.24h.192c.182 0 .345.043.434.3l.976 2.66a1.05 1.05 0 0 1 .08.304c0 .193-.173.347-.38.347-.178 0-.306-.063-.365-.217l-.207-.58h-1.302l-.212.58c-.054.154-.168.217-.36.217-.222 0-.375-.135-.375-.347a1.05 1.05 0 0 1 .08-.304zm1.992-.695l-.46-1.395h-.01l-.478 1.395h.947zM14.2 16.747v-2.493c0-.345.177-.453.447-.453h1.014c.558 0 1.223.127 1.223.878 0 .288-.153.562-.47.7v.01c.353.094.586.35.586.817 0 .713-.572 1.006-1.233 1.006h-1.12c-.27 0-.447-.1-.447-.453zm.763-1.058v.916h.642c.298 0 .633-.06.633-.453 0-.4-.353-.463-.726-.463h-.55zm0-1.322v.83h.628c.358 0 .53-.146.53-.416 0-.326-.27-.416-.553-.416h-.605z" fill="#b63c23"/><g class="B"><g class="C"><use xlink:href="#A"/><use xlink:href="#B"/></g><ellipse cx="4.4" cy="9.984" rx="1.029" ry="1.037"/></g></g><g class="C"><path d="M42.81 31.533c-1.122.555-1.963 1.49-2.578 2.552C39.246 32.38 37.675 31 35.297 31S30 33.07 30 36.57c0 3.542 2.882 5.22 4.31 6.17 1.526 1.013 4.13 2.853 5.924 6.26 1.796-3.407 4.4-5.248 5.925-6.26 1.072-.713 2.967-1.84 3.842-3.86l-7.19-7.348zm-.405 7.347v-6.5l6.328 6.5h-6.328z" fill="#4d90fe"/><path d="M42.81 6.533c-1.122.555-1.963 1.49-2.578 2.552C39.246 7.38 37.675 6 35.297 6S30 8.07 30 11.57c0 3.542 2.882 5.22 4.31 6.17 1.526 1.013 4.13 2.853 5.924 6.26 1.796-3.407 4.4-5.248 5.925-6.26 1.072-.713 2.967-1.84 3.842-3.86l-7.19-7.348zm-.405 7.347V7.4l6.328 6.5h-6.328z" fill="#e5322d"/><path d="M38.164 70.307h-7.03c-.627 0-1.135-.486-1.135-1.085V57.085c0-.6.508-1.085 1.135-1.085h17.73c.627 0 1.135.486 1.135 1.085v12.137c0 .6-.508 1.085-1.135 1.085H41.81l1.048 2.35h1.38c.213 0 .385.165.385.368v.606c0 .203-.173.368-.385.368h-8.502c-.213 0-.385-.165-.385-.368v-.606c0-.203.173-.368.385-.368h1.38l1.048-2.35zM32 57.704v9.813h16.054v-9.813H32zM43.43 80h-6.86C35.15 80 34 81.218 34 82.727v14.545c0 1.5 1.15 2.727 2.57 2.727h6.857c1.423 0 2.57-1.218 2.57-2.727V82.727C46 81.218 44.85 80 43.43 80zm-1.714 18.182h-3.43v-.9h3.43v.9zm2.786-2.727h-9V82.727h9v12.727zM42.8 206.533c-1.122.555-1.963 1.5-2.578 2.552-.988-1.703-2.558-3.085-4.937-3.085S30 208.07 30 211.57c0 3.542 2.882 5.22 4.3 6.17 1.526 1.013 4.13 2.853 5.924 6.26 1.796-3.407 4.4-5.248 5.925-6.26 1.072-.713 2.967-1.84 3.842-3.86l-7.2-7.348zm-.405 7.347v-6.5l6.328 6.5h-6.328z" class="D"/></g><path d="M37.4 269.6l-4.6-4.6 4.6-4.6L36 259l-6 6 6 6 1.4-1.4zm5.2 0l4.6-4.6-4.6-4.6L44 259l6 6-6 6-1.4-1.4z" class="D"/><use xlink:href="#L" fill="#161616"/><use xlink:href="#L" y="10" class="B"/><use xlink:href="#L" y="20" fill="#e5322d"/><g class="C"><circle cx="67" cy="205" r="12" class="K"/><path d="M60.85 208.915l5.206-5.2c-.515-1.315-.23-2.858.858-3.944 1.144-1.143 2.86-1.37 4.234-.743l-2.46 2.458 1.716 1.714 2.518-2.457c.686 1.37.4 3.086-.744 4.23-1.087 1.085-2.632 1.37-3.948.856l-5.206 5.202c-.105.1-.25.172-.4.172s-.296-.062-.4-.172l-1.315-1.314c-.287-.23-.287-.63-.058-.8v-.001z" class="B"/></g><g fill="#161616"><path d="M55 14c0 .552.455 1 1.007 1H78a1 1 0 0 0 1-1h0a1 1 0 0 0-1.001-1H56a1 1 0 0 0-1 1h0zm0-8c0 .552.455 1 1.007 1H78a1 1 0 0 0 1-1h0a1 1 0 0 0-1.001-1H56a1 1 0 0 0-1 1h0zm0 16c0 .552.455 1 1.007 1H78a1 1 0 0 0 1-1h0a1 1 0 0 0-1.001-1H56a1 1 0 0 0-1 1h0z"/><g class="C"><path d="M80.156 57.793H77.97c-1.207 0-2.187-.99-2.187-2.207v-3.3H69.22v3.3c0 1.218-.98 2.207-2.187 2.207h-2.187a1.1 1.1 0 0 0-1.094 1.103c0 .6.49 1.103 1.094 1.103h15.313c.605 0 1.094-.493 1.094-1.103a1.1 1.1 0 0 0-1.094-1.103zM88.086 28H56.914C55.858 28 55 28.927 55 30.07V51.3c0 1.142.858 2.07 1.914 2.07h31.172c1.057 0 1.914-.927 1.914-2.07V30.07c0-1.142-.858-2.07-1.914-2.07zm-.273 23.172H57.188V30.207h30.625v20.966z"/><path d="M57.188 47.862h30.625v4.414H57.188zM76.936 39.8a.91.91 0 0 1-.003 1.262l-3.637 3.67a.89.89 0 0 1-1.272 0l-3.637-3.67c-.35-.353-.35-.913 0-1.266s.905-.353 1.255 0l2.128 2.154v-7.555a.89.89 0 0 1 .889-.889.88.88 0 0 1 .881.889v7.557l2.137-2.156c.35-.353.905-.353 1.258.003z"/></g></g><path d="M64 267c-4.968 0-9 4.032-9 9s4.032 9 9 9 9-4.032 9-9-4.032-9-9-9zm0 2.7c1.494 0 2.7 1.206 2.7 2.7s-1.206 2.7-2.7 2.7-2.7-1.206-2.7-2.7 1.206-2.7 2.7-2.7zm0 12.6c-2.25 0-4.24-1.097-5.4-2.76.027-1.706 3.6-2.64 5.4-2.64 1.8 0 5.373.935 5.4 2.64-1.16 1.663-3.15 2.76-5.4 2.76z" opacity=".87" class="B"/><path d="M79.334 252.944a4.45 4.45 0 0 0-4.443 4.45c0 2.453 1.99 4.442 4.442 4.442s4.442-1.99 4.442-4.442a4.45 4.45 0 0 0-4.441-4.45m17.006-9.83a22.22 22.22 0 0 0-12.083-7.385 132.86 132.86 0 0 1-.489 4.47 17.78 17.78 0 0 1 9.172 5.78c.443.52 1.07.787 1.7.787a2.2 2.2 0 0 0 1.434-.52c.452-.38.735-.923.785-1.51s-.137-1.172-.52-1.62M74.4 235.73c-4.725 1.078-8.97 3.67-12.083 7.385-.79.94-.67 2.34.268 3.132s2.34.67 3.132-.268a17.8 17.8 0 0 1 9.169-5.78l-.486-4.47m1.057 8.923c-2.474.748-4.676 2.2-6.34 4.176-.378.45-.562 1.033-.51 1.62s.333 1.128.784 1.505c.413.356.92.522 1.426.522a2.23 2.23 0 0 0 1.708-.789 8.85 8.85 0 0 1 3.546-2.55l-.613-4.483m14.073 4.176c-1.664-1.98-3.868-3.43-6.344-4.178l-.6 4.483c1.377.54 2.596 1.418 3.547 2.552.442.52 1.072.8 1.707.8.507 0 1.013-.167 1.426-.523.45-.377.734-.92.785-1.505s-.133-1.17-.51-1.62m13.607-11.422C98.4 231.763 91.8 228 84.527 226.764l-.078 4.483a26.67 26.67 0 0 1 15.298 9.017c.418.507 1.043.798 1.7.794.863-.002 1.647-.503 2.01-1.285s.243-1.705-.31-2.367m-29.005-10.64a31.07 31.07 0 0 0-18.622 10.643c-.555.66-.677 1.584-.313 2.367s1.15 1.284 2.013 1.285c.637 0 1.267-.267 1.7-.787 3.918-4.67 9.32-7.856 15.302-9.026l-.08-4.482m7.732 8.832c-.156 3.082-1.05 12.278-1.05 12.278-.135 1.524-.6 1.943-1.493 1.943s-1.353-.42-1.49-1.943l-1.05-12.278c-.103-2.135-.135-8.556-.135-8.556 0-2.68.982-4.042 2.674-4.042s2.68 1.363 2.68 4.04l-.135 8.556" fill="#ab0004"/><path d="M41.568 312h6.29c.72 0 .982.075 1.245.216a1.47 1.47 0 0 1 .611.611c.14.263.216.525.216 1.245v8.786c0 .72-.075.982-.216 1.245a1.47 1.47 0 0 1-.611.611c-.263.14-.525.216-1.245.216h-8.786c-.72 0-.982-.075-1.245-.216a1.47 1.47 0 0 1-.611-.611c-.14-.263-.216-.525-.216-1.245v-4.048l4.568-1.57V312z" fill="#e1e1e1"/><use xlink:href="#M" class="C K"/><path d="M36.927 305l3.84 1.293v10.345l-3.84 1.24-6.918-2.476 6.96.906v-9.063l-4.488 1.036v6.085l-2.48 1.034H30v-7.725L36.927 305z" fill="#626870"/><path d="M15.867 505c.72 0 .983.075 1.246.216a1.47 1.47 0 0 1 .611.611c.14.264.216.525.216 1.246v4.194h-3.82c-.92 0-1.296.09-1.636.257l-.078.04a2.02 2.02 0 0 0-.841.841c-.194.362-.297.722-.297 1.713h0v3.82H7.074c-.72 0-.983-.075-1.246-.216a1.47 1.47 0 0 1-.611-.611c-.14-.264-.216-.525-.216-1.246v-8.794c0-.72.075-.983.216-1.246a1.47 1.47 0 0 1 .611-.611c.264-.14.525-.216 1.246-.216h8.794z" fill="#e7edf4"/><path d="M10.588 507.925a.34.34 0 0 0-.339-.339.34.34 0 0 0-.339.339v1.505l-1.977-1.977a.34.34 0 0 0-.48 0 .34.34 0 0 0 0 .48l1.977 1.977H7.925a.34.34 0 0 0-.339.339.34.34 0 0 0 .339.339h2.324c.044 0 .088-.01.13-.026a.34.34 0 0 0 .183-.183c.017-.04.026-.085.026-.13v-2.324z" fill="#1d4772" class="C"/><path d="M14.133 512.06h8.794c.72 0 .983.075 1.246.216a1.47 1.47 0 0 1 .611.611c.14.264.216.525.216 1.246v8.794c0 .72-.075.983-.216 1.246a1.47 1.47 0 0 1-.611.611c-.264.14-.525.216-1.246.216h-8.794c-.72 0-.983-.075-1.246-.216a1.47 1.47 0 0 1-.611-.611c-.14-.264-.216-.525-.216-1.246v-8.794c0-.72.075-.983.216-1.246a1.47 1.47 0 0 1 .611-.611c.264-.14.525-.216 1.246-.216z" class="G"/><path d="M14.858 520.624l1.72-4.53c.043-.115.115-.295.396-.295.166 0 .374.137.374.367 0 .08-.03.158-.058.238l-1.72 4.53c-.043.115-.115.295-.396.295-.166 0-.374-.137-.374-.367 0-.08.03-.158.058-.238zm2.883-.396l1.526-4.04c.1-.266.288-.36.576-.36h.28c.266 0 .504.065.634.432l1.426 3.967c.043.115.115.324.115.454 0 .288-.252.518-.554.518-.26 0-.446-.094-.533-.324l-.302-.864h-1.9l-.3.864c-.08.23-.245.324-.526.324-.324 0-.547-.202-.547-.518 0-.13.072-.338.115-.454zm2.91-1.037l-.67-2.08h-.014l-.698 2.08h1.382z" class="B"/><path d="M14.143 550c-.72 0-.982-.075-1.245-.216a1.47 1.47 0 0 1-.611-.611c-.14-.263-.216-.525-.216-1.245v-4.2l3.818-.001c.92 0 1.295-.09 1.634-.257l.078-.04a2.02 2.02 0 0 0 .84-.84c.194-.362.297-.72.297-1.712h0l.001-3.818h4.2c.72 0 .982.075 1.245.216a1.47 1.47 0 0 1 .611.611c.14.263.216.525.216 1.245v8.786c0 .72-.075.982-.216 1.245a1.47 1.47 0 0 1-.611.611c-.263.14-.525.216-1.245.216h-8.786z" class="H"/><use xlink:href="#M" x="-24.991" y="225.071" class="C J"/><path d="M7.072 530h8.786c.72 0 .982.075 1.245.216a1.47 1.47 0 0 1 .611.611c.14.263.216.525.216 1.245v8.786c0 .72-.075.982-.216 1.245a1.47 1.47 0 0 1-.611.611c-.263.14-.525.216-1.245.216H7.072c-.72 0-.982-.075-1.245-.216a1.47 1.47 0 0 1-.611-.611c-.14-.263-.216-.525-.216-1.245v-8.786c0-.72.075-.982.216-1.245a1.47 1.47 0 0 1 .611-.611c.263-.14.525-.216 1.245-.216z" class="I"/><path d="M6.29 537.538v-2.212c0-.186.122-.312.312-.312s.312.125.312.312v.775h1.132v-.775c0-.186.122-.312.312-.312s.312.125.312.312v2.212c0 .186-.122.312-.312.312s-.312-.125-.312-.312v-.912H6.912v.912c0 .186-.122.312-.312.312s-.312-.125-.312-.312zm3.625 0v-1.95h-.59c-.18 0-.323-.09-.323-.262s.144-.262.323-.262h1.8c.18 0 .323.09.323.262s-.144.262-.323.262h-.59v1.95c0 .186-.122.312-.312.312s-.312-.125-.312-.312zm1.858.008v-2.223c0-.25.17-.308.338-.308h.182c.194 0 .285.076.35.285l.543 1.756h.008l.536-1.756c.065-.21.156-.285.35-.285h.175c.167 0 .338.057.338.308v2.223c0 .156-.076.304-.277.304s-.277-.148-.277-.304v-1.695h-.008l-.58 1.816c-.042.13-.137.182-.266.182s-.224-.053-.266-.182l-.58-1.816h-.008v1.695c0 .156-.076.304-.277.304s-.277-.148-.277-.304zm3.386-.1v-2.11c0-.186.122-.312.312-.312s.312.125.312.312v1.95h1.04c.18 0 .323.09.323.262s-.144.262-.323.262h-1.3c-.22 0-.365-.087-.365-.365z" class="B C"/><path d="M22.39 580c.907 0 1.236.094 1.568.27s.592.436.77.766.272.658.272 1.56v11.016c0 .903-.094 1.23-.272 1.56s-.438.59-.77.766-.66.27-1.568.27h-1.53l-.975 3.79-5.784-3.79H7.61c-.907 0-1.236-.094-1.568-.27s-.592-.436-.77-.766-.272-.658-.272-1.56v-11.016c0-.903.094-1.23.272-1.56s.438-.59.77-.766.66-.27 1.568-.27h14.78zm-7.02 11.48H8.704v.74h6.667v-.74zm5.926-2.593H8.704v.74h12.593v-.74zm0-2.593H8.704v.74h12.593v-.74zm0-2.593H8.704v.74h12.593v-.74z" class="E"/><path d="M17.596 625H7.404c-.836 0-1.14-.087-1.444-.25s-.545-.403-.71-.71-.25-.61-.25-1.444v-10.193c0-.836.087-1.14.25-1.444s.403-.545.71-.71.61-.25 1.444-.25h10.193c.836 0 1.14.087 1.444.25s.545.403.71.71.25.61.25 1.444v10.193c0 .836-.087 1.14-.25 1.444s-.403.545-.71.71-.61.25-1.444.25z" class="G"/><path d="M8.064 620.424l1.912-5.56c.048-.14.128-.363.44-.363.184 0 .416.168.416.45 0 .097-.032.195-.064.292l-1.912 5.56c-.048.14-.128.363-.44.363-.184 0-.416-.168-.416-.45 0-.097.032-.195.064-.292zm3.204-.486l1.696-4.96c.112-.327.32-.442.64-.442h.312c.296 0 .56.08.704.53l1.584 4.872c.048.14.128.398.128.557 0 .354-.28.637-.616.637-.288 0-.496-.115-.592-.398l-.336-1.06h-2.112l-.344 1.06c-.088.283-.272.398-.584.398-.36 0-.608-.248-.608-.637 0-.16.08-.416.128-.557zm3.233-1.273l-.744-2.555h-.016l-.776 2.555H14.5z" class="B"/><path d="M19.917 605A4.92 4.92 0 0 0 15 609.917a4.92 4.92 0 0 0 4.917 4.917 4.92 4.92 0 0 0 4.917-4.917A4.92 4.92 0 0 0 19.917 605h0z" fill="#e7edf4"/><path fill="#1d4772" d="M19.175 611.958l-1.854-1.854.523-.523 1.33 1.327 2.814-2.814.523.526z"/><g class="C"><path d="M40 155c-5.52 0-10 4.48-10 10s4.47 10 10 10A10.01 10.01 0 0 0 50 165a10.01 10.01 0 0 0-10.01-10zm6.93 6h-2.95a15.65 15.65 0 0 0-1.38-3.56 8.03 8.03 0 0 1 4.33 3.56zM40 157.04c.83 1.2 1.48 2.53 1.9 3.96H38.1c.43-1.43 1.08-2.76 1.9-3.96zM32.26 167c-.16-.64-.26-1.3-.26-2s.1-1.36.26-2h3.38c-.08.66-.14 1.32-.14 2s.06 1.34.14 2h-3.38zm.82 2h2.95a15.65 15.65 0 0 0 1.38 3.56c-1.84-.63-3.37-1.9-4.33-3.56h0zm2.95-8h-2.95c.96-1.66 2.5-2.93 4.33-3.56a15.65 15.65 0 0 0-1.38 3.56h0zM40 172.96c-.83-1.2-1.48-2.53-1.9-3.96h3.82c-.43 1.43-1.08 2.76-1.9 3.96zm2.34-5.96h-4.68c-.1-.66-.16-1.32-.16-2s.07-1.35.16-2h4.68c.1.65.16 1.32.16 2s-.07 1.34-.16 2zm.25 5.56a15.65 15.65 0 0 0 1.38-3.56h2.95a8.03 8.03 0 0 1-4.33 3.56h0zm1.77-5.56c.08-.66.14-1.32.14-2s-.06-1.34-.14-2h3.38c.16.64.26 1.3.26 2s-.1 1.36-.26 2h-3.38z" class="D"/><path d="M40 280c-5.52 0-10 4.48-10 10s4.47 10 10 10A10.01 10.01 0 0 0 50 290a10.01 10.01 0 0 0-10.01-10zm6.93 6h-2.95a15.65 15.65 0 0 0-1.38-3.56 8.03 8.03 0 0 1 4.33 3.56zM40 282.04c.83 1.2 1.48 2.53 1.9 3.96H38.1c.43-1.43 1.08-2.76 1.9-3.96zM32.26 292c-.16-.64-.26-1.3-.26-2s.1-1.36.26-2h3.38c-.08.66-.14 1.32-.14 2s.06 1.34.14 2h-3.38zm.82 2h2.95a15.65 15.65 0 0 0 1.38 3.56c-1.84-.63-3.37-1.9-4.33-3.56h0zm2.95-8h-2.95c.96-1.66 2.5-2.93 4.33-3.56a15.65 15.65 0 0 0-1.38 3.56h0zM40 297.96c-.83-1.2-1.48-2.53-1.9-3.96h3.82c-.43 1.43-1.08 2.76-1.9 3.96zm2.34-5.96h-4.68c-.1-.66-.16-1.32-.16-2s.07-1.35.16-2h4.68c.1.65.16 1.32.16 2s-.07 1.34-.16 2zm.25 5.56a15.65 15.65 0 0 0 1.38-3.56h2.95a8.03 8.03 0 0 1-4.33 3.56h0zm1.77-5.56c.08-.66.14-1.32.14-2s-.06-1.34-.14-2h3.38c.16.64.26 1.3.26 2s-.1 1.36-.26 2h-3.38z" class="K"/></g><g class="D"><use xlink:href="#N"/><use xlink:href="#N" x="-12"/><use xlink:href="#N" y="12"/><use xlink:href="#N" x="-12" y="12"/><path d="M40 180c-5.52 0-10 4.48-10 10s4.48 10 10 10 10-4.48 10-10-4.48-10-10-10h0zm-3.398 7.328c0-1.372 1.568-2.6 3.276-2.6 1.792 0 3.556.826 3.556 2.8 0 1.82-2.086 2.52-2.534 3.178-.336.5-.224 1.176-1.148 1.176-.602 0-.896-.5-.896-.938 0-1.666 2.45-2.044 2.45-3.416 0-.756-.504-1.204-1.344-1.204-1.792 0-1.092 1.848-2.45 1.848-.5 0-.9-.294-.9-.854zm2.058 6.622c0-.63.518-1.148 1.148-1.148s1.148.518 1.148 1.148-.518 1.148-1.148 1.148-1.148-.518-1.148-1.148zM48 132H32c-1.1 0-2 .9-2 2v12c0 1.1.9 2 2 2h16c1.1 0 2-.9 2-2v-12c0-1.1-.9-2-2-2h0zm0 14H32v-6h16v6zm0-10H32v-2h16v2zm0 96H32c-1.1 0-2 .9-2 2v12c0 1.1.9 2 2 2h16c1.1 0 2-.9 2-2v-12c0-1.1-.9-2-2-2h0zm0 4l-8 5-8-5v-2l8 5 8-5v2zm13.784-53.505l-4.526 4.3c-.288.274-.755.274-1.042 0s-.288-.717 0-1L60.22 182l-4.005-3.804c-.288-.274-.288-.717 0-1s.755-.274 1.042 0l4.526 4.3a.68.68 0 0 1 0 .99h0z"/></g><g class="C"><path d="M50 358.352v5.51c0 1.304-1.06 2.363-2.38 2.363h-6.43a15.67 15.67 0 0 1-.316-.003c-.09-.002-.193-.003-.233.002-.04.027-.143.12-.24.208l-.13.117-1.82 1.637a.51.51 0 0 1-.54.086.5.5 0 0 1-.306-.448v-5.19l4.793 3.098v7.764a.48.48 0 0 1-.489.484c-.12 0-.24-.05-.334-.133l-2.174-1.97h-6.99c-1.322 0-2.41-1.04-2.41-2.345v-5.51c0-1.304 1.087-2.37 2.41-2.37h5.194v-3.304c0-1.304 1.096-2.352 2.417-2.352h7.6c1.32 0 2.38 1.048 2.38 2.352z" class="D"/><g class="B"><use xlink:href="#O"/><use xlink:href="#O" x="3"/><path d="M39.5 358.4c0-.505.397-.91.87-.91h7.297c.46 0 .834.395.834.91v5.66c0 .52-.377.922-.834.922H41.5c-.117 0-.203-.001-.272-.002-.694-.015-.934.092-1.48.622l-.075.066-.054.05-.1.105v-7.42z"/></g><path d="M45 360.146c0 .678-.446 1.1-.772 1.392-.123.115-.353.324-.353.402.002.306-.22.55-.498.55s-.504-.237-.506-.542c-.004-.6.392-.96.7-1.256.25-.232.414-.395.414-.545 0-.302-.223-.55-.496-.55s-.497.246-.497.55-.225.555-.502.555-.502-.248-.502-.555c0-.914.673-1.658 1.5-1.658s1.5.74 1.5 1.656zM43.494 363a.49.49 0 0 0-.494.5v.004a.49.49 0 0 0 .494.497c.28 0 .506-.225.506-.5s-.226-.5-.506-.5z" class="D"/></g><g class="D"><path d="M30.38 396.242l8.168-8.203c-.808-2.073-.36-4.507 1.346-6.22 1.795-1.803 4.488-2.163 6.642-1.172l-2.974 2.987a1.26 1.26 0 0 0-.004 1.775l.93.933c.487.49 1.275.5 1.778.006l3.053-2.996c1.077 2.163.628 4.867-1.167 6.67-1.705 1.713-4.13 2.163-6.193 1.352l-8.168 8.203c-.36.36-.898.36-1.257 0l-2.064-2.073c-.45-.36-.45-.992-.1-1.262z"/><path d="M49.7 410.1c-.168-.22-.404-.387-.71-.504.016.274-.004.496-.06.668l-3.603 11.566c-.064.203-.204.365-.42.486s-.44.182-.673.182H33.14c-.96 0-1.537-.273-1.73-.82-.08-.21-.076-.38.012-.504.088-.117.24-.176.456-.176h10.436c.745 0 1.26-.135 1.543-.404s.57-.87.86-1.8l3.29-10.617c.176-.578.104-1.086-.216-1.523s-.777-.656-1.37-.656h-9.14l-1.17.006c-.156.004-.3.05-.432.135s-.072.035-.318.275-5.236 13.896-5.236 13.928c-.176.47-.168.965.024 1.49.224.61.622 1.123 1.195 1.54s1.167.627 1.783.627h11.085c.52 0 1.01-.17 1.47-.5s.767-.76.92-1.26l3.303-10.617c.176-.563.104-1.067-.216-1.512zm-12.778.023l.252-.75c.032-.102.098-.19.198-.264a.51.51 0 0 1 .306-.111h7.302c.112 0 .192.037.24.11s.056.162.024.264l-.252.75c-.032.102-.098.19-.198.264a.51.51 0 0 1-.306.111h-7.302c-.112 0-.192-.037-.24-.11s-.056-.162-.024-.264zm-.997 3l.252-.75c.032-.102.098-.19.198-.264a.51.51 0 0 1 .306-.111h7.302c.112 0 .192.037.24.11s.056.162.024.264l-.252.75c-.032.102-.098.2-.198.264a.51.51 0 0 1-.306.111H36.18c-.112 0-.192-.037-.24-.11s-.056-.162-.024-.264z" class="C"/></g><g class="C"><path d="M49 435.22a.82.82 0 0 0-.35-.683l-.08-.054-8.204-4.39c-.23-.123-.503-.123-.733 0l-8.22 4.398c-.253.123-.414.385-.414.673v9.616a.82.82 0 0 0 .427.724l8.205 4.39c0 0 .007.004.02.01.222.13.495.123.715-.01l8.205-4.392a.82.82 0 0 0 .427-.724v-9.56z" class="D"/><path d="M40 432.208l6 3-6 3-6-3zm-7.103 4.992l6 3.142v6.858l-6-3.142zm14.206 6.848l-6 3.142v-6.858l6-3.142z" class="B"/><path d="M36.345 494.924v.497c0 .663.455 1.22 1.08 1.413.21 1.17 1.265 2.133 2.542 2.133s2.334-.962 2.542-2.133c.623-.194 1.08-.75 1.08-1.413v-.497h-7.24z" class="D"/><g stroke="#677897"><path d="M38.83 482.114c-.98.197-1.867.677-2.562 1.343-.686.657-1.186 1.496-1.39 2.425a4.81 4.81 0 0 0 1.181 4.361c.47.508.847 1.733 1.062 2.687h5.693c.22-.953.6-2.186 1.082-2.714.82-.9 1.3-2.052 1.3-3.25 0-1.575-.766-2.95-1.934-3.848-1.186-.913-2.785-1.338-4.442-1.003z" stroke-width="2"/><path d="M39.518 492.716v-2.16c0-.05-.01-.1-.03-.148L38.9 489l.99.238c.066.016.135.016.2 0l.99-.238-.587 1.41c-.02.047-.03.097-.03.148v2.16h-.946z" stroke-linejoin="round" class="D"/></g><path d="M30.517 487.297h1.07c.286 0 .517-.222.517-.497s-.23-.497-.517-.497h-1.07c-.286 0-.517.222-.517.497s.23.497.517.497zm18.936-.994h-1.07c-.286 0-.517.222-.517.497s.23.497.517.497h1.07c.286 0 .517-.222.517-.497s-.23-.497-.517-.497zm-18.24 4.722a.53.53 0 0 0 .707.182l.896-.497a.49.49 0 0 0 .19-.68.53.53 0 0 0-.707-.182l-.896.497a.49.49 0 0 0-.19.68h0zm17.546-8.45a.53.53 0 0 0-.707-.182l-.896.497a.49.49 0 0 0-.19.68.53.53 0 0 0 .707.182l.896-.497a.49.49 0 0 0 .19-.68z" class="D"/><path d="M31.402 483.254l.896.497a.53.53 0 0 0 .707-.182c.143-.238.058-.542-.2-.68l-.896-.497a.53.53 0 0 0-.707.182c-.143.238-.058.542.2.68zm15.564 6.776c-.143.238-.058.542.2.68l.896.497a.53.53 0 0 0 .707-.182c.143-.238.058-.542-.2-.68l-.896-.497a.53.53 0 0 0-.707.182z" class="D"/></g><g class="D"><path d="M40 510v-4H30v18h20v-14H40zm-6 12h-2v-2h2v2zm0-4h-2v-2h2v2zm0-4h-2v-2h2v2zm0-4h-2v-2h2v2zm4 12h-2v-2h2v2zm0-4h-2v-2h2v2zm0-4h-2v-2h2v2zm0-4h-2v-2h2v2zm10 12h-8v-2h2v-2h-2v-2h2v-2h-2v-2h8v10zm-2-8h-2v2h2v-2zm0 4h-2v2h2v-2zm-12.364 23.05v3.556L40 548l6.364-3.396v-3.556L40 544.444l-6.364-3.396zM40 532l-10 5.333 10 5.333 8.182-4.364v6.142H50v-7.1L40 532z" class="C"/><path d="M47.62 339.524H46.2v-3.8a1.91 1.91 0 0 0-1.905-1.905h-3.8v-1.43c0-1.314-1.067-2.38-2.38-2.38s-2.38 1.067-2.38 2.38v1.43h-3.8c-1.048 0-1.895.857-1.895 1.905v3.62h1.42c1.42 0 2.57 1.152 2.57 2.57s-1.152 2.57-2.57 2.57H30v3.62A1.91 1.91 0 0 0 31.905 350h3.62v-1.43c0-1.42 1.152-2.57 2.57-2.57s2.57 1.152 2.57 2.57V350h3.62a1.91 1.91 0 0 0 1.905-1.905v-3.8h1.43c1.314 0 2.38-1.067 2.38-2.38s-1.067-2.38-2.38-2.38h0z"/></g><g class="C"><use xlink:href="#G" y="425" class="E"/><use xlink:href="#G" y="425" class="G"/><path d="M.064 6.852l2.785 5.153c.023.043.077.06.12.036.03-.015.046-.045.046-.078V8.22c-.47-.1-.823-.532-.823-1.036a1.07 1.07 0 0 1 1.069-1.067A1.07 1.07 0 0 1 4.33 7.184c0 .505-.352.925-.823 1.036v3.73a.09.09 0 0 0 .09.09c.033 0 .062-.018.078-.046l2.784-5.14a.53.53 0 0 0 .017-.471L5 3.08a.53.53 0 0 0-.485-.313H2.013a.53.53 0 0 0-.485.314l-1.48 3.3a.53.53 0 0 0 .017.47zm5.04-4.485H1.428c-.196 0-.354-.198-.354-.443V.443c0-.245.16-.443.354-.443h3.677c.196 0 .354.198.354.443v1.48c0 .245-.16.443-.354.443z" transform="matrix(.866025 .5 -.5 .866025 15.292116 558.167245)" class="B"/><path d="M38.65 459.762c.294-.2.688-.226 1.005-.042h0l3.78 2.196a.94.94 0 0 1 .467.896h0l-.576 6.246a.9.9 0 0 1-.431.69h0l-8.635 5.23c-.048.03-.11.03-.158.001-.074-.043-.1-.137-.058-.21h0l3.2-5.577c.8.25 1.705-.07 2.138-.823.505-.88.19-2.017-.707-2.537s-2.032-.228-2.538.652c-.432.754-.26 1.692.36 2.274h0l-3.2 5.594c-.028.05-.08.078-.137.076-.085-.003-.153-.075-.152-.16h0l.194-10.157a.9.9 0 0 1 .377-.718h0zm2.49-4.692l5.58 3.24c.297.173.368.61.158.975l-1.27 2.214c-.2.366-.62.522-.918.35l-5.58-3.24c-.297-.173-.368-.61-.158-.975l1.27-2.214c.2-.366.62-.522.918-.35z" class="D"/></g><use xlink:href="#G" y="500" class="E"/><path d="M11.53 642.106l1.874 1.523c.075.06.087.172.026.247-.016.02-.035.035-.057.046L11.215 645a.5.5 0 0 1-.134.043l-.047.006a.5.5 0 0 1-.357-.107c-.14-.113-.204-.292-.166-.462l.013-.046.73-2.254c.03-.092.13-.143.22-.113.02.007.04.017.057.03zM16.915 635a1.5 1.5 0 0 1 1.983-.224l.063.047.367.305a1.43 1.43 0 0 1 .514.977c.03.353-.07.704-.284.987l-.05.064-5.155 6.082a.35.35 0 0 1-.493.043l-2.048-1.7a.35.35 0 0 1-.046-.495l5.15-6.085z" class="B"/></g></svg>