<?xml version="1.0" encoding="UTF-8"?>
<svg width="416px" height="541px" viewBox="0 0 416 541" version="1.1" xmlns="http://www.w3.org/2000/svg" xmlns:xlink="http://www.w3.org/1999/xlink">
    <!-- Generator: Sketch 49.3 (51167) - http://www.bohemiancoding.com/sketch -->
    <title>36526</title>
    <desc>Created with Sketch.</desc>
    <defs></defs>
    <g id="Page-Not-found-IMG" stroke="none" stroke-width="1" fill="none" fill-rule="evenodd">
        <g id="Page-Not-Found" transform="translate(-84.000000, -82.000000)" fill="#4D90FE" fill-rule="nonzero">
            <g id="36526" transform="translate(84.000000, 82.000000)">
                <path d="M208.008,540.016 C324.281,540.016 415.36,451.686 415.36,338.932 C415.36,328.901 414.601,318.037 413.243,306.661 C411.566,292.591 408.91,277.688 405.373,262.309 C401.432,245.198 396.432,227.547 390.489,209.91 C385.874,196.214 380.703,182.542 375.06,169.145 C370.671,158.722 365.984,148.496 361.057,138.544 C359.3,135.001 357.532,131.47 355.714,128.006 C350.922,118.887 345.126,108.587 338.406,97.896 C333.645,90.313 328.4,82.541 322.727,74.841 C319.747,70.796 316.643,66.776 313.424,62.81 C286.087,29.167 250.218,0 208.008,0 C167.004,0 131.991,27.521 104.96,59.921 C101.98,63.494 99.097,67.117 96.312,70.777 C89.28,80.024 82.879,89.456 77.163,98.587 C70.633,109.027 64.984,119.076 60.303,127.993 C58.271,131.854 56.288,135.79 54.336,139.756 C50.86,146.813 47.543,154.027 44.336,161.335 C43.914,162.302 43.479,163.257 43.063,164.23 C29.175,196.366 18,230.319 10.625,262.376 C7.1,277.701 4.456,292.561 2.779,306.586 C1.414,317.988 0.655,328.869 0.655,338.918 C0.656,451.686 91.734,540.016 208.008,540.016 Z M393.462,264.935 C396.583,278.479 399.02,291.655 400.653,304.157 C396.21,300.755 392.336,295.063 390.341,288.055 C387.667,278.631 389.117,269.665 393.462,264.935 Z M329.839,107.259 C335.61,116.641 340.659,125.655 344.882,133.697 C345.836,135.52 346.754,137.399 347.697,139.242 C342.684,137.02 337.672,132.601 334.055,126.53 C330.059,119.823 328.725,112.748 329.839,107.259 Z M327.293,150.644 C332.391,162.682 330.102,174.836 322.183,177.792 C314.264,180.748 303.712,173.385 298.615,161.348 C293.517,149.31 295.806,137.156 303.725,134.2 C311.644,131.244 322.194,138.605 327.293,150.644 Z M113.02,69.247 C134.421,91.603 167.316,107.362 208.253,106.836 C248.376,106.322 281.95,91.916 304.772,71.439 C308.266,75.791 311.62,80.215 314.821,84.665 C292.183,109.567 254.05,127.205 208.247,127.205 C160.578,127.205 123.803,108.098 103.424,81.586 C106.501,77.43 109.696,73.299 113.02,69.247 Z M253.571,201.531 C244.501,202.841 235.321,192.724 233.063,178.942 C230.804,165.16 236.325,152.92 245.388,151.61 C254.451,150.3 263.638,160.417 265.896,174.199 C268.155,187.981 262.641,200.222 253.571,201.531 Z M188.742,178.942 C186.484,192.724 177.304,202.84 168.234,201.531 C159.164,200.222 153.65,187.987 155.908,174.199 C158.166,160.417 167.346,150.301 176.416,151.61 C185.486,152.919 191,165.154 188.742,178.942 Z M94.512,150.644 C99.61,138.606 110.161,131.244 118.08,134.2 C125.999,137.156 128.288,149.31 123.19,161.348 C118.092,173.385 107.541,180.748 99.622,177.792 C91.703,174.836 89.415,162.682 94.512,150.644 Z M71.134,133.697 C74.843,126.635 79.176,118.832 84.084,110.685 C84.176,115.539 82.695,121.157 79.488,126.537 C76.703,131.212 73.074,134.885 69.274,137.375 C69.898,136.151 70.498,134.902 71.134,133.697 Z M51.201,176.365 L67.29,223.006 C68.392,226.201 71.978,228.3 75.307,227.689 L97.945,223.545 C101.268,222.939 105.35,224.806 107.064,227.719 L122.811,254.568 C124.518,257.481 128.282,258.484 131.22,256.807 L156.214,242.487 C159.145,240.803 163.564,241.275 166.079,243.534 L206.845,280.126 C209.36,282.384 213.455,282.401 215.994,280.169 L257.665,243.484 C260.205,241.251 264.636,240.803 267.567,242.481 L292.561,256.795 C295.493,258.478 299.256,257.474 300.97,254.561 L316.717,227.713 C318.424,224.8 322.506,222.927 325.835,223.539 L348.473,227.682 C351.796,228.288 355.389,226.195 356.491,223 L369.025,186.666 C374.734,201.17 379.814,215.883 384.245,230.484 L372.684,264.475 C371.595,267.675 368.038,269.67 364.741,268.924 L336.338,262.54 C333.039,261.8 328.897,263.508 327.085,266.359 L303.511,303.409 C301.699,306.261 297.948,307.052 295.132,305.179 L266.191,285.894 C263.376,284.021 259.055,284.328 256.54,286.585 L215.652,323.251 C213.137,325.509 209.067,325.491 206.57,323.214 L166.392,286.616 C163.895,284.339 159.593,284.028 156.79,285.913 L128.228,305.147 C125.425,307.032 121.686,306.249 119.88,303.391 L96.477,266.359 C94.671,263.501 90.534,261.788 87.236,262.528 L58.937,268.905 C55.639,269.645 52.089,267.657 51.006,264.456 L35.51,218.666 C40.148,204.499 45.406,190.301 51.201,176.365 Z M371.161,350.877 C362.727,351.459 354.71,341.397 353.248,328.404 C351.785,315.412 357.434,304.414 365.867,303.832 C374.301,303.252 382.317,313.312 383.78,326.305 C385.243,339.299 379.588,350.295 371.161,350.877 Z M317.078,387.463 C308.682,388.399 300.236,378.693 298.223,365.774 C296.21,352.855 301.387,341.624 309.784,340.688 C318.187,339.752 326.627,349.458 328.639,362.377 C330.652,375.297 325.481,386.525 317.078,387.463 Z M260.413,385.309 C260.126,399.274 252.47,410.303 243.314,409.936 C234.158,409.569 226.973,397.954 227.261,383.987 C227.548,370.022 235.204,358.993 244.36,359.36 C253.517,359.727 260.701,371.342 260.413,385.309 Z M195.021,383.992 C195.309,397.959 188.124,409.574 178.968,409.941 C169.813,410.308 162.156,399.281 161.869,385.314 C161.581,371.349 168.766,359.732 177.922,359.365 C187.078,358.998 194.733,370.027 195.021,383.992 Z M124.06,365.773 C122.047,378.693 113.601,388.398 105.205,387.462 C96.809,386.524 91.631,375.288 93.644,362.376 C95.657,349.456 104.103,339.751 112.499,340.687 C120.902,341.623 126.073,352.859 124.06,365.773 Z M69.041,328.404 C67.578,341.396 59.561,351.459 51.128,350.877 C42.694,350.295 37.045,339.299 38.508,326.305 C39.971,313.313 47.988,303.252 56.421,303.832 C64.849,304.414 70.503,315.412 69.041,328.404 Z M22.578,264.824 C27.015,269.524 28.52,278.551 25.821,288.054 C23.808,295.154 19.861,300.9 15.344,304.284 C16.984,291.709 19.438,278.447 22.578,264.824 Z M27.694,412.359 C22.516,400.162 18.636,387.267 16.146,373.857 C42.651,421.343 118.564,472.996 208.216,472.996 C297.458,472.996 372.96,421.82 399.754,374.519 C397.141,388.294 393.065,401.507 387.617,413.986 C353.799,455.382 286.148,494.41 208.216,494.41 C129.268,494.41 60.987,454.348 27.694,412.359 Z" id="Shape"></path>
            </g>
        </g>
    </g>
</svg>