<svg xmlns="http://www.w3.org/2000/svg" width="20" height="22" viewBox="0 0 20 22" fill="#383E45" fill-rule="evenodd"><path d="M2.947 15.297V.23c0-.066.026-.122.077-.165S3.14 0 3.22 0h1.634c.08 0 .146.022.196.065s.077.1.077.166v15.066h.33 2.18c.106 0 .193.03.26.087a.28.28 0 0 1 .102.222c0 .077-.038.154-.114.23l-3.62 3.076c-.075.058-.162.087-.26.087a.46.46 0 0 1-.261-.087L.1 15.828c-.112-.103-.14-.216-.078-.328.06-.14.174-.203.34-.203h2.575z" fill-rule="nonzero"></path><path d="M11.212 8.083L14.016.66c.185-.5.53-.66 1.058-.66h.516c.5 0 .926.12 1.164.794l2.62 7.3c.08.212.212.595.212.833 0 .53-.463.952-1.02.952-.476 0-.82-.172-.98-.595l-.556-1.587h-3.5l-.57 1.587c-.146.423-.45.595-.966.595C11.41 9.87 11 9.5 11 8.917c0-.238.132-.622.212-.833zm5.344-1.905l-1.23-3.823H15.3l-1.283 3.823h2.54zm-5.2 13.442l4.908-5.794h-3.783c-.622 0-1.124-.317-1.124-.913S11.86 12 12.482 12h5.715c.556 0 1.005.238 1.005.992a1.21 1.21 0 0 1-.304.78L13.9 19.7h4.233c.622 0 1.124.317 1.124.913s-.503.913-1.124.913h-5.887c-.794 0-1.257-.265-1.257-1.072 0-.344.16-.595.357-.833z"></path></svg>