<svg width="35px" height="35px" viewBox="0 0 35 35" version="1.1" xmlns="http://www.w3.org/2000/svg" xmlns:xlink="http://www.w3.org/1999/xlink">
    <!-- Generator: Sketch 48.2 (47327) - http://www.bohemiancoding.com/sketch -->

    <defs></defs>
    <g id="User-Interface-Design" stroke="none" stroke-width="1" fill="none" fill-rule="evenodd">
        <g id="Contextual-Backgrounds" transform="translate(-519.000000, -635.000000)">
            <g id="Group-5" transform="translate(519.000000, 635.000000)">
                <ellipse id="Oval" stroke="#C09853" stroke-width="2" cx="17.4086826" cy="17.352459" rx="16.4086826" ry="16.352459"></ellipse>
                <path d="M18.3931737,9.55701639 L18.3931737,15.7177377 C18.3931737,16.3711508 18.3607578,17.0119887 18.2959251,17.6402705 C18.2310925,18.2685523 18.1446502,18.9345211 18.0365958,19.6381967 L16.2320958,19.6381967 C16.1240414,18.9345211 16.0375991,18.2685523 15.9727665,17.6402705 C15.9079338,17.0119887 15.875518,16.3711508 15.875518,15.7177377 L15.875518,9.55701639 L18.3931737,9.55701639 Z M15.4649132,23.6663607 C15.4649132,23.4437694 15.5063334,23.2319518 15.5891751,23.0309016 C15.6720169,22.8298515 15.7872732,22.6575253 15.9349476,22.513918 C16.082622,22.3703108 16.2573074,22.2554267 16.459009,22.1692623 C16.6607106,22.0830979 16.8768162,22.0400164 17.1073323,22.0400164 C17.3306448,22.0400164 17.5431487,22.0830979 17.7448503,22.1692623 C17.9465519,22.2554267 18.1194364,22.3703108 18.263509,22.513918 C18.4075816,22.6575253 18.5228379,22.8298515 18.6092814,23.0309016 C18.695725,23.2319518 18.7389461,23.4437694 18.7389461,23.6663607 C18.7389461,23.8961323 18.695725,24.1097449 18.6092814,24.3072049 C18.5228379,24.5046649 18.4075816,24.675196 18.263509,24.8188033 C18.1194364,24.9624106 17.9465519,25.0754996 17.7448503,25.1580738 C17.5431487,25.240648 17.3306448,25.2819344 17.1073323,25.2819344 C16.8768162,25.2819344 16.6607106,25.240648 16.459009,25.1580738 C16.2573074,25.0754996 16.082622,24.9624106 15.9349476,24.8188033 C15.7872732,24.675196 15.6720169,24.5046649 15.5891751,24.3072049 C15.5063334,24.1097449 15.4649132,23.8961323 15.4649132,23.6663607 L15.4649132,23.6663607 Z" id="!" fill="#C09853"></path>
            </g>
        </g>
    </g>
</svg>