<svg xmlns="http://www.w3.org/2000/svg" width="16" height="16"><path d="M7.992 0C3.576 0 0 3.584 0 8s3.576 8 7.992 8C12.416 16 16 12.416 16 8s-3.584-8-8.008-8zm5.544 4.8h-2.36a12.52 12.52 0 0 0-1.104-2.848c1.472.504 2.696 1.528 3.464 2.848zM8 1.632A11.27 11.27 0 0 1 9.528 4.8H6.472A11.27 11.27 0 0 1 8 1.632zM1.808 9.6C1.68 9.088 1.6 8.552 1.6 8s.08-1.088.208-1.6h2.704C4.448 6.928 4.4 7.456 4.4 8s.048 1.072.112 1.6H1.808zm.656 1.6h2.36a12.52 12.52 0 0 0 1.104 2.848A6.39 6.39 0 0 1 2.464 11.2zm2.36-6.4h-2.36a6.39 6.39 0 0 1 3.464-2.848A12.52 12.52 0 0 0 4.824 4.8zM8 14.368A11.27 11.27 0 0 1 6.472 11.2h3.056A11.27 11.27 0 0 1 8 14.368zM9.872 9.6H6.128A11.77 11.77 0 0 1 6 8c0-.544.056-1.08.128-1.6h3.744C9.944 6.92 10 7.456 10 8a11.77 11.77 0 0 1-.128 1.6zm.2 4.448a12.52 12.52 0 0 0 1.104-2.848h2.36c-.768 1.32-1.992 2.344-3.464 2.848zM11.488 9.6c.064-.528.112-1.056.112-1.6s-.048-1.072-.112-1.6h2.704c.128.512.208 1.048.208 1.6s-.08 1.088-.208 1.6h-2.704z" fill="#7d7d7d" fill-rule="evenodd"/></svg>