<svg xmlns="http://www.w3.org/2000/svg" width="17" height="17" viewBox="0 0 17 17">
  <path fill="#7D7D7D" fill-rule="evenodd" d="M229.5,452 C224.808,452 221,455.808 221,460.5 C221,465.192 224.808,469 229.5,469 C234.192,469 238,465.192 238,460.5 C238,455.808 234.192,452 229.5,452 L229.5,452 Z M229.5,454.55 C230.911,454.55 232.05,455.689 232.05,457.1 C232.05,458.511 230.911,459.65 229.5,459.65 C228.089,459.65 226.95,458.511 226.95,457.1 C226.95,455.689 228.089,454.55 229.5,454.55 L229.5,454.55 Z M229.5,466.45 C227.375,466.45 225.4965,465.41381 224.4,463.843333 C224.4255,462.232381 227.8,461.35 229.5,461.35 C231.1915,461.35 234.5745,462.232381 234.6,463.843333 C233.5035,465.41381 231.625,466.45 229.5,466.45 L229.5,466.45 Z" transform="translate(-221 -452)"/>
</svg>
