<svg xmlns="http://www.w3.org/2000/svg" width="16" height="16" viewBox="0 0 16 16">
  <path fill="#7D7D7D" fill-rule="evenodd" d="M665.006472,590 C666.086558,590 667.120227,590.211994 668.10614,590.635983 C669.092499,591.059972 669.942732,591.628563 670.656838,592.343096 C671.370945,593.057183 671.939998,593.907392 672.364445,594.893724 C672.788,595.880056 673,596.917713 673,598.006248 C673,599.45272 672.643393,600.7894 671.92884,602.016736 C671.214734,603.244073 670.243996,604.214784 669.017072,604.928424 C667.789701,605.642957 666.452537,606 665.006472,606 C663.560406,606 662.221457,605.642957 660.989623,604.928424 C659.75779,604.214784 658.78482,603.244073 658.070713,602.016736 C657.356607,600.7894 657,599.45272 657,598.006248 C657,596.917713 657.211554,595.880056 657.636001,594.893724 C658.059555,593.907392 658.628609,593.057183 659.343162,592.343096 C660.056822,591.628563 660.907501,591.059972 661.89386,590.635983 C662.879773,590.211994 663.917459,590 665.006472,590 C665.006472,590 663.917459,590 665.006472,590 L665.006472,590 L665.006472,590 Z M665.327819,591.258131 C665.193925,591.36569 665.031019,591.458968 664.839103,591.539303 C664.647633,591.620084 664.493208,591.67364 664.377165,591.700418 C664.261123,591.72675 664.064744,591.762901 663.788474,591.807531 C663.511758,591.852162 663.337248,591.87894 663.266284,591.88742 C663.131942,591.914644 662.928868,591.912413 662.657062,591.881172 C662.384362,591.849484 662.181288,591.861088 662.047393,591.914644 C661.85994,591.977127 661.627856,592.094951 661.351586,592.269456 C661.07487,592.443515 660.923122,592.597043 660.895897,592.730934 C660.869564,592.829568 660.898128,592.92954 660.983375,593.032636 C661.067729,593.13484 661.105665,593.217852 661.096739,593.280335 C661.06996,593.583375 660.947223,593.987727 660.728528,594.491604 C660.509833,594.995927 660.37817,595.351185 660.333538,595.556039 C660.262127,595.8506 660.286675,596.263877 660.40718,596.794979 C660.527686,597.326081 660.561159,597.716597 660.507601,597.966527 C660.507601,598.046416 660.583475,598.243236 660.735223,598.555649 C660.88697,598.868061 660.958381,599.135844 660.949455,599.358996 C661.057017,599.358996 661.159223,599.383543 661.257859,599.432636 C661.356049,599.481729 661.458255,599.548229 661.565371,599.633473 C661.672487,599.718271 661.761751,599.778522 661.833608,599.81378 C662.047393,599.920893 662.529415,600.10834 663.279227,600.376569 C663.476052,600.447978 663.712154,600.588563 663.98887,600.79788 C664.265586,601.008089 664.531591,601.179916 664.785545,601.313808 C665.039945,601.447252 665.296577,601.496792 665.555887,601.461088 C665.626852,601.621757 665.559904,601.867225 665.354598,602.19749 C665.149739,602.527308 665.06003,602.782148 665.086809,602.960669 C665.462161,603.594421 665.850456,603.951464 666.251695,604.031353 C666.251695,604.085356 666.238305,604.154533 666.211526,604.238884 C666.185193,604.324128 666.169572,604.388842 666.164663,604.433473 C666.1602,604.477657 666.180284,604.553529 666.225362,604.661088 C667.135848,604.67894 668.121761,604.178633 669.18444,603.16106 C669.451784,602.90265 669.661553,602.692441 669.813747,602.532218 C669.965494,602.371548 670.119027,602.152413 670.275238,601.875704 C670.431449,601.599442 670.52339,601.322734 670.549722,601.046025 C670.424754,600.965244 670.259617,600.923291 670.054757,600.918828 C669.849006,600.914365 669.688332,600.880893 669.572736,600.817964 C669.447321,600.755927 669.228626,600.688982 668.916204,600.617573 C668.603783,600.546165 668.371698,600.460921 668.21995,600.36318 C668.14006,600.36318 667.963318,600.365411 667.691512,600.369428 C667.418812,600.374338 667.211275,600.381032 667.068454,600.389512 C666.925633,600.398884 666.751569,600.427894 666.546263,600.476987 C666.340958,600.526081 666.166894,600.599721 666.024073,600.697908 C665.577757,601.010321 665.283188,601.063877 665.140367,600.858577 C665.104661,600.840725 665.08904,600.726918 665.093503,600.516709 C665.097966,600.307392 665.100198,600.193584 665.100198,600.175732 C665.04664,600.059693 664.928366,599.983821 664.745376,599.948117 C664.562387,599.912413 664.453039,599.881172 664.417334,599.854393 C664.435186,599.65802 664.42626,599.474589 664.390555,599.305439 C664.35485,599.135844 664.281207,599.010432 664.169628,598.930544 C664.058049,598.850209 663.886217,598.939024 663.654133,599.19788 C663.448827,599.421032 663.261374,599.403626 663.091774,599.144324 C662.922174,598.89484 662.886468,598.635983 662.984658,598.368201 C663.038216,598.225384 663.136405,598.127197 663.279227,598.07364 C663.332785,598.08212 663.448827,598.089261 663.627354,598.093724 C663.80588,598.097741 663.955843,598.116039 664.075902,598.14728 C664.196853,598.178522 664.283439,598.238773 664.336997,598.327587 C664.444113,598.497629 664.586934,598.664993 664.765461,598.829679 C664.944434,598.995258 665.095735,599.117992 665.22115,599.19788 L665.408603,599.305439 C665.408603,599.278661 665.450557,599.101925 665.535803,598.776569 C665.620157,598.450767 665.644704,598.193696 665.609445,598.006248 C665.573294,597.800948 665.638009,597.602789 665.803147,597.410432 C665.968284,597.218968 666.068705,597.077936 666.10441,596.988675 C666.149042,596.864156 666.193673,596.707503 666.238305,596.520056 C666.283383,596.332608 666.32132,596.1947 666.352562,596.105439 C666.383358,596.015732 666.452537,595.91576 666.560099,595.804184 C666.666769,595.692608 666.818517,595.596653 667.014896,595.515872 C666.961338,595.355649 667.006416,595.190516 667.148791,595.020921 C667.220201,595.020921 667.325532,595.027615 667.463444,595.041004 C667.602248,595.053947 667.711596,595.061088 667.791487,595.061088 C667.871823,595.061088 667.963318,595.041004 668.066417,595.000837 C668.168624,594.960223 668.260119,594.891492 668.340456,594.792859 C668.251193,594.587559 668.115066,594.39788 667.932076,594.224268 C667.749086,594.049763 667.579486,593.915872 667.423275,593.822148 C667.267511,593.728424 667.04837,593.6106 666.76719,593.467336 C666.486457,593.324965 666.291863,593.222315 666.185193,593.159833 C666.283383,592.793863 666.2874,592.597043 666.198137,592.570711 C666.474853,592.686304 666.735948,592.751464 666.981422,592.764407 C667.226896,592.778243 667.403191,592.762176 667.510753,592.717992 L667.658038,592.664435 C667.711596,592.343096 667.635276,592.104324 667.42997,591.947671 C667.224665,591.791911 666.939022,591.664268 666.573042,591.566527 C666.207063,591.46834 665.957126,591.36569 665.823231,591.258131 C665.653631,591.285356 665.488493,591.285356 665.327819,591.258131 C665.327819,591.258131 665.488493,591.285356 665.327819,591.258131 L665.327819,591.258131 L665.327819,591.258131 Z M665.140367,592.690767 C665.140367,592.851883 665.176072,593.041116 665.247482,593.260251 C665.318893,593.47894 665.392535,593.674868 665.468409,593.849372 C665.544283,594.023431 665.586683,594.128312 665.595609,594.164017 C665.515719,594.146165 665.376914,594.123403 665.180981,594.097071 C664.984156,594.069847 664.823482,594.047978 664.69896,594.029679 C664.573545,594.012273 664.430723,593.976123 664.270496,593.923013 C664.109375,593.869456 663.975927,593.806974 663.868365,593.735119 C663.895144,593.628452 663.966554,593.494561 664.082596,593.333891 C664.198639,593.172775 664.270496,593.061199 664.296828,592.999163 C664.386092,593.088424 664.46866,593.132608 664.544534,593.132608 C664.620408,593.132608 664.683338,593.106276 664.731987,593.05272 C664.781082,592.999163 664.846244,592.934449 664.926135,592.858131 C665.006472,592.782706 665.077882,592.726471 665.140367,592.690767 L665.140367,592.690767 Z" transform="translate(-657 -590)"/>
</svg>
