<?xml version="1.0" encoding="UTF-8"?>
<svg width="100px" height="100px" viewBox="0 0 100 100" version="1.1" xmlns="http://www.w3.org/2000/svg" xmlns:xlink="http://www.w3.org/1999/xlink">
    <!-- Generator: Sketch 57.1 (83088) - https://sketch.com -->
    <title>Group 4</title>
    <desc>Created with Sketch.</desc>
    <g id="----↳-PDF---Education" stroke="none" stroke-width="1" fill="none" fill-rule="evenodd">
        <g id="Education-page" transform="translate(-1018.000000, -1105.000000)">
            <g id="Group-4" transform="translate(1018.000000, 1105.000000)">
                <g id="ui-copia" transform="translate(10.000000, 0.000000)">
                    <path d="M47.9167938,70.8335877 L56.2503815,70.8335877 C57.4009045,70.8335877 58.3335877,71.7662709 58.3335877,72.9167938 C58.3335877,74.0673168 57.4009045,75 56.2503815,75 L47.9167938,75 C46.7662709,75 45.8335877,74.0673168 45.8335877,72.9167938 C45.8335877,71.7662709 46.7662709,70.8335877 47.9167938,70.8335877 Z" id="Path" fill="#E5322D" fill-rule="nonzero"></path>
                    <polygon id="Rectangle" fill="#FCC3BA" points="32 4 73 4 73 15 30 15"></polygon>
                    <polygon id="Path" fill="#E5322D" fill-rule="nonzero" points="29.1671754 12.5 75.0007629 12.5 75.0007629 16.6664123 29.1671754 16.6664123"></polygon>
                    <polygon id="Path" fill="#E5322D" fill-rule="nonzero" points="37.5007629 62.5 75.0007629 62.5 75.0007629 66.6664123 37.5007629 66.6664123"></polygon>
                    <path d="M75.0007629,29.1664123 C73.8487244,29.1664123 72.9171754,28.2333375 72.9171754,27.0835877 L72.9171754,10.4164123 C72.9171754,6.97097773 70.1133729,4.1664123 66.6671754,4.1664123 L37.5007629,4.1664123 C34.0545654,4.1664123 31.2507629,6.97097773 31.2507629,10.4164123 L31.2507629,14.5835877 C31.2507629,15.7333375 30.316925,16.6664123 29.1671754,16.6664123 C28.0174256,16.6664123 27.0835877,15.7333375 27.0835877,14.5835877 L27.0835877,10.4164123 C27.0835877,4.6730041 31.7565918,0 37.5007629,0 L66.6671754,0 C72.4105836,0 77.0835877,4.6730041 77.0835877,10.4164123 L77.0835877,27.0835877 C77.0835877,28.2333375 76.1528016,29.1664123 75.0007629,29.1664123 Z" id="Path" fill="#E5322D" fill-rule="nonzero"></path>
                    <path d="M66.6671754,83.3335877 L41.6671754,83.3335877 C40.5174256,83.3335877 39.5835877,82.4020387 39.5835877,81.25 C39.5835877,80.0979613 40.5174256,79.1664123 41.6671754,79.1664123 L66.6671754,79.1664123 C70.1133729,79.1664123 72.9171754,76.3626098 72.9171754,72.9164123 L72.9171754,60.4164123 C72.9171754,59.2643738 73.8487244,58.3335877 75.0007629,58.3335877 C76.1528016,58.3335877 77.0835877,59.2643738 77.0835877,60.4164123 L77.0835877,72.9164123 C77.0835877,78.6605836 72.4105836,83.3335877 66.6671754,83.3335877 L66.6671754,83.3335877 Z" id="Path" fill="#E5322D" fill-rule="nonzero"></path>
                    <path d="M75.0007629,37.5 L70.8335877,37.5 C67.3881531,37.5 64.5835877,34.6961975 64.5835877,31.25 C64.5835877,27.8038025 67.3881531,25 70.8335877,25 L75.0007629,25 C78.4461975,25 81.2507629,27.8038025 81.2507629,31.25 C81.2507629,34.6961975 78.4461975,37.5 75.0007629,37.5 Z M70.8335877,29.1664123 C69.6838379,29.1664123 68.7507629,30.1017762 68.7507629,31.25 C68.7507629,32.3982238 69.6838379,33.3335877 70.8335877,33.3335877 L75.0007629,33.3335877 C76.1505127,33.3335877 77.0835877,32.3982238 77.0835877,31.25 C77.0835877,30.1017762 76.1505127,29.1664123 75.0007629,29.1664123 L70.8335877,29.1664123 Z" id="Shape" fill="#E5322D" fill-rule="nonzero"></path>
                    <path d="M75.0007629,45.8335877 L70.8335877,45.8335877 C67.3881531,45.8335877 64.5835877,43.0290223 64.5835877,39.5835877 C64.5835877,36.1373902 67.3881531,33.3335877 70.8335877,33.3335877 L75.0007629,33.3335877 C78.4461975,33.3335877 81.2507629,36.1373902 81.2507629,39.5835877 C81.2507629,43.0290223 78.4461975,45.8335877 75.0007629,45.8335877 Z M70.8335877,37.5 C69.6838379,37.5 68.7507629,38.4353637 68.7507629,39.5835877 C68.7507629,40.7310486 69.6838379,41.6664123 70.8335877,41.6664123 L75.0007629,41.6664123 C76.1505127,41.6664123 77.0835877,40.7310486 77.0835877,39.5835877 C77.0835877,38.4353637 76.1505127,37.5 75.0007629,37.5 L70.8335877,37.5 Z" id="Shape" fill="#E5322D" fill-rule="nonzero"></path>
                    <path d="M75.0007629,54.1664123 L70.8335877,54.1664123 C67.3881531,54.1664123 64.5835877,51.3626098 64.5835877,47.9164123 C64.5835877,44.4709777 67.3881531,41.6664123 70.8335877,41.6664123 L75.0007629,41.6664123 C78.4461975,41.6664123 81.2507629,44.4709777 81.2507629,47.9164123 C81.2507629,51.3626098 78.4461975,54.1664123 75.0007629,54.1664123 Z M70.8335877,45.8335877 C69.6838379,45.8335877 68.7507629,46.7689514 68.7507629,47.9164123 C68.7507629,49.0646363 69.6838379,50 70.8335877,50 L75.0007629,50 C76.1505127,50 77.0835877,49.0646363 77.0835877,47.9164123 C77.0835877,46.7689514 76.1505127,45.8335877 75.0007629,45.8335877 L70.8335877,45.8335877 Z" id="Shape" fill="#E5322D" fill-rule="nonzero"></path>
                    <path d="M33.3335877,81.25 C32.800293,81.25 32.2669982,81.0455322 31.8611145,80.6396484 C31.0462951,79.8248291 31.0462951,78.5079957 31.8611145,77.6939393 C35.4171754,74.1378785 35.4171754,70.5398559 35.4171754,64.5835877 C35.4171754,58.8066102 33.3877562,53.3836365 29.7065734,49.3148805 C29.2793273,48.8418578 29.0924072,48.2002258 29.196167,47.5730896 C29.2152404,47.4502562 31.2507629,35.1982117 31.2507629,31.25 C31.2507629,28.1562805 29.2175293,25.0602723 27.1461486,25 C25.9506227,31.072998 24.0776062,35.1211547 22.7127074,38.0752562 C21.6217041,40.435791 20.8335877,42.1417236 20.8335877,43.75 L20.8335877,56.25 C20.8335877,59.4184875 20.8335877,63.3621215 18.1404113,66.0560607 L16.0568238,68.1396484 C15.2420043,68.9544678 13.9251709,68.9544678 13.1111145,68.1396484 C12.2962951,67.3248291 12.2962951,66.0079957 13.1111145,65.1939393 L15.1939393,63.1103516 C16.6671754,61.6378785 16.6671754,58.7753297 16.6671754,56.25 L16.6671754,43.75 C16.6671754,41.2246703 17.7154541,38.9564514 18.9300537,36.3273621 C20.2774047,33.4121703 21.9543457,29.7851562 23.0171203,24.2706299 C23.4153748,22.2206115 25.2151488,20.7580566 27.2651672,20.8351135 C32.1418762,20.9770203 35.4171754,26.3336182 35.4171754,31.25 C35.4171754,34.8892211 33.959198,44.2268371 33.4632873,47.2877502 C37.4168396,52.0248414 39.5835877,58.1253051 39.5835877,64.5835877 C39.5835877,70.8854676 39.5835877,75.8621215 34.8068238,80.6396484 C34.400177,81.0455322 33.8668824,81.25 33.3335877,81.25 Z" id="Path" fill="#E5322D" fill-rule="nonzero"></path>
                    <path d="M81.2507629,22.9164123 C80.7174684,22.9164123 80.1841736,22.7127074 79.777527,22.3060607 C78.9627074,21.4920043 78.9627074,20.1751709 79.777527,19.3603516 L83.9439393,15.1939393 C84.7793578,14.3562316 85.4171754,13.6291504 85.4171754,12.5 C85.4171754,11.9438172 85.2005004,11.4212035 84.804535,11.0252381 C84.4154357,10.6330871 83.8920594,10.4164123 83.3335877,10.4164123 C82.2006227,10.4164123 81.4735412,11.0542297 80.6419373,11.8896484 L76.4732361,16.0560607 C75.6591797,16.8708801 74.3423461,16.8708801 73.527527,16.0560607 C72.7127074,15.2420043 72.7127074,13.9251709 73.527527,13.1103516 L77.6939393,8.94393926 C78.6338807,8.00170898 80.3840637,6.25 83.3335877,6.25 C85.0090027,6.25 86.5776062,6.90231328 87.7548219,8.08334355 C88.9335633,9.26284785 89.5835877,10.8329773 89.5835877,12.5 C89.5835877,15.4434203 87.8341676,17.1936035 86.8942262,18.1350707 L82.7232361,22.3060607 C82.3173523,22.7127074 81.7840576,22.9164123 81.2507629,22.9164123 Z" id="Path" fill="#E5322D" fill-rule="nonzero"></path>
                    <path d="M31.2507629,95.8335877 C30.7174684,95.8335877 30.1841736,95.6291199 29.777527,95.2232361 C28.9627074,94.4107055 28.9627074,93.0915832 29.777527,92.2767639 C31.352234,90.699768 32.8300477,89.5835877 37.5007629,89.5835877 C42.7543641,89.5835877 50.5592346,86.0336305 54.5173645,80.0933838 C55.152893,79.1374207 56.4445496,78.8795471 57.4066162,79.5166016 C58.3648682,80.1559449 58.6235047,81.4476014 57.9841613,82.4066162 C53.6735535,88.873291 44.8669434,93.75 37.5007629,93.75 C34.1964723,93.75 33.6730957,94.2726135 32.725525,95.2232361 C32.3173523,95.6291199 31.7840576,95.8335877 31.2507629,95.8335877 Z" id="Path" fill="#E5322D" fill-rule="nonzero"></path>
                    <path d="M31.2507629,100 C30.7174684,100 30.1841736,99.7955322 29.777527,99.3896484 C28.9627074,98.5748291 28.9627074,97.2579957 29.777527,96.4439393 L30.3878785,95.8335877 L8.3335877,73.7792969 L3.55682383,78.5560607 C2.7420043,79.3708801 1.4251709,79.3708801 0.611114453,78.5560607 C-0.203704883,77.7420043 -0.203704883,76.4251709 0.611114453,75.6103516 L6.86111445,69.3603516 C7.6751709,68.5455322 8.9920043,68.5455322 9.80682383,69.3603516 L34.8068238,94.3603516 C35.621643,95.1751709 35.621643,96.4920043 34.8068238,97.3060607 L32.7232361,99.3896484 C32.3173523,99.7955322 31.7840576,100 31.2507629,100 Z" id="Path" fill="#E5322D" fill-rule="nonzero"></path>
                </g>
                <path d="M15,9.23705556e-14 C6.72896739,9.23705556e-14 0,6.72896739 0,15 C0,19.2908152 1.81141304,23.1660326 4.70902174,25.9025543 C4.76331522,25.9605978 4.82103261,26.0155435 4.88413043,26.0655978 C7.55331522,28.5078261 11.1055435,29.999837 14.999837,29.999837 C18.8941304,29.999837 22.4463587,28.507663 25.1155435,26.0655978 C25.1786413,26.0155435 25.2363587,25.9604348 25.2906522,25.9025543 C28.188587,23.1660326 30,19.2908152 30,15 C30,6.72896739 23.2710326,9.23705556e-14 15,9.23705556e-14 Z" id="Shape" fill="#7A9FAB" fill-rule="nonzero"></path>
                <path d="M15,26.7391304 C12.337663,26.7391304 9.88059783,25.8469565 7.90907609,24.3476087 C9.34206522,21.8065761 12.0161413,20.2173913 15,20.2173913 C17.9838587,20.2173913 20.6579348,21.8065761 22.0909239,24.3476087 C20.1192391,25.8469565 17.662337,26.7391304 15,26.7391304 Z" id="Path" fill="#D7F6F6" fill-rule="nonzero"></path>
                <path d="M12.3913043,14.3478261 L12.3913043,13.2880435 C12.3913043,11.8496739 13.5616304,10.6793478 15,10.6793478 C16.4383696,10.6793478 17.6086957,11.8496739 17.6086957,13.2880435 L17.6086957,14.3478261 C17.6086957,15.7861957 16.4383696,16.9565217 15,16.9565217 C13.5616304,16.9565217 12.3913043,15.7861957 12.3913043,14.3478261 Z" id="Path" fill="#D7F6F6" fill-rule="nonzero"></path>
                <path d="M24.4467391,21.9591848 C23.2442935,20.1758152 21.5778261,18.7888043 19.6429891,17.9325 C20.4109239,16.9400543 20.8695652,15.6968478 20.8695652,14.3478261 L20.8695652,13.2880435 C20.8695652,10.0514674 18.2365761,7.41847826 15,7.41847826 C11.7634239,7.41847826 9.13043478,10.0514674 9.13043478,13.2880435 L9.13043478,14.3478261 C9.13043478,15.6968478 9.58907609,16.9400543 10.3570109,17.9325 C8.42217391,18.7888043 6.75570652,20.1758152 5.55326087,21.9591848 C4.11375,20.0103261 3.26086957,17.6033152 3.26086957,15 C3.26086957,8.52701087 8.52701087,3.26086957 15,3.26086957 C21.4729891,3.26086957 26.7391304,8.52701087 26.7391304,15 C26.7391304,17.6033152 25.88625,20.0103261 24.4467391,21.9591848 Z" id="Path" fill="#D7F6F6" fill-rule="nonzero"></path>
            </g>
        </g>
    </g>
</svg>