<?xml version="1.0" encoding="UTF-8"?>
<svg width="100px" height="100px" viewBox="0 0 100 100" version="1.1" xmlns="http://www.w3.org/2000/svg" xmlns:xlink="http://www.w3.org/1999/xlink">
    <!-- Generator: Sketch 57.1 (83088) - https://sketch.com -->
    <title>conversation</title>
    <desc>Created with Sketch.</desc>
    <g id="----↳-PDF---Education" stroke="none" stroke-width="1" fill="none" fill-rule="evenodd">
        <g id="Education-page" transform="translate(-248.000000, -1105.000000)" fill-rule="nonzero">
            <g id="conversation" transform="translate(248.000000, 1105.000000)">
                <path d="M35.4921875,71.6433594 C35.3509766,71.603125 35.2064453,71.5804688 35.0609375,71.5726562 C37.2003906,69.3240234 38.5179687,66.2863281 38.5179687,62.9449219 L38.5179687,52.6693359 C38.5179687,52.5753906 38.5089844,52.4837891 38.4962891,52.3935547 C38.5091797,52.2080078 38.5179687,52.0212891 38.5179687,51.8326172 L38.5179687,45.3314453 C38.5179687,44.2527344 37.6435547,43.3783203 36.5648437,43.3783203 L23.4646484,43.3783203 C17.9480469,43.3783203 13.4601562,47.8664062 13.4601562,53.3828125 L13.4601562,62.9449219 C13.4601562,66.2863281 14.7775391,69.3240234 16.9171875,71.5726562 C16.771875,71.5804688 16.6273438,71.603125 16.4863281,71.6433594 C7.25644531,72.4791016 0,80.2585938 0,89.7023438 L0,98.046875 C0,99.1255859 0.874414063,100 1.953125,100 L50.0248047,100 C51.1035156,100 51.9779297,99.1255859 51.9779297,98.046875 L51.9779297,89.7023438 C51.9779297,80.2587891 44.721875,72.4792969 35.4921875,71.6433594 Z M17.3664063,55.8595703 L17.3664063,53.3826172 C17.3664063,50.0201172 20.1021484,47.284375 23.4646484,47.284375 L34.6117187,47.284375 L34.6117187,51.8324219 C34.6117187,54.1220703 32.7490234,55.9847656 30.459375,55.9847656 L17.3664063,55.9847656 L17.3664063,55.8595703 Z M17.3664063,59.8910156 L30.459375,59.8910156 C31.9773437,59.8910156 33.3982422,59.46875 34.6117187,58.7359375 L34.6117187,62.9447266 C34.6117187,67.6992188 30.7435547,71.5673828 25.9890625,71.5673828 C21.2345703,71.5673828 17.3664063,67.6992188 17.3664063,62.9447266 L17.3664063,59.8910156 Z M30.2400391,75.4738281 L25.9890625,79.725 L21.7380859,75.4738281 L30.2400391,75.4738281 Z M48.071875,96.09375 L48.071875,96.09375 L3.90625,96.09375 L3.90625,92.1875 L12.0117188,92.1875 C13.0904297,92.1875 13.9648438,91.3130859 13.9648438,90.234375 C13.9648438,89.1556641 13.0904297,88.28125 12.0117188,88.28125 L3.97753906,88.28125 C4.63359375,81.6960938 9.79902344,76.4224609 16.3320313,75.5919922 L24.6080078,83.8679688 C24.9742188,84.2341797 25.4710938,84.4400391 25.9890625,84.4400391 C26.5070313,84.4400391 27.0039063,84.2341797 27.3701172,83.8679688 L35.6460938,75.5919922 C42.6429688,76.48125 48.071875,82.4677734 48.071875,89.7023438 L48.071875,96.09375 Z" id="Shape" fill="#E5322D"></path>
                <path d="M83.5146484,28.2652344 C83.3734375,28.225 83.2287109,28.2023438 83.0830078,28.1945313 C85.2224609,25.9458984 86.5398438,22.9082031 86.5398438,19.5667969 L86.5398438,9.29101563 C86.5398438,9.19707031 86.5308594,9.10546875 86.5181641,9.01523438 C86.5310547,8.8296875 86.5398438,8.64296875 86.5398438,8.45429688 L86.5398438,1.953125 C86.5398438,0.874414063 85.6654297,0 84.5867188,0 L71.4865234,0 C65.9699219,0 61.4820313,4.48808594 61.4820313,10.0044922 L61.4820313,19.5666016 C61.4820313,22.9080078 62.7994141,25.9457031 64.9388672,28.1943359 C64.7933594,28.2021484 64.6484375,28.2248047 64.5072266,28.2650391 C55.2777344,29.1011719 48.021875,36.8806641 48.021875,46.3240234 L48.021875,54.6683594 C48.021875,55.7470703 48.8962891,56.6216797 49.975,56.6216797 L65.6898438,56.6216797 C66.7685547,56.6216797 67.6429688,55.7470703 67.6429688,54.6683594 C67.6429688,53.5896484 66.7685547,52.7152344 65.6898438,52.7152344 L51.928125,52.7152344 L51.928125,46.3242188 C51.928125,39.0896484 57.3568359,33.103125 64.3537109,32.2138672 L72.6296875,40.4898437 C73.0111328,40.8712891 73.5109375,41.0619141 74.0107422,41.0619141 C74.5105469,41.0619141 75.0105469,40.8712891 75.3917969,40.4898437 L83.6677734,32.2138672 C90.6650391,33.1033203 96.09375,39.0896484 96.09375,46.3242188 L96.09375,52.7154297 L81.7056641,52.7154297 C80.6269531,52.7154297 79.7525391,53.5898438 79.7525391,54.6685547 C79.7525391,55.7472656 80.6269531,56.6216797 81.7056641,56.6216797 L98.046875,56.6216797 C99.1255859,56.6216797 100,55.7472656 100,54.6685547 L100,46.3242188 C100,36.8808594 92.7439453,29.1013672 83.5146484,28.2652344 Z M74.0111328,36.3466797 L69.7601562,32.0957031 L78.2621094,32.0957031 L74.0111328,36.3466797 Z M82.6337891,19.5666016 C82.6337891,24.3210937 78.765625,28.1892578 74.0111328,28.1892578 C69.2566406,28.1892578 65.3884766,24.3212891 65.3884766,19.5667969 L65.3884766,16.5128906 L78.4814453,16.5128906 C79.9994141,16.5128906 81.4203125,16.0904297 82.6337891,15.3578125 L82.6337891,19.5666016 L82.6337891,19.5666016 Z M82.6337891,8.45429688 C82.6337891,10.7439453 80.7710938,12.6066406 78.4814453,12.6066406 L65.3884766,12.6066406 L65.3884766,12.4814453 L65.3884766,10.0044922 C65.3884766,6.64199219 68.1242188,3.90625 71.4867188,3.90625 L82.6337891,3.90625 L82.6337891,8.45429688 Z" id="Shape" fill="#AB6993"></path>
                <path d="M75.3925781,53.2871094 C75.0292969,52.9238281 74.5253906,52.7148437 74.0117188,52.7148437 C73.4960938,52.7148437 72.9941406,52.9238281 72.6308594,53.2871094 C72.265625,53.6503906 72.0585938,54.1542969 72.0585938,54.6679687 C72.0585938,55.1835937 72.265625,55.6855469 72.6308594,56.0488281 C72.9941406,56.4140625 73.4960938,56.6210937 74.0117188,56.6210937 C74.5253906,56.6210937 75.0292969,56.4140625 75.3925781,56.0488281 C75.7558594,55.6855469 75.9648438,55.1835937 75.9648438,54.6679687 C75.9648438,54.1542969 75.7558594,53.6503906 75.3925781,53.2871094 Z" id="Path" fill="#AB6993"></path>
                <path d="M52.2275391,27.3298828 L44.059375,19.1617188 L44.059375,9.765625 C44.059375,4.38085938 39.6785156,0 34.29375,0 L9.765625,0 C4.38085938,0 0,4.38085938 0,9.765625 L0,26.953125 C0,32.3378906 4.38085938,36.71875 9.765625,36.71875 L34.2935547,36.71875 C38.3314453,36.71875 41.8525391,34.2955078 43.3298828,30.6640625 L50.8462891,30.6640625 C51.6361328,30.6640625 52.3484375,30.1880859 52.6507812,29.4583984 C52.953125,28.7287109 52.7859375,27.8884766 52.2275391,27.3298828 Z M41.9050781,26.7578125 C40.9951172,26.7578125 40.2056641,27.3861328 40.0015625,28.2730469 C39.3867187,30.9457031 37.0396484,32.8125 34.2935547,32.8125 L9.765625,32.8125 C6.53476562,32.8125 3.90625,30.1839844 3.90625,26.953125 L3.90625,9.765625 C3.90625,6.53476562 6.53476562,3.90625 9.765625,3.90625 L34.2935547,3.90625 C37.5244141,3.90625 40.1529297,6.53476562 40.1529297,9.765625 L40.1529297,19.9707031 C40.1529297,20.4886719 40.3587891,20.9855469 40.725,21.3517578 L46.1310547,26.7578125 L41.9050781,26.7578125 Z" id="Shape" fill="#AB6993"></path>
                <path d="M90.234375,63.28125 L65.7064453,63.28125 C61.6685547,63.28125 58.1474609,65.7044922 56.6701172,69.3359375 L49.1537109,69.3359375 C48.3638672,69.3359375 47.6515625,69.8119141 47.3492187,70.5416016 C47.046875,71.2712891 47.2140625,72.1115234 47.7724609,72.6701172 L55.940625,80.8382813 L55.940625,90.234375 C55.940625,95.6191406 60.3214844,100 65.70625,100 L90.234375,100 C95.6191406,100 100,95.6191406 100,90.234375 L100,73.046875 C100,67.6621094 95.6191406,63.28125 90.234375,63.28125 Z" id="Shape" fill="#E5322D"></path>
                <path d="M96.09375,90.234375 C96.09375,93.4652344 93.4652344,96.09375 90.234375,96.09375 L65.7064453,96.09375 C62.4755859,96.09375 59.8470703,93.4652344 59.8470703,90.234375 L59.8470703,80.0292969 C59.8470703,79.5113281 59.6412109,79.0144531 59.275,78.6482422 L53.8689453,73.2421875 L58.0949219,73.2421875 C59.0048828,73.2421875 59.7943359,72.6138672 59.9984375,71.7269531 C60.6132813,69.0542969 62.9603516,67.1875 65.7064453,67.1875 L90.234375,67.1875 C93.4652344,67.1875 96.09375,69.8160156 96.09375,73.046875 L96.09375,90.234375 Z" id="Path" fill="#FCC3BA"></path>
                <path d="M84.7492188,77.44375 C83.9867188,76.6810547 82.75,76.6810547 81.9873047,77.44375 L76.7953125,82.6357422 L74.3810547,80.2214844 C73.6183594,79.4587891 72.3816406,79.4587891 71.61875,80.2214844 C70.8560547,80.9841797 70.8560547,82.2208984 71.61875,82.9837891 L75.4140625,86.7791016 C75.7955078,87.1605469 76.2953125,87.3511719 76.7951172,87.3511719 C77.2949219,87.3511719 77.7949219,87.1605469 78.1761719,86.7791016 L84.7492188,80.2060547 C85.5119141,79.4433594 85.5119141,78.2066406 84.7492188,77.44375 Z" id="Path" fill="#E5322D"></path>
                <path d="M21.2050781,88.8535156 C20.8417969,88.4902344 20.3378906,88.28125 19.8242188,88.28125 C19.3105469,88.28125 18.8066406,88.4902344 18.4433594,88.8535156 C18.0800781,89.2167969 17.8710938,89.7207031 17.8710938,90.234375 C17.8710938,90.7480469 18.0800781,91.2519531 18.4433594,91.6152344 C18.8066406,91.9785156 19.3105469,92.1875 19.8242188,92.1875 C20.3378906,92.1875 20.8417969,91.9785156 21.2050781,91.6152344 C21.5683594,91.2519531 21.7773438,90.7480469 21.7773438,90.234375 C21.7773438,89.7207031 21.5683594,89.2167969 21.2050781,88.8535156 Z" id="Path" fill="#E5322D"></path>
            </g>
        </g>
    </g>
</svg>