<svg xmlns="http://www.w3.org/2000/svg" width="20" height="20" fill-rule="evenodd"><path d="M17.926 20H9.133c-.72 0-.983-.075-1.246-.216a1.47 1.47 0 0 1-.611-.612c-.14-.264-.216-.525-.216-1.246V9.132c0-.72.075-.982.216-1.246a1.47 1.47 0 0 1 .611-.611c.264-.14.525-.216 1.246-.216h8.794c.72 0 .983.075 1.246.216a1.47 1.47 0 0 1 .611.611c.14.264.216.525.216 1.246v8.794c0 .72-.075.982-.216 1.246a1.47 1.47 0 0 1-.611.612c-.264.14-.525.216-1.246.216z" fill="#FBEFA8"/><path d="M2.074 0h8.794c.72 0 .983.075 1.246.216a1.47 1.47 0 0 1 .611.612c.14.264.216.525.216 1.246v8.794c0 .72-.075.982-.216 1.246a1.47 1.47 0 0 1-.611.611c-.264.14-.525.216-1.246.216H2.074c-.72 0-.983-.075-1.246-.216a1.47 1.47 0 0 1-.611-.611C.075 11.85 0 11.588 0 10.868V2.074c0-.72.075-.982.216-1.246A1.47 1.47 0 0 1 .828.216C1.09.075 1.353 0 2.074 0z" fill="#D6BF2D"/><path d="M17.218 16.5l.01-2.003a.56.56 0 0 1 .556-.556c.306-.002.552.245.55.55l-.017 3.32a.56.56 0 0 1-.556.556l-3.32.017c-.306.002-.552-.245-.55-.55a.56.56 0 0 1 .556-.556l2.123-.01-3.092-3.092a.5.5 0 1 1 .708-.708l3.032 3.032z" fill="#B7A001" fill-rule="nonzero"/><path d="M10.104 4.167a.92.92 0 0 1 .916.917.92.92 0 0 1-.916.917.92.92 0 0 1-.917-.917.92.92 0 0 1 .917-.917zm-5 5.958H2.196c-.04 0-.078-.022-.098-.056s-.02-.078.001-.112l3.015-5.05c.04-.068.154-.068.194 0L7.064 7.85l1.178-1.203c.02-.022.05-.034.08-.034h.004c.032.001.062.015.083.04l2.8 3.27c.03.02.05.054.05.093 0 .06-.05.1-.113.1H5.103z" fill="#fff"/></svg>