<svg xmlns="http://www.w3.org/2000/svg" width="20" height="20" fill-rule="evenodd"><path d="M9.133 7.06h8.793c.72 0 .984.074 1.246.214s.47.35.612.612S20 8.4 20 9.132v8.794c0 .72-.075.984-.216 1.246a1.47 1.47 0 0 1-.612.612c-.262.14-.525.216-1.246.216H9.133c-.723 0-.983-.075-1.247-.216s-.47-.348-.61-.612-.215-.525-.215-1.246V9.132c0-.722.074-.982.215-1.246a1.47 1.47 0 0 1 .611-.612c.264-.14.524-.214 1.247-.214z" fill="#FF7651"/><path d="M2.074 0h8.793c.723 0 .983.075 1.247.216a1.47 1.47 0 0 1 .611.612c.14.262.215.525.215 1.246v8.794c0 .72-.074.982-.215 1.246a1.47 1.47 0 0 1-.611.611c-.264.14-.524.215-1.247.215H2.074c-.72 0-.984-.074-1.246-.215s-.47-.348-.612-.61S0 11.588 0 10.868V2.074C0 1.353.075 1.1.216.828A1.47 1.47 0 0 1 .828.216C1.1.075 1.353 0 2.074 0z" fill="#F3D9CC"/><path d="M17.218 16.5l.01-2.003a.56.56 0 0 1 .556-.556c.306-.002.552.245.55.55l-.017 3.32a.56.56 0 0 1-.556.556l-3.32.017c-.306.002-.552-.245-.55-.55a.56.56 0 0 1 .556-.556l2.123-.01-3.092-3.092a.5.5 0 1 1 .708-.708l3.032 3.032z" fill="#fff" fill-rule="nonzero"/><path d="M8.132 6.875c-.413.414-.962.62-1.652.62h-.613v2.297H4.583V3.125h2.012c1.437 0 2.155.708 2.155 2.125 0 .67-.206 1.21-.618 1.625zm-1.723-2.6h-.5v2.07h.5c.677 0 1.015-.348 1.015-1.046 0-.682-.338-1.023-1.015-1.023z" fill="#D04526"/></svg>