<svg xmlns="http://www.w3.org/2000/svg" width="20" height="20" fill-rule="evenodd"><g fill="#EE6C4D"><path d="M2.074 0h8.794c.72 0 .983.075 1.246.216a1.47 1.47 0 0 1 .611.612c.14.264.216.525.216 1.246v8.794c0 .72-.075.982-.216 1.246a1.47 1.47 0 0 1-.611.611c-.264.14-.525.216-1.246.216H2.074c-.72 0-.983-.075-1.246-.216a1.47 1.47 0 0 1-.611-.611C.075 11.85 0 11.588 0 10.868V2.074c0-.72.075-.982.216-1.246A1.47 1.47 0 0 1 .828.216C1.09.075 1.353 0 2.074 0z"/><path d="M17.926 20H9.133c-.72 0-.983-.075-1.246-.216a1.47 1.47 0 0 1-.611-.612c-.14-.264-.216-.525-.216-1.246V9.132c0-.72.075-.982.216-1.246a1.47 1.47 0 0 1 .611-.611c.264-.14.525-.216 1.246-.216h8.794c.72 0 .983.075 1.246.216a1.47 1.47 0 0 1 .611.611c.14.264.216.525.216 1.246v8.794c0 .72-.075.982-.216 1.246a1.47 1.47 0 0 1-.611.612c-.264.14-.525.216-1.246.216z"/></g><g fill="#fff"><circle cx="10" cy="10" r="1"/><path d="M15.55 14.843l.01-2.003a.56.56 0 0 1 .556-.556c.306-.002.552.245.55.55l-.017 3.32a.56.56 0 0 1-.556.556l-3.32.017c-.306.002-.552-.245-.55-.55a.56.56 0 0 1 .556-.556l2.123-.01L11.8 12.52a.5.5 0 1 1 .708-.708l3.032 3.032zM4.45 5.22l-.01 2.003a.56.56 0 0 1-.556.556c-.306.002-.552-.245-.55-.55l.017-3.32a.56.56 0 0 1 .556-.556l3.32-.017c.306-.002.552.245.55.55a.56.56 0 0 1-.556.556L5.1 4.45l3.1 3.093a.5.5 0 1 1-.708.708L4.45 5.22z" fill-rule="nonzero"/></g></svg>