<?xml version="1.0" encoding="UTF-8"?>
<svg width="12px" height="12px" viewBox="0 0 12 12" version="1.1" xmlns="http://www.w3.org/2000/svg" xmlns:xlink="http://www.w3.org/1999/xlink">
    <!-- Generator: Sketch 58 (84663) - https://sketch.com -->
    <title>Group 8</title>
    <desc>Created with Sketch.</desc>
    <g id="----↳-PDF---Signature" stroke="none" stroke-width="1" fill="none" fill-rule="evenodd">
        <g id="Elements-slide" transform="translate(-929.000000, -1491.000000)" fill="#161616" fill-rule="nonzero">
            <g id="Group-8" transform="translate(929.000000, 1491.000000)">
                <g id="Group-10" transform="translate(0.600000, 0.000000)">
                    <path d="M8.802,-5.68434189e-14 C9.72749985,-5.68434189e-14 10.4003759,0.473816905 10.8958681,1.32136939 C10.9502469,1.41438565 10.9152293,1.53398834 10.8192707,1.58298849 L10.3257707,1.83498849 C10.235316,1.88117815 10.1245294,1.84694866 10.0758946,1.75778477 C9.77549168,1.20704613 9.34134815,0.9105 8.802,0.9105 C7.73039556,0.9105 6.984,2.08340731 6.984,3.81 C6.984,5.5298916 7.73286834,6.7095 8.802,6.7095 C9.34978519,6.7095 9.79067423,6.36924868 10.0821466,5.76548455 C10.1276091,5.67131226 10.2413207,5.63252898 10.3348525,5.6792949 L10.8388525,5.9312949 C10.932916,5.97832662 10.9699093,6.09350993 10.9208221,6.18651724 C10.4329031,7.11099548 9.75609487,7.62 8.802,7.62 C7.1119691,7.62 6,6.03423537 6,3.81 C6,1.57901281 7.10948965,-5.68434189e-14 8.802,-5.68434189e-14 Z" id="AC"></path>
                    <path d="M2.99112378,0.1155 C3.05729636,0.1155 3.11721483,0.150189442 3.15075482,0.204614504 L3.1706494,0.248900076 L5.2811494,7.25240008 C5.31288343,7.35770654 5.24786968,7.46370163 5.14691383,7.48855499 L5.10162378,7.494 L4.47162378,7.494 C4.40491831,7.494 4.3446244,7.45875976 4.31125006,7.40367149 L4.29158716,7.35887429 L3.82689646,5.7615 L1.4728511,5.7615 L1.0081604,7.35887429 C0.989527589,7.42292456 0.938848209,7.47097485 0.876630272,7.48763296 L0.828123778,7.494 L0.187623778,7.494 C0.0776396914,7.494 -0.00508882331,7.40116821 0.000243916663,7.297335 L0.00809815808,7.25240008 L2.11859816,0.248900076 C2.13769113,0.185541817 2.18819368,0.138180724 2.24998143,0.121770617 L2.29812378,0.1155 L2.99112378,0.1155 Z M2.64462378,1.65446021 L1.70820131,4.8615 L3.58104625,4.8615 L2.64462378,1.65446021 Z" id="Combined-Shape"></path>
                </g>
                <path d="M0.642857143,12 L11.3571429,12 C11.7121831,12 12,11.6642136 12,11.25 C12,10.8357864 11.7121831,10.5 11.3571429,10.5 L0.642857143,10.5 C0.287816947,10.5 0,10.8357864 0,11.25 C0,11.6642136 0.287816947,12 0.642857143,12 Z" id="Line-6"></path>
            </g>
        </g>
    </g>
</svg>