<?xml version="1.0" encoding="UTF-8"?>
<svg width="12px" height="12px" viewBox="0 0 12 12" version="1.1" xmlns="http://www.w3.org/2000/svg" xmlns:xlink="http://www.w3.org/1999/xlink">
    <!-- Generator: Sketch 58 (84663) - https://sketch.com -->
    <title>NAME_ICON Copy 2</title>
    <desc>Created with Sketch.</desc>
    <g id="----↳-PDF---Signature" stroke="none" stroke-width="1" fill="none" fill-rule="evenodd">
        <g id="Elements" transform="translate(-1330.000000, -1413.000000)" fill="#151618" fill-rule="nonzero">
            <g id="NAME_ICON-Copy-2" transform="translate(1330.000000, 1413.000000)">
                <g id="Group-5" transform="translate(3.000000, 2.250000)">
                    <path d="M5.87755102,6.85714286 C5.87755102,5.22395795 4.56181641,3.9 2.93877551,3.9 C1.31573461,3.9 -9.54791801e-14,5.22395795 -9.54791801e-14,6.85714286 C-9.54791801e-14,7.07016697 0.171617558,7.24285714 0.383318545,7.24285714 L5.49423248,7.24285714 C5.70593346,7.24285714 5.87755102,7.07016697 5.87755102,6.85714286 Z M5.07719898,6.47142857 L0.800352039,6.47142857 C0.981397603,5.44825293 1.8699315,4.67142857 2.93877551,4.67142857 C4.00761952,4.67142857 4.89615342,5.44825293 5.07719898,6.47142857 Z" id="Oval"></path>
                    <path d="M2.93877551,3.42857143 C3.91260005,3.42857143 4.70204082,2.66105957 4.70204082,1.71428571 C4.70204082,0.767511857 3.91260005,7.90478794e-14 2.93877551,7.90478794e-14 C1.96495097,7.90478794e-14 1.1755102,0.767511857 1.1755102,1.71428571 C1.1755102,2.66105957 1.96495097,3.42857143 2.93877551,3.42857143 Z M2.93877551,2.76190476 C2.34366051,2.76190476 1.86122449,2.29286974 1.86122449,1.71428571 C1.86122449,1.13570169 2.34366051,0.666666667 2.93877551,0.666666667 C3.53389051,0.666666667 4.01632653,1.13570169 4.01632653,1.71428571 C4.01632653,2.29286974 3.53389051,2.76190476 2.93877551,2.76190476 Z" id="Oval"></path>
                </g>
                <path d="M3,0 L9,0 C10.6568542,0 12,1.34314575 12,3 L12,9 C12,10.6568542 10.6568542,12 9,12 L3,12 C1.34314575,12 0,10.6568542 0,9 L0,3 C0,1.34314575 1.34314575,0 3,0 Z M3,0.8 C1.78497355,0.8 0.8,1.78497355 0.8,3 L0.8,9 C0.8,10.2150264 1.78497355,11.2 3,11.2 L9,11.2 C10.2150264,11.2 11.2,10.2150264 11.2,9 L11.2,3 C11.2,1.78497355 10.2150264,0.8 9,0.8 L3,0.8 Z" id="Rectangle"></path>
            </g>
        </g>
    </g>
</svg>