<?xml version="1.0" encoding="UTF-8"?>
<svg width="12px" height="12px" viewBox="0 0 12 12" version="1.1" xmlns="http://www.w3.org/2000/svg" xmlns:xlink="http://www.w3.org/1999/xlink">
    <!-- Generator: Sketch 58 (84663) - https://sketch.com -->
    <title>Combined Shape Copy 4</title>
    <desc>Created with Sketch.</desc>
    <g id="----↳-PDF---Signature" stroke="none" stroke-width="1" fill="none" fill-rule="evenodd">
        <g id="Elements" transform="translate(-1120.000000, -1562.000000)" fill="#161616">
            <path d="M1130.10426,1568.53642 C1130.37508,1568.53642 1130.6459,1568.58021 1130.85454,1568.71784 L1130.95339,1568.7947 L1131.64455,1569.49007 C1131.88152,1569.72848 1132,1570.08609 1132,1570.40397 C1132,1570.67644 1131.89844,1570.9927 1131.73263,1571.21513 L1131.64455,1571.31788 L1129.27488,1573.70199 C1129.03791,1573.9404 1128.7417,1574 1128.42574,1574 C1128.15492,1574 1127.8841,1573.86863 1127.67546,1573.69347 L1127.57661,1573.60265 L1126.88545,1572.90728 C1126.64849,1572.68874 1126.53,1572.43046 1126.53,1572.11258 C1126.53,1571.84011 1126.63156,1571.61143 1126.79737,1571.41403 L1126.88545,1571.31788 L1129.25513,1568.93377 C1129.4921,1568.71523 1129.7883,1568.53642 1130.10426,1568.53642 Z M1130.10426,1569.33113 C1130.02527,1569.33113 1129.94628,1569.3947 1129.88751,1569.46082 L1129.84755,1569.50993 L1127.47787,1571.89404 C1127.33964,1572.01573 1127.32236,1572.15263 1127.42604,1572.29143 L1127.47787,1572.35099 L1128.16903,1573.04636 C1128.22827,1573.12583 1128.34675,1573.22517 1128.44549,1573.22517 C1128.52448,1573.22517 1128.60347,1573.23788 1128.67235,1573.20228 L1128.72195,1573.16556 L1131.09163,1570.78146 C1131.22986,1570.64238 1131.24713,1570.33599 1131.14346,1570.15509 L1131.09163,1570.08609 L1130.40047,1569.39073 C1130.32148,1569.31126 1130.203,1569.33113 1130.10426,1569.33113 Z M1120.94152,1562 L1121.01451,1562.00286 C1121.08892,1562.00906 1121.16617,1562.0267 1121.23347,1562.06866 L1121.29697,1562.11921 L1126.37202,1563.82781 C1126.70032,1563.9495 1127.05886,1564.20809 1127.28888,1564.4971 L1127.37914,1564.62252 L1128.91942,1567.02649 C1129.21108,1567.48497 1129.18303,1568.11274 1128.85083,1568.53476 L1128.76145,1568.63576 L1126.53,1570.88079 C1126.29304,1571.11921 1125.93758,1571.23841 1125.60188,1571.23841 C1125.41231,1571.23841 1125.21009,1571.18755 1125.03569,1571.096 L1124.91073,1571.01987 L1122.5213,1569.45033 C1122.22756,1569.25911 1121.94894,1568.91577 1121.8045,1568.58004 L1121.75116,1568.43709 L1120.05289,1563.33113 C1119.95416,1562.99338 1119.99365,1562.65563 1120.17138,1562.39735 C1120.3491,1562.13907 1120.62557,1562 1120.94152,1562 Z M1121.485,1562.957 L1124.55227,1566.04265 C1125.00156,1565.81377 1125.55449,1565.89007 1125.91784,1566.27152 C1126.37202,1566.74834 1126.37202,1567.50331 1125.91784,1567.96026 C1125.4439,1568.41722 1124.69351,1568.41722 1124.23932,1567.96026 C1123.88618,1567.58953 1123.80761,1567.05064 1124.00362,1566.61442 L1121.014,1563.606 L1122.5213,1568.13907 C1122.57208,1568.30937 1122.73893,1568.53805 1122.89748,1568.67498 L1122.97549,1568.7351 L1125.36491,1570.30464 C1125.42416,1570.36424 1125.52289,1570.38411 1125.62163,1570.38411 C1125.71641,1570.38411 1125.82384,1570.37139 1125.91357,1570.31544 L1125.97708,1570.2649 L1128.22827,1568.01987 C1128.3665,1567.89818 1128.3989,1567.6548 1128.32546,1567.47607 L1128.28751,1567.40397 L1126.72748,1564.98013 C1126.62874,1564.83113 1126.4203,1564.66832 1126.23928,1564.5722 L1126.13506,1564.52318 L1121.485,1562.957 Z M1125.34517,1566.82781 C1125.18719,1566.66887 1124.95022,1566.66887 1124.79224,1566.82781 C1124.65401,1566.98675 1124.65401,1567.22517 1124.79224,1567.38411 C1124.95022,1567.54305 1125.18719,1567.54305 1125.34517,1567.38411 C1125.50314,1567.22517 1125.50314,1566.98675 1125.34517,1566.82781 Z" id="Combined-Shape-Copy-4"></path>
        </g>
    </g>
</svg>