<?xml version="1.0" encoding="UTF-8"?>
<svg width="12px" height="13px" viewBox="0 0 12 13" version="1.1" xmlns="http://www.w3.org/2000/svg" xmlns:xlink="http://www.w3.org/1999/xlink">
    <!-- Generator: Sketch 58 (84663) - https://sketch.com -->
    <title>DATE</title>
    <desc>Created with Sketch.</desc>
    <g id="----↳-PDF---Signature" stroke="none" stroke-width="1" fill="none" fill-rule="evenodd">
        <g id="Elements" transform="translate(-1330.000000, -1440.000000)">
            <g id="DATE" transform="translate(1330.000000, 1441.000000)">
                <path d="M4,0 L4,3" id="Line-3" stroke="#151618" stroke-linecap="round" stroke-linejoin="round"></path>
                <path d="M8,0 L8,3" id="Line-3-Copy" stroke="#151618" stroke-linecap="round" stroke-linejoin="round"></path>
                <path d="M2,1 L10,1 C11.1045695,1 12,1.8954305 12,3 L12,10 C12,11.1045695 11.1045695,12 10,12 L2,12 C0.8954305,12 0,11.1045695 0,10 L0,3 C0,1.8954305 0.8954305,1 2,1 Z M2,1.8 C1.3372583,1.8 0.8,2.3372583 0.8,3 L0.8,10 C0.8,10.6627417 1.3372583,11.2 2,11.2 L10,11.2 C10.6627417,11.2 11.2,10.6627417 11.2,10 L11.2,3 C11.2,2.3372583 10.6627417,1.8 10,1.8 L2,1.8 Z" id="Rectangle" fill="#151618" fill-rule="nonzero"></path>
                <path d="M5.10168,7.17048 C5.31000104,7.2309603 5.47043944,7.33595925 5.583,7.48548 C5.69556056,7.63500075 5.75184,7.81727892 5.75184,8.03232 C5.75184,8.23728102 5.69892053,8.41535924 5.59308,8.56656 C5.48723947,8.71776076 5.33520099,8.83451959 5.13696,8.91684 C4.93871901,8.99916041 4.70856131,9.04032 4.44648,9.04032 C4.22807891,9.04032 4.018921,9.00840032 3.819,8.94456 C3.619079,8.88071968 3.44688072,8.79168057 3.3024,8.67744 C3.25199975,8.64047982 3.21588011,8.60016022 3.19404,8.55648 C3.17219989,8.51279978 3.16128,8.46240029 3.16128,8.40528 C3.16128,8.31791956 3.18647975,8.24316031 3.23688,8.181 C3.28728025,8.11883969 3.34775965,8.08776 3.41832,8.08776 C3.4586402,8.08776 3.49559983,8.09363994 3.5292,8.1054 L3.56560002,8.12023999 L3.56560002,8.12023999 L3.6552,8.1684 C3.80304074,8.25240042 3.93071946,8.31623978 4.03824,8.35992 C4.14576054,8.40360022 4.27175928,8.42544 4.41624,8.42544 C4.62120102,8.42544 4.77071953,8.38764038 4.8648,8.31204 C4.95888047,8.23643962 5.00592,8.11800081 5.00592,7.95672 C5.00592,7.79879921 4.95720049,7.68456035 4.85976,7.614 C4.76231951,7.54343965 4.60608108,7.50816 4.39104,7.50816 L4.09368,7.50816 C4.00631956,7.50816 3.93744025,7.4779203 3.88704,7.41744 C3.83663975,7.3569597 3.81144,7.28472042 3.81144,7.20072 C3.81144,7.1200796 3.83663975,7.0495203 3.88704,6.98904 C3.93744025,6.9285597 4.00631956,6.89832 4.09368,6.89832 L4.30536,6.89832 C4.51032102,6.89832 4.6623595,6.86304035 4.76148,6.79248 C4.8606005,6.72191965 4.91016,6.61272074 4.91016,6.46488 C4.91016,6.32375929 4.86816042,6.21372039 4.78416,6.13476 C4.70015958,6.05579961 4.58256076,6.01632 4.43136,6.01632 C4.30703938,6.01632 4.19112054,6.03815978 4.0836,6.08184 C4.01191964,6.11096015 3.93277341,6.14903991 3.84616019,6.19607986 L3.71064,6.27336 C3.66023975,6.30360015 3.61824017,6.32459994 3.58464,6.33636 C3.55103983,6.34812006 3.5140802,6.354 3.47376,6.354 C3.40319965,6.354 3.34272025,6.32292031 3.29232,6.26076 C3.24191975,6.19859969 3.21672,6.12384044 3.21672,6.03648 C3.21672,5.9759997 3.22763989,5.92476021 3.24948,5.88276 C3.27132011,5.84075979 3.30743975,5.80128018 3.35784,5.76432 C3.49896071,5.65007943 3.66779902,5.56104032 3.86436,5.4972 C4.06092098,5.43335968 4.26167898,5.40144 4.46664,5.40144 C4.70520119,5.40144 4.91519909,5.44091961 5.09664,5.51988 C5.27808091,5.59884039 5.41751951,5.71055928 5.51496,5.85504 C5.61240049,5.99952072 5.66112,6.16751904 5.66112,6.35904 C5.66112,6.55056096 5.6115605,6.71771929 5.51244,6.86052 C5.4133195,7.00332071 5.27640087,7.10663968 5.10168,7.17048 Z" id="Path" fill="#161616" fill-rule="nonzero"></path>
                <path d="M7.746,5.40144 C8.17608215,5.40144 8.50451886,5.55767844 8.73132,5.87016 C8.95812113,6.18264156 9.07152,6.63287706 9.07152,7.22088 C9.07152,7.81224296 8.95812113,8.26415844 8.73132,8.57664 C8.50451886,8.88912156 8.17608215,9.04536 7.746,9.04536 C7.31591785,9.04536 6.98748113,8.88912156 6.76068,8.57664 C6.53387886,8.26415844 6.42048,7.81224296 6.42048,7.22088 C6.42048,6.63287706 6.53387886,6.18264156 6.76068,5.87016 C6.98748113,5.55767844 7.31591785,5.40144 7.746,5.40144 Z M7.746,6.0012 C7.55111902,6.0012 7.40916044,6.09779903 7.32012,6.291 C7.23107955,6.48420097 7.18656,6.79415787 7.18656,7.22088 C7.18656,7.64760213 7.23107955,7.95839903 7.32012,8.15328 C7.40916044,8.34816097 7.55111902,8.4456 7.746,8.4456 C7.94088097,8.4456 8.08283955,8.34816097 8.17188,8.15328 C8.26092044,7.95839903 8.30544,7.64760213 8.30544,7.22088 C8.30544,6.79079785 8.26092044,6.48000096 8.17188,6.28848 C8.08283955,6.09695904 7.94088097,6.0012 7.746,6.0012 Z" id="Combined-Shape" fill="#161616" fill-rule="nonzero"></path>
            </g>
        </g>
    </g>
</svg>