<?xml version="1.0" encoding="UTF-8"?>
<svg width="99px" height="101px" viewBox="0 0 99 101" version="1.1" xmlns="http://www.w3.org/2000/svg" xmlns:xlink="http://www.w3.org/1999/xlink">
    <!-- Generator: Sketch 55.1 (78136) - https://sketchapp.com -->
    <title>Batch_processing</title>
    <desc>Created with Sketch.</desc>
    <g id="----↳-PDF---Bussiness" stroke="none" stroke-width="1" fill="none" fill-rule="evenodd">
        <g id="Bussiness-page" transform="translate(-248.000000, -1102.000000)">
            <g id="Group-55" transform="translate(133.000000, 920.000000)">
                <g id="Batch_processing" transform="translate(115.000000, 184.000000)">
                    <rect id="Rectangle" fill-opacity="0.5" fill="#FFAFA2" x="2" y="1" width="66" height="13"></rect>
                    <path d="M60.8121093,5.08716845 L34.875,5.08716845 C33.8390625,5.08716845 33,5.9255071 33,6.95924333 C33,7.99356471 33.8390625,8.83131822 34.875,8.83131822 L60.8121093,8.83131822 C61.8480468,8.83131822 62.6871093,7.99356471 62.6871093,6.95924333 C62.6871093,5.9255071 61.8480468,5.08716845 60.8121093,5.08716845 Z" id="Path" fill="#E5322D" fill-rule="nonzero"></path>
                    <path d="M16.2802734,5.08833857 C15.7875,5.08833857 15.3041016,5.28607641 14.9554687,5.63650546 C14.6056641,5.98459442 14.4052734,6.46606857 14.4052734,6.96041345 C14.4052734,7.4524181 14.6056641,7.93564735 14.9554687,8.28373631 C15.3041016,8.63182527 15.7875,8.83248834 16.2802734,8.83248834 C16.7736328,8.83248834 17.2570312,8.63182527 17.6056641,8.28373631 C17.9542968,7.93564735 18.1552734,7.4524181 18.1552734,6.96041345 C18.1552734,6.46606857 17.9554687,5.98459442 17.6056641,5.63650546 C17.2570312,5.28607641 16.7753907,5.08833857 16.2802734,5.08833857 Z" id="Path" fill="#E5322D" fill-rule="nonzero"></path>
                    <path d="M8.5634766,5.08833857 C8.06953125,5.08833857 7.58613285,5.28607641 7.2375,5.63650546 C6.8871093,5.98459442 6.6884766,6.46782368 6.6884766,6.96041345 C6.6884766,7.4524181 6.8871093,7.93564735 7.2375,8.28373631 C7.58613285,8.63182527 8.0683593,8.83248834 8.5634766,8.83248834 C9.05625,8.83248834 9.5384766,8.63182527 9.88828125,8.28373631 C10.2369141,7.93564735 10.4384766,7.4524181 10.4384766,6.96041345 C10.4384766,6.46782368 10.2375,5.98459442 9.88828125,5.63650546 C9.5384766,5.28607641 9.05625,5.08833857 8.5634766,5.08833857 Z" id="Path" fill="#E5322D" fill-rule="nonzero"></path>
                    <path d="M24,5.08833857 C23.5072266,5.08833857 23.0226563,5.2884165 22.6740234,5.63650546 C22.3253907,5.98459442 22.125,6.46606857 22.125,6.96041345 C22.125,7.4524181 22.3253907,7.93564735 22.6740234,8.28373631 C23.0226563,8.63182527 23.5072266,8.83248834 24,8.83248834 C24.4927734,8.83248834 24.9767578,8.63182527 25.3253907,8.28373631 C25.6740234,7.93564735 25.875,7.4524181 25.875,6.96041345 C25.875,6.46606857 25.6740234,5.98459442 25.3253907,5.63650546 C24.9767578,5.2884165 24.4927734,5.08833857 24,5.08833857 Z" id="Path" fill="#E5322D" fill-rule="nonzero"></path>
                    <path d="M1.875,56.3067473 C2.3677734,56.3067473 2.85175785,56.1060842 3.2003907,55.7579953 C3.5490234,55.4099063 3.75,54.9266771 3.75,54.4346724 C3.75,53.9420826 3.5490234,53.4588534 3.2003907,53.1107644 C2.85175785,52.7626755 2.3677734,52.5625975 1.875,52.5625975 C1.3822266,52.5625975 0.89765625,52.7626755 0.5490234,53.1107644 C0.2003907,53.4588534 0,53.9420826 0,54.4346724 C0,54.9266771 0.2003907,55.4099063 0.5490234,55.7579953 C0.89765625,56.1060842 1.3822266,56.3067473 1.875,56.3067473 L1.875,56.3067473 Z" id="Path" fill="#E5322D" fill-rule="nonzero"></path>
                    <path d="M11,-9 L55,-9 C57.209139,-9 59,-7.209139 59,-5 L59,53 C59,55.209139 57.209139,57 55,57 L31,57" id="Rectangle" stroke="#E5322D" stroke-width="4" stroke-linecap="round" stroke-linejoin="round" transform="translate(35.000000, 24.000000) rotate(-90.000000) translate(-35.000000, -24.000000) "></path>
                    <path d="M19.6717773,51.3282227 L19.6717773,73.6717773 C19.6717773,75.8809163 17.8809163,77.6717773 15.6717773,77.6717773 L10.6717773,77.6717773" id="Rectangle-Copy-6" stroke="#E5322D" stroke-width="4" stroke-linecap="round" stroke-linejoin="round" transform="translate(15.171777, 64.500000) rotate(-270.000000) translate(-15.171777, -64.500000) "></path>
                    <g id="batch" transform="translate(30.000000, 34.000000)" fill="#5F83C6" fill-rule="nonzero">
                        <polygon id="Path" points="11.55 21.35 9.625 21.35 9.625 15.575 15.4 15.575 15.4 17.5 11.55 17.5"></polygon>
                        <polygon id="Path" points="3.85 46.375 9.625 46.375 9.625 48.3 3.85 48.3"></polygon>
                        <path d="M15.4,0.175 L15.4,5.95 L9.625,5.95 L9.625,11.725 L5.775,11.725 L5.775,42.525 L0,42.525 L0,50.225 C0.00328980094,53.4132813 2.58671875,55.9967102 5.775,56 L38.5,56 C41.6882812,55.9967102 44.2717102,53.4132813 44.275,50.225 L44.275,11.725 L11.55,11.725 L11.55,7.875 L48.125,7.875 L48.125,42.525 L50.05,42.525 L50.05,5.95 L17.325,5.95 L17.325,2.1 L53.9,2.1 L53.9,36.75 L55.825,36.75 L55.825,0.175 L15.4,0.175 Z M5.775,54.075 C3.64885254,54.075 1.925,52.3511475 1.925,50.225 L1.925,44.45 L32.725,44.45 L32.725,50.225 C32.7240601,51.6461914 33.2490174,53.017566 34.1983582,54.075 L5.775,54.075 Z M42.35,13.65 L42.35,50.225 C42.35,52.3511475 40.6261475,54.075 38.5,54.075 C36.3738525,54.075 34.65,52.3511475 34.65,50.225 L34.65,42.525 L7.7,42.525 L7.7,13.65 L42.35,13.65 Z" id="Shape" stroke="#5F83C6" stroke-linejoin="round"></path>
                    </g>
                    <path d="M2,13.5 L68,13.5" id="Line-4" stroke="#E5322D" stroke-width="4" stroke-linecap="square"></path>
                    <g id="Group-45" transform="translate(65.693246, 67.274461)" fill-rule="nonzero">
                        <path d="M28.2251692,31.2087071 C28.0173676,31.3022311 27.7943246,31.355707 27.5630711,31.3654916 C27.0875936,31.386112 26.6253803,31.2179184 26.2788618,30.8952235 L18.4527644,23.6320387 L15.7424082,29.4239394 C15.5976849,29.8207787 15.1812455,30.2618875 14.6523324,30.4999321 C13.5524653,30.9949424 12.2620366,30.5040196 11.7786934,29.4067024 L0.183912509,3.08347355 C-0.299430599,1.98615646 0.203080199,0.688296534 1.30294732,0.19328626 C1.7665971,-0.0153856801 2.28283519,-0.0567442074 2.79234828,0.0772380498 L30.6866599,10.6782077 C31.3307221,10.9923953 31.6864889,11.365494 31.8902425,11.8280689 C32.3735857,12.9253861 31.8710749,14.223246 30.7712079,14.7182563 L25.0136218,17.3095368 L32.4569144,24.2199287 C33.1783628,24.8884303 33.2148822,26.0245842 32.5408504,26.7544189 L28.8136046,30.7844832 C28.6452165,30.9674862 28.4457833,31.1094167 28.2251692,31.2087071 Z" id="Path" fill="#5F83C6"></path>
                        <path d="M17.1605195,19.0035226 C16.7689395,19.1797586 16.4466296,19.4947395 16.2595065,19.8900795 L13.8180304,25.1139076 L4.82084499,4.68790964 L26.2508129,12.8316187 L21.0862021,15.1560226 C20.5348672,15.4041584 20.140878,15.9136619 20.0410278,16.5071342 C19.940953,17.101186 20.1450417,17.7072053 20.5837047,18.1138356 L28.7009721,25.6513922 L27.4192493,27.0362108 L19.1044246,19.3180876 C18.68665,18.9283818 18.1045178,18.7667728 17.5439729,18.8807238 C17.4113636,18.9064223 17.2830383,18.9483814 17.1605195,19.0035226 Z" id="Path" fill="#DCE5FA"></path>
                    </g>
                </g>
            </g>
        </g>
    </g>
</svg>