<?xml version="1.0" encoding="UTF-8"?>
<svg width="262px" height="59px" viewBox="0 0 262 59" version="1.1" xmlns="http://www.w3.org/2000/svg" xmlns:xlink="http://www.w3.org/1999/xlink">
    <!-- Generator: Sketch 64 (93537) - https://sketch.com -->
    <title>horizontal_full_color</title>
    <desc>Created with Sketch.</desc>
    <defs>
        <path d="M7.608,1.49005128 C4.682,4.61081319 2.554,8.20512821 1.286,12.1735971 L1.286,12.1735971 C0.432,14.8423736 0,17.6077363 0,20.3927912 L0,20.3927912 C0,23.2650549 0.455,26.1073114 1.354,28.8389158 L1.354,28.8389158 C1.958,30.6778022 3.764,31.8602784 5.715,31.8602784 L5.715,31.8602784 C6.161,31.8602784 6.614,31.7983883 7.061,31.6699194 L7.061,31.6699194 C9.472,30.9722491 10.823,28.5754139 10.08,26.3154872 L10.08,26.3154872 C9.452,24.4025201 9.132,22.4098462 9.132,20.3927912 L9.132,20.3927912 C9.132,18.442315 9.436,16.5040293 10.034,14.6323223 L10.034,14.6323223 C10.922,11.8528938 12.414,9.33415385 14.465,7.14549451 L14.465,7.14549451 C16.131,5.37131136 15.946,2.66502564 14.052,1.10276923 L14.052,1.10276923 C13.184,0.387282051 12.109,0.0365714286 11.038,0.0365714286 L11.038,0.0365714286 C9.771,0.0365714286 8.51,0.527941392 7.608,1.49005128" id="path-1"></path>
        <linearGradient x1="55.6150427%" y1="22.5667313%" x2="47.4199307%" y2="60.6304623%" id="linearGradient-3">
            <stop stop-color="#E90031" offset="0%"></stop>
            <stop stop-color="#FF00CF" offset="100%"></stop>
        </linearGradient>
        <path d="M1.99925697,1.10370696 C0.123839009,2.66502564 -0.0584520124,5.37224908 1.5920743,7.14736996 L1.5920743,7.14736996 C3.62501548,9.33415385 5.10216718,11.8528938 5.98092879,14.6323223 L5.98092879,14.6323223 C6.57436533,16.5040293 6.87455108,18.442315 6.87455108,20.3927912 L6.87455108,20.3927912 C6.87455108,22.4089084 6.55851393,24.4025201 5.93535604,26.3164249 L5.93535604,26.3164249 C5.20024768,28.5763516 6.54068111,30.9731868 8.9273065,31.6699194 L8.9273065,31.6699194 C9.3701548,31.799326 9.81894737,31.8602784 10.2598142,31.8602784 L10.2598142,31.8602784 C12.1926935,31.8602784 13.9839009,30.6768645 14.582291,28.8370403 L14.582291,28.8370403 C15.4719505,26.1063736 15.9217337,23.2641172 15.9217337,20.3927912 L15.9217337,20.3927912 C15.9217337,17.608674 15.4937461,14.8423736 14.647678,12.1745348 L14.647678,12.1745348 C13.3914551,8.20512821 11.2842105,4.61081319 8.38439628,1.49005128 L8.38439628,1.49005128 C7.48978328,0.527003663 6.24148607,0.0356336996 4.98625387,0.0356336996 L4.98625387,0.0356336996 C3.92520124,0.0356336996 2.85919505,0.387282051 1.99925697,1.10370696" id="path-4"></path>
        <linearGradient x1="53.1268488%" y1="69.3584925%" x2="49.3185394%" y2="27.9028028%" id="linearGradient-6">
            <stop stop-color="#005BFF" offset="0%"></stop>
            <stop stop-color="#00BCFF" offset="100%"></stop>
        </linearGradient>
        <path d="M6.35,3.89805871 C5.602,6.71297348 4.126,9.37045455 2.071,11.6222064 L2.071,11.6222064 C1.922,11.7346591 1.779,11.8588068 1.645,11.9919508 L1.645,11.9919508 C0.043,13.5321023 -0.003,15.9142992 1.543,17.5039299 L1.543,17.5039299 C1.592,17.5543087 1.642,17.6037879 1.693,17.6505682 L1.693,17.6505682 C2.555,18.4701231 3.754,18.9343277 5.008,18.9343277 L5.008,18.9343277 L5.035,18.9343277 C6.342,18.9343277 7.593,18.4287405 8.463,17.5399148 L8.463,17.5399148 C11.741,14.1870265 14.083,10.1315341 15.232,5.81065341 L15.232,5.81065341 C15.819,3.60388258 14.307,1.38631629 11.855,0.858238636 L11.855,0.858238636 C11.498,0.781770833 11.141,0.744886364 10.789,0.744886364 L10.789,0.744886364 C8.726,0.744886364 6.853,2.01245265 6.35,3.89805871" id="path-7"></path>
        <linearGradient x1="50.0020333%" y1="6.54429843%" x2="50.0020333%" y2="67.6181176%" id="linearGradient-9">
            <stop stop-color="#8CC63F" offset="0%"></stop>
            <stop stop-color="#0ABDF0" offset="100%"></stop>
        </linearGradient>
        <path d="M1.354,3.12451282 C0.455,5.85517949 0,8.69649817 0,11.5696996 L0,11.5696996 C0,13.8183736 0.283,16.0651722 0.839,18.2472674 L0.839,18.2472674 C1.988,22.7483663 4.328,26.9765861 7.608,30.4715018 L7.608,30.4715018 C8.51,31.4345495 9.77,31.9268571 11.038,31.9268571 L11.038,31.9268571 C12.109,31.9268571 13.185,31.5752088 14.052,30.8587839 L14.052,30.8587839 C15.946,29.2974652 16.131,26.5921172 14.465,24.8160586 L14.465,24.8160586 C12.166,22.3648352 10.525,19.4034872 9.721,16.2536557 L9.721,16.2536557 C9.33,14.7242198 9.132,13.1488352 9.132,11.5696996 L9.132,11.5696996 C9.132,9.55264469 9.452,7.5599707 10.08,5.64794139 L10.08,5.64794139 C10.823,3.38801465 9.472,0.991179487 7.062,0.294446886 L7.062,0.294446886 C6.614,0.165040293 6.162,0.104087912 5.717,0.104087912 L5.717,0.104087912 C3.765,0.104087912 1.958,1.28468864 1.354,3.12451282" id="path-10"></path>
        <linearGradient x1="50.0465748%" y1="85.5046927%" x2="49.9296836%" y2="24.908773%" id="linearGradient-12">
            <stop stop-color="#E90031" offset="0%"></stop>
            <stop stop-color="#FF5B00" offset="100%"></stop>
        </linearGradient>
        <path d="M3.25686429,1.35975232 C0.928737857,2.0498452 -0.377873571,4.42383901 0.342115714,6.66315789 L0.342115714,6.66315789 C1.06017214,8.90154799 3.53036357,10.1544892 5.85945643,9.46439628 L5.85945643,9.46439628 C9.44394,8.40185759 13.3502443,8.29690402 17.041035,9.19411765 L17.041035,9.19411765 C20.1819279,9.95665635 23.1363,11.4520124 25.5842636,13.5130031 L25.5842636,13.5130031 C26.4202243,14.2188854 27.4581686,14.5643963 28.4903143,14.5643963 L28.4903143,14.5643963 C29.7176786,14.5643963 30.9392443,14.0758514 31.8109629,13.119195 L31.8109629,13.119195 C33.4181336,11.3572755 33.2354786,8.67770898 31.4021636,7.13405573 L31.4021636,7.13405573 C27.9104571,4.19256966 23.6929629,2.0619195 19.205835,0.970588235 L19.205835,0.970588235 C16.8284207,0.392879257 14.389155,0.106811146 11.9547214,0.106811146 L11.9547214,0.106811146 C9.00518143,0.106811146 6.06433929,0.52755418 3.25686429,1.35975232" id="path-13"></path>
        <linearGradient x1="70.3520976%" y1="50.3205223%" x2="21.2399556%" y2="48.0656886%" id="linearGradient-15">
            <stop stop-color="#FFDD00" offset="0%"></stop>
            <stop stop-color="#FF5B00" offset="100%"></stop>
        </linearGradient>
        <path d="M12.7782,0.84 C8.5995,1.9415625 4.6719,4.0921875 1.4211,7.0603125 L1.4211,7.0603125 C-0.2862,8.6184375 -0.4563,11.323125 1.0395,13.100625 L1.0395,13.100625 C1.8513,14.0671875 2.9889,14.5603125 4.1319,14.5603125 L4.1319,14.5603125 C5.0931,14.5603125 6.0588,14.2115625 6.8391,13.4990625 L6.8391,13.4990625 C9.1179,11.4196875 11.8683,9.9121875 14.7951,9.140625 L14.7951,9.140625 C16.9947,8.5603125 18.3267,6.2325 17.7705,3.9403125 L17.7705,3.9403125 C17.2989,1.9996875 15.6249,0.70875 13.788,0.70875 L13.788,0.70875 C13.4541,0.70875 13.1157,0.751875 12.7782,0.84" id="path-16"></path>
        <linearGradient x1="24.7691498%" y1="50.0026937%" x2="84.2817558%" y2="50.0026937%" id="linearGradient-18">
            <stop stop-color="#FFE100" offset="0%"></stop>
            <stop stop-color="#8CC63F" offset="100%"></stop>
        </linearGradient>
        <path d="M1.21319786,1.81125 C-0.397838571,3.585 -0.221948571,6.290625 1.60750071,7.8525 L1.60750071,7.8525 C4.87016357,10.640625 8.79193071,12.7275 12.9504729,13.888125 L12.9504729,13.888125 C15.5946214,14.626875 18.3392786,14.9990625 21.10713,14.9990625 L21.10713,14.9990625 C24.0673007,14.9990625 26.9965457,14.5734375 29.8117521,13.7325 L29.8117521,13.7325 C32.140845,13.035 33.44649,10.63875 32.7284336,8.379375 L32.7284336,8.379375 C32.0103771,6.1209375 29.5411521,4.854375 27.2120593,5.5490625 L27.2120593,5.5490625 C23.3965993,6.69 19.2225943,6.7303125 15.3916714,5.660625 L15.3916714,5.660625 C12.4788557,4.8478125 9.73129929,3.384375 7.44183,1.42875 L7.44183,1.42875 C6.60297,0.7115625 5.56212643,0.36 4.526115,0.36 L4.526115,0.36 C3.30261643,0.36 2.08588286,0.8503125 1.21319786,1.81125" id="path-19"></path>
        <linearGradient x1="29.3746696%" y1="50.5951291%" x2="77.4650775%" y2="48.1333659%" id="linearGradient-21">
            <stop stop-color="#A500E9" offset="0%"></stop>
            <stop stop-color="#005BFF" offset="100%"></stop>
        </linearGradient>
        <path d="M25.62582,1.42875 C23.33925,3.3853125 20.5907271,4.8478125 17.6779114,5.660625 L17.6779114,5.660625 C13.8450557,6.7303125 9.67395,6.69 5.85752357,5.5490625 L5.85752357,5.5490625 C3.52843071,4.8515625 1.05823929,6.12 0.341149286,8.379375 L0.341149286,8.379375 C-0.376907143,10.63875 0.929704286,13.035 3.25879714,13.7325 L3.25879714,13.7325 C6.07400357,14.5734375 9.00228214,14.9990625 11.9624529,14.9990625 L11.9624529,14.9990625 C14.7293379,14.9990625 17.4730286,14.626875 20.1162107,13.888125 L20.1162107,13.888125 C24.2776521,12.7284375 28.2003857,10.640625 31.4620821,7.8525 L31.4620821,7.8525 C33.290565,6.2896875 33.4654886,3.5840625 31.8554186,1.8103125 L31.8554186,1.8103125 C30.9817671,0.8503125 29.7650336,0.36 28.541535,0.36 L28.541535,0.36 C27.5055236,0.36 26.46468,0.7125 25.62582,1.42875" id="path-22"></path>
        <linearGradient x1="24.1548428%" y1="50.0028441%" x2="74.5117232%" y2="50.0028441%" id="linearGradient-24">
            <stop stop-color="#FF00CF" offset="0%"></stop>
            <stop stop-color="#A500E9" offset="100%"></stop>
        </linearGradient>
    </defs>
    <g id="----↳-PDF---Blog" stroke="none" stroke-width="1" fill="none" fill-rule="evenodd">
        <g id="PDF---Post-20" transform="translate(-552.000000, -869.000000)">
            <g id="logo" transform="translate(529.000000, 852.000000)">
                <g id="horizontal_full_color" transform="translate(23.000000, 17.000000)">
                    <g id="Group-3" transform="translate(0.000000, 26.000000)">
                        <mask id="mask-2" fill="white">
                            <use xlink:href="#path-1"></use>
                        </mask>
                        <g id="Clip-2"></g>
                        <path d="M7.608,1.49005128 C4.682,4.61081319 2.554,8.20512821 1.286,12.1735971 L1.286,12.1735971 C0.432,14.8423736 0,17.6077363 0,20.3927912 L0,20.3927912 C0,23.2650549 0.455,26.1073114 1.354,28.8389158 L1.354,28.8389158 C1.958,30.6778022 3.764,31.8602784 5.715,31.8602784 L5.715,31.8602784 C6.161,31.8602784 6.614,31.7983883 7.061,31.6699194 L7.061,31.6699194 C9.472,30.9722491 10.823,28.5754139 10.08,26.3154872 L10.08,26.3154872 C9.452,24.4025201 9.132,22.4098462 9.132,20.3927912 L9.132,20.3927912 C9.132,18.442315 9.436,16.5040293 10.034,14.6323223 L10.034,14.6323223 C10.922,11.8528938 12.414,9.33415385 14.465,7.14549451 L14.465,7.14549451 C16.131,5.37131136 15.946,2.66502564 14.052,1.10276923 L14.052,1.10276923 C13.184,0.387282051 12.109,0.0365714286 11.038,0.0365714286 L11.038,0.0365714286 C9.771,0.0365714286 8.51,0.527941392 7.608,1.49005128" id="Fill-1" fill="url(#linearGradient-3)" mask="url(#mask-2)"></path>
                    </g>
                    <path d="M59.2957329,14 C59.7550375,12.1713748 60,10.2617702 60,8.29755179 C60,5.78625235 59.601936,3.36346516 58.8650731,1.08286252 C56.4717503,0.379472693 53.9312525,0 51.2969182,0 C49.1218886,0 47.0140261,0.263653484 45,0.74952919 C46.7414066,3.8653484 47.7311339,7.26365348 47.9593046,10.7015066 C51.8974714,10.9387947 55.7872382,12.0404896 59.2957329,14" id="Fill-4" fill="#8DC63F"></path>
                    <g id="Group-8" transform="translate(42.000000, 26.000000)">
                        <mask id="mask-5" fill="white">
                            <use xlink:href="#path-4"></use>
                        </mask>
                        <g id="Clip-7"></g>
                        <path d="M1.99925697,1.10370696 C0.123839009,2.66502564 -0.0584520124,5.37224908 1.5920743,7.14736996 L1.5920743,7.14736996 C3.62501548,9.33415385 5.10216718,11.8528938 5.98092879,14.6323223 L5.98092879,14.6323223 C6.57436533,16.5040293 6.87455108,18.442315 6.87455108,20.3927912 L6.87455108,20.3927912 C6.87455108,22.4089084 6.55851393,24.4025201 5.93535604,26.3164249 L5.93535604,26.3164249 C5.20024768,28.5763516 6.54068111,30.9731868 8.9273065,31.6699194 L8.9273065,31.6699194 C9.3701548,31.799326 9.81894737,31.8602784 10.2598142,31.8602784 L10.2598142,31.8602784 C12.1926935,31.8602784 13.9839009,30.6768645 14.582291,28.8370403 L14.582291,28.8370403 C15.4719505,26.1063736 15.9217337,23.2641172 15.9217337,20.3927912 L15.9217337,20.3927912 C15.9217337,17.608674 15.4937461,14.8423736 14.647678,12.1745348 L14.647678,12.1745348 C13.3914551,8.20512821 11.2842105,4.61081319 8.38439628,1.49005128 L8.38439628,1.49005128 C7.48978328,0.527003663 6.24148607,0.0356336996 4.98625387,0.0356336996 L4.98625387,0.0356336996 C3.92520124,0.0356336996 2.85919505,0.387282051 1.99925697,1.10370696" id="Fill-6" fill="url(#linearGradient-6)" mask="url(#mask-5)"></path>
                    </g>
                    <g id="Group-11" transform="translate(42.000000, 16.000000)">
                        <mask id="mask-8" fill="white">
                            <use xlink:href="#path-7"></use>
                        </mask>
                        <g id="Clip-10"></g>
                        <path d="M6.35,3.89805871 C5.602,6.71297348 4.126,9.37045455 2.071,11.6222064 L2.071,11.6222064 C1.922,11.7346591 1.779,11.8588068 1.645,11.9919508 L1.645,11.9919508 C0.043,13.5321023 -0.003,15.9142992 1.543,17.5039299 L1.543,17.5039299 C1.592,17.5543087 1.642,17.6037879 1.693,17.6505682 L1.693,17.6505682 C2.555,18.4701231 3.754,18.9343277 5.008,18.9343277 L5.008,18.9343277 L5.035,18.9343277 C6.342,18.9343277 7.593,18.4287405 8.463,17.5399148 L8.463,17.5399148 C11.741,14.1870265 14.083,10.1315341 15.232,5.81065341 L15.232,5.81065341 C15.819,3.60388258 14.307,1.38631629 11.855,0.858238636 L11.855,0.858238636 C11.498,0.781770833 11.141,0.744886364 10.789,0.744886364 L10.789,0.744886364 C8.726,0.744886364 6.853,2.01245265 6.35,3.89805871" id="Fill-9" fill="url(#linearGradient-9)" mask="url(#mask-8)"></path>
                    </g>
                    <g id="Group-14" transform="translate(0.000000, 3.000000)">
                        <mask id="mask-11" fill="white">
                            <use xlink:href="#path-10"></use>
                        </mask>
                        <g id="Clip-13"></g>
                        <path d="M1.354,3.12451282 C0.455,5.85517949 0,8.69649817 0,11.5696996 L0,11.5696996 C0,13.8183736 0.283,16.0651722 0.839,18.2472674 L0.839,18.2472674 C1.988,22.7483663 4.328,26.9765861 7.608,30.4715018 L7.608,30.4715018 C8.51,31.4345495 9.77,31.9268571 11.038,31.9268571 L11.038,31.9268571 C12.109,31.9268571 13.185,31.5752088 14.052,30.8587839 L14.052,30.8587839 C15.946,29.2974652 16.131,26.5921172 14.465,24.8160586 L14.465,24.8160586 C12.166,22.3648352 10.525,19.4034872 9.721,16.2536557 L9.721,16.2536557 C9.33,14.7242198 9.132,13.1488352 9.132,11.5696996 L9.132,11.5696996 C9.132,9.55264469 9.452,7.5599707 10.08,5.64794139 L10.08,5.64794139 C10.823,3.38801465 9.472,0.991179487 7.062,0.294446886 L7.062,0.294446886 C6.614,0.165040293 6.162,0.104087912 5.717,0.104087912 L5.717,0.104087912 C3.765,0.104087912 1.958,1.28468864 1.354,3.12451282" id="Fill-12" fill="url(#linearGradient-12)" mask="url(#mask-11)"></path>
                    </g>
                    <g id="Group-17" transform="translate(1.000000, 2.000000)">
                        <mask id="mask-14" fill="white">
                            <use xlink:href="#path-13"></use>
                        </mask>
                        <g id="Clip-16"></g>
                        <path d="M3.25686429,1.35975232 C0.928737857,2.0498452 -0.377873571,4.42383901 0.342115714,6.66315789 L0.342115714,6.66315789 C1.06017214,8.90154799 3.53036357,10.1544892 5.85945643,9.46439628 L5.85945643,9.46439628 C9.44394,8.40185759 13.3502443,8.29690402 17.041035,9.19411765 L17.041035,9.19411765 C20.1819279,9.95665635 23.1363,11.4520124 25.5842636,13.5130031 L25.5842636,13.5130031 C26.4202243,14.2188854 27.4581686,14.5643963 28.4903143,14.5643963 L28.4903143,14.5643963 C29.7176786,14.5643963 30.9392443,14.0758514 31.8109629,13.119195 L31.8109629,13.119195 C33.4181336,11.3572755 33.2354786,8.67770898 31.4021636,7.13405573 L31.4021636,7.13405573 C27.9104571,4.19256966 23.6929629,2.0619195 19.205835,0.970588235 L19.205835,0.970588235 C16.8284207,0.392879257 14.389155,0.106811146 11.9547214,0.106811146 L11.9547214,0.106811146 C9.00518143,0.106811146 6.06433929,0.52755418 3.25686429,1.35975232" id="Fill-15" fill="url(#linearGradient-15)" mask="url(#mask-14)"></path>
                    </g>
                    <g id="Group-20" transform="translate(24.000000, 2.000000)">
                        <mask id="mask-17" fill="white">
                            <use xlink:href="#path-16"></use>
                        </mask>
                        <g id="Clip-19"></g>
                        <path d="M12.7782,0.84 C8.5995,1.9415625 4.6719,4.0921875 1.4211,7.0603125 L1.4211,7.0603125 C-0.2862,8.6184375 -0.4563,11.323125 1.0395,13.100625 L1.0395,13.100625 C1.8513,14.0671875 2.9889,14.5603125 4.1319,14.5603125 L4.1319,14.5603125 C5.0931,14.5603125 6.0588,14.2115625 6.8391,13.4990625 L6.8391,13.4990625 C9.1179,11.4196875 11.8683,9.9121875 14.7951,9.140625 L14.7951,9.140625 C16.9947,8.5603125 18.3267,6.2325 17.7705,3.9403125 L17.7705,3.9403125 C17.2989,1.9996875 15.6249,0.70875 13.788,0.70875 L13.788,0.70875 C13.4541,0.70875 13.1157,0.751875 12.7782,0.84" id="Fill-18" fill="url(#linearGradient-18)" mask="url(#mask-17)"></path>
                    </g>
                    <g id="Group-23" transform="translate(24.000000, 44.000000)">
                        <mask id="mask-20" fill="white">
                            <use xlink:href="#path-19"></use>
                        </mask>
                        <g id="Clip-22"></g>
                        <path d="M1.21319786,1.81125 C-0.397838571,3.585 -0.221948571,6.290625 1.60750071,7.8525 L1.60750071,7.8525 C4.87016357,10.640625 8.79193071,12.7275 12.9504729,13.888125 L12.9504729,13.888125 C15.5946214,14.626875 18.3392786,14.9990625 21.10713,14.9990625 L21.10713,14.9990625 C24.0673007,14.9990625 26.9965457,14.5734375 29.8117521,13.7325 L29.8117521,13.7325 C32.140845,13.035 33.44649,10.63875 32.7284336,8.379375 L32.7284336,8.379375 C32.0103771,6.1209375 29.5411521,4.854375 27.2120593,5.5490625 L27.2120593,5.5490625 C23.3965993,6.69 19.2225943,6.7303125 15.3916714,5.660625 L15.3916714,5.660625 C12.4788557,4.8478125 9.73129929,3.384375 7.44183,1.42875 L7.44183,1.42875 C6.60297,0.7115625 5.56212643,0.36 4.526115,0.36 L4.526115,0.36 C3.30261643,0.36 2.08588286,0.8503125 1.21319786,1.81125" id="Fill-21" fill="url(#linearGradient-21)" mask="url(#mask-20)"></path>
                    </g>
                    <g id="Group-26" transform="translate(1.000000, 44.000000)">
                        <mask id="mask-23" fill="white">
                            <use xlink:href="#path-22"></use>
                        </mask>
                        <g id="Clip-25"></g>
                        <path d="M25.62582,1.42875 C23.33925,3.3853125 20.5907271,4.8478125 17.6779114,5.660625 L17.6779114,5.660625 C13.8450557,6.7303125 9.67395,6.69 5.85752357,5.5490625 L5.85752357,5.5490625 C3.52843071,4.8515625 1.05823929,6.12 0.341149286,8.379375 L0.341149286,8.379375 C-0.376907143,10.63875 0.929704286,13.035 3.25879714,13.7325 L3.25879714,13.7325 C6.07400357,14.5734375 9.00228214,14.9990625 11.9624529,14.9990625 L11.9624529,14.9990625 C14.7293379,14.9990625 17.4730286,14.626875 20.1162107,13.888125 L20.1162107,13.888125 C24.2776521,12.7284375 28.2003857,10.640625 31.4620821,7.8525 L31.4620821,7.8525 C33.290565,6.2896875 33.4654886,3.5840625 31.8554186,1.8103125 L31.8554186,1.8103125 C30.9817671,0.8503125 29.7650336,0.36 28.541535,0.36 L28.541535,0.36 C27.5055236,0.36 26.46468,0.7125 25.62582,1.42875" id="Fill-24" fill="url(#linearGradient-24)" mask="url(#mask-23)"></path>
                    </g>
                    <g id="Group-47" transform="translate(72.000000, 9.000000)" fill="#424242">
                        <path d="M63.6336337,32.40384 C61.9894752,34.1099733 60.0753663,34.8865067 57.7746733,34.7773067 C55.5746238,34.6643733 53.771505,33.8103733 52.2618515,32.1667733 C50.7418515,30.51104 50.0213564,28.5921067 50.0599208,26.3017067 L50.0599208,26.3007733 C50.0984851,23.9889067 50.8660099,22.1679733 52.4763069,20.5691733 C54.072495,18.98624 55.9527426,18.21624 58.2242772,18.21624 C60.3904653,18.21624 62.1728911,18.9759733 63.676901,20.5411733 C65.2552178,22.18384 66.0396733,24.0533067 66.0763564,26.2559733 C66.1149208,28.6499733 65.3163564,30.6603733 63.6336337,32.40384 L63.6336337,32.40384 Z M72.8335842,26.67224 L72.8326436,26.55744 C72.9831386,22.5963733 71.6211584,19.10944 68.7937327,16.20304 C66.0152178,13.3003733 62.5557129,11.7519733 58.5102178,11.6007733 C54.2841287,11.44584 50.6778911,12.8869067 47.7319505,15.86144 C44.7634356,18.8089067 43.2575446,22.4003733 43.2575446,26.5397067 C43.2575446,30.4989067 44.6618515,33.9765067 47.431901,36.8763733 C50.1793762,39.7501067 53.5937327,41.2835733 57.587495,41.43384 C57.7699703,41.4403733 57.951505,41.4441067 58.1330396,41.4441067 C61.1147228,41.4441067 63.8038812,40.6181067 66.1657129,38.9829067 L66.1657129,38.8671733 C66.5062079,40.36144 67.8465545,41.48144 69.4559109,41.48144 C71.3220495,41.48144 72.8354653,39.9797067 72.8354653,38.1279733 L72.8335842,26.67224 Z" id="Fill-27"></path>
                        <path d="M105.346817,11.6439867 C101.655926,11.6439867 98.5275099,12.9179867 96.0499851,15.4295867 C93.5940941,17.9159867 92.3487475,21.0566533 92.3487475,24.7638533 L92.3487475,38.12732 C92.3487475,39.9799867 93.8612228,41.4807867 95.7264208,41.4807867 C97.5935,41.4807867 99.1501832,39.9799867 99.1501832,38.12732 L99.1492426,24.4082533 C99.1492426,22.69932 99.7324109,21.32452 100.985282,20.0803867 C102.219342,18.8558533 103.646223,18.2603867 105.346817,18.2603867 C107.009787,18.2603867 108.367064,18.83812 109.619936,20.0803867 C110.884094,21.3366533 111.498302,22.7515867 111.498302,24.4082533 L111.498302,38.12732 C111.498302,39.9799867 113.054045,41.4807867 114.921124,41.4807867 C116.786322,41.4807867 118.299738,39.9799867 118.299738,38.12732 L118.299738,24.7638533 C118.299738,21.05572 117.05345,17.9159867 114.599441,15.4295867 C112.119094,12.9179867 109.006668,11.6439867 105.346817,11.6439867" id="Fill-29"></path>
                        <path d="M3.91606931,0.567466667 C2.04993069,0.567466667 0.537455446,2.06826667 0.537455446,3.92 L0.537455446,38.1276 C0.537455446,39.9802667 2.04993069,41.4810667 3.91606931,41.4810667 C5.78126733,41.4810667 7.29468317,39.9802667 7.29468317,38.1276 L7.29468317,3.92 C7.29468317,2.06826667 5.78126733,0.567466667 3.91606931,0.567466667" id="Fill-31"></path>
                        <path d="M126.379723,0.567466667 C124.513584,0.567466667 123.001109,2.06826667 123.001109,3.92 L123.001109,38.1276 C123.001109,39.9802667 124.513584,41.4810667 126.379723,41.4810667 C128.244921,41.4810667 129.758337,39.9802667 129.758337,38.1276 L129.758337,3.92 C129.758337,2.06826667 128.244921,0.567466667 126.379723,0.567466667" id="Fill-33"></path>
                        <path d="M138.104134,11.38284 C136.238936,11.38284 134.72552,12.88364 134.72552,14.7353733 L134.72552,38.1275067 C134.72552,39.9801733 136.238936,41.4809733 138.104134,41.4809733 C139.969332,41.4809733 141.482748,39.9801733 141.482748,38.1275067 L141.482748,14.7353733 C141.482748,12.88364 139.969332,11.38284 138.104134,11.38284" id="Fill-35"></path>
                        <path d="M137.971886,0.567466667 C135.99946,0.567466667 134.40045,2.15413333 134.40045,4.1104 C134.40045,6.06853333 135.99946,7.65426667 137.971886,7.65426667 C139.945252,7.65426667 141.543322,6.06853333 141.543322,4.1104 C141.543322,2.15413333 139.945252,0.567466667 137.971886,0.567466667" id="Fill-37"></path>
                        <path d="M167.617059,22.9209867 C168.129683,21.7869867 168.863347,20.84432 169.835921,20.0668533 C171.404832,18.81432 173.154337,18.23192 175.196366,18.25992 C177.277901,18.2972533 178.997307,18.90952 180.451465,20.1293867 C181.385475,20.91432 182.095624,21.8364533 182.59696,22.9209867 L167.617059,22.9209867 Z M185.553248,29.35352 C189.956168,29.3516533 189.852703,24.9556533 189.749238,23.8048533 C189.315624,21.03472 188.015723,18.48112 185.829782,16.19352 C183.052208,13.3384533 179.703693,11.76392 175.861366,11.5137867 C171.62305,11.2617867 167.867257,12.7121867 164.698396,15.80712 C161.593495,18.8385867 160.070673,22.5373867 160.170376,26.78312 C160.221168,30.77312 161.774089,34.2880533 164.79904,37.2373867 C167.732752,40.0532533 171.18003,41.4812533 175.051515,41.4812533 C175.119238,41.4812533 175.18602,41.48032 175.253743,41.4793867 C178.364287,41.42992 181.224634,40.50592 183.755772,38.7325867 C184.531762,38.1893867 185.246614,37.5565867 185.906911,36.8537867 C186.382851,36.2844533 186.64998,35.53872 186.64998,34.7416533 C186.64998,32.9281867 185.167604,31.4572533 183.34003,31.4572533 C182.39097,31.4572533 181.528446,31.8464533 180.924584,32.48112 C179.526861,33.9949867 177.690822,34.7500533 175.330871,34.7752533 C173.20701,34.8209867 171.350277,34.1461867 169.699535,32.73592 C168.596218,31.7941867 167.834337,30.6797867 167.39602,29.35912 L184.784782,29.35912 C184.784782,29.35912 185.098941,29.36472 185.553248,29.35352 L185.553248,29.35352 Z" id="Fill-39"></path>
                        <path d="M161.634599,14.60032 C161.634599,12.8241867 160.185144,11.3849867 158.397074,11.38312 L158.397074,11.38312 L153.204995,11.38312 L153.125985,11.38312 C153.125985,8.94898667 155.687223,7.30165333 158.301134,7.30165333 C160.174797,7.30165333 161.693856,5.79432 161.693856,3.93418667 C161.693856,2.07498667 160.174797,0.567653333 158.301134,0.567653333 C152.05653,0.567653333 146.315144,4.84605333 146.315144,11.38312 L146.315144,38.1277867 C146.315144,39.97952 147.827619,41.4812533 149.693757,41.4812533 C151.559896,41.4812533 153.115639,39.97952 153.115639,38.1277867 L153.115639,17.82032 L156.654153,17.82032 L158.397074,17.82032 L158.397074,17.81752 C160.185144,17.81472 161.634599,16.37552 161.634599,14.60032" id="Fill-41"></path>
                        <path d="M18.0185842,22.9209867 C18.5302673,21.7869867 19.2648713,20.84432 20.2374455,20.0668533 C21.8063564,18.81432 23.5549208,18.23192 25.5978911,18.25992 C27.6803663,18.2972533 29.3988317,18.90952 30.8529901,20.1293867 C31.787,20.91432 32.4971485,21.8364533 32.9984851,22.9209867 L18.0185842,22.9209867 Z M35.9547723,29.35352 C40.3576931,29.3516533 40.2532871,24.9556533 40.1507624,23.8048533 C39.7171485,21.03472 38.4172475,18.48112 36.2313069,16.19352 C33.4537327,13.3384533 30.1042772,11.76392 26.2628911,11.5137867 C22.0236337,11.2617867 18.2687822,12.7121867 15.0999208,15.80712 C11.9940792,18.8385867 10.4712574,22.5373867 10.571901,26.78312 C10.6226931,30.77312 12.1756139,34.2880533 15.1996238,37.2373867 C18.1342772,40.0532533 21.5815545,41.4812533 25.4530396,41.4812533 C25.5198218,41.4812533 25.5875446,41.48032 25.6552673,41.4793867 C28.7658119,41.42992 31.6261584,40.50592 34.157297,38.7325867 C34.9332871,38.1893867 35.6490792,37.5565867 36.3084356,36.8537867 C36.7843762,36.2844533 37.051505,35.53872 37.051505,34.7416533 C37.051505,32.9281867 35.5691287,31.4572533 33.7415545,31.4572533 C32.7934356,31.4572533 31.9299703,31.8464533 31.3261089,32.48112 C29.9283861,33.9949867 28.0923465,34.7500533 25.732396,34.7752533 C23.6085347,34.8209867 21.751802,34.1461867 20.1010594,32.73592 C18.9977426,31.7941867 18.2358614,30.6797867 17.7975446,29.35912 L35.1863069,29.35912 C35.1863069,29.35912 35.5004653,29.36472 35.9547723,29.35352 L35.9547723,29.35352 Z" id="Fill-43"></path>
                        <path d="M89.8954901,11.4851333 C89.8795,11.4851333 89.8635099,11.4898 89.8475198,11.4907333 C89.3866287,11.4776667 88.4008861,11.4935333 87.9757376,11.5411333 C86.8065792,11.6727333 85.6477673,12.0339333 84.4927178,12.6266 C84.2679158,12.7488667 83.6546485,13.1278 83.394104,13.293 C82.8429158,12.2794 81.7753416,11.5822 80.5318762,11.5822 C78.7287574,11.5822 77.2670743,13.0335333 77.2670743,14.8227333 L77.2670743,34.1828667 L77.2670743,38.1280667 C77.2670743,39.9798 78.7795495,41.4806 80.6456881,41.4806 C82.5118267,41.4806 84.024302,39.9798 84.024302,38.1280667 L84.024302,29.9548667 L84.024302,21.7014 C84.024302,20.3387333 84.804995,19.1692667 85.9647475,18.5952667 L85.9647475,18.5915333 L86.0051931,18.5719333 C86.0051931,18.5719333 86.8188069,18.1099333 87.8816782,18.1099333 L89.9415792,18.1099333 C89.9415792,18.1099333 91.139896,18.1164667 92.229104,17.2158 C92.8621238,16.6100667 93.2590545,15.7644667 93.2590545,14.8227333 C93.2590545,12.9794 91.7531634,11.4851333 89.8954901,11.4851333 L89.8954901,11.4851333 Z" id="Fill-45"></path>
                    </g>
                </g>
            </g>
        </g>
    </g>
</svg>