<?xml version="1.0" encoding="UTF-8"?>
<svg width="49px" height="46px" viewBox="0 0 49 46" version="1.1" xmlns="http://www.w3.org/2000/svg" xmlns:xlink="http://www.w3.org/1999/xlink">
    <g stroke="none" stroke-width="1" fill="none" fill-rule="evenodd">
        <g transform="translate(-325.000000, -2374.000000)" fill="#FFFFFF">
            <g transform="translate(305.000000, 2357.000000)">
                <g transform="translate(20.000000, 17.000000)">
                    <path d="M23.7286667,29.92 L23.7286667,17.041 L26.1046667,17.041 L26.1046667,29.92 L23.7286667,29.92 Z M23.7286667,36.4 L23.7286667,33.052 L26.1046667,33.052 L26.1046667,36.4 L23.7286667,36.4 Z"></path>
                    <path d="M24.5,2.23530138 L2.34034002,43.6 L46.65966,43.6 L24.5,2.23530138 Z M26.2629599,1.29085855 L48.4226199,42.6555572 C48.9442213,43.6292131 48.5777587,44.8413586 47.6041028,45.3629599 C47.3136243,45.5185734 46.989195,45.6 46.65966,45.6 L2.34034002,45.6 C1.23577053,45.6 0.340340025,44.7045695 0.340340025,43.6 C0.340340025,43.270465 0.421766594,42.9460357 0.577380085,42.6555572 L22.7370401,1.29085855 C23.2586414,0.317202665 24.4707869,-0.0492599296 25.4444428,0.47234144 C25.792,0.658532762 26.0767686,0.943301419 26.2629599,1.29085855 Z" fill-rule="nonzero"></path>
                </g>
            </g>
        </g>
    </g>
</svg>