<?xml version="1.0" encoding="UTF-8" standalone="no"?>
<svg width="42px" height="45px" viewBox="0 0 42 45" version="1.1" xmlns="http://www.w3.org/2000/svg" xmlns:xlink="http://www.w3.org/1999/xlink">
    <g stroke="none" stroke-width="1" fill="none" fill-rule="evenodd">
        <g transform="translate(-115.000000, -2379.000000)" fill="#FFFFFF" fill-rule="nonzero">
            <g transform="translate(91.000000, 2357.000000)">
                <g transform="translate(24.000000, 22.000000)">
                    <path d="M3,2 C2.44771525,2 2,2.44771525 2,3 L2,40.2984377 C2,40.4456662 2.05046117,40.5884471 2.14297223,40.7029805 C2.36639506,40.9795896 2.77175099,41.0227055 3.02127946,40.8219581 L9.64286955,35.0755663 C10.9870986,33.9158183 11.7951923,33.940473 13.1512577,35.1965359 L19.969563,41.9805288 C20.2147474,42.2076113 20.5929149,42.2093439 20.8332796,41.9908418 L28.0746803,35.2862575 C29.3142552,33.9291161 30.2291781,33.935489 31.6577043,35.1888274 L38.3672082,40.4115651 C38.4865645,40.5235832 38.6441071,40.5859324 38.8077958,40.5859324 C39.1633662,40.5859324 39.451613,40.2976856 39.451613,39.9421152 L39.451613,12.2271129 C39.451613,12.0532566 39.3813001,11.8867903 39.2617766,11.7705114 L29.2619162,2.18228148 C29.1417324,2.06539555 28.9806948,2 28.813045,2 L3,2 Z M3,-2.27373675e-13 L28.813045,-2.27373675e-13 C29.5014942,-2.27373675e-13 30.1627907,0.268544968 30.6512124,0.743599559 L40.6510728,10.3318295 C41.162875,10.8295879 41.451613,11.5131767 41.451613,12.2271129 L41.451613,39.9421152 C41.451613,41.4022551 40.2679357,42.5859324 38.8077958,42.5859324 C38.1356129,42.5859324 37.4886685,42.3298971 37.06902,41.9301527 L30.385015,36.730534 C29.6914207,36.123097 30.016952,36.1253644 29.4926885,36.6942017 L22.1856764,43.4642513 C21.1703311,44.3874943 19.6173971,44.3803794 18.5847847,43.4231352 L11.7667033,36.6393496 C11.1755775,36.0922016 11.5142051,36.102533 10.9515406,36.5879722 L4.30506093,42.3551435 C3.16917369,43.2726231 1.50459099,43.0955687 0.587111415,41.9596814 C0.207217376,41.4893529 5.40012479e-13,40.9030271 5.40012479e-13,40.2984377 L5.40012479e-13,3 C5.40012479e-13,1.34314575 1.34314575,-2.27373675e-13 3,-2.27373675e-13 Z"></path>
                    <polygon points="39.9553679 11.1212761 39.9553679 13.1212761 27 13.1212761 27 1 29 1 29 11.1212761"></polygon>
                </g>
            </g>
        </g>
    </g>
</svg>