<?xml version="1.0" encoding="UTF-8"?>
<svg width="37px" height="48px" viewBox="0 0 37 48" version="1.1" xmlns="http://www.w3.org/2000/svg" xmlns:xlink="http://www.w3.org/1999/xlink">
    <g stroke="none" stroke-width="1" fill="none" fill-rule="evenodd">
        <g transform="translate(-117.000000, -2585.000000)" fill="#FFFFFF">
            <g transform="translate(91.000000, 2565.000000)">
                <g transform="translate(26.000000, 20.000000)">
                    <path d="M3.36504182,2 C2.81275707,2 2.36504182,2.44771525 2.36504182,3 L2.36504182,45 C2.36504182,45.5522847 2.81275707,46 3.36504182,46 L33.451613,46 C34.0038977,46 34.451613,45.5522847 34.451613,45 L34.451613,12.2271129 C34.451613,12.0532566 34.3813001,11.8867903 34.2617766,11.7705114 L24.2619162,2.18228148 C24.2292842,2.15054489 24.040086,2.07219328 23.7100315,2 L3.36504182,2 Z M24.0081799,0.0192235979 C24.7401289,0.164851932 25.2827351,0.385198114 25.6512124,0.743599559 L35.6510728,10.3318295 C36.162875,10.8295879 36.451613,11.5131767 36.451613,12.2271129 L36.451613,45 C36.451613,46.6568542 35.1084672,48 33.451613,48 L3.36504182,48 C1.70818757,48 0.365041821,46.6568542 0.365041821,45 L0.365041821,3 C0.365041821,1.34314575 1.70818757,-2.80886425e-14 3.36504182,-2.84217094e-14 L23.813045,-2.84217094e-14 L24.0081799,0.0192235979 Z" fill-rule="nonzero"></path>
                    <polygon fill-rule="nonzero" points="35.4440918 11.5212761 35.4440918 13.5212761 22.4887239 13.5212761 22.4887239 1.4 24.4887239 1.4 24.4887239 11.5212761"></polygon>
                    <path d="M15.2715,32.303 C15.2715,31.3309951 15.4424983,30.4805036 15.7845,29.7515 C16.1265017,29.0224964 16.7114959,28.3970026 17.5395,27.875 C17.8635016,27.6589989 18.2369979,27.4340012 18.66,27.2 C19.0830021,26.9659988 19.4834981,26.6915016 19.8615,26.3765 C20.2395019,26.0614984 20.5589987,25.6835022 20.82,25.2425 C21.0810013,24.8014978 21.2115,24.2750031 21.2115,23.663 C21.2115,23.1589975 21.1170009,22.7135019 20.928,22.3265 C20.738999,21.9394981 20.4915015,21.6155013 20.1855,21.3545 C19.8794985,21.0934987 19.528502,20.8955007 19.1325,20.7605 C18.736498,20.6254993 18.3225022,20.558 17.8905,20.558 C17.4404977,20.558 17.013002,20.6254993 16.608,20.7605 C16.202998,20.8955007 15.8295017,21.0799988 15.4875,21.314 C15.1454983,21.5480012 14.8395013,21.8224984 14.5695,22.1375 C14.2994986,22.4525016 14.0745009,22.7809983 13.8945,23.123 L12.3015,22.07 C12.5355012,21.5119972 12.850498,21.0170022 13.2465,20.585 C13.642502,20.1529978 14.0924975,19.7885015 14.5965,19.4915 C15.1005025,19.1944985 15.6359972,18.9695008 16.203,18.8165 C16.7700028,18.6634992 17.350497,18.587 17.9445,18.587 C18.6105033,18.587 19.2674968,18.690499 19.9155,18.8975 C20.5635032,19.104501 21.1394975,19.4239978 21.6435,19.856 C22.1475025,20.2880022 22.5524985,20.8279968 22.8585,21.476 C23.1645015,22.1240032 23.3175,22.8889956 23.3175,23.771 C23.3175,24.4550034 23.2230009,25.0399976 23.034,25.526 C22.844999,26.0120024 22.5975015,26.4349982 22.2915,26.795 C21.9854985,27.1550018 21.6255021,27.4699986 21.2115,27.74 C20.7974979,28.0100013 20.3655022,28.2709987 19.9155,28.523 C19.5914984,28.7030009 19.2675016,28.891999 18.9435,29.09 C18.6194984,29.288001 18.3360012,29.5264986 18.093,29.8055 C17.8499988,30.0845014 17.6520008,30.421998 17.499,30.818 C17.3459992,31.214002 17.2695,31.708997 17.2695,32.303 L15.2715,32.303 Z M15.3255,38 L15.3255,34.868 L17.3235,34.868 L17.3235,38 L15.3255,38 Z"></path>
                </g>
            </g>
        </g>
    </g>
</svg>