<?xml version="1.0" encoding="UTF-8"?>
<svg width="37px" height="48px" viewBox="0 0 37 48" version="1.1" xmlns="http://www.w3.org/2000/svg" xmlns:xlink="http://www.w3.org/1999/xlink">
    <g stroke="none" stroke-width="1" fill="none" fill-rule="evenodd">
        <g transform="translate(-545.000000, -2585.000000)" fill="#FFFFFF">
            <g transform="translate(519.000000, 2565.000000)">
                <g transform="translate(26.000000, 20.000000)">
                    <path d="M9.1604,14.4198 C9.1604,13.8581972 9.25489905,13.3614022 9.4439,12.9294 C9.63290094,12.4973978 9.9865974,12.1248016 10.505,11.8116 C10.6886009,11.7035995 10.9045988,11.5821007 11.153,11.4471 C11.4014012,11.3120993 11.6389989,11.1528009 11.8658,10.9692 C12.0926011,10.7855991 12.2842992,10.5696012 12.4409,10.3212 C12.5975008,10.0727988 12.6758,9.78120167 12.6758,9.4464 C12.6758,9.1871987 12.6245005,8.95500103 12.5219,8.7498 C12.4192995,8.54459897 12.2870008,8.3718007 12.125,8.2314 C11.9629992,8.0909993 11.7740011,7.98570035 11.558,7.9155 C11.3419989,7.84529965 11.1206011,7.8102 10.8938,7.8102 C10.6345987,7.8102 10.3970011,7.85069959 10.181,7.9317 C9.96499892,8.0127004 9.76520091,8.12069932 9.5816,8.2557 C9.39799908,8.39070067 9.23330073,8.54459914 9.0875,8.7174 C8.94169927,8.89020086 8.82020048,9.06299914 8.723,9.2358 L7.5566,8.442 C7.84820145,7.77239665 8.30179692,7.25670181 8.9174,6.8949 C9.53300307,6.53309819 10.2079963,6.3522 10.9424,6.3522 C11.342002,6.3522 11.738898,6.41429938 12.1331,6.5385 C12.527302,6.66270062 12.8809984,6.85169873 13.1942,7.1055 C13.5074016,7.35930127 13.7584991,7.685998 13.9475,8.0856 C14.1365009,8.485202 14.231,8.96039725 14.231,9.5112 C14.231,9.88920189 14.1824005,10.2158986 14.0852,10.4913 C13.9879995,10.7667014 13.8557008,11.0150989 13.6883,11.2365 C13.5208992,11.4579011 13.3211012,11.6522992 13.0889,11.8197 C12.8566988,11.9871008 12.6110013,12.1409993 12.3518,12.2814 C12.1357989,12.4002006 11.925201,12.5216994 11.72,12.6459 C11.514799,12.7701006 11.3339008,12.9131992 11.1773,13.0752 C11.0206992,13.2372008 10.8938005,13.4261989 10.7966,13.6422 C10.6993995,13.8582011 10.6508,14.1173985 10.6508,14.4198 L9.1604,14.4198 Z M9.1604,18 L9.1604,15.9588 L10.6508,15.9588 L10.6508,18 L9.1604,18 Z"></path>
                    <path d="M3.36504182,2 C2.81275707,2 2.36504182,2.44771525 2.36504182,3 L2.36504182,45 C2.36504182,45.5522847 2.81275707,46 3.36504182,46 L33.451613,46 C34.0038977,46 34.451613,45.5522847 34.451613,45 L34.451613,12.2271129 C34.451613,12.0532566 34.3813001,11.8867903 34.2617766,11.7705114 L24.2619162,2.18228148 C24.2292842,2.15054489 24.040086,2.07219328 23.7100315,2 L3.36504182,2 Z M24.0081799,0.0192235979 C24.7401289,0.164851932 25.2827351,0.385198114 25.6512124,0.743599559 L35.6510728,10.3318295 C36.162875,10.8295879 36.451613,11.5131767 36.451613,12.2271129 L36.451613,45 C36.451613,46.6568542 35.1084672,48 33.451613,48 L3.36504182,48 C1.70818757,48 0.365041821,46.6568542 0.365041821,45 L0.365041821,3 C0.365041821,1.34314575 1.70818757,-2.80886425e-14 3.36504182,-2.84217094e-14 L23.813045,-2.84217094e-14 L24.0081799,0.0192235979 Z" fill-rule="nonzero"></path>
                    <polygon fill-rule="nonzero" points="35.4440918 11.5212761 35.4440918 13.5212761 22.4887239 13.5212761 22.4887239 1.4 24.4887239 1.4 24.4887239 11.5212761"></polygon>
                    <path d="M27.1256262,22 C26.4091868,22 25.825,22.5840278 25.825,23.3 C25.825,24.0159722 26.4091868,24.6 27.1256262,24.6 C27.840923,24.6 28.425,24.0158624 28.425,23.3 C28.425,22.5841376 27.840923,22 27.1256262,22 Z M27.1256262,20 C28.9455389,20 30.425,21.4796145 30.425,23.3 C30.425,25.1203855 28.9455389,26.6 27.1256262,26.6 C25.3047392,26.6 23.825,25.1206636 23.825,23.3 C23.825,21.4793364 25.3047392,20 27.1256262,20 Z" fill-rule="nonzero"></path>
                    <path d="M15.5773842,34.9487957 L28.1441386,34.95 L22.6197235,28.4784 L19.3037097,31.8666324 L18.6384436,30.7515802 L14.8466946,24.3962197 L8.5489601,34.9487957 L15.5773842,34.9487957 Z M7.28296961,36.9487957 C6.82454731,36.9487957 6.39961747,36.7050353 6.16739437,36.3021073 C5.93966933,35.9015313 5.94431199,35.4092237 6.18046793,35.0148201 L13.7423305,22.3440648 C14.2306785,21.5186451 15.4628818,21.5186451 15.9493471,22.3408958 L19.6907191,28.611808 L21.7335943,26.5244559 C21.9765161,26.2735523 22.3092371,26.1345376 22.655607,26.1345376 L22.6952834,26.1349855 C23.0605547,26.1459209 23.4053422,26.3118327 23.633154,26.5852354 L30.5805584,34.7236975 C30.8424054,34.9620056 31,35.3029107 31,35.6706028 C31,36.3806305 30.421971,36.95 29.7159762,36.95 L13.5773842,36.95 L13.5773842,36.9487957 L7.28296961,36.9487957 Z" fill-rule="nonzero"></path>
                </g>
            </g>
        </g>
    </g>
</svg>