<?xml version="1.0" encoding="UTF-8"?>
<svg width="52px" height="55px" viewBox="0 0 52 55" version="1.1" xmlns="http://www.w3.org/2000/svg" xmlns:xlink="http://www.w3.org/1999/xlink">
    <g stroke="none" stroke-width="1" fill="none" fill-rule="evenodd">
        <g transform="translate(-745.000000, -2373.000000)" fill="#FFFFFF">
            <g transform="translate(724.000000, 2357.000000)">
                <g transform="translate(21.000000, 16.000000)">
                    <path d="M25.402219,26.8730488 C24.6794508,27.503246 24.0147682,28.1983696 23.4172615,28.9493292 C22.9497297,28.9589253 22.4772,28.9637556 22,28.9637556 C12.8398842,28.9637556 5.40062257,27.1839357 1.99999679,24.0810907 L2,31.0000001 C2,34.6908639 9.47093774,37.60802 20.0205342,37.9335288 C20.0068999,38.202191 20,38.4726301 20,38.7446809 C20,39.1454997 20.0149775,39.5428204 20.0444033,39.9361138 C11.7870826,39.6999513 5.15518659,37.9599917 1.99999679,35.0810907 L2,42.0000002 C2,45.9177566 10.4177102,48.9637556 22,48.9637556 C22.5906519,48.9637556 23.173074,48.9558341 23.7465695,48.9402796 C24.3382856,49.6359256 24.989427,50.2794597 25.692145,50.8630331 C24.4983556,50.9297798 23.2656028,50.9637556 22,50.9637556 C10.136545,50.9637556 1.15954306,47.978397 0.104037633,43 L0,43 L0,8.8449707 L0.00240773682,8.8449707 C0.173831475,3.34079845 9.48042725,0 22,0 C34.5195728,0 43.8261685,3.34079845 43.9975923,8.8449707 L44,8.8449707 L44,25.3352061 C43.3621091,24.9416621 42.6940135,24.5923579 42,24.2915778 L42,24.0810907 C41.9476802,24.1288292 41.8944043,24.1762544 41.8401809,24.2233648 C41.0974207,23.9112084 40.3256792,23.6543768 39.5301142,23.4580275 C41.1172384,22.4459981 42,21.2687095 42,20 L42,13.0965142 C38.5992002,16.2118108 31.159486,18 22,18 C12.840514,18 5.40079976,16.2118108 2,13.0965142 L2,20.0000001 C2,23.9177566 10.4177102,26.9637556 22,26.9637556 C23.1680539,26.9637556 24.3039229,26.9327766 25.402219,26.8730488 Z M22,16 C33.5833762,16 42,12.9405331 42,9 C42,5.05946685 33.5833762,2 22,2 C10.4166238,2 2,5.05946685 2,9 C2,12.9405331 10.4166238,16 22,16 Z" fill-rule="nonzero"></path>
                    <path d="M35.5,53 C43.5081289,53 50,46.5081289 50,38.5 C50,30.4918711 43.5081289,24 35.5,24 C27.4918711,24 21,30.4918711 21,38.5 C21,46.5081289 27.4918711,53 35.5,53 Z M35.5,55 C26.3873016,55 19,47.6126984 19,38.5 C19,29.3873016 26.3873016,22 35.5,22 C44.6126984,22 52,29.3873016 52,38.5 C52,47.6126984 44.6126984,55 35.5,55 Z" fill-rule="nonzero"></path>
                    <path d="M34,42.448 L34,31 L36.112,31 L36.112,42.448 L34,42.448 Z M34,48.208 L34,45.232 L36.112,45.232 L36.112,48.208 L34,48.208 Z"></path>
                </g>
            </g>
        </g>
    </g>
</svg>