<?xml version="1.0" encoding="UTF-8"?>
<svg width="37px" height="37px" viewBox="0 0 37 37" version="1.1" xmlns="http://www.w3.org/2000/svg" xmlns:xlink="http://www.w3.org/1999/xlink">
    <g stroke="none" stroke-width="1" fill="none" fill-rule="evenodd">
        <g transform="translate(-932.000000, -2383.000000)" fill="#FFFFFF" fill-rule="nonzero">
            <g transform="translate(906.000000, 2357.000000)">
                <path d="M44.5,43.0857864 L61.1170094,26.4687771 C61.5075336,26.0782528 62.1406986,26.0782528 62.5312229,26.4687771 C62.9217472,26.8593014 62.9217472,27.4924664 62.5312229,27.8829906 L45.9142136,44.5 L62.5312229,61.1170094 C62.9217472,61.5075336 62.9217472,62.1406986 62.5312229,62.5312229 C62.1406986,62.9217472 61.5075336,62.9217472 61.1170094,62.5312229 L44.5,45.9142136 L27.8829906,62.5312229 C27.4924664,62.9217472 26.8593014,62.9217472 26.4687771,62.5312229 C26.0782528,62.1406986 26.0782528,61.5075336 26.4687771,61.1170094 L43.0857864,44.5 L26.4687771,27.8829906 C26.0782528,27.4924664 26.0782528,26.8593014 26.4687771,26.4687771 C26.8593014,26.0782528 27.4924664,26.0782528 27.8829906,26.4687771 L44.5,43.0857864 Z"></path>
            </g>
        </g>
    </g>
</svg>