<?xml version="1.0" encoding="UTF-8"?>
<svg width="53px" height="53px" viewBox="0 0 53 53" version="1.1" xmlns="http://www.w3.org/2000/svg" xmlns:xlink="http://www.w3.org/1999/xlink">
    <g stroke="none" stroke-width="1" fill="none" fill-rule="evenodd">
        <g transform="translate(-537.000000, -2375.000000)" fill="#FFFFFF" fill-rule="nonzero">
            <g transform="translate(519.000000, 2357.000000)">
                <g transform="translate(18.000000, 18.000000)">
                    <path d="M26.5,53 C11.8644541,53 0,41.1355459 0,26.5 C0,11.8644541 11.8644541,0 26.5,0 C41.1355459,0 53,11.8644541 53,26.5 C53,41.1355459 41.1355459,53 26.5,53 Z M26.5,51 C40.0309764,51 51,40.0309764 51,26.5 C51,12.9690236 40.0309764,2 26.5,2 C12.9690236,2 2,12.9690236 2,26.5 C2,40.0309764 12.9690236,51 26.5,51 Z"></path>
                    <path d="M34.648333,38.8903443 C35.1224671,39.3783134 35.1163965,40.1633171 34.6347739,40.643699 C34.1531513,41.1240809 33.3783575,41.1179303 32.9042234,40.6299612 L23.3516667,30.7986644 C23.1263094,30.5667312 23,30.254319 23,29.928856 L23,12.239847 C23,11.5550984 23.5478788,11 24.2237215,11 C24.8995643,11 25.4474431,11.5550984 25.4474431,12.239847 L25.4474431,29.4209758 L34.648333,38.8903443 Z"></path>
                </g>
            </g>
        </g>
    </g>
</svg>