<svg xmlns="http://www.w3.org/2000/svg" width="22" height="28" viewBox="0 0 22 28">
  <g fill="none" fill-rule="evenodd">
    <path fill="#383E45" d="M18,11.9355196 C16.795041,11.3367061 15.4368415,11 14,11 C9.02943725,11 5,15.0294373 5,20 C5,20.687388 5.07706144,21.3567773 5.22301642,22 L3,22 C1.34314575,22 0,20.6568542 0,19 L0,3 C0,1.34314575 1.34314575,0 3,0 L11,0 C11.2652165,0 11.5195704,0.10535684 11.7071068,0.292893219 L17.7071068,6.29289322 C17.8946432,6.4804296 18,6.73478351 18,7 L18,11.9355196 Z"/>
    <path fill="#FFF" d="M3,2 C2.44771525,2 2,2.44771525 2,3 L2,19 C2,19.5522847 2.44771525,20 3,20 L15,20 C15.5522847,20 16,19.5522847 16,19 L16,7.41421356 L10.5857864,2 L3,2 Z"/>
    <path fill="#E5322D" d="M14.5,28 C18.6421356,28 22,24.6421356 22,20.5 C22,16.3578644 18.6421356,13 14.5,13 C10.3578644,13 7,16.3578644 7,20.5 C7,24.6421356 10.3578644,28 14.5,28 Z"/>
    <path fill="#FFF" d="M15,23.5 L15,17.5 C15,17.2238576 14.7761424,17 14.5,17 C14.2238576,17 14,17.2238576 14,17.5 L14,23.5 C14,23.7761424 14.2238576,24 14.5,24 C14.7761424,24 15,23.7761424 15,23.5 Z"/>
    <path fill="#FFF" d="M11.5,21 L17.5,21 C17.7761424,21 18,20.7761424 18,20.5 C18,20.2238576 17.7761424,20 17.5,20 L11.5,20 C11.2238576,20 11,20.2238576 11,20.5 C11,20.7761424 11.2238576,21 11.5,21 Z"/>
    <path fill="#383E45" d="M12,6 L12,1 C12,0.44771525 11.5522847,0 11,0 C10.4477153,0 10,0.44771525 10,1 L10,7 C10,7.55228475 10.4477153,8 11,8 L17,8 C17.5522847,8 18,7.55228475 18,7 C18,6.44771525 17.5522847,6 17,6 L12,6 Z"/>
  </g>
</svg>
