<svg xmlns="http://www.w3.org/2000/svg" xmlns:xlink="http://www.w3.org/1999/xlink" width="28" height="28" viewBox="0 0 28 28">
  <defs>
    <polygon id="android-a" points="5.885 16.992 .128 16.992 .128 .08 5.885 .08 5.885 16.992"/>
  </defs>
  <g fill="none" fill-rule="evenodd">
    <circle cx="14" cy="14" r="14" fill="#7EBC42"/>
    <g transform="translate(7 5)">
      <path fill="#FFF" d="M11.4719231,13.0373548 C11.4719231,13.3402016 11.2308269,13.5857419 10.9334615,13.5857419 L3.01605769,13.5857419 C2.71869231,13.5857419 2.47732692,13.3402016 2.47732692,13.0373548 L2.47732692,5.84566935 C2.47732692,5.54282258 2.71869231,5.29728226 3.01605769,5.29728226 L10.9334615,5.29728226 C11.2308269,5.29728226 11.4719231,5.54282258 11.4719231,5.84566935 L11.4719231,13.0373548"/>
      <polygon fill="#FFF" points="2.469 9.075 11.481 9.075 11.481 5.297 2.469 5.297"/>
      <path fill="#FFF" d="M13.8777692 10.3472419C13.8777692 10.8863065 13.4486154 11.3232339 12.9193077 11.3232339 12.39 11.3232339 11.9609808 10.8863065 11.9609808 10.3472419L11.9609808 5.96110484C11.9609808 5.42204032 12.39 4.98497581 12.9193077 4.98497581 13.4486154 4.98497581 13.8777692 5.42204032 13.8777692 5.96110484L13.8777692 10.3472419M1.98853846 10.3472419C1.98853846 10.8863065 1.55951923 11.3232339 1.03007692 11.3232339.500903846 11.3232339.07175 10.8863065.07175 10.3472419L.07175 5.96110484C.07175 5.42204032.500903846 4.98497581 1.03007692 4.98497581 1.55951923 4.98497581 1.98853846 5.42204032 1.98853846 5.96110484L1.98853846 10.3472419M2.50626923 4.75684677C2.50626923 4.75684677 2.60575.872758065 6.97482692.886467742 11.3025769.900040323 11.44325 4.75684677 11.44325 4.75684677L2.50626923 4.75684677"/>
      <path fill="#7EBC42" d="M5.55140385 2.77415323C5.55140385 3.07672581 5.31044231 3.32199194 5.01348077 3.32199194 4.71638462 3.32199194 4.47555769 3.07672581 4.47555769 2.77415323 4.47555769 2.47158065 4.71638462 2.22631452 5.01348077 2.22631452 5.31044231 2.22631452 5.55140385 2.47158065 5.55140385 2.77415323M9.47396154 2.77415323C9.47396154 3.07672581 9.23286538 3.32199194 8.93603846 3.32199194 8.63894231 3.32199194 8.39811538 3.07672581 8.39811538 2.77415323 8.39811538 2.47158065 8.63894231 2.22631452 8.93603846 2.22631452 9.23286538 2.22631452 9.47396154 2.47158065 9.47396154 2.77415323"/>
      <path fill="#FFF" d="M4.86553846,1.40866935 C4.88128846,1.43142742 4.93001923,1.42416129 4.97457692,1.39194355 C5.01846154,1.36027419 5.04161538,1.31571774 5.02586538,1.29295968 L4.19111538,0.0930887097 C4.17509615,0.0700564516 4.12609615,0.0775967742 4.08221154,0.109403226 C4.03778846,0.141483871 4.01476923,0.185766129 4.03065385,0.208798387 L4.86553846,1.40866935"/>
      <g transform="translate(4.038)">
        <mask id="android-b" fill="#fff">
          <use xlink:href="#android-a"/>
        </mask>
        <path fill="#FFF" d="M5.04525 1.40866935C5.0295 1.43142742 4.98090385 1.42416129 4.93621154 1.39194355 4.89232692 1.36027419 4.86917308 1.31571774 4.88492308 1.29295968L5.71967308.0930887097C5.73569231.0700564516 5.78469231.0775967742 5.82871154.109403226 5.87313462.141483871 5.89615385.185766129 5.88013462.208798387L5.04525 1.40866935M5.74417308 16.0240081C5.74417308 16.5630726 5.31501923 17 4.78571154 17 4.25640385 17 3.82738462 16.5630726 3.82738462 16.0240081L3.82738462 11.6377339C3.82738462 11.0986694 4.25640385 10.6617419 4.78571154 10.6617419 5.31501923 10.6617419 5.74417308 11.0986694 5.74417308 11.6377339L5.74417308 16.0240081M2.04507692 16.0240081C2.04507692 16.5630726 1.61605769 17 1.08675 17 .557576923 17 .128423077 16.5630726.128423077 16.0240081L.128423077 11.6377339C.128423077 11.0986694.557576923 10.6617419 1.08675 10.6617419 1.61605769 10.6617419 2.04507692 11.0986694 2.04507692 11.6377339L2.04507692 16.0240081" mask="url(#android-b)"/>
      </g>
    </g>
  </g>
</svg>
