<svg xmlns="http://www.w3.org/2000/svg" width="28" height="28" viewBox="0 0 28 28">
  <g fill="none" fill-rule="evenodd">
    <circle cx="14" cy="14" r="14" fill="#000" opacity=".7"/>
    <g fill="#FFF" transform="translate(7 5)">
      <path d="M10.8579096,8.356596 C10.8397457,6.29417749 12.5108267,5.29080416 12.5872405,5.24409099 C11.6408374,3.83437706 10.1739439,3.64112531 9.65846421,3.62640746 C8.42644905,3.49394683 7.23138808,4.37957737 6.60379317,4.37957737 C5.96367141,4.37957737 4.99722536,3.63920559 3.95561823,3.66160232 C2.61587221,3.68271923 1.36130872,4.47556333 0.673584957,5.70610345 C-0.745080189,8.21645649 0.313438176,11.9055172 1.67260081,13.9346606 C2.35280847,14.9284353 3.14763676,16.0380331 4.1879912,15.9989988 C5.20579732,15.9554852 5.58536071,15.3360557 6.81424416,15.3360557 C8.03122711,15.3360557 8.38824218,15.9989988 9.44926591,15.9740425 C10.5416068,15.9554852 11.2293305,14.9757884 11.8857372,13.973055 C12.6717967,12.8340215 12.9874732,11.7122655 13,11.6546739 C12.97432,11.6457152 10.8785789,10.8291946 10.8579096,8.356596"/>
      <path d="M8.72388015,2.50773141 C9.23248235,1.83740848 9.58047333,0.925450402 9.48387383,0 C8.74773906,0.0343440838 7.82713415,0.536013023 7.29700074,1.19223034 C6.82796941,1.76994689 6.40898361,2.71686235 6.51722161,3.60735538 C7.34413664,3.67175053 8.1931648,3.16762845 8.72388015,2.50773141"/>
    </g>
  </g>
</svg>
