<?xml version="1.0" encoding="UTF-8"?>
<svg width="125px" height="23px" viewBox="0 0 125 23" version="1.1" xmlns="http://www.w3.org/2000/svg" xmlns:xlink="http://www.w3.org/1999/xlink">
    <!-- Generator: Sketch 47.1 (45422) - http://www.bohemiancoding.com/sketch -->
    <title>Credit cards</title>
    <desc>Pay using credit cards.</desc>
    <defs></defs>
    <g id="Compress" stroke="none" stroke-width="1" fill="none" fill-rule="evenodd">
        <g id="Limit-exceeded-II" transform="translate(-589.000000, -672.000000)">
            <g id="Group-21" transform="translate(280.000000, 74.000000)">
                <g id="Po-pup">
                    <g id="Group-20" transform="translate(24.000000, 216.000000)">
                        <g id="Group-19" transform="translate(39.000000, 361.000000)">
                            <g id="Group-23" transform="translate(246.000000, 21.000000)">
                                <g id="MasterCard-dark-Copy" transform="translate(43.000000, 0.000000)">
                                    <rect id="Rectangle" fill="#000066" x="0" y="0" width="39" height="23" rx="2.592"></rect>
                                    <path d="M21.8901622,11.6860708 C21.8901622,15.8177355 18.4828684,19.1666667 14.279469,19.1666667 C10.0759493,19.1666667 6.668415,15.8177355 6.668415,11.6860708 C6.668415,7.55452439 10.0759493,4.20523854 14.279469,4.20523854 C18.4828684,4.20523854 21.8901622,7.55452439 21.8901622,11.6860708" id="Fill-333" fill="#CC0000"></path>
                                    <path d="M24.4975014,4.20523854 C22.5305106,4.20523854 20.738882,4.93855611 19.387944,6.14156105 C19.1131137,6.38674896 18.8565654,6.65156137 18.6197423,6.93351565 L20.1574687,6.93351565 C20.3674703,7.184851 20.560994,7.44907231 20.7376792,7.72582492 L18.0394114,7.72582492 C17.8780013,7.98011576 17.7312648,8.24433707 17.6008858,8.51813418 L21.1759643,8.51813418 C21.2981646,8.77455298 21.4056911,9.03865607 21.4983035,9.31008879 L17.2785466,9.31008879 C17.1907453,9.56804445 17.1166553,9.83238397 17.0574796,10.1019252 L21.7191299,10.1019252 C21.8307459,10.6126348 21.8901622,11.1424961 21.8901622,11.6860708 C21.8901622,12.5165651 21.7524463,13.3159675 21.4983035,14.0625257 L17.2785466,14.0625257 C17.371159,14.333722 17.4786856,14.5981798 17.6006453,14.8549532 L21.1759643,14.8549532 C21.0453448,15.128041 20.8993299,15.3924988 20.7369576,15.6471443 L18.0394114,15.6471443 C18.215375,15.9230693 18.4092596,16.1876453 18.6197423,16.438626 L20.1569876,16.438626 C19.9206456,16.7208167 19.6638567,16.9856291 19.3881845,17.230817 C20.7390023,18.433822 22.5305106,19.1666667 24.4975014,19.1666667 C28.7007805,19.1666667 32.1081946,15.8177355 32.1081946,11.6860708 C32.1081946,7.55487905 28.7007805,4.20523854 24.4975014,4.20523854" id="Fill-334" fill="#FF9900"></path>
                                    <path d="M12.5021532,12.5050978 C12.4154343,12.4954037 12.3771866,12.49233 12.3176501,12.49233 C11.849296,12.49233 11.6124729,12.6502717 11.6124729,12.9622538 C11.6124729,13.154361 11.728058,13.2764821 11.9084717,13.2764821 C12.2451237,13.2764821 12.4877201,12.9615445 12.5021532,12.5050978 L12.5021532,12.5050978 Z M13.1031715,13.8801125 L12.4183209,13.8801125 L12.4340771,13.5603279 C12.2252782,13.8128455 11.9465992,13.9334297 11.5680911,13.9334297 C11.1204245,13.9334297 10.8133604,13.5898829 10.8133604,13.0906406 C10.8133604,12.3391171 11.3472647,11.9008762 12.2638868,11.9008762 C12.3578222,11.9008762 12.4778575,11.9093881 12.6007793,11.9246384 C12.6262778,11.8227329 12.6330133,11.7794645 12.6330133,11.7244923 C12.6330133,11.5202084 12.4891634,11.443602 12.1031983,11.443602 C11.6989512,11.4395825 11.3655467,11.5385325 11.2285525,11.5827467 C11.2372124,11.5314393 11.3431754,10.8886781 11.3431754,10.8886781 C11.7547592,10.769749 12.026342,10.7252983 12.3319629,10.7252983 C13.0415902,10.7252983 13.4174522,11.0383444 13.4166102,11.6301528 C13.4180536,11.7889221 13.391232,11.984103 13.3497369,12.2415858 C13.2780525,12.6884567 13.1240994,13.6468648 13.1031715,13.8801125 L13.1031715,13.8801125 Z" id="Fill-336" fill="#000066"></path>
                                    <polyline id="Fill-337" fill="#000066" points="10.4675674 13.8801125 9.64115221 13.8801125 10.1147984 10.963393 9.0576942 13.8801125 8.49468307 13.8801125 8.42504337 10.9797074 7.92758258 13.8801125 7.15420904 13.8801125 7.80021048 10.0856108 8.98841532 10.0856108 9.06021999 12.2095482 9.78512236 10.0856108 11.1065928 10.0856108 10.4675674 13.8801125"></polyline>
                                    <path d="M25.5184026,12.5050978 C25.4316837,12.4954037 25.3939171,12.49233 25.3345009,12.49233 C24.865786,12.49233 24.6292034,12.6502717 24.6292034,12.9622538 C24.6292034,13.154361 24.7443074,13.2764821 24.9252022,13.2764821 C25.2616137,13.2764821 25.5043303,12.9615445 25.5184026,12.5050978 L25.5184026,12.5050978 Z M26.1197817,13.8801125 L25.4351717,13.8801125 L25.4506873,13.5603279 C25.2418885,13.8128455 24.9633297,13.9334297 24.5850622,13.9334297 C24.1367942,13.9334297 23.8300909,13.5898829 23.8300909,13.0906406 C23.8300909,12.3391171 24.3642358,11.9008762 25.2806173,11.9008762 C25.3744324,11.9008762 25.4942271,11.9093881 25.6172693,11.9246384 C25.6428881,11.8227329 25.6495032,11.7794645 25.6495032,11.7244923 C25.6495032,11.5202084 25.5056533,11.443602 25.1196882,11.443602 C24.7154412,11.4395825 24.3821569,11.5385325 24.2446816,11.5827467 C24.2538226,11.5314393 24.3600261,10.8886781 24.3600261,10.8886781 C24.7713695,10.769749 25.0431928,10.7252983 25.3483326,10.7252983 C26.058441,10.7252983 26.4338219,11.0383444 26.4331002,11.6301528 C26.4345435,11.7889221 26.4079626,11.984103 26.3662269,12.2415858 C26.294783,12.6884567 26.1404691,13.6468648 26.1197817,13.8801125 L26.1197817,13.8801125 Z" id="Fill-338" fill="#000066"></path>
                                    <path d="M16.7751923,13.8331793 C16.5489535,13.9031654 16.3727494,13.9334297 16.1815108,13.9334297 C15.7592224,13.9334297 15.5286537,13.6948621 15.5286537,13.255439 C15.5227602,13.1190133 15.589393,12.7602162 15.6418332,12.4329837 C15.689703,12.1446455 16.0002552,10.3271339 16.0002552,10.3271339 L16.8213782,10.3271339 L16.7255184,10.7942205 L17.2216561,10.7942205 L17.1096793,11.5359316 L16.6118577,11.5359316 C16.516479,12.1226566 16.380447,12.853728 16.3788835,12.9506683 C16.3788835,13.1097922 16.4652415,13.1793054 16.6618925,13.1793054 C16.7560684,13.1793054 16.8289556,13.1698478 16.8846433,13.1502234 L16.7751923,13.8331793" id="Fill-339" fill="#000066"></path>
                                    <path d="M19.2932869,13.8082349 C19.0111198,13.8929985 18.7391762,13.9343754 18.4506345,13.9334297 C17.5311258,13.9322475 17.0518267,13.4605504 17.0518267,12.5567598 C17.0518267,11.5020026 17.6615048,10.7252983 18.4893633,10.7252983 C19.1663959,10.7252983 19.599028,11.1601108 19.599028,11.8417663 C19.599028,12.0683937 19.5694402,12.2892284 19.4976355,12.6008558 L17.8621249,12.6008558 C17.8069183,13.0485543 18.0982263,13.234987 18.5763227,13.234987 C18.869916,13.234987 19.1352445,13.1754042 19.4300405,13.0409882 L19.2932869,13.8082349 L19.2932869,13.8082349 Z M18.8316683,11.9789013 C18.836359,11.9144715 18.9186277,11.4279969 18.4491912,11.4279969 C18.1879521,11.4279969 18.0006826,11.6240054 17.9247886,11.9789013 L18.8316683,11.9789013 L18.8316683,11.9789013 Z" id="Fill-340" fill="#000066"></path>
                                    <path d="M13.5987078,11.7698887 C13.5987078,12.1598959 13.7911492,12.4290824 14.2277504,12.6313565 C14.5622374,12.7861063 14.6143169,12.8318574 14.6143169,12.9719479 C14.6143169,13.1640551 14.4666182,13.2513013 14.1398288,13.2513013 C13.8931431,13.2513013 13.6638973,13.2132345 13.3994108,13.1291802 C13.3994108,13.1291802 13.2910423,13.8096535 13.2858704,13.842164 C13.473621,13.8821223 13.6410449,13.9193615 14.1457223,13.9334297 C15.0174814,13.9334297 15.4201649,13.607143 15.4201649,12.9019617 C15.4201649,12.4780254 15.2517787,12.2291727 14.8377894,12.0419125 C14.4915153,11.8857441 14.4514634,11.850751 14.4514634,11.7067593 C14.4514634,11.5399511 14.5889387,11.4547146 14.8558307,11.4547146 C15.0180828,11.4547146 15.2395106,11.4717383 15.4496325,11.5009386 L15.5671419,10.7852358 C15.3532915,10.7517795 15.0287874,10.7252983 14.8399543,10.7252983 C13.9157549,10.7252983 13.5957009,11.1997145 13.5987078,11.7698887" id="Fill-341" fill="#000066"></path>
                                    <path d="M23.3118224,10.8067518 C23.5413086,10.8067518 23.7556401,10.8653888 24.0501956,11.0116267 L24.1855059,10.1881074 C24.0640274,10.1412924 23.6381307,9.86690416 23.2773032,9.86690416 C22.7245155,9.86690416 22.2566426,10.1369182 21.9281693,10.581543 C21.4485093,10.4254928 21.2511367,10.7409033 21.0096229,11.0553681 L20.7949305,11.1045475 C20.8111678,11.0011052 20.8259617,10.8983721 20.8212709,10.7942205 L20.0620899,10.7942205 C19.9586527,11.7495549 19.7749916,12.7168295 19.6312619,13.6725185 L19.5936156,13.8801125 L20.4202713,13.8801125 C20.5582277,12.998902 20.6336406,12.4348752 20.679586,12.0527887 L20.9908598,11.8832615 C21.0376471,11.7129067 21.18282,11.6556883 21.4748497,11.6626633 C21.4367223,11.8638734 21.4160349,12.0758416 21.4160349,12.2951394 C21.4160349,13.3048549 21.9709875,13.9334297 22.8600664,13.9334297 C23.0891918,13.9334297 23.2859631,13.9038747 23.5906217,13.8223031 L23.7354338,12.9576433 C23.4614455,13.0899312 23.2371311,13.1522331 23.0337447,13.1522331 C22.553363,13.1522331 22.2626564,12.8036028 22.2626564,12.2277541 C22.2626564,11.3920581 22.6946871,10.8067518 23.3118224,10.8067518" id="Fill-342" fill="#000066"></path>
                                    <path d="M30.3073047,10.0856108 L30.1236435,11.1818633 C29.8981264,10.8897421 29.6554097,10.6781286 29.334995,10.6781286 C28.918119,10.6781286 28.5386487,10.9888103 28.2901589,11.446321 C27.9441254,11.3757438 27.5865453,11.2557507 27.5865453,11.2557507 L27.5863048,11.2587062 C27.6138479,11.0029967 27.6255147,10.8474194 27.6227484,10.7942205 L26.8636876,10.7942205 C26.7606113,11.7495549 26.5767095,12.7168295 26.4331002,13.6725185 L26.395093,13.8801125 L27.2219893,13.8801125 C27.3336053,13.1679563 27.4188808,12.5759114 27.4817851,12.1070516 C27.7644333,11.8559527 27.9058776,11.6376007 28.1908111,11.6517871 C28.0644012,11.9523019 27.9906721,12.2982131 27.9906721,12.653109 C27.9906721,13.4242569 28.3873418,13.9334297 28.9882398,13.9334297 C29.2910943,13.9334297 29.5234672,13.8306967 29.7500668,13.5928384 L29.7110975,13.8798761 L30.4928903,13.8798761 L31.1222937,10.0856108 L30.3073047,10.0856108 L30.3073047,10.0856108 Z M29.2740151,13.167247 C28.9928102,13.167247 28.8504037,12.9622538 28.8504037,12.5588878 C28.8504037,11.9523019 29.1165741,11.5223364 29.4912332,11.5223364 C29.7752045,11.5223364 29.9291575,11.7346592 29.9291575,12.1266761 C29.9291575,12.7384637 29.6585369,13.167247 29.2740151,13.167247 L29.2740151,13.167247 Z" id="Fill-343" fill="#000066"></path>
                                    <polyline id="Fill-344" fill="#FFFFFF" points="10.7052324 13.6549038 9.87905778 13.6549038 10.3525837 10.7381843 9.29572005 13.6549038 8.73246837 13.6549038 8.66294895 10.7550897 8.16536788 13.6549038 7.39199434 13.6549038 8.03799578 9.86075673 9.22620062 9.86075673 9.25939675 12.2095482 10.0611554 9.86075673 11.3443781 9.86075673 10.7052324 13.6549038"></polyline>
                                    <path d="M12.7399385,12.2803619 C12.6533399,12.2704314 12.6150922,12.2677124 12.5555556,12.2677124 C12.0872016,12.2677124 11.8502582,12.4254176 11.8502582,12.7371633 C11.8502582,12.9290341 11.9659636,13.0518645 12.1464976,13.0518645 C12.4830293,13.0518645 12.7256257,12.7369268 12.7399385,12.2803619 L12.7399385,12.2803619 Z M13.3408365,13.6549038 L12.6563468,13.6549038 L12.6719826,13.3353556 C12.4631838,13.5877549 12.1845047,13.7084574 11.8059967,13.7084574 C11.3582098,13.7084574 11.0512659,13.3644377 11.0512659,12.8653136 C11.0512659,12.1136719 11.5852906,11.6760221 12.5019126,11.6760221 C12.5956075,11.6760221 12.7156428,11.6844157 12.8386849,11.7000208 C12.8641834,11.5978788 12.8709188,11.5544922 12.8709188,11.4992835 C12.8709188,11.2951179 12.727069,11.2191025 12.3411038,11.2191025 C11.9367365,11.2143737 11.6034522,11.3133237 11.4663378,11.3574197 C11.4751179,11.3063487 11.5809607,10.6635876 11.5809607,10.6635876 C11.9926648,10.5448949 12.2642476,10.5000895 12.5698685,10.5000895 C13.2793755,10.5000895 13.6551172,10.8134903 13.6545158,11.4050623 C13.6558389,11.5635951 13.6292579,11.7597218 13.5876425,12.0164952 C13.5158378,12.4630115 13.3618847,13.4220107 13.3408365,13.6549038 L13.3408365,13.6549038 Z" id="Fill-345" fill="#FFFFFF"></path>
                                    <path d="M24.423171,9.96289866 L24.2878607,10.7862997 C23.9928241,10.6405347 23.7790939,10.581543 23.5498482,10.581543 C22.9329535,10.581543 22.5002011,11.1675587 22.5002011,12.0033728 C22.5002011,12.5792216 22.7910281,12.9271425 23.2714097,12.9271425 C23.4749164,12.9271425 23.6997119,12.8653136 23.9730988,12.7325527 L23.8279259,13.5972125 C23.5237484,13.678666 23.3268568,13.7084574 23.0978517,13.7084574 C22.2081714,13.7084574 21.6540607,13.0797643 21.6540607,12.0702853 C21.6540607,10.713831 22.4200974,9.76582621 23.5150885,9.76582621 C23.875916,9.76582621 24.3020532,9.91608361 24.423171,9.96289866" id="Fill-346" fill="#FFFFFF"></path>
                                    <path d="M25.7560676,12.2803619 C25.6699501,12.2704314 25.6315821,12.2677124 25.5721659,12.2677124 C25.1040524,12.2677124 24.8669887,12.4254176 24.8669887,12.7371633 C24.8669887,12.9290341 24.9825738,13.0518645 25.1629875,13.0518645 C25.499399,13.0518645 25.7422359,12.7369268 25.7560676,12.2803619 L25.7560676,12.2803619 Z M26.3574467,13.6549038 L25.672957,13.6549038 L25.6884726,13.3353556 C25.4796738,13.5877549 25.2009947,13.7084574 24.8228475,13.7084574 C24.3745795,13.7084574 24.0679965,13.3644377 24.0679965,12.8653136 C24.0679965,12.1136719 24.60154,11.6760221 25.5184026,11.6760221 C25.6120975,11.6760221 25.7318922,11.6844157 25.8548141,11.7000208 C25.8804328,11.5978788 25.8871683,11.5544922 25.8871683,11.4992835 C25.8871683,11.2951179 25.7436792,11.2191025 25.3574735,11.2191025 C24.9534671,11.2143737 24.620303,11.3133237 24.482948,11.3574197 C24.4916079,11.3063487 24.5975709,10.6635876 24.5975709,10.6635876 C25.009275,10.5448949 25.2806173,10.5000895 25.5862381,10.5000895 C26.2957452,10.5000895 26.6718477,10.8134903 26.6708855,11.4050623 C26.6725694,11.5635951 26.6457479,11.7597218 26.6041324,12.0164952 C26.5325683,12.4630115 26.3786153,13.4220107 26.3574467,13.6549038 L26.3574467,13.6549038 Z" id="Fill-347" fill="#FFFFFF"></path>
                                    <path d="M17.0128573,13.6080887 C16.786859,13.6780749 16.6104144,13.7084574 16.4194164,13.7084574 C15.9970077,13.7084574 15.7663187,13.4697715 15.7663187,13.0308213 C15.7605455,12.8939228 15.8272985,12.5357167 15.8798591,12.2081296 C15.927368,11.919555 16.2380405,10.1022798 16.2380405,10.1022798 L17.0594041,10.1022798 L16.9633037,10.5692481 L17.3849907,10.5692481 L17.2726531,11.3107229 L16.849643,11.3107229 C16.7542643,11.898039 16.6182323,12.6286375 16.6165485,12.7255777 C16.6165485,12.8851745 16.7032673,12.9542149 16.8996778,12.9542149 C16.9938537,12.9542149 17.0666206,12.945112 17.1225489,12.9250146 L17.0128573,13.6080887" id="Fill-348" fill="#FFFFFF"></path>
                                    <path d="M19.531433,13.5836172 C19.2491457,13.6686173 18.9766006,13.7086938 18.6884198,13.7084574 C17.7687908,13.7078663 17.2898525,13.2355781 17.2898525,12.3319057 C17.2898525,11.2767938 17.8994104,10.5000895 18.7266675,10.5000895 C19.4044217,10.5000895 19.8368133,10.9349021 19.8368133,11.6173851 C19.8368133,11.8435396 19.8067444,12.064256 19.7357816,12.3760017 L18.1000305,12.3760017 C18.0445833,12.8237002 18.3362522,13.0104875 18.8138675,13.0104875 C19.1077013,13.0104875 19.3729095,12.9506683 19.6680663,12.8158977 L19.531433,13.5836172 L19.531433,13.5836172 Z M19.0696941,11.7536926 C19.0741443,11.6891445 19.1567738,11.2029064 18.6874576,11.2029064 C18.4259779,11.2029064 18.2387085,11.3992695 18.1625739,11.7536926 L19.0696941,11.7536926 L19.0696941,11.7536926 Z" id="Fill-349" fill="#FFFFFF"></path>
                                    <path d="M13.8363729,11.5446799 C13.8363729,11.9353964 14.0290547,12.2039919 14.4657762,12.4065024 C14.8002633,12.561134 14.8521022,12.606885 14.8521022,12.7470937 C14.8521022,12.9394374 14.7045237,13.0262108 14.3774938,13.0262108 C14.1310486,13.0262108 13.9016826,12.9886169 13.6370758,12.904799 C13.6370758,12.904799 13.5288276,13.5847994 13.523776,13.616837 C13.7114063,13.6572682 13.8789505,13.6941528 14.3833873,13.7084574 C15.255387,13.7084574 15.6580705,13.3822889 15.6580705,12.6771076 C15.6580705,12.2529349 15.4894438,12.0042004 15.0755747,11.817413 C14.7291803,11.6607718 14.689369,11.6261334 14.689369,11.4819052 C14.689369,11.315097 14.826724,11.2292694 15.0938566,11.2292694 C15.2557478,11.2292694 15.4774162,11.2470024 15.6874178,11.2760845 L15.8050475,10.5604999 C15.5910768,10.5272801 15.2668132,10.5000895 15.0778599,10.5000895 C14.1534199,10.5000895 13.8336065,10.9746239 13.8363729,11.5446799" id="Fill-350" fill="#FFFFFF"></path>
                                    <path d="M30.7306756,13.6549038 L29.9491233,13.6549038 L29.9878521,13.3677478 C29.7611322,13.6057243 29.5288796,13.7084574 29.2260251,13.7084574 C28.6256082,13.7084574 28.2283371,13.1998757 28.2283371,12.4279002 C28.2283371,11.4015157 28.8442696,10.536383 29.5727803,10.536383 C29.893195,10.536383 30.1357914,10.6650062 30.3617896,10.9572456 L30.54509,9.86075673 L31.3599587,9.86075673 L30.7306756,13.6549038 L30.7306756,13.6549038 Z M29.5116801,12.94192 C29.896683,12.94192 30.1668225,12.5133732 30.1668225,11.9021767 C30.1668225,11.5100415 30.0129898,11.2970094 29.7290185,11.2970094 C29.3542391,11.2970094 29.088189,11.7270931 29.088189,12.3339155 C29.088189,12.7377544 29.2307158,12.94192 29.5116801,12.94192 L29.5116801,12.94192 Z" id="Fill-351" fill="#FFFFFF"></path>
                                    <path d="M27.1017135,10.5692481 C26.9983966,11.5243461 26.8146151,12.4916207 26.6708855,13.447428 L26.6332392,13.6549038 L27.4596543,13.6549038 C27.7552923,11.7678789 27.8263753,11.3996242 28.2901589,11.4456117 C28.363888,11.0593875 28.5013632,10.7211606 28.603718,10.5506876 C28.2576844,10.4797557 28.0644012,10.6719812 27.8111003,11.0372804 C27.8313066,10.8792205 27.8677502,10.7258894 27.8608945,10.5692481 L27.1017135,10.5692481" id="Fill-352" fill="#FFFFFF"></path>
                                    <path d="M20.3002361,10.5692481 C20.196438,11.5243461 20.012416,12.4916207 19.868927,13.447428 L19.8314009,13.6549038 L20.6580566,13.6549038 C20.9538149,11.7678789 21.0246573,11.3996242 21.4877193,11.4456117 C21.5619294,11.0593875 21.6996453,10.7211606 21.8017594,10.5506876 C21.4560867,10.4797557 21.2624426,10.6719812 21.0096229,11.0372804 C21.0295886,10.8792205 21.0662728,10.7258894 21.0590562,10.5692481 L20.3002361,10.5692481" id="Fill-353" fill="#FFFFFF"></path>
                                </g>
                                <g id="Visa-dark-Copy">
                                    <rect id="Rectangle" fill="#26337A" x="0" y="0" width="39" height="23" rx="2.592"></rect>
                                    <polyline id="Fill-3" fill="#FFFFFE" points="16.1810964 15.1595915 17.380244 7.84785915 19.2970382 7.84785915 18.0980003 15.1595915 16.1810964 15.1595915"></polyline>
                                    <path d="M25.0508197,8.02732394 C24.6718241,7.88057746 24.0757586,7.7205493 23.3332255,7.7205493 C21.4381382,7.7205493 20.1041441,8.71278873 20.0930714,10.1336056 C20.0810119,11.1845869 21.0450003,11.7707089 21.7717464,12.1200282 C22.5186647,12.4780939 22.7696108,12.70723 22.7666508,13.0273944 C22.7614981,13.5170892 22.1704756,13.7414742 21.6193588,13.7414742 C20.8519395,13.7414742 20.4442206,13.6310094 19.8138404,13.3580329 L19.5672795,13.2416291 L19.2992309,14.8783005 C19.7461978,15.0819531 20.5747915,15.2587183 21.4347397,15.2680047 C23.448777,15.2680047 24.7574462,14.2877512 24.7727946,12.770507 C24.7797014,11.937108 24.268929,11.3054178 23.1627488,10.7838685 C22.4929013,10.4448075 22.0817838,10.2202066 22.086498,9.87704225 C22.0869365,9.5731831 22.43381,9.24783568 23.1845654,9.24783568 C23.8115471,9.23790141 24.2654208,9.38022066 24.6190915,9.52880282 L24.7912127,9.61238028 L25.0508197,8.02732394" id="Fill-4" fill="#FFFFFE"></path>
                                    <path d="M27.6031468,12.5672864 C27.7620026,12.1470235 28.3667291,10.5235258 28.3667291,10.5235258 C28.3555467,10.5428545 28.5247078,10.1000235 28.6215123,9.82596714 L28.7508773,10.4565775 C28.7508773,10.4565775 29.1186904,12.20177 29.1944457,12.5672864 L27.6031468,12.5672864 L27.6031468,12.5672864 Z M29.9678947,7.85530986 L28.4865561,7.85530986 C28.0270912,7.85530986 27.6831777,7.98467136 27.4818946,8.46140845 L24.6353169,15.1621831 L26.6485868,15.1621831 C26.6485868,15.1621831 26.9770423,14.2607559 27.0515916,14.0629343 C27.2711831,14.0629343 29.2274447,14.0667136 29.5066757,14.0667136 C29.5641225,14.3218732 29.7400808,15.1621831 29.7400808,15.1621831 L31.5191782,15.1621831 L29.9678947,7.85530986 L29.9678947,7.85530986 Z" id="Fill-5" fill="#FFFFFE"></path>
                                    <path d="M14.573024,7.85401408 L12.6969029,12.8388592 L12.4959487,11.8255634 C12.1463343,10.6580704 11.0580241,9.3926385 9.8406777,8.75857277 L11.5570659,15.1532207 L13.5856841,15.1520329 L16.6042734,7.85401408 L14.573024,7.85401408" id="Fill-6" fill="#FFFFFE"></path>
                                    <path d="M10.9552995,7.84904695 L7.86424396,7.84904695 L7.83880949,8.0005446 C10.2440114,8.60621127 11.8354199,10.068169 12.4959487,11.8255634 L11.8242375,8.46594366 C11.7083571,8.00259624 11.3715697,7.86524413 10.9552995,7.84904695" id="Fill-7" fill="#EC982D"></path>
                                </g>
                                <g id="Maestro-dark-Copy-2" transform="translate(86.000000, 0.000000)">
                                    <rect id="Rectangle" fill="#000066" x="0" y="0" width="39" height="23" rx="2.592"></rect>
                                    <path d="M32.626031,11.4937643 C32.626031,15.7316432 29.1449474,19.1666667 24.8497593,19.1666667 C20.5554315,19.1666667 17.0738563,15.7316432 17.0738563,11.4937643 C17.0738563,7.25576416 20.5554315,3.82061947 24.8497593,3.82061947 C29.1449474,3.82061947 32.626031,7.25576416 32.626031,11.4937643" id="Fill-356" fill="#CC0000"></path>
                                    <path d="M18.8427885,16.3664338 C18.6280783,16.1094861 18.4303285,15.8379873 18.2505225,15.5537564 L21.0064828,15.5537564 C21.1719092,15.2932921 21.3212355,15.0219146 21.4545844,14.7412002 L17.8026667,14.7412002 C17.6781667,14.4783108 17.5675547,14.2071758 17.4734115,13.9288865 L21.7832251,13.9288865 C22.0427946,13.1637425 22.1830261,12.3452446 22.1830261,11.4937643 C22.1830261,10.9362157 22.122804,10.3924906 22.0085049,9.86889445 L17.2487462,9.86889445 C17.3089683,9.59206027 17.3849219,9.32116779 17.4743948,9.05633825 L21.7827334,9.05633825 C21.6882216,8.77804897 21.5782241,8.50703522 21.453847,8.24414583 L17.8034041,8.24414583 C17.9367531,7.96343137 18.086448,7.69253888 18.2513828,7.43146837 L21.0056225,7.43146837 C20.8259394,7.14796495 20.627698,6.87695121 20.4133565,6.61963972 L18.8437717,6.61963972 C19.0852747,6.33043714 19.347671,6.05893836 19.6286256,5.80756856 C18.2484332,4.57278871 16.416575,3.82061947 14.407246,3.82061947 C10.1123037,3.82061947 6.63072849,7.25576416 6.63072849,11.4937643 C6.63072849,15.7316432 10.1123037,19.1666667 14.407246,19.1666667 C16.4166979,19.1666667 18.248679,18.4144974 19.6286256,17.1802026 C19.9099488,16.9283478 20.1727139,16.6562427 20.4142168,16.3664338 L18.8427885,16.3664338" id="Fill-357" fill="#0066CC"></path>
                                    <path d="M19.5177677,13.5672923 C19.18544,13.6541137 18.8640506,13.6965543 18.5243488,13.6958268 C17.4404737,13.6948567 16.8759837,13.2077595 16.8759837,12.2762483 C16.8759837,11.1879493 17.5945932,10.387519 18.5700684,10.387519 C19.3679499,10.387519 19.8772568,10.8362983 19.8772568,11.5394789 C19.8772568,11.7727812 19.8428442,12.0001417 19.7584103,12.3214779 L17.8309342,12.3214779 C17.7623548,12.7764415 18.098984,12.9761549 18.6720773,12.9761549 C19.0153433,12.9761549 19.3256715,12.915283 19.669552,12.7788666 L19.5177677,13.5672923 L19.5177677,13.5672923 Z M18.9994889,11.6796543 C18.9994889,11.6110217 19.1066597,11.1225907 18.5488063,11.1120412 C18.2408133,11.1120412 18.0199579,11.3140586 17.930608,11.6796543 L18.9994889,11.6796543 L18.9994889,11.6796543 Z" id="Fill-359" fill="#000066"></path>
                                    <path d="M20.1707474,11.4662385 C20.1707474,11.868212 20.400083,12.1460162 20.9215573,12.3527627 C21.3201293,12.5137946 21.3828095,12.5604793 21.3828095,12.7044136 C21.3828095,12.9038846 21.2068135,12.9953139 20.8157385,12.9928887 C20.522125,12.9908273 20.2540752,12.9555409 19.9378476,12.8690833 L19.797862,13.6023361 C20.0790623,13.6667246 20.4732099,13.6878237 20.822621,13.6958268 C21.8634802,13.6958268 22.3440281,13.3595757 22.3440281,12.6327496 C22.3440281,12.1957324 22.1435745,11.9387847 21.6492616,11.7471955 C21.2360642,11.5842235 21.1876407,11.5491797 21.1876407,11.4016075 C21.1876407,11.2284498 21.3513465,11.1409008 21.6705237,11.1409008 C21.8640947,11.1409008 22.1289491,11.1583621 22.3804071,11.1884343 L22.521376,10.4511799 C22.2652477,10.4161361 21.8767537,10.388004 21.6517196,10.388004 C20.5490406,10.388004 20.1674291,10.8777689 20.1707474,11.4662385" id="Fill-360" fill="#000066"></path>
                                    <path d="M16.3476269,13.6433217 L15.5390529,13.6433217 L15.5583486,13.309132 C15.3118066,13.572749 14.9832889,13.6955843 14.5376453,13.6955843 C14.0101488,13.6955843 13.6488162,13.3396893 13.6488162,12.8278553 C13.6488162,12.0498579 14.2769696,11.6010785 15.3570347,11.6010785 C15.4680154,11.6010785 15.6092301,11.6093241 15.7542548,11.6254515 C15.7842429,11.5212901 15.7923545,11.4764243 15.7923545,11.4199176 C15.7923545,11.2069869 15.6223806,11.1285324 15.1678881,11.1285324 C14.7197864,11.13023 14.4174469,11.1958311 14.136861,11.2701628 L14.2750032,10.5564327 C14.7602213,10.4346887 15.0778007,10.387519 15.4372898,10.387519 C16.2736397,10.387519 16.7153504,10.7112803 16.7153504,11.3192727 C16.7223558,11.4816384 16.6652063,11.80734 16.6363243,11.9499405 C16.6036323,12.157172 16.3718386,13.3595757 16.3476269,13.6433217 L16.3476269,13.6433217 Z M15.6378663,12.2238644 C15.5354887,12.2139212 15.4908752,12.2108897 15.420698,12.2108897 C14.8692356,12.2108897 14.589633,12.3728917 14.589633,12.6926515 C14.589633,12.8934563 14.7260545,13.0189594 14.9387983,13.0189594 C15.3350352,13.0189594 15.6211516,12.691924 15.6378663,12.2238644 L15.6378663,12.2238644 Z" id="Fill-361" fill="#000066"></path>
                                    <path d="M24.0476992,13.5928779 C23.7824761,13.664542 23.5756316,13.6958268 23.3520724,13.6958268 C22.8567763,13.6958268 22.5862684,13.4460334 22.5862684,13.0012555 C22.5706598,12.8790265 22.6917185,12.3144449 22.7192487,12.157172 C22.746533,11.9994141 23.1755847,9.69961696 23.1755847,9.69961696 L24.1379094,9.69961696 L23.9923932,10.4606381 L24.4859686,10.4606381 L24.3518823,11.2370591 L23.8560945,11.2370591 C23.8560945,11.2370591 23.5841118,12.5850948 23.5841118,12.6881649 C23.5841118,12.8515007 23.6844001,12.9225585 23.9148418,12.9225585 C24.0249622,12.9225585 24.1101335,12.9123727 24.1758862,12.8929713 L24.0476992,13.5928779" id="Fill-362" fill="#000066"></path>
                                    <path d="M28.3476805,10.387519 C27.6423444,10.387519 27.0912507,10.6742964 26.7710903,11.1525417 L27.0489723,10.4429343 C26.5369615,10.2575294 26.206846,10.5222376 25.9085623,10.8983829 C25.9085623,10.8983829 25.858541,10.9608313 25.8086427,11.0179442 L25.8086427,10.4602743 L24.9050653,10.4602743 C24.7826547,11.4445332 24.5662238,12.4427368 24.3969874,13.4291784 L24.3560609,13.6436854 L25.3280949,13.6436854 C25.4203945,13.1431285 25.4961023,12.736911 25.5715643,12.4129071 C25.7780401,11.5240791 26.1256077,11.252459 26.6473277,11.3727479 C26.5268835,11.627998 26.460885,11.9238698 26.460885,12.2511477 C26.460885,13.0457576 26.8979254,13.6958268 27.9837669,13.6958268 C29.0793176,13.6958268 29.8726517,13.1183917 29.8726517,11.8016408 C29.8726517,11.007516 29.3439262,10.387519 28.3476805,10.387519 L28.3476805,10.387519 Z M28.0647595,12.9235286 C27.7214935,12.9287427 27.5132971,12.6445117 27.5132971,12.2191353 C27.5132971,11.7151832 27.8169885,11.1456299 28.3050334,11.1456299 C28.6988122,11.1456299 28.833636,11.4537489 28.833636,11.7819968 C28.833636,12.4988797 28.5358438,12.9235286 28.0647595,12.9235286 L28.0647595,12.9235286 Z" id="Fill-363" fill="#000066"></path>
                                    <polyline id="Fill-364" fill="#000066" points="13.1959213 13.6436854 12.2278202 13.6436854 12.8031257 10.6529548 11.4786081 13.6436854 10.5961699 13.6436854 10.4349221 10.6705373 9.85777309 13.6436854 8.97951355 13.6436854 9.7274967 9.75345593 11.2403006 9.75345593 11.3662754 11.9221722 12.3246672 9.75345593 13.9588986 9.75345593 13.1959213 13.6436854"></polyline>
                                    <path d="M19.7606226,13.3275634 C19.4285407,13.414506 19.1070284,13.4569467 18.7674494,13.4562191 C17.6835744,13.455249 17.1190843,12.9680306 17.1190843,12.0366406 C17.1190843,10.9483416 17.8375709,10.1479113 18.8129233,10.1479113 C19.6109276,10.1479113 20.1203575,10.5966906 20.1203575,11.29975 C20.1203575,11.5330522 20.085822,11.7599277 20.001511,12.0818702 L18.0741578,12.0818702 C18.0054554,12.5363487 18.3418389,12.736426 18.9149321,12.736426 C19.2581981,12.736426 19.5687722,12.675554 19.9125298,12.5388952 L19.7606226,13.3275634 L19.7606226,13.3275634 Z M19.2423438,11.4400466 C19.2423438,11.3712928 19.3495145,10.882983 18.791907,10.8723122 C18.4839139,10.8723122 18.2630586,11.0743296 18.1734628,11.4400466 L19.2423438,11.4400466 L19.2423438,11.4400466 Z" id="Fill-366" fill="#FFFFFF"></path>
                                    <path d="M20.4138481,11.2263883 C20.4138481,11.628483 20.6430608,11.9060447 21.1644122,12.1130338 C21.56323,12.2741869 21.6257873,12.3207503 21.6257873,12.4643209 C21.6257873,12.6641557 21.4496683,12.7555849 21.058962,12.753281 C20.7649798,12.7510983 20.49693,12.715812 20.1809483,12.6293544 L20.0407168,13.3623647 C20.3220401,13.4269957 20.7164334,13.4480948 21.0654759,13.4562191 C22.1063351,13.4562191 22.5871287,13.1198468 22.5871287,12.3927782 C22.5871287,11.9560034 22.3865522,11.6988132 21.8922394,11.5074666 C21.479042,11.3446158 21.4304956,11.309087 21.4304956,11.1619998 C21.4304956,10.9888421 21.5944472,10.9009293 21.9135014,10.9009293 C22.1070725,10.9009293 22.371804,10.9187544 22.6233849,10.9488266 L22.7643538,10.2115722 C22.5082255,10.1760434 22.1197314,10.1482751 21.8949432,10.1482751 C20.7920183,10.1482751 20.4104068,10.6377974 20.4138481,11.2263883" id="Fill-367" fill="#FFFFFF"></path>
                                    <path d="M16.5907275,13.4035927 L15.7819078,13.4035927 L15.8014492,13.0694031 C15.5547844,13.3327775 15.2265125,13.4554916 14.780746,13.4554916 C14.2533724,13.4554916 13.891671,13.0997178 13.891671,12.5878838 C13.891671,11.8101289 14.5199474,11.3613496 15.6000124,11.3613496 C15.7109932,11.3613496 15.852085,11.3697164 15.9973554,11.3852376 C16.0273436,11.2813187 16.0353322,11.2368166 16.0353322,11.1801887 C16.0353322,10.9667729 15.8654813,10.8886822 15.4111117,10.8886822 C14.9628871,10.8905011 14.6605476,10.9561022 14.3800846,11.0305552 L14.517858,10.3167037 C15.0031991,10.1949598 15.3206556,10.1479113 15.6803905,10.1479113 C16.5167404,10.1479113 16.9583282,10.4713089 16.9583282,11.0795438 C16.9655794,11.2420308 16.9080612,11.567126 16.8795478,11.7102115 C16.8464871,11.9174431 16.6148164,13.1198468 16.5907275,13.4035927 L16.5907275,13.4035927 Z M15.8808441,11.9842568 C15.7785894,11.9738285 15.733853,11.9711608 15.6635529,11.9711608 C15.1123363,11.9711608 14.8326107,12.1329202 14.8326107,12.4524376 C14.8326107,12.6536061 14.969278,12.7793517 15.1816531,12.7793517 C15.5781358,12.7793517 15.8642523,12.4519525 15.8808441,11.9842568 L15.8808441,11.9842568 Z" id="Fill-368" fill="#FFFFFF"></path>
                                    <path d="M24.2906769,13.353149 C24.025331,13.4249343 23.8186094,13.4562191 23.5949272,13.4562191 C23.0996311,13.4562191 22.8293691,13.2063044 22.8293691,12.7615266 C22.8136376,12.6392976 22.9346963,12.0747159 22.9621035,11.9174431 C22.9896336,11.7596852 23.4186854,9.45988802 23.4186854,9.45988802 L24.3808872,9.45988802 L24.2354938,10.2206666 L24.7290693,10.2206666 L24.59486,10.9973302 L24.0991952,10.9973302 C24.0991952,10.9973302 23.8269667,12.3453659 23.8269667,12.447951 C23.8269667,12.6118931 23.9273779,12.6824658 24.1578196,12.6824658 C24.26794,12.6824658 24.3529884,12.6727651 24.4191098,12.6531211 L24.2906769,13.353149" id="Fill-369" fill="#FFFFFF"></path>
                                    <path d="M29.0768596,11.5417829 C29.0768596,12.2592721 28.7786987,12.6839209 28.3076144,12.6839209 C27.9643483,12.6887712 27.7562748,12.404904 27.7562748,11.9795277 C27.7562748,11.4755755 28.0599663,10.905901 28.5478883,10.905901 C28.94179,10.905901 29.0768596,11.2140199 29.0768596,11.5417829 L29.0768596,11.5417829 Z M30.1156295,11.5619119 C30.1156295,10.7679083 29.5867811,10.1479113 28.5907812,10.1479113 C27.4449634,10.1479113 26.7038628,10.9014144 26.7038628,12.01154 C26.7038628,12.8060286 27.1409032,13.4562191 28.2268676,13.4562191 C29.3224183,13.4562191 30.1156295,12.878784 30.1156295,11.5619119 L30.1156295,11.5619119 Z" id="Fill-370" fill="#FFFFFF"></path>
                                    <path d="M25.1479202,10.2203029 C25.0256324,11.2048043 24.8090787,12.2028866 24.6399652,13.1892069 L24.5991616,13.4040778 L25.5710727,13.4040778 C25.9213441,11.4989785 26.0389616,10.9563447 26.7730568,11.1473275 L27.1261549,10.2460098 C26.6140212,10.0606048 26.2845203,10.3254344 25.9862365,10.7018221 C26.0131521,10.5324234 26.0637878,10.3688451 26.0516205,10.2203029 L25.1479202,10.2203029" id="Fill-371" fill="#FFFFFF"></path>
                                    <polyline id="Fill-372" fill="#FFFFFF" points="13.4388991 13.4040778 12.4710438 13.4040778 13.0462264 10.4133471 11.7215858 13.4040778 10.8391476 13.4040778 10.677777 10.4308084 10.100628 13.4040778 9.22249132 13.4040778 9.97035156 9.51372699 11.4832784 9.51372699 11.5631648 11.9221722 12.6281129 9.51372699 14.2018763 9.51372699 13.4388991 13.4040778"></polyline>
                                </g>
                            </g>
                        </g>
                    </g>
                </g>
            </g>
        </g>
    </g>
</svg>