<?xml version="1.0" encoding="UTF-8"?>
<svg width="8px" height="19px" viewBox="0 0 8 19" version="1.1" xmlns="http://www.w3.org/2000/svg" xmlns:xlink="http://www.w3.org/1999/xlink">
    <defs></defs>
    <g id="User-Interface-Design" stroke="none" stroke-width="1" fill="none" fill-rule="evenodd" fill-opacity="0.3">
        <g id="Symbols-II-Copy" transform="translate(-464.000000, -753.000000)" fill="#161616">
            <g id="Group-8" transform="translate(402.000000, 741.000000)">
                <g id="Group-4-Copy-2" transform="translate(62.000000, 12.000000)">
                    <path d="M8,14.5555556 C8,14.2517361 7.7734375,14 7.5,14 L0.5,14 C0.2265625,14 0,14.2517361 0,14.5555556 C0,14.703125 0.0546875,14.8420139 0.1484375,14.9461806 L3.6484375,18.8350694 C3.7421875,18.9392361 3.8671875,19 4,19 C4.1328125,19 4.2578125,18.9392361 4.3515625,18.8350694 L7.8515625,14.9461806 C7.9453125,14.8420139 8,14.703125 8,14.5555556 Z" id=""></path>
                    <path d="M8,0.555555556 C8,0.251736111 7.7734375,0 7.5,0 L0.5,0 C0.2265625,0 0,0.251736111 0,0.555555556 C0,0.703125 0.0546875,0.842013889 0.1484375,0.946180556 L3.6484375,4.83506944 C3.7421875,4.93923611 3.8671875,5 4,5 C4.1328125,5 4.2578125,4.93923611 4.3515625,4.83506944 L7.8515625,0.946180556 C7.9453125,0.842013889 8,0.703125 8,0.555555556 Z" id="-copy" transform="translate(4.000000, 2.500000) scale(1, -1) translate(-4.000000, -2.500000) "></path>
                </g>
            </g>
        </g>
    </g>
</svg>