<?xml version="1.0" encoding="UTF-8"?>
<svg width="8px" height="14px" viewBox="0 0 8 14" version="1.1" xmlns="http://www.w3.org/2000/svg" xmlns:xlink="http://www.w3.org/1999/xlink">
    <defs></defs>
    <g stroke="none" stroke-width="1" fill="none" fill-rule="evenodd">
        <g transform="translate(-826.000000, -468.000000)" fill="#161616">
            <g transform="translate(402.000000, 454.000000)">
                <g transform="translate(424.000000, 14.000000)">
                    <path d="M8,9.55555556 C8,9.25173611 7.7734375,9 7.5,9 L0.5,9 C0.2265625,9 0,9.25173611 0,9.55555556 C0,9.703125 0.0546875,9.84201389 0.1484375,9.94618056 L3.6484375,13.8350694 C3.7421875,13.9392361 3.8671875,14 4,14 C4.1328125,14 4.2578125,13.9392361 4.3515625,13.8350694 L7.8515625,9.94618056 C7.9453125,9.84201389 8,9.703125 8,9.55555556 Z" id=""></path>
                    <path d="M8,0.555555556 C8,0.251736111 7.7734375,0 7.5,0 L0.5,0 C0.2265625,0 0,0.251736111 0,0.555555556 C0,0.703125 0.0546875,0.842013889 0.1484375,0.946180556 L3.6484375,4.83506944 C3.7421875,4.93923611 3.8671875,5 4,5 C4.1328125,5 4.2578125,4.93923611 4.3515625,4.83506944 L7.8515625,0.946180556 C7.9453125,0.842013889 8,0.703125 8,0.555555556 Z" id="-copy" transform="translate(4.000000, 2.500000) scale(1, -1) translate(-4.000000, -2.500000) "></path>
                </g>
            </g>
        </g>
    </g>
</svg>